<?xml version="1.0" encoding="UTF-8" standalone="no"?>
<!-- Created with Inkscape (http://www.inkscape.org/) -->

<svg
   xmlns:dc="http://purl.org/dc/elements/1.1/"
   xmlns:cc="http://creativecommons.org/ns#"
   xmlns:rdf="http://www.w3.org/1999/02/22-rdf-syntax-ns#"
   xmlns:svg="http://www.w3.org/2000/svg"
   xmlns="http://www.w3.org/2000/svg"
   xmlns:sodipodi="http://sodipodi.sourceforge.net/DTD/sodipodi-0.dtd"
   xmlns:inkscape="http://www.inkscape.org/namespaces/inkscape"
   width="1000"
   height="1000"
   id="svg2"
   version="1.1"
   inkscape:version="0.48.4 r9939"
   sodipodi:docname="Camera.pdf"
   enable-background="new">
  <sodipodi:namedview
     id="base"
     pagecolor="#ffffff"
     bordercolor="#666666"
     borderopacity="1.0"
     inkscape:pageopacity="0.0"
     inkscape:pageshadow="2"
     inkscape:zoom="0.7"
     inkscape:cx="195.65264"
     inkscape:cy="742.32347"
     inkscape:document-units="px"
     inkscape:current-layer="g4049"
     showgrid="true"
     inkscape:window-width="1280"
     inkscape:window-height="753"
     inkscape:window-x="0"
     inkscape:window-y="25"
     inkscape:window-maximized="1"
     inkscape:snap-object-midpoints="true"
     inkscape:snap-center="true"
     inkscape:snap-grids="false"
     inkscape:snap-to-guides="false">
    <inkscape:grid
       type="xygrid"
       id="grid2991"
       empspacing="5"
       visible="true"
       enabled="true"
       snapvisiblegridlinesonly="true"
       spacingx="20px"
       spacingy="20px"
       dotted="false" />
  </sodipodi:namedview>
  <defs
     id="defs4" />
  <metadata
     id="metadata7">
    <rdf:RDF>
      <cc:Work
         rdf:about="">
        <dc:format>image/svg+xml</dc:format>
        <dc:type
           rdf:resource="http://purl.org/dc/dcmitype/StillImage" />
        <dc:title></dc:title>
      </cc:Work>
    </rdf:RDF>
  </metadata>
  <g
     inkscape:groupmode="layer"
     id="layer3"
     inkscape:label="Background"
     sodipodi:insensitive="true"
     style="display:none">
    <rect
       style="fill:#000000;stroke:#ffffff;stroke-opacity:1"
       id="rect32464"
       width="1640"
       height="1400"
       x="-280"
       y="-200" />
  </g>
  <g
     inkscape:groupmode="layer"
     id="layer1"
     inkscape:label="Black"
     style="display:none"
     sodipodi:insensitive="true">
    <g
       id="g32448">
      <path
         inkscape:connector-curvature="0"
         id="path3205"
         style="fill:none;stroke:#000000;stroke-width:0.5pt;stroke-linecap:butt;stroke-linejoin:miter;stroke-opacity:1"
         d="M 0,0 0,1000 M 20,0 20,1000 M 40,0 40,1000 M 60,0 60,1000 M 80,0 80,1000 M 100,0 100,1000 M 120,0 120,1000 M 140,0 140,1000 M 160,0 160,1000 M 180,0 180,1000 M 200,0 200,1000 M 220,0 220,1000 M 240,0 240,1000 M 260,0 260,1000 M 280,0 280,1000 M 300,0 300,1000 M 320,0 320,1000 M 340,0 340,1000 M 360,0 360,1000 M 380,0 380,1000 M 400,0 400,1000 M 420,0 420,1000 M 440,0 440,1000 M 460,0 460,1000 M 480,0 480,1000 M 500,0 500,1000 M 520,0 520,1000 M 540,0 540,1000 M 560,0 560,1000 M 580,0 580,1000 M 600,0 600,1000 M 620,0 620,1000 M 640,0 640,1000 M 660,0 660,1000 M 680,0 680,1000 M 700,0 700,1000 M 720,0 720,1000 M 740,0 740,1000 M 760,0 760,1000 M 780,0 780,1000 M 800,0 800,1000 M 820,0 820,1000 M 840,0 840,1000 M 860,0 860,1000 M 880,0 880,1000 M 900,0 900,1000 M 920,0 920,1000 M 940,0 940,1000 M 960,0 960,1000 M 980,0 l 0,1000 m 20,-1000 0,1000 M 0,0 1000,0 M 0,20 1000,20 M 0,40 1000,40 M 0,60 1000,60 M 0,80 1000,80 M 0,100 1000,100 M 0,120 1000,120 M 0,140 1000,140 M 0,160 1000,160 M 0,180 1000,180 M 0,200 1000,200 M 0,220 1000,220 M 0,240 1000,240 M 0,260 1000,260 M 0,280 1000,280 M 0,300 1000,300 M 0,320 1000,320 M 0,340 1000,340 M 0,360 1000,360 M 0,380 1000,380 M 0,400 1000,400 M 0,420 1000,420 M 0,440 1000,440 M 0,460 1000,460 M 0,480 1000,480 M 0,500 1000,500 M 0,520 1000,520 M 0,540 1000,540 M 0,560 1000,560 M 0,580 1000,580 M 0,600 1000,600 M 0,620 1000,620 M 0,640 1000,640 M 0,660 1000,660 M 0,680 1000,680 M 0,700 1000,700 M 0,720 1000,720 M 0,740 1000,740 M 0,760 1000,760 M 0,780 1000,780 M 0,800 1000,800 M 0,820 1000,820 M 0,840 1000,840 M 0,860 1000,860 M 0,880 1000,880 M 0,900 1000,900 M 0,920 1000,920 M 0,940 1000,940 M 0,960 1000,960 M 0,980 l 1000,0 m -1000,20 1000,0" />
      <path
         inkscape:connector-curvature="0"
         id="path3207"
         style="fill:none;stroke:#000000;stroke-width:2pt;stroke-linecap:butt;stroke-linejoin:miter;stroke-opacity:1"
         d="M 0,0 0,1000 M 100,0 100,1000 M 200,0 200,1000 M 300,0 300,1000 M 400,0 400,1000 M 500,0 500,1000 M 600,0 600,1000 M 700,0 700,1000 M 800,0 800,1000 M 900,0 900,1000 M 1000,0 l 0,1000 M 0,0 1000,0 M 0,100 1000,100 M 0,200 1000,200 M 0,300 1000,300 M 0,400 1000,400 M 0,500 1000,500 M 0,600 1000,600 M 0,700 1000,700 M 0,800 1000,800 M 0,900 1000,900 M 0,1000 l 1000,0" />
      <path
         inkscape:connector-curvature="0"
         id="path3209"
         style="fill:none;stroke:#000000;stroke-width:5pt;stroke-linecap:butt;stroke-linejoin:miter;stroke-opacity:1"
         d="M 0,0 0,1000 M 500,0 500,1000 M 1000,0 l 0,1000 M 0,0 1000,0 M 0,500 1000,500 M 0,1000 l 1000,0" />
    </g>
  </g>
  <g
     sodipodi:insensitive="true"
     style="display:none"
     inkscape:label="Gray Single Lines"
     id="g32466"
     inkscape:groupmode="layer">
    <path
       inkscape:connector-curvature="0"
       id="path32470"
       style="fill:#999999;stroke:#999999;stroke-width:1;stroke-linecap:butt;stroke-linejoin:miter;stroke-miterlimit:4;stroke-opacity:1;stroke-dasharray:none"
       d="M 0,0 0,1000 M 20,0 20,1000 M 40,0 40,1000 M 60,0 60,1000 M 80,0 80,1000 M 100,0 100,1000 M 120,0 120,1000 M 140,0 140,1000 M 160,0 160,1000 M 180,0 180,1000 M 200,0 200,1000 M 220,0 220,1000 M 240,0 240,1000 M 260,0 260,1000 M 280,0 280,1000 M 300,0 300,1000 M 320,0 320,1000 M 340,0 340,1000 M 360,0 360,1000 M 380,0 380,1000 M 400,0 400,1000 M 420,0 420,1000 M 440,0 440,1000 M 460,0 460,1000 M 480,0 480,1000 M 500,0 500,1000 M 520,0 520,1000 M 540,0 540,1000 M 560,0 560,1000 M 580,0 580,1000 M 600,0 600,1000 M 620,0 620,1000 M 640,0 640,1000 M 660,0 660,1000 M 680,0 680,1000 M 700,0 700,1000 M 720,0 720,1000 M 740,0 740,1000 M 760,0 760,1000 M 780,0 780,1000 M 800,0 800,1000 M 820,0 820,1000 M 840,0 840,1000 M 860,0 860,1000 M 880,0 880,1000 M 900,0 900,1000 M 920,0 920,1000 M 940,0 940,1000 M 960,0 960,1000 M 980,0 l 0,1000 m 20,-1000 0,1000 M 0,0 1000,0 M 0,20 1000,20 M 0,40 1000,40 M 0,60 1000,60 M 0,80 1000,80 M 0,100 1000,100 M 0,120 1000,120 M 0,140 1000,140 M 0,160 1000,160 M 0,180 1000,180 M 0,200 1000,200 M 0,220 1000,220 M 0,240 1000,240 M 0,260 1000,260 M 0,280 1000,280 M 0,300 1000,300 M 0,320 1000,320 M 0,340 1000,340 M 0,360 1000,360 M 0,380 1000,380 M 0,400 1000,400 M 0,420 1000,420 M 0,440 1000,440 M 0,460 1000,460 M 0,480 1000,480 M 0,500 1000,500 M 0,520 1000,520 M 0,540 1000,540 M 0,560 1000,560 M 0,580 1000,580 M 0,600 1000,600 M 0,620 1000,620 M 0,640 1000,640 M 0,660 1000,660 M 0,680 1000,680 M 0,700 1000,700 M 0,720 1000,720 M 0,740 1000,740 M 0,760 1000,760 M 0,780 1000,780 M 0,800 1000,800 M 0,820 1000,820 M 0,840 1000,840 M 0,860 1000,860 M 0,880 1000,880 M 0,900 1000,900 M 0,920 1000,920 M 0,940 1000,940 M 0,960 1000,960 M 0,980 l 1000,0 m -1000,20 1000,0" />
  </g>
  <g
     inkscape:groupmode="layer"
     id="g37344"
     inkscape:label="Black Single Lines"
     style="display:none"
     sodipodi:insensitive="true">
    <path
       d="M 0,0 0,1000 M 20,0 20,1000 M 40,0 40,1000 M 60,0 60,1000 M 80,0 80,1000 M 100,0 100,1000 M 120,0 120,1000 M 140,0 140,1000 M 160,0 160,1000 M 180,0 180,1000 M 200,0 200,1000 M 220,0 220,1000 M 240,0 240,1000 M 260,0 260,1000 M 280,0 280,1000 M 300,0 300,1000 M 320,0 320,1000 M 340,0 340,1000 M 360,0 360,1000 M 380,0 380,1000 M 400,0 400,1000 M 420,0 420,1000 M 440,0 440,1000 M 460,0 460,1000 M 480,0 480,1000 M 500,0 500,1000 M 520,0 520,1000 M 540,0 540,1000 M 560,0 560,1000 M 580,0 580,1000 M 600,0 600,1000 M 620,0 620,1000 M 640,0 640,1000 M 660,0 660,1000 M 680,0 680,1000 M 700,0 700,1000 M 720,0 720,1000 M 740,0 740,1000 M 760,0 760,1000 M 780,0 780,1000 M 800,0 800,1000 M 820,0 820,1000 M 840,0 840,1000 M 860,0 860,1000 M 880,0 880,1000 M 900,0 900,1000 M 920,0 920,1000 M 940,0 940,1000 M 960,0 960,1000 M 980,0 l 0,1000 m 20,-1000 0,1000 M 0,0 1000,0 M 0,20 1000,20 M 0,40 1000,40 M 0,60 1000,60 M 0,80 1000,80 M 0,100 1000,100 M 0,120 1000,120 M 0,140 1000,140 M 0,160 1000,160 M 0,180 1000,180 M 0,200 1000,200 M 0,220 1000,220 M 0,240 1000,240 M 0,260 1000,260 M 0,280 1000,280 M 0,300 1000,300 M 0,320 1000,320 M 0,340 1000,340 M 0,360 1000,360 M 0,380 1000,380 M 0,400 1000,400 M 0,420 1000,420 M 0,440 1000,440 M 0,460 1000,460 M 0,480 1000,480 M 0,500 1000,500 M 0,520 1000,520 M 0,540 1000,540 M 0,560 1000,560 M 0,580 1000,580 M 0,600 1000,600 M 0,620 1000,620 M 0,640 1000,640 M 0,660 1000,660 M 0,680 1000,680 M 0,700 1000,700 M 0,720 1000,720 M 0,740 1000,740 M 0,760 1000,760 M 0,780 1000,780 M 0,800 1000,800 M 0,820 1000,820 M 0,840 1000,840 M 0,860 1000,860 M 0,880 1000,880 M 0,900 1000,900 M 0,920 1000,920 M 0,940 1000,940 M 0,960 1000,960 M 0,980 l 1000,0 m -1000,20 1000,0"
       style="fill:#000000;stroke:#000000;stroke-width:1;stroke-linecap:butt;stroke-linejoin:miter;stroke-miterlimit:4;stroke-opacity:1;stroke-dasharray:none"
       id="path37346"
       inkscape:connector-curvature="0" />
  </g>
  <g
     inkscape:groupmode="layer"
     id="layer4"
     inkscape:label="Cameras"
     style="display:none"
     sodipodi:insensitive="true">
    <path
       style="fill:none;stroke:#000080;stroke-width:2;stroke-linecap:butt;stroke-linejoin:miter;stroke-miterlimit:4;stroke-opacity:1;stroke-dasharray:none"
       d="m -160,780 1280,0"
       id="path37467"
       inkscape:connector-curvature="0" />
    <path
       style="fill:none;stroke:#000080;stroke-width:2;stroke-linecap:butt;stroke-linejoin:miter;stroke-miterlimit:4;stroke-opacity:1;stroke-dasharray:none"
       d="m 140,-120 0,1180"
       id="path37363"
       inkscape:connector-curvature="0" />
    <g
       id="g37471"
       transform="translate(0,40.480076)">
      <rect
         y="740.96021"
         x="60.960182"
         height="78.079643"
         width="158.07964"
         id="rect37429"
         style="fill:#ffffff;fill-opacity:1;stroke:#000080;stroke-width:2;stroke-miterlimit:4;stroke-opacity:1;stroke-dasharray:none" />
      <path
         inkscape:connector-curvature="0"
         id="path37437"
         d="m 140,740 -80,-80 160,0 z"
         style="fill:#ffffff;fill-opacity:1;stroke:#000080;stroke-width:2;stroke-linecap:butt;stroke-linejoin:miter;stroke-miterlimit:4;stroke-opacity:1;stroke-dasharray:none" />
    </g>
    <path
       style="fill:none;stroke:#800000;stroke-width:2;stroke-linecap:butt;stroke-linejoin:miter;stroke-miterlimit:4;stroke-opacity:1;stroke-dasharray:none"
       d="m 740,-120 0,1180"
       id="path37481"
       inkscape:connector-curvature="0" />
    <path
       style="fill:none;stroke:#800000;stroke-width:2;stroke-linecap:butt;stroke-linejoin:miter;stroke-miterlimit:4;stroke-opacity:1;stroke-dasharray:none"
       d="m 1120,180 -1280,0"
       id="path37483"
       inkscape:connector-curvature="0" />
    <g
       id="g37477">
      <rect
         transform="matrix(0,-1,1,0,0,0)"
         y="741.46021"
         x="-259.03983"
         height="78.079643"
         width="158.07964"
         id="rect37429-8"
         style="fill:#ffffff;fill-opacity:1;stroke:#800000;stroke-width:2;stroke-miterlimit:4;stroke-opacity:1;stroke-dasharray:none" />
      <path
         inkscape:connector-curvature="0"
         id="path37437-7"
         d="m 740.49999,180 -80,80 0,-160 z"
         style="fill:#ffffff;fill-opacity:1;stroke:#800000;stroke-width:2;stroke-linecap:butt;stroke-linejoin:miter;stroke-miterlimit:4;stroke-opacity:1;stroke-dasharray:none" />
    </g>
  </g>
  <g
     style="display:inline"
     inkscape:label="Camera"
     id="g4049"
     inkscape:groupmode="layer">
    <path
       style="fill:#800000;stroke:#ff0000;stroke-width:2;stroke-linecap:butt;stroke-linejoin:miter;stroke-miterlimit:4;stroke-opacity:1;stroke-dasharray:8, 8;stroke-dashoffset:0"
       d="M -99.001682,780 1099.0017,780"
       id="path5181"
       inkscape:connector-curvature="0" />
    <path
       style="fill:none;stroke:#0000ff;stroke-width:2;stroke-linecap:butt;stroke-linejoin:miter;stroke-miterlimit:4;stroke-opacity:1;stroke-dasharray:8, 8;stroke-dashoffset:0"
       d="m 141,1139.0014 0,-1438.00279"
       id="path5179"
       inkscape:connector-curvature="0"
       sodipodi:nodetypes="cc" />
    <path
       style="fill:none;stroke:#ff0000;stroke-width:1.99833536;stroke-linecap:butt;stroke-linejoin:miter;stroke-miterlimit:4;stroke-opacity:1;stroke-dasharray:none;display:inline"
       d="M -99.001698,500 1099.0017,500"
       id="path5181-4"
       inkscape:connector-curvature="0" />
    <g
       transform="matrix(0.69278076,0,0,0.69278076,-269.97387,-77.910967)"
       style="fill:#0000ff"
       id="g5439">
      <g
         style="font-style:normal;font-variant:normal;font-weight:normal;font-stretch:normal;letter-spacing:normal;word-spacing:normal;text-anchor:start;fill:#0000ff;fill-opacity:1;fill-rule:evenodd;stroke:#000000;stroke-linecap:butt;stroke-linejoin:miter;stroke-miterlimit:10.43299961;stroke-opacity:1;stroke-dasharray:none;stroke-dashoffset:0"
         word-spacing="normal"
         letter-spacing="normal"
         font-size-adjust="none"
         font-stretch="normal"
         font-weight="normal"
         font-variant="normal"
         font-style="normal"
         stroke-miterlimit="10.433"
         xml:space="preserve"
         transform="matrix(1.4285714,0,0,-1.4285714,-250,750)"
         id="g5441"><path
           inkscape:connector-curvature="0"
           style="fill:#0000ff;stroke-width:0"
           id="path5443"
           d="m 473.3,420.59 0.54,0.55 0.53,0.57 0.51,0.57 0.49,0.58 0.24,0.29 0.23,0.28 0.22,0.29 0.22,0.28 0.21,0.28 0.2,0.27 0.19,0.26 0.19,0.26 0.17,0.25 0.17,0.25 0.16,0.23 0.15,0.23 0.14,0.22 0.12,0.2 0.12,0.19 0.11,0.18 0.1,0.17 0.08,0.15 0.07,0.14 0.06,0.12 0.05,0.11 0.03,0.08 0.02,0.07 0.01,0.05 c 0,0.5 -0.39,0.5 -0.69,0.5 -0.59,0 -0.65,-0.04 -0.95,-0.64 -1.64,-2.84 -2.28,-3.09 -3.08,-3.09 -0.91,0 -1.41,0.5 -2.34,1.8 -0.61,0.79 -1.46,1.93 -3.05,1.93 -3.69,0 -5.83,-4.67 -5.83,-5.67 0,-0.45 0.35,-0.54 0.75,-0.54 0.6,0 0.64,0.09 0.89,0.68 0.41,1.11 1.85,2.35 3.69,2.35 1,0 1.89,-0.39 3,-0.89 1.64,-0.75 2.19,-0.75 2.94,-0.75 -0.75,-0.85 -1.21,-1.39 -2,-2.19 l -8.17,-8.13 c -2.79,-2.73 -5.18,-6.42 -5.18,-6.92 0,-0.5 0.44,-0.5 0.75,-0.5 0.55,0 0.6,0.1 0.8,0.46 0.69,1.04 2.03,3.28 3.92,3.28 1.11,0 1.5,-0.55 2.39,-1.8 0.82,-0.98 1.55,-1.94 3.1,-1.94 4.82,0 7.53,6.47 7.53,7.67 0,0.5 -0.61,0.5 -0.75,0.5 -0.6,0 -0.66,-0.15 -0.85,-0.79 -0.9,-2.5 -3.29,-4.19 -5.43,-4.19 -1,0 -1.8,0.34 -2.78,0.8 -1.5,0.64 -2.1,0.84 -3.1,0.84 -0.25,0 -0.65,0 -0.9,-0.05 0.35,0.41 1.4,1.64 2.79,3.05 z" /><polygon
           style="fill:#0000ff;stroke-width:0"
           id="polygon5445"
           points="495.79,415.51 495.79,418.4 482.59,418.4 482.59,415.51 " /><path
           inkscape:connector-curvature="0"
           style="fill:#0000ff;stroke-width:0"
           id="path5447"
           d="m 515.19,409.98 0.02,-0.19 0.03,-0.18 0.04,-0.19 0.04,-0.18 0.05,-0.19 0.05,-0.18 0.07,-0.18 0.07,-0.18 0.07,-0.18 0.08,-0.17 0.09,-0.18 0.09,-0.16 0.1,-0.16 0.11,-0.16 0.11,-0.16 0.12,-0.14 0.13,-0.14 0.13,-0.14 0.14,-0.13 0.14,-0.12 0.16,-0.12 0.15,-0.1 0.16,-0.1 0.17,-0.09 0.18,-0.08 0.18,-0.07 0.19,-0.06 0.19,-0.05 0.2,-0.04 0.2,-0.03 0.22,-0.02 0.21,-0.01 c 1.03,0 4.08,0.71 4.08,4.74 v 2.78 h -1.25 v -2.78 c 0,-2.89 -1.23,-3.19 -1.8,-3.19 -1.64,0 -1.84,2.23 -1.84,2.48 v 9.97 c 0,2.1 0,4.03 -1.78,5.88 -1.96,1.93 -4.44,2.73 -6.83,2.73 -4.09,0 -7.53,-2.33 -7.53,-5.62 0,-1.49 1,-2.35 2.3,-2.35 1.39,0 2.29,1 2.29,2.3 0,0.59 -0.25,2.23 -2.54,2.3 1.34,1.73 3.78,2.28 5.37,2.28 2.45,0 5.28,-1.94 5.28,-6.38 v -1.84 -1.05 -4.98 c 0,-4.74 -3.58,-6.42 -5.83,-6.42 -2.43,0 -4.48,1.75 -4.48,4.23 0,2.73 2.09,6.88 10.31,7.17 h 0 v 1.05 c -2.53,-0.14 -6.01,-0.3 -9.15,-1.8 -3.74,-1.69 -4.99,-4.28 -4.99,-6.47 0,-4.03 4.83,-5.28 7.97,-5.28 3.3,0 5.58,1.99 6.53,4.33 z" /><path
           inkscape:connector-curvature="0"
           style="fill:#0000ff;stroke-width:0"
           id="path5449"
           d="m 537.85,417.9 0.29,0.36 0.29,0.37 0.3,0.38 0.3,0.39 0.62,0.78 0.3,0.38 0.31,0.39 0.3,0.37 0.29,0.37 0.29,0.35 0.28,0.34 0.14,0.16 0.13,0.16 0.14,0.16 0.12,0.15 0.13,0.14 0.12,0.14 0.12,0.13 0.11,0.12 c 1.55,1.78 3.59,2.53 5.94,2.58 v 1.55 c -1.3,-0.1 -2.8,-0.14 -4.1,-0.14 -1.48,0 -4.12,0.09 -4.78,0.14 v -1.55 c 1.05,-0.09 1.46,-0.73 1.46,-1.53 0,-0.8 -0.5,-1.45 -0.75,-1.75 l -3.1,-3.89 -3.87,5.03 c -0.46,0.5 -0.46,0.61 -0.46,0.91 0,0.75 0.75,1.18 1.74,1.23 v 1.55 c -1.28,-0.05 -4.58,-0.14 -5.38,-0.14 -1.04,0 -3.39,0.04 -4.73,0.14 v -1.55 c 3.48,0 3.55,-0.05 5.87,-3.03 l 4.94,-6.42 -4.69,-5.94 c -2.39,-2.89 -5.32,-2.98 -6.37,-2.98 v -1.55 c 1.3,0.09 2.84,0.16 4.14,0.16 1.44,0 3.53,-0.11 4.73,-0.16 v 1.55 c -1.09,0.14 -1.45,0.79 -1.45,1.54 0,1.1 1.45,2.74 4.48,6.33 l 3.8,-4.98 c 0.39,-0.55 1.05,-1.35 1.05,-1.64 0,-0.46 -0.45,-1.21 -1.8,-1.25 v -1.55 c 1.49,0.05 4.28,0.16 5.38,0.16 1.34,0 3.29,-0.07 4.78,-0.16 v 1.55 c -2.69,0 -3.58,0.09 -4.74,1.54 z" /><path
           inkscape:connector-curvature="0"
           style="fill:#0000ff;stroke-width:0"
           id="path5451"
           d="m 558.65,428.21 -6.97,-0.54 v -1.55 c 3.23,0 3.68,-0.3 3.68,-2.73 v -13.41 c 0,-2.23 -0.54,-2.23 -3.89,-2.23 v -1.55 c 1.6,0.05 4.28,0.16 5.49,0.16 1.75,0 3.48,-0.11 5.19,-0.16 v 1.55 c -3.3,0 -3.5,0.25 -3.5,2.18 z" /><path
           inkscape:connector-curvature="0"
           style="fill:#0000ff;stroke-width:0"
           id="path5453"
           d="m 558.85,436.89 -0.01,0.14 -0.01,0.15 -0.01,0.14 -0.03,0.14 -0.03,0.13 -0.04,0.13 -0.04,0.13 -0.05,0.12 -0.05,0.12 -0.06,0.12 -0.07,0.11 -0.07,0.1 -0.08,0.1 -0.08,0.1 -0.08,0.1 -0.09,0.08 -0.09,0.09 -0.1,0.08 -0.1,0.07 -0.11,0.07 -0.1,0.07 -0.11,0.06 -0.12,0.05 -0.11,0.05 -0.12,0.04 -0.12,0.04 -0.13,0.03 -0.12,0.03 -0.13,0.02 -0.12,0.01 -0.13,0.01 -0.13,0.01 c -1.55,0 -2.64,-1.35 -2.64,-2.64 0,-1.35 1.09,-2.64 2.64,-2.64 1.39,0 2.64,1.04 2.64,2.64 z" /><path
           inkscape:connector-curvature="0"
           style="fill:#0000ff;stroke-width:0"
           id="path5455"
           d="m 573.99,415.87 0.11,-0.02 0.13,-0.02 0.14,-0.03 0.15,-0.04 0.17,-0.04 0.18,-0.04 0.19,-0.05 0.2,-0.06 0.21,-0.06 0.21,-0.07 0.21,-0.08 0.22,-0.08 0.22,-0.1 0.22,-0.1 0.22,-0.11 0.22,-0.12 0.22,-0.14 0.21,-0.14 0.2,-0.15 0.2,-0.16 0.19,-0.18 0.18,-0.19 0.17,-0.2 0.16,-0.21 0.14,-0.22 0.07,-0.12 0.06,-0.12 0.06,-0.13 0.05,-0.12 0.05,-0.14 0.05,-0.13 0.04,-0.14 0.03,-0.14 0.03,-0.15 0.03,-0.15 0.02,-0.16 0.01,-0.15 0.01,-0.17 0.01,-0.16 c 0,-2.53 -1.75,-4.53 -5.63,-4.53 -4.19,0 -5.98,2.84 -6.94,7.07 -0.14,0.64 -0.18,0.85 -0.68,0.85 -0.66,0 -0.66,-0.35 -0.66,-1.25 v -6.58 c 0,-0.84 0,-1.19 0.55,-1.19 0.25,0 0.29,0.05 1.25,1 0.09,0.1 0.09,0.19 1,1.14 2.18,-2.09 4.43,-2.14 5.48,-2.14 5.72,0 8.02,3.35 8.02,6.92 0,2.64 -1.5,4.14 -2.1,4.74 -1.64,1.59 -3.59,2 -5.69,2.39 -2.78,0.55 -6.12,1.2 -6.12,4.09 0,1.74 1.3,3.78 5.58,3.78 5.48,0 5.73,-4.48 5.83,-6.03 0.06,-0.45 0.5,-0.45 0.61,-0.45 0.64,0 0.64,0.25 0.64,1.2 v 5.03 c 0,0.85 0,1.19 -0.55,1.19 -0.25,0 -0.34,0 -1,-0.59 -0.14,-0.21 -0.64,-0.64 -0.84,-0.8 -1.9,1.39 -3.94,1.39 -4.69,1.39 -6.08,0 -7.97,-3.33 -7.97,-6.12 0,-1.74 0.8,-3.14 2.14,-4.24 1.59,-1.29 3,-1.59 6.58,-2.28 z" /></g>    </g>
    <path
       sodipodi:nodetypes="cc"
       inkscape:connector-curvature="0"
       id="path6265"
       d="M 380,100 141.42857,782.85714"
       style="fill:none;stroke:#000000;stroke-width:2;stroke-linecap:butt;stroke-linejoin:miter;stroke-miterlimit:4;stroke-opacity:1;stroke-dasharray:none" />
    <path
       sodipodi:nodetypes="cc"
       inkscape:connector-curvature="0"
       id="path6267"
       d="M 860,60 140,780"
       style="fill:none;stroke:#000000;stroke-width:2;stroke-linecap:butt;stroke-linejoin:miter;stroke-miterlimit:4;stroke-opacity:1;stroke-dasharray:none" />
    <path
       sodipodi:nodetypes="cc"
       inkscape:connector-curvature="0"
       id="path6271"
       d="M 940,380 145.71428,774.28572"
       style="fill:none;stroke:#000000;stroke-width:2;stroke-linecap:butt;stroke-linejoin:miter;stroke-miterlimit:4;stroke-opacity:1;stroke-dasharray:none" />
    <g
       id="g6273">
      <rect
         y="780.99927"
         x="60.999252"
         height="78.001495"
         width="158.0015"
         id="rect37429-9"
         style="fill:#ffffff;fill-opacity:1;stroke:#000000;stroke-width:4;stroke-miterlimit:4;stroke-opacity:1;stroke-dasharray:none" />
      <path
         inkscape:connector-curvature="0"
         id="path37437-8"
         d="m 140,779.01842 -79.018423,-78.03685 158.036843,0 z"
         style="fill:#ffffff;fill-opacity:1;stroke:#000000;stroke-width:4;stroke-linecap:butt;stroke-linejoin:miter;stroke-miterlimit:4;stroke-opacity:1;stroke-dasharray:none" />
    </g>
    <path
       transform="translate(-161.42859,18.571426)"
       d="m 547.14287,81.428574 a 5.7142859,5.7142859 0 1 1 -11.42857,0 5.7142859,5.7142859 0 1 1 11.42857,0 z"
       sodipodi:ry="5.7142859"
       sodipodi:rx="5.7142859"
       sodipodi:cy="81.428574"
       sodipodi:cx="541.42859"
       id="path6702"
       style="fill:#000000;fill-opacity:1;stroke:#000000;stroke-width:0;stroke-linecap:round;stroke-linejoin:miter;stroke-miterlimit:4;stroke-opacity:1;stroke-dasharray:none;stroke-dashoffset:0"
       sodipodi:type="arc" />
    <path
       d="m 547.14287,81.428574 a 5.7142859,5.7142859 0 1 1 -11.42857,0 5.7142859,5.7142859 0 1 1 11.42857,0 z"
       sodipodi:ry="5.7142859"
       sodipodi:rx="5.7142859"
       sodipodi:cy="81.428574"
       sodipodi:cx="541.42859"
       id="path6702-9"
       style="fill:#000000;fill-opacity:1;stroke:#000000;stroke-width:0;stroke-linecap:round;stroke-linejoin:miter;stroke-miterlimit:4;stroke-opacity:1;stroke-dasharray:none;stroke-dashoffset:0;display:inline"
       sodipodi:type="arc"
       transform="translate(158.57141,418.57143)" />
    <path
       d="m 547.14287,81.428574 a 5.7142859,5.7142859 0 1 1 -11.42857,0 5.7142859,5.7142859 0 1 1 11.42857,0 z"
       sodipodi:ry="5.7142859"
       sodipodi:rx="5.7142859"
       sodipodi:cy="81.428574"
       sodipodi:cx="541.42859"
       id="path6702-7"
       style="fill:#000000;fill-opacity:1;stroke:#000000;stroke-width:0;stroke-linecap:round;stroke-linejoin:miter;stroke-miterlimit:4;stroke-opacity:1;stroke-dasharray:none;stroke-dashoffset:0;display:inline"
       sodipodi:type="arc"
       transform="translate(-230.35895,218.56633)" />
    <path
       d="m 547.14287,81.428574 a 5.7142859,5.7142859 0 1 1 -11.42857,0 5.7142859,5.7142859 0 1 1 11.42857,0 z"
       sodipodi:ry="5.7142859"
       sodipodi:rx="5.7142859"
       sodipodi:cy="81.428574"
       sodipodi:cx="541.42859"
       id="path6702-9-2"
       style="fill:#000000;fill-opacity:1;stroke:#000000;stroke-width:0;stroke-linecap:round;stroke-linejoin:miter;stroke-miterlimit:4;stroke-opacity:1;stroke-dasharray:none;stroke-dashoffset:0;display:inline"
       sodipodi:type="arc"
       transform="translate(-301.42859,418.57143)" />
    <path
       d="m 547.14287,81.428574 a 5.7142859,5.7142859 0 1 1 -11.42857,0 5.7142859,5.7142859 0 1 1 11.42857,0 z"
       sodipodi:ry="5.7142859"
       sodipodi:rx="5.7142859"
       sodipodi:cy="81.428574"
       sodipodi:cx="541.42859"
       id="path6702-9-2-8"
       style="fill:#000000;fill-opacity:1;stroke:#000000;stroke-width:0;stroke-linecap:round;stroke-linejoin:miter;stroke-miterlimit:4;stroke-opacity:1;stroke-dasharray:none;stroke-dashoffset:0;display:inline"
       sodipodi:type="arc"
       transform="translate(-121.42859,418.57143)" />
    <path
       d="m 547.14287,81.428574 a 5.7142859,5.7142859 0 1 1 -11.42857,0 5.7142859,5.7142859 0 1 1 11.42857,0 z"
       sodipodi:ry="5.7142859"
       sodipodi:rx="5.7142859"
       sodipodi:cy="81.428574"
       sodipodi:cx="541.42859"
       id="path6702-9-7"
       style="fill:#000000;fill-opacity:1;stroke:#000000;stroke-width:0;stroke-linecap:round;stroke-linejoin:miter;stroke-miterlimit:4;stroke-opacity:1;stroke-dasharray:none;stroke-dashoffset:0;display:inline"
       sodipodi:type="arc"
       transform="translate(19.17036,278.16023)" />
    <path
       d="m 547.14287,81.428574 a 5.7142859,5.7142859 0 1 1 -11.42857,0 5.7142859,5.7142859 0 1 1 11.42857,0 z"
       sodipodi:ry="5.7142859"
       sodipodi:rx="5.7142859"
       sodipodi:cy="81.428574"
       sodipodi:cx="541.42859"
       id="path6702-9-6"
       style="fill:#000000;fill-opacity:1;stroke:#000000;stroke-width:0;stroke-linecap:round;stroke-linejoin:miter;stroke-miterlimit:4;stroke-opacity:1;stroke-dasharray:none;stroke-dashoffset:0;display:inline"
       sodipodi:type="arc"
       transform="translate(396.96741,298.36328)" />
    <path
       d="m 547.14287,81.428574 a 5.7142859,5.7142859 0 1 1 -11.42857,0 5.7142859,5.7142859 0 1 1 11.42857,0 z"
       sodipodi:ry="5.7142859"
       sodipodi:rx="5.7142859"
       sodipodi:cy="81.428574"
       sodipodi:cx="541.42859"
       id="path6702-9-4"
       style="fill:#000000;fill-opacity:1;stroke:#000000;stroke-width:0;stroke-linecap:round;stroke-linejoin:miter;stroke-miterlimit:4;stroke-opacity:1;stroke-dasharray:none;stroke-dashoffset:0;display:inline"
       sodipodi:type="arc"
       transform="translate(178.77446,119.56628)" />
    <path
       d="m 547.14287,81.428574 a 5.7142859,5.7142859 0 1 1 -11.42857,0 5.7142859,5.7142859 0 1 1 11.42857,0 z"
       sodipodi:ry="5.7142859"
       sodipodi:rx="5.7142859"
       sodipodi:cy="81.428574"
       sodipodi:cx="541.42859"
       id="path6702-9-1"
       style="fill:#000000;fill-opacity:1;stroke:#000000;stroke-width:0;stroke-linecap:round;stroke-linejoin:miter;stroke-miterlimit:4;stroke-opacity:1;stroke-dasharray:none;stroke-dashoffset:0;display:inline"
       sodipodi:type="arc"
       transform="translate(318.17551,-21.855077)" />
    <g
       transform="translate(-158.03195,397.46485)"
       id="g10592">
      <g
         id="g10594"
         transform="matrix(1.4285714,0,0,-1.4285714,-250,750)"
         xml:space="preserve"
         stroke-miterlimit="10.433"
         font-style="normal"
         font-variant="normal"
         font-weight="normal"
         font-stretch="normal"
         font-size-adjust="none"
         letter-spacing="normal"
         word-spacing="normal"
         style="font-style:normal;font-variant:normal;font-weight:normal;font-stretch:normal;letter-spacing:normal;word-spacing:normal;text-anchor:start;fill:none;stroke:#000000;stroke-linecap:butt;stroke-linejoin:miter;stroke-miterlimit:10.43299961;stroke-opacity:1;stroke-dasharray:none;stroke-dashoffset:0"><path
           d="m 481.01,439.53 -1.3,1.25 c -1.48,-1.71 -3.23,-1.71 -3.78,-1.71 -1,0 -1.84,0.16 -3.98,0.86 -2.3,0.74 -3.24,0.85 -3.94,0.85 -0.89,0 -2.25,-0.21 -3.59,-1.55 -0.55,-0.55 -1.89,-2.05 -2.44,-2.59 l 1.3,-1.24 c 1.5,1.69 3.23,1.69 3.78,1.69 1,0 1.84,-0.16 3.98,-0.84 2.3,-0.75 3.25,-0.85 3.94,-0.85 0.91,0 2.25,0.19 3.59,1.53 0.55,0.55 1.89,2.05 2.44,2.6 z"
           id="path10596"
           inkscape:connector-curvature="0"
           style="fill:#000000;stroke-width:0" /><path
           d="m 466.47,408.14 0.21,-0.16 0.2,-0.15 0.2,-0.15 0.2,-0.14 0.21,-0.13 0.2,-0.12 0.2,-0.12 0.2,-0.11 0.21,-0.11 0.2,-0.1 0.2,-0.09 0.2,-0.09 0.2,-0.09 0.21,-0.07 0.2,-0.07 0.2,-0.07 0.2,-0.06 0.2,-0.06 0.4,-0.1 0.4,-0.08 0.39,-0.06 0.4,-0.05 0.39,-0.03 0.39,-0.02 0.38,-0.01 -0.54,1.8 c -0.71,0 -3.05,0 -5.28,2.69 -0.57,0.64 -0.57,0.68 -0.57,1.64 v 10.56 c 0,0.95 0.07,1 0.75,1.69 2,2.04 4.6,2.34 5.69,2.34 3.33,0 6.13,-3.03 6.13,-9.31 0,-7.03 -3.49,-9.61 -6.72,-9.61 l 0.54,-1.8 c 7.47,0 12.55,4.49 12.55,11.41 0,6.62 -4.53,11.31 -11.7,11.31 -3.74,0 -6.38,-1.55 -7.53,-2.44 v 2.44 l -8.82,-0.41 v -2.34 c 3.1,0 3.44,0 3.44,-1.89 v -25.11 h -3.44 v -2.34 c 1.39,0.06 4.39,0.15 6.28,0.15 1.94,0 4.88,-0.09 6.27,-0.15 v 2.34 h -3.44 z"
           id="path10598"
           inkscape:connector-curvature="0"
           style="fill:#000000;stroke-width:0" /></g>    </g>
    <g
       transform="translate(-150.8891,136.03627)"
       id="g10814">
      <g
         word-spacing="normal"
         letter-spacing="normal"
         font-size-adjust="none"
         font-stretch="normal"
         font-weight="normal"
         font-variant="normal"
         font-style="normal"
         stroke-miterlimit="10.433"
         xml:space="preserve"
         transform="matrix(1.4285714,0,0,-1.4285714,-250,750)"
         id="g10816"
         style="font-style:normal;font-variant:normal;font-weight:normal;font-stretch:normal;letter-spacing:normal;word-spacing:normal;text-anchor:start;fill:none;stroke:#000000;stroke-linecap:butt;stroke-linejoin:miter;stroke-miterlimit:10.43299961;stroke-opacity:1;stroke-dasharray:none;stroke-dashoffset:0"><path
           id="path10818"
           d="m 466.47,408.14 0.21,-0.16 0.2,-0.15 0.2,-0.15 0.2,-0.14 0.21,-0.13 0.2,-0.12 0.2,-0.12 0.2,-0.11 0.21,-0.11 0.2,-0.1 0.2,-0.09 0.2,-0.09 0.2,-0.09 0.21,-0.07 0.2,-0.07 0.2,-0.07 0.2,-0.06 0.2,-0.06 0.4,-0.1 0.4,-0.08 0.39,-0.06 0.4,-0.05 0.39,-0.03 0.39,-0.02 0.38,-0.01 -0.54,1.8 c -0.71,0 -3.05,0 -5.28,2.69 -0.57,0.64 -0.57,0.68 -0.57,1.64 v 10.56 c 0,0.95 0.07,1 0.75,1.69 2,2.04 4.6,2.34 5.69,2.34 3.33,0 6.13,-3.03 6.13,-9.31 0,-7.03 -3.49,-9.61 -6.72,-9.61 l 0.54,-1.8 c 7.47,0 12.55,4.49 12.55,11.41 0,6.62 -4.53,11.31 -11.7,11.31 -3.74,0 -6.38,-1.55 -7.53,-2.44 v 2.44 l -8.82,-0.41 v -2.34 c 3.1,0 3.44,0 3.44,-1.89 v -25.11 h -3.44 v -2.34 c 1.39,0.06 4.39,0.15 6.28,0.15 1.94,0 4.88,-0.09 6.27,-0.15 v 2.34 h -3.44 z"
           inkscape:connector-curvature="0"
           style="fill:#000000;stroke-width:0" /><path
           id="path10820"
           d="m 497.43,440.65 0.03,0.06 0.02,0.05 0.02,0.05 0.02,0.05 0.02,0.04 0.02,0.05 0.02,0.04 0.02,0.04 0.01,0.05 0.02,0.04 0.01,0.03 0.01,0.04 0.01,0.04 0.01,0.03 0.01,0.04 0.01,0.03 0.01,0.03 0.01,0.03 0,0.03 0.01,0.03 0,0.03 0.01,0.03 0,0.03 0,0.02 0.01,0.06 0,0.05 0,0.04 0,0.05 c 0,1.08 -0.98,1.92 -2.06,1.92 -1.33,0 -1.73,-1.09 -1.91,-1.64 l -4.61,-15.09 c -0.03,-0.06 -0.17,-0.52 -0.17,-0.56 0,-0.41 1.08,-0.77 1.36,-0.77 0.25,0 0.28,0.08 0.52,0.59 z"
           inkscape:connector-curvature="0"
           style="fill:#000000;stroke-width:0" /></g>    </g>
    <g
       transform="translate(-92.31767,-68.249431)"
       id="g11044">
      <g
         id="g11046"
         transform="matrix(1.4285714,0,0,-1.4285714,-250,750)"
         xml:space="preserve"
         stroke-miterlimit="10.433"
         font-style="normal"
         font-variant="normal"
         font-weight="normal"
         font-stretch="normal"
         font-size-adjust="none"
         letter-spacing="normal"
         word-spacing="normal"
         style="font-style:normal;font-variant:normal;font-weight:normal;font-stretch:normal;letter-spacing:normal;word-spacing:normal;text-anchor:start;fill:none;stroke:#000000;stroke-linecap:butt;stroke-linejoin:miter;stroke-miterlimit:10.43299961;stroke-opacity:1;stroke-dasharray:none;stroke-dashoffset:0"><path
           d="m 466.47,408.14 0.21,-0.16 0.2,-0.15 0.2,-0.15 0.2,-0.14 0.21,-0.13 0.2,-0.12 0.2,-0.12 0.2,-0.11 0.21,-0.11 0.2,-0.1 0.2,-0.09 0.2,-0.09 0.2,-0.09 0.21,-0.07 0.2,-0.07 0.2,-0.07 0.2,-0.06 0.2,-0.06 0.4,-0.1 0.4,-0.08 0.39,-0.06 0.4,-0.05 0.39,-0.03 0.39,-0.02 0.38,-0.01 -0.54,1.8 c -0.71,0 -3.05,0 -5.28,2.69 -0.57,0.64 -0.57,0.68 -0.57,1.64 v 10.56 c 0,0.95 0.07,1 0.75,1.69 2,2.04 4.6,2.34 5.69,2.34 3.33,0 6.13,-3.03 6.13,-9.31 0,-7.03 -3.49,-9.61 -6.72,-9.61 l 0.54,-1.8 c 7.47,0 12.55,4.49 12.55,11.41 0,6.62 -4.53,11.31 -11.7,11.31 -3.74,0 -6.38,-1.55 -7.53,-2.44 v 2.44 l -8.82,-0.41 v -2.34 c 3.1,0 3.44,0 3.44,-1.89 v -25.11 h -3.44 v -2.34 c 1.39,0.06 4.39,0.15 6.28,0.15 1.94,0 4.88,-0.09 6.27,-0.15 v 2.34 h -3.44 z"
           id="path11048"
           inkscape:connector-curvature="0"
           style="fill:#000000;stroke-width:0" /><path
           d="m 497.43,440.65 0.03,0.06 0.02,0.05 0.02,0.05 0.02,0.05 0.02,0.04 0.02,0.05 0.02,0.04 0.02,0.04 0.01,0.05 0.02,0.04 0.01,0.03 0.01,0.04 0.01,0.04 0.01,0.03 0.01,0.04 0.01,0.03 0.01,0.03 0.01,0.03 0,0.03 0.01,0.03 0,0.03 0.01,0.03 0,0.03 0,0.02 0.01,0.06 0,0.05 0,0.04 0,0.05 c 0,1.08 -0.98,1.92 -2.06,1.92 -1.33,0 -1.73,-1.09 -1.91,-1.64 l -4.61,-15.09 c -0.03,-0.06 -0.17,-0.52 -0.17,-0.56 0,-0.41 1.08,-0.77 1.36,-0.77 0.25,0 0.28,0.08 0.52,0.59 z"
           id="path11050"
           inkscape:connector-curvature="0"
           style="fill:#000000;stroke-width:0" /><path
           d="m 508.95,440.65 0.02,0.06 0.03,0.05 0.02,0.05 0.02,0.05 0.02,0.04 0.02,0.05 0.02,0.04 0.02,0.04 0.01,0.05 0.02,0.04 0.01,0.03 0.01,0.04 0.01,0.04 0.01,0.03 0.01,0.04 0.01,0.03 0.01,0.03 0.01,0.03 0,0.03 0.01,0.03 0,0.03 0.01,0.03 0,0.03 0,0.02 0.01,0.06 0,0.05 0,0.04 0,0.05 c 0,1.08 -0.98,1.92 -2.06,1.92 -1.33,0 -1.74,-1.09 -1.91,-1.64 l -4.61,-15.09 c -0.03,-0.06 -0.17,-0.52 -0.17,-0.56 0,-0.41 1.08,-0.77 1.36,-0.77 0.25,0 0.28,0.08 0.52,0.59 z"
           id="path11052"
           inkscape:connector-curvature="0"
           style="fill:#000000;stroke-width:0" /></g>    </g>
    <g
       transform="translate(26.759338,395.04766)"
       id="g11302">
      <g
         word-spacing="normal"
         letter-spacing="normal"
         font-size-adjust="none"
         font-stretch="normal"
         font-weight="normal"
         font-variant="normal"
         font-style="normal"
         stroke-miterlimit="10.433"
         xml:space="preserve"
         transform="matrix(1.4285714,0,0,-1.4285714,-250,750)"
         id="g11304"
         style="font-style:normal;font-variant:normal;font-weight:normal;font-stretch:normal;letter-spacing:normal;word-spacing:normal;text-anchor:start;fill:none;stroke:#000000;stroke-linecap:butt;stroke-linejoin:miter;stroke-miterlimit:10.43299961;stroke-opacity:1;stroke-dasharray:none;stroke-dashoffset:0"><path
           id="path11306"
           d="m 480.17,439.53 -1.29,1.25 c -1.49,-1.71 -3.24,-1.71 -3.79,-1.71 -1,0 -1.84,0.16 -3.98,0.86 -2.3,0.74 -3.23,0.85 -3.94,0.85 -0.89,0 -2.25,-0.21 -3.59,-1.55 -0.55,-0.55 -1.89,-2.05 -2.44,-2.59 l 1.3,-1.24 c 1.5,1.69 3.23,1.69 3.78,1.69 1,0 1.84,-0.16 3.98,-0.84 2.3,-0.75 3.25,-0.85 3.94,-0.85 0.91,0 2.25,0.19 3.59,1.53 0.55,0.55 1.89,2.05 2.44,2.6 z"
           inkscape:connector-curvature="0"
           style="fill:#000000;stroke-width:0" /><path
           id="path11308"
           d="m 477.35,424.68 -0.17,0.23 -0.17,0.22 -0.18,0.21 -0.19,0.21 -0.19,0.21 -0.19,0.19 -0.2,0.19 -0.21,0.19 -0.21,0.18 -0.21,0.17 -0.22,0.16 -0.23,0.16 -0.23,0.15 -0.23,0.15 -0.23,0.14 -0.24,0.13 -0.25,0.12 -0.25,0.12 -0.25,0.11 -0.25,0.1 -0.26,0.09 -0.26,0.09 -0.26,0.08 -0.26,0.07 -0.27,0.06 -0.27,0.06 -0.27,0.04 -0.28,0.04 -0.27,0.03 -0.28,0.02 -0.27,0.02 -0.28,0 c -7.27,0 -12.41,-4.44 -12.41,-11.36 0,-7.03 5.03,-11.36 11.95,-11.36 l 0.5,1.8 c -3.07,0 -6.07,2.89 -6.07,9.51 0,7.07 3.68,9.41 6.68,9.41 3.78,0 6.17,-3.94 6.17,-6.42 v -6.92 c 0,-0.91 0,-1.05 -0.75,-2.1 -1.98,-2.93 -4.53,-3.48 -6.03,-3.48 l -0.5,-1.8 c 2.46,0 4.69,0.71 6.99,2.69 v -9.72 h -3.44 v -2.34 c 1.39,0.06 4.38,0.15 6.28,0.15 1.94,0 4.88,-0.09 6.27,-0.15 v 2.34 h -3.44 v 29.75 h -2.03 z"
           inkscape:connector-curvature="0"
           style="fill:#000000;stroke-width:0" /></g>    </g>
    <g
       transform="translate(102.47362,172.19052)"
       id="g11552">
      <g
         id="g11554"
         transform="matrix(1.4285714,0,0,-1.4285714,-250,750)"
         xml:space="preserve"
         stroke-miterlimit="10.433"
         font-style="normal"
         font-variant="normal"
         font-weight="normal"
         font-stretch="normal"
         font-size-adjust="none"
         letter-spacing="normal"
         word-spacing="normal"
         style="font-style:normal;font-variant:normal;font-weight:normal;font-stretch:normal;letter-spacing:normal;word-spacing:normal;text-anchor:start;fill:none;stroke:#000000;stroke-linecap:butt;stroke-linejoin:miter;stroke-miterlimit:10.43299961;stroke-opacity:1;stroke-dasharray:none;stroke-dashoffset:0"><path
           d="m 477.35,424.68 -0.17,0.23 -0.17,0.22 -0.18,0.21 -0.19,0.21 -0.19,0.21 -0.19,0.19 -0.2,0.19 -0.21,0.19 -0.21,0.18 -0.21,0.17 -0.22,0.16 -0.23,0.16 -0.23,0.15 -0.23,0.15 -0.23,0.14 -0.24,0.13 -0.25,0.12 -0.25,0.12 -0.25,0.11 -0.25,0.1 -0.26,0.09 -0.26,0.09 -0.26,0.08 -0.26,0.07 -0.27,0.06 -0.27,0.06 -0.27,0.04 -0.28,0.04 -0.27,0.03 -0.28,0.02 -0.27,0.02 -0.28,0 c -7.27,0 -12.41,-4.44 -12.41,-11.36 0,-7.03 5.03,-11.36 11.95,-11.36 l 0.5,1.8 c -3.07,0 -6.07,2.89 -6.07,9.51 0,7.07 3.68,9.41 6.68,9.41 3.78,0 6.17,-3.94 6.17,-6.42 v -6.92 c 0,-0.91 0,-1.05 -0.75,-2.1 -1.98,-2.93 -4.53,-3.48 -6.03,-3.48 l -0.5,-1.8 c 2.46,0 4.69,0.71 6.99,2.69 v -9.72 h -3.44 v -2.34 c 1.39,0.06 4.38,0.15 6.28,0.15 1.94,0 4.88,-0.09 6.27,-0.15 v 2.34 h -3.44 v 29.75 h -2.03 z"
           id="path11556"
           inkscape:connector-curvature="0"
           style="fill:#000000;stroke-width:0" /><path
           d="m 495.87,440.65 0.03,0.06 0.02,0.05 0.02,0.05 0.03,0.05 0.02,0.04 0.01,0.05 0.02,0.04 0.02,0.04 0.01,0.05 0.02,0.04 0.01,0.03 0.01,0.04 0.01,0.04 0.02,0.03 0,0.04 0.01,0.03 0.01,0.03 0.01,0.03 0,0.03 0.01,0.03 0,0.03 0.01,0.03 0,0.03 0,0.02 0.01,0.06 0,0.05 0,0.04 0,0.05 c 0,1.08 -0.98,1.92 -2.06,1.92 -1.33,0 -1.73,-1.09 -1.91,-1.64 l -4.6,-15.09 c -0.04,-0.06 -0.18,-0.52 -0.18,-0.56 0,-0.41 1.08,-0.77 1.36,-0.77 0.25,0 0.28,0.08 0.52,0.59 z"
           id="path11558"
           inkscape:connector-curvature="0"
           style="fill:#000000;stroke-width:0" /></g>    </g>
    <g
       transform="translate(243.90219,9.3333755)"
       id="g11810">
      <g
         word-spacing="normal"
         letter-spacing="normal"
         font-size-adjust="none"
         font-stretch="normal"
         font-weight="normal"
         font-variant="normal"
         font-style="normal"
         stroke-miterlimit="10.433"
         xml:space="preserve"
         transform="matrix(1.4285714,0,0,-1.4285714,-250,750)"
         id="g11812"
         style="font-style:normal;font-variant:normal;font-weight:normal;font-stretch:normal;letter-spacing:normal;word-spacing:normal;text-anchor:start;fill:none;stroke:#000000;stroke-linecap:butt;stroke-linejoin:miter;stroke-miterlimit:10.43299961;stroke-opacity:1;stroke-dasharray:none;stroke-dashoffset:0"><path
           id="path11814"
           d="m 477.35,424.68 -0.17,0.23 -0.17,0.22 -0.18,0.21 -0.19,0.21 -0.19,0.21 -0.19,0.19 -0.2,0.19 -0.21,0.19 -0.21,0.18 -0.21,0.17 -0.22,0.16 -0.23,0.16 -0.23,0.15 -0.23,0.15 -0.23,0.14 -0.24,0.13 -0.25,0.12 -0.25,0.12 -0.25,0.11 -0.25,0.1 -0.26,0.09 -0.26,0.09 -0.26,0.08 -0.26,0.07 -0.27,0.06 -0.27,0.06 -0.27,0.04 -0.28,0.04 -0.27,0.03 -0.28,0.02 -0.27,0.02 -0.28,0 c -7.27,0 -12.41,-4.44 -12.41,-11.36 0,-7.03 5.03,-11.36 11.95,-11.36 l 0.5,1.8 c -3.07,0 -6.07,2.89 -6.07,9.51 0,7.07 3.68,9.41 6.68,9.41 3.78,0 6.17,-3.94 6.17,-6.42 v -6.92 c 0,-0.91 0,-1.05 -0.75,-2.1 -1.98,-2.93 -4.53,-3.48 -6.03,-3.48 l -0.5,-1.8 c 2.46,0 4.69,0.71 6.99,2.69 v -9.72 h -3.44 v -2.34 c 1.39,0.06 4.38,0.15 6.28,0.15 1.94,0 4.88,-0.09 6.27,-0.15 v 2.34 h -3.44 v 29.75 h -2.03 z"
           inkscape:connector-curvature="0"
           style="fill:#000000;stroke-width:0" /><path
           id="path11816"
           d="m 495.87,440.65 0.03,0.06 0.02,0.05 0.02,0.05 0.03,0.05 0.02,0.04 0.01,0.05 0.02,0.04 0.02,0.04 0.01,0.05 0.02,0.04 0.01,0.03 0.01,0.04 0.01,0.04 0.02,0.03 0,0.04 0.01,0.03 0.01,0.03 0.01,0.03 0,0.03 0.01,0.03 0,0.03 0.01,0.03 0,0.03 0,0.02 0.01,0.06 0,0.05 0,0.04 0,0.05 c 0,1.08 -0.98,1.92 -2.06,1.92 -1.33,0 -1.73,-1.09 -1.91,-1.64 l -4.6,-15.09 c -0.04,-0.06 -0.18,-0.52 -0.18,-0.56 0,-0.41 1.08,-0.77 1.36,-0.77 0.25,0 0.28,0.08 0.52,0.59 z"
           inkscape:connector-curvature="0"
           style="fill:#000000;stroke-width:0" /><path
           id="path11818"
           d="m 507.39,440.65 0.03,0.06 0.02,0.05 0.02,0.05 0.03,0.05 0.02,0.04 0.01,0.05 0.02,0.04 0.02,0.04 0.01,0.05 0.02,0.04 0.01,0.03 0.01,0.04 0.01,0.04 0.01,0.03 0.01,0.04 0.01,0.03 0.01,0.03 0.01,0.03 0,0.03 0.01,0.03 0,0.03 0.01,0.03 0,0.03 0,0.02 0.01,0.06 0,0.05 0,0.04 0,0.05 c 0,1.08 -0.98,1.92 -2.06,1.92 -1.33,0 -1.73,-1.09 -1.91,-1.64 l -4.61,-15.09 c -0.03,-0.06 -0.17,-0.52 -0.17,-0.56 0,-0.41 1.08,-0.77 1.36,-0.77 0.25,0 0.28,0.08 0.52,0.59 z"
           inkscape:connector-curvature="0"
           style="fill:#000000;stroke-width:0" /></g>    </g>
    <g
       transform="translate(388.18791,-112.0952)"
       id="g12080">
      <g
         id="g12082"
         transform="matrix(1.4285714,0,0,-1.4285714,-250,750)"
         xml:space="preserve"
         stroke-miterlimit="10.433"
         font-style="normal"
         font-variant="normal"
         font-weight="normal"
         font-stretch="normal"
         font-size-adjust="none"
         letter-spacing="normal"
         word-spacing="normal"
         style="font-style:normal;font-variant:normal;font-weight:normal;font-stretch:normal;letter-spacing:normal;word-spacing:normal;text-anchor:start;fill:none;stroke:#000000;stroke-linecap:butt;stroke-linejoin:miter;stroke-miterlimit:10.43299961;stroke-opacity:1;stroke-dasharray:none;stroke-dashoffset:0"><path
           d="m 477.35,424.68 -0.17,0.23 -0.17,0.22 -0.18,0.21 -0.19,0.21 -0.19,0.21 -0.19,0.19 -0.2,0.19 -0.21,0.19 -0.21,0.18 -0.21,0.17 -0.22,0.16 -0.23,0.16 -0.23,0.15 -0.23,0.15 -0.23,0.14 -0.24,0.13 -0.25,0.12 -0.25,0.12 -0.25,0.11 -0.25,0.1 -0.26,0.09 -0.26,0.09 -0.26,0.08 -0.26,0.07 -0.27,0.06 -0.27,0.06 -0.27,0.04 -0.28,0.04 -0.27,0.03 -0.28,0.02 -0.27,0.02 -0.28,0 c -7.27,0 -12.41,-4.44 -12.41,-11.36 0,-7.03 5.03,-11.36 11.95,-11.36 l 0.5,1.8 c -3.07,0 -6.07,2.89 -6.07,9.51 0,7.07 3.68,9.41 6.68,9.41 3.78,0 6.17,-3.94 6.17,-6.42 v -6.92 c 0,-0.91 0,-1.05 -0.75,-2.1 -1.98,-2.93 -4.53,-3.48 -6.03,-3.48 l -0.5,-1.8 c 2.46,0 4.69,0.71 6.99,2.69 v -9.72 h -3.44 v -2.34 c 1.39,0.06 4.38,0.15 6.28,0.15 1.94,0 4.88,-0.09 6.27,-0.15 v 2.34 h -3.44 v 29.75 h -2.03 z"
           id="path12084"
           inkscape:connector-curvature="0"
           style="fill:#000000;stroke-width:0" /><path
           d="m 495.87,440.65 0.03,0.06 0.02,0.05 0.02,0.05 0.03,0.05 0.02,0.04 0.01,0.05 0.02,0.04 0.02,0.04 0.01,0.05 0.02,0.04 0.01,0.03 0.01,0.04 0.01,0.04 0.02,0.03 0,0.04 0.01,0.03 0.01,0.03 0.01,0.03 0,0.03 0.01,0.03 0,0.03 0.01,0.03 0,0.03 0,0.02 0.01,0.06 0,0.05 0,0.04 0,0.05 c 0,1.08 -0.98,1.92 -2.06,1.92 -1.33,0 -1.73,-1.09 -1.91,-1.64 l -4.6,-15.09 c -0.04,-0.06 -0.18,-0.52 -0.18,-0.56 0,-0.41 1.08,-0.77 1.36,-0.77 0.25,0 0.28,0.08 0.52,0.59 z"
           id="path12086"
           inkscape:connector-curvature="0"
           style="fill:#000000;stroke-width:0" /><path
           d="m 507.39,440.65 0.03,0.06 0.02,0.05 0.02,0.05 0.03,0.05 0.02,0.04 0.01,0.05 0.02,0.04 0.02,0.04 0.01,0.05 0.02,0.04 0.01,0.03 0.01,0.04 0.01,0.04 0.01,0.03 0.01,0.04 0.01,0.03 0.01,0.03 0.01,0.03 0,0.03 0.01,0.03 0,0.03 0.01,0.03 0,0.03 0,0.02 0.01,0.06 0,0.05 0,0.04 0,0.05 c 0,1.08 -0.98,1.92 -2.06,1.92 -1.33,0 -1.73,-1.09 -1.91,-1.64 l -4.61,-15.09 c -0.03,-0.06 -0.17,-0.52 -0.17,-0.56 0,-0.41 1.08,-0.77 1.36,-0.77 0.25,0 0.28,0.08 0.52,0.59 z"
           id="path12088"
           inkscape:connector-curvature="0"
           style="fill:#000000;stroke-width:0" /><path
           d="m 518.91,440.65 0.03,0.06 0.02,0.05 0.02,0.05 0.02,0.05 0.02,0.04 0.02,0.05 0.02,0.04 0.02,0.04 0.01,0.05 0.02,0.04 0.01,0.03 0.01,0.04 0.01,0.04 0.01,0.03 0.01,0.04 0.01,0.03 0.01,0.03 0.01,0.03 0,0.03 0.01,0.03 0,0.03 0.01,0.03 0,0.03 0,0.02 0.01,0.06 0,0.05 0,0.04 0,0.05 c 0,1.08 -0.98,1.92 -2.06,1.92 -1.33,0 -1.73,-1.09 -1.91,-1.64 l -4.61,-15.09 c -0.03,-0.06 -0.17,-0.52 -0.17,-0.56 0,-0.41 1.08,-0.77 1.36,-0.77 0.25,0 0.28,0.08 0.52,0.59 z"
           id="path12090"
           inkscape:connector-curvature="0"
           style="fill:#000000;stroke-width:0" /></g>    </g>
    <g
       transform="translate(315.58927,394.09406)"
       id="g12386">
      <g
         word-spacing="normal"
         letter-spacing="normal"
         font-size-adjust="none"
         font-stretch="normal"
         font-weight="normal"
         font-variant="normal"
         font-style="normal"
         stroke-miterlimit="10.433"
         xml:space="preserve"
         transform="matrix(1.4285714,0,0,-1.4285714,-250,750)"
         id="g12388"
         style="font-style:normal;font-variant:normal;font-weight:normal;font-stretch:normal;letter-spacing:normal;word-spacing:normal;text-anchor:start;fill:none;stroke:#000000;stroke-linecap:butt;stroke-linejoin:miter;stroke-miterlimit:10.43299961;stroke-opacity:1;stroke-dasharray:none;stroke-dashoffset:0"><path
           id="path12390"
           d="m 476.81,439.53 -1.29,1.25 c -1.49,-1.71 -3.24,-1.71 -3.79,-1.71 -1,0 -1.84,0.16 -3.98,0.86 -2.3,0.74 -3.23,0.85 -3.94,0.85 -0.89,0 -2.25,-0.21 -3.59,-1.55 -0.55,-0.55 -1.89,-2.05 -2.44,-2.59 l 1.3,-1.24 c 1.5,1.69 3.23,1.69 3.78,1.69 1,0 1.84,-0.16 3.98,-0.84 2.3,-0.75 3.25,-0.85 3.94,-0.85 0.91,0 2.25,0.19 3.6,1.53 0.54,0.55 1.89,2.05 2.43,2.6 z"
           inkscape:connector-curvature="0"
           style="fill:#000000;stroke-width:0" /><path
           id="path12392"
           d="m 465.63,423 v 5.62 l -8.27,-0.41 v -2.34 c 3.1,0 3.44,0 3.44,-1.94 v -15.39 h -3.44 v -2.34 c 1.75,0.05 3.99,0.16 6.28,0.16 1.9,0 5.08,0 6.88,-0.16 v 2.34 h -4.34 v 8.72 c 0,3.49 1.25,9.56 6.23,9.56 -0.05,-0.04 -0.95,-0.84 -0.95,-2.29 0,-2.03 1.59,-3.03 3.04,-3.03 1.44,0 3.04,1.04 3.04,3.03 0,2.64 -2.69,4.09 -5.29,4.09 -3.48,0 -5.46,-2.5 -6.62,-5.62 z"
           inkscape:connector-curvature="0"
           style="fill:#000000;stroke-width:0" /></g>    </g>
    <g
       transform="translate(487.01784,201.23692)"
       id="g12676">
      <g
         id="g12678"
         transform="matrix(1.4285714,0,0,-1.4285714,-250,750)"
         xml:space="preserve"
         stroke-miterlimit="10.433"
         font-style="normal"
         font-variant="normal"
         font-weight="normal"
         font-stretch="normal"
         font-size-adjust="none"
         letter-spacing="normal"
         word-spacing="normal"
         style="font-style:normal;font-variant:normal;font-weight:normal;font-stretch:normal;letter-spacing:normal;word-spacing:normal;text-anchor:start;fill:none;stroke:#000000;stroke-linecap:butt;stroke-linejoin:miter;stroke-miterlimit:10.43299961;stroke-opacity:1;stroke-dasharray:none;stroke-dashoffset:0"><path
           d="m 465.63,423 v 5.62 l -8.27,-0.41 v -2.34 c 3.1,0 3.44,0 3.44,-1.94 v -15.39 h -3.44 v -2.34 c 1.75,0.05 3.99,0.16 6.28,0.16 1.9,0 5.08,0 6.88,-0.16 v 2.34 h -4.34 v 8.72 c 0,3.49 1.25,9.56 6.23,9.56 -0.05,-0.04 -0.95,-0.84 -0.95,-2.29 0,-2.03 1.59,-3.03 3.04,-3.03 1.44,0 3.04,1.04 3.04,3.03 0,2.64 -2.69,4.09 -5.29,4.09 -3.48,0 -5.46,-2.5 -6.62,-5.62 z"
           id="path12680"
           inkscape:connector-curvature="0"
           style="fill:#000000;stroke-width:0" /><path
           d="m 489.27,440.65 0.03,0.06 0.02,0.05 0.02,0.05 0.02,0.05 0.02,0.04 0.02,0.05 0.02,0.04 0.02,0.04 0.01,0.05 0.02,0.04 0.01,0.03 0.01,0.04 0.01,0.04 0.01,0.03 0.01,0.04 0.01,0.03 0.01,0.03 0.01,0.03 0,0.03 0.01,0.03 0,0.03 0.01,0.03 0,0.03 0,0.02 0.01,0.06 0,0.05 0,0.04 0,0.05 c 0,1.08 -0.98,1.92 -2.06,1.92 -1.33,0 -1.73,-1.09 -1.91,-1.64 L 481,426.95 c -0.03,-0.06 -0.17,-0.52 -0.17,-0.56 0,-0.41 1.08,-0.77 1.36,-0.77 0.25,0 0.28,0.08 0.52,0.59 z"
           id="path12682"
           inkscape:connector-curvature="0"
           style="fill:#000000;stroke-width:0" /></g>    </g>
    <g
       id="g3218"
       transform="matrix(0.73533303,0,0,0.73533303,-287.36186,348.2819)"
       style="fill:#ff0000">
      <g
         word-spacing="normal"
         letter-spacing="normal"
         font-size-adjust="none"
         font-stretch="normal"
         font-weight="normal"
         font-variant="normal"
         font-style="normal"
         stroke-miterlimit="10.433"
         xml:space="preserve"
         transform="matrix(1.4285714,0,0,-1.4285714,-250,750)"
         id="g3220"
         style="font-style:normal;font-variant:normal;font-weight:normal;font-stretch:normal;letter-spacing:normal;word-spacing:normal;text-anchor:start;fill:#ff0000;stroke:#000000;stroke-linecap:butt;stroke-linejoin:miter;stroke-miterlimit:10.43299961;stroke-opacity:1;stroke-dasharray:none;stroke-dashoffset:0"><path
           id="path3222"
           d="m 462.14,410.34 0.25,0.27 0.24,0.25 0.24,0.25 0.23,0.24 0.22,0.23 0.22,0.22 0.21,0.22 0.2,0.21 0.2,0.2 0.2,0.19 0.19,0.19 0.19,0.19 0.18,0.17 0.19,0.18 0.35,0.33 0.34,0.32 0.33,0.3 0.33,0.29 0.32,0.29 0.65,0.56 0.33,0.29 0.33,0.28 c 0,0.05 3.08,2.69 4.88,4.49 4.73,4.64 5.83,7.03 5.83,7.21 0,0.5 -0.46,0.5 -0.55,0.5 -0.35,0 -0.5,-0.09 -0.75,-0.54 -1.49,-2.39 -2.53,-3.19 -3.74,-3.19 -1.2,0 -1.79,0.75 -2.54,1.59 -0.94,1.16 -1.78,2.14 -3.44,2.14 -3.73,0 -6.02,-4.62 -6.02,-5.67 0,-0.25 0.14,-0.54 0.6,-0.54 0.45,0 0.54,0.25 0.64,0.54 0.95,2.3 3.84,2.35 4.23,2.35 1.05,0 2,-0.36 3.14,-0.75 2,-0.75 2.55,-0.75 3.85,-0.75 -1.8,-2.14 -5.99,-5.74 -6.92,-6.53 l -4.49,-4.18 c -3.39,-3.34 -5.14,-6.18 -5.14,-6.53 0,-0.5 0.5,-0.5 0.59,-0.5 0.41,0 0.5,0.1 0.8,0.64 1.16,1.75 2.64,3.1 4.24,3.1 1.15,0 1.65,-0.46 2.89,-1.89 0.86,-1.05 1.75,-1.85 3.18,-1.85 4.94,0 7.83,6.33 7.83,7.67 0,0.25 -0.2,0.5 -0.59,0.5 -0.46,0 -0.55,-0.29 -0.71,-0.65 -1.14,-3.24 -4.32,-4.17 -5.98,-4.17 -0.98,0 -1.89,0.29 -2.94,0.64 -1.68,0.64 -2.43,0.84 -3.48,0.84 -0.1,0 -0.89,0 -1.35,-0.14 z"
           inkscape:connector-curvature="0"
           style="fill:#ff0000;stroke-width:0" /><path
           id="path3224"
           d="m 528.99,422.5 0.14,0 0.15,0 0.14,0 0.07,0.01 0.08,0 0.07,0.01 0.07,0.01 0.07,0.01 0.07,0.01 0.07,0.01 0.06,0.02 0.07,0.02 0.06,0.02 0.06,0.02 0.06,0.03 0.06,0.03 0.05,0.04 0.05,0.03 0.05,0.05 0.04,0.04 0.04,0.05 0.02,0.03 0.02,0.03 0.01,0.02 0.02,0.03 0.01,0.03 0.01,0.04 0.02,0.03 0.01,0.04 0.01,0.03 0.01,0.04 0,0.04 0.01,0.04 0,0.04 0.01,0.04 0,0.04 0,0.05 c 0,1 -0.95,1 -1.64,1 H 499.2 c -0.71,0 -1.65,0 -1.65,-1 0,-0.98 0.94,-0.98 1.69,-0.98 z"
           inkscape:connector-curvature="0"
           style="fill:#ff0000;stroke-width:0" /><path
           id="path3226"
           d="m 529.04,412.82 0.06,0 0.07,0 0.14,0.01 0.14,0 0.07,0 0.07,0.01 0.07,0.01 0.06,0 0.07,0.01 0.07,0.02 0.07,0.01 0.06,0.02 0.07,0.02 0.06,0.02 0.06,0.02 0.05,0.03 0.06,0.03 0.05,0.04 0.05,0.04 0.05,0.04 0.04,0.05 0.02,0.02 0.02,0.03 0.02,0.02 0.02,0.03 0.01,0.03 0.02,0.03 0.01,0.03 0.01,0.03 0.02,0.04 0.01,0.03 0.01,0.04 0.01,0.04 0,0.04 0.01,0.04 0,0.04 0.01,0.04 0,0.05 0,0.04 c 0,1 -0.95,1 -1.69,1 h -29.75 c -0.75,0 -1.69,0 -1.69,-1 0,-1 0.94,-1 1.65,-1 z"
           inkscape:connector-curvature="0"
           style="fill:#ff0000;stroke-width:0" /><path
           id="path3228"
           d="m 565.59,426.12 h 4.29 c 1,0 1.5,0 1.5,1 0,0.55 -0.5,0.55 -1.35,0.55 h -4.14 l 1.05,5.69 c 0.2,1.04 0.9,4.57 1.2,5.17 0.45,0.95 1.3,1.7 2.34,1.7 0.19,0 1.49,0 2.44,-0.91 -2.19,-0.18 -2.69,-1.93 -2.69,-2.68 0,-1.14 0.89,-1.74 1.85,-1.74 1.3,0 2.73,1.1 2.73,2.99 0,2.29 -2.29,3.43 -4.33,3.43 -1.7,0 -4.84,-0.89 -6.32,-5.82 -0.3,-1.05 -0.46,-1.55 -1.64,-7.83 h -3.44 c -0.96,0 -1.5,0 -1.5,-0.94 0,-0.61 0.45,-0.61 1.39,-0.61 h 3.3 l -3.75,-19.67 c -0.9,-4.83 -1.74,-9.38 -4.33,-9.38 -0.21,0 -1.44,0 -2.39,0.91 2.29,0.14 2.73,1.94 2.73,2.69 0,1.14 -0.89,1.75 -1.84,1.75 -1.3,0 -2.74,-1.1 -2.74,-3 0,-2.24 2.19,-3.44 4.24,-3.44 2.73,0 4.73,2.94 5.62,4.84 1.6,3.14 2.75,9.16 2.8,9.52 z"
           inkscape:connector-curvature="0"
           style="fill:#ff0000;stroke-width:0" /></g>    </g>
  </g>
  <g
     style="display:none"
     inkscape:label="White"
     id="g32453"
     inkscape:groupmode="layer"
     sodipodi:insensitive="true">
    <g
       id="g32455"
       style="stroke:#ffffff">
      <path
         d="M 0,0 0,1000 M 20,0 20,1000 M 40,0 40,1000 M 60,0 60,1000 M 80,0 80,1000 M 100,0 100,1000 M 120,0 120,1000 M 140,0 140,1000 M 160,0 160,1000 M 180,0 180,1000 M 200,0 200,1000 M 220,0 220,1000 M 240,0 240,1000 M 260,0 260,1000 M 280,0 280,1000 M 300,0 300,1000 M 320,0 320,1000 M 340,0 340,1000 M 360,0 360,1000 M 380,0 380,1000 M 400,0 400,1000 M 420,0 420,1000 M 440,0 440,1000 M 460,0 460,1000 M 480,0 480,1000 M 500,0 500,1000 M 520,0 520,1000 M 540,0 540,1000 M 560,0 560,1000 M 580,0 580,1000 M 600,0 600,1000 M 620,0 620,1000 M 640,0 640,1000 M 660,0 660,1000 M 680,0 680,1000 M 700,0 700,1000 M 720,0 720,1000 M 740,0 740,1000 M 760,0 760,1000 M 780,0 780,1000 M 800,0 800,1000 M 820,0 820,1000 M 840,0 840,1000 M 860,0 860,1000 M 880,0 880,1000 M 900,0 900,1000 M 920,0 920,1000 M 940,0 940,1000 M 960,0 960,1000 M 980,0 l 0,1000 m 20,-1000 0,1000 M 0,0 1000,0 M 0,20 1000,20 M 0,40 1000,40 M 0,60 1000,60 M 0,80 1000,80 M 0,100 1000,100 M 0,120 1000,120 M 0,140 1000,140 M 0,160 1000,160 M 0,180 1000,180 M 0,200 1000,200 M 0,220 1000,220 M 0,240 1000,240 M 0,260 1000,260 M 0,280 1000,280 M 0,300 1000,300 M 0,320 1000,320 M 0,340 1000,340 M 0,360 1000,360 M 0,380 1000,380 M 0,400 1000,400 M 0,420 1000,420 M 0,440 1000,440 M 0,460 1000,460 M 0,480 1000,480 M 0,500 1000,500 M 0,520 1000,520 M 0,540 1000,540 M 0,560 1000,560 M 0,580 1000,580 M 0,600 1000,600 M 0,620 1000,620 M 0,640 1000,640 M 0,660 1000,660 M 0,680 1000,680 M 0,700 1000,700 M 0,720 1000,720 M 0,740 1000,740 M 0,760 1000,760 M 0,780 1000,780 M 0,800 1000,800 M 0,820 1000,820 M 0,840 1000,840 M 0,860 1000,860 M 0,880 1000,880 M 0,900 1000,900 M 0,920 1000,920 M 0,940 1000,940 M 0,960 1000,960 M 0,980 l 1000,0 m -1000,20 1000,0"
         style="fill:none;stroke:#ffffff;stroke-width:0.5pt;stroke-linecap:butt;stroke-linejoin:miter;stroke-opacity:1"
         id="path32457"
         inkscape:connector-curvature="0" />
      <path
         d="M 0,0 0,1000 M 100,0 100,1000 M 200,0 200,1000 M 300,0 300,1000 M 400,0 400,1000 M 500,0 500,1000 M 600,0 600,1000 M 700,0 700,1000 M 800,0 800,1000 M 900,0 900,1000 M 1000,0 l 0,1000 M 0,0 1000,0 M 0,100 1000,100 M 0,200 1000,200 M 0,300 1000,300 M 0,400 1000,400 M 0,500 1000,500 M 0,600 1000,600 M 0,700 1000,700 M 0,800 1000,800 M 0,900 1000,900 M 0,1000 l 1000,0"
         style="fill:none;stroke:#ffffff;stroke-width:2pt;stroke-linecap:butt;stroke-linejoin:miter;stroke-opacity:1"
         id="path32459"
         inkscape:connector-curvature="0" />
      <path
         d="M 0,0 0,1000 M 500,0 500,1000 M 1000,0 l 0,1000 M 0,0 1000,0 M 0,500 1000,500 M 0,1000 l 1000,0"
         style="fill:none;stroke:#ffffff;stroke-width:5pt;stroke-linecap:butt;stroke-linejoin:miter;stroke-opacity:1"
         id="path32461"
         inkscape:connector-curvature="0" />
    </g>
  </g>
  <g
     inkscape:groupmode="layer"
     id="layer2"
     inkscape:label="Equations"
     style="display:none">
    <g
       transform="translate(7.9728492,40.946846)"
       id="g36726"
       style="fill:#008000;stroke:#008000">
      <g
         style="font-style:normal;font-variant:normal;font-weight:normal;font-stretch:normal;letter-spacing:normal;word-spacing:normal;text-anchor:start;fill:#008000;stroke:#008000;stroke-linecap:butt;stroke-linejoin:miter;stroke-miterlimit:10.43299961;stroke-opacity:1;stroke-dasharray:none;stroke-dashoffset:0"
         word-spacing="normal"
         letter-spacing="normal"
         font-size-adjust="none"
         font-stretch="normal"
         font-weight="normal"
         font-variant="normal"
         font-style="normal"
         stroke-miterlimit="10.433"
         xml:space="preserve"
         transform="matrix(1.0629921,0,0,-1.0629921,-186.02362,789.27165)"
         id="g36728"><path
           style="fill:#008000;stroke:#008000;stroke-width:0"
           inkscape:connector-curvature="0"
           id="path36730"
           d="m 481.01,387.21 -1.3,1.25 c -1.48,-1.71 -3.23,-1.71 -3.78,-1.71 -1,0 -1.84,0.16 -3.98,0.86 -2.3,0.74 -3.24,0.85 -3.94,0.85 -0.89,0 -2.25,-0.21 -3.59,-1.55 -0.55,-0.55 -1.89,-2.05 -2.44,-2.59 l 1.3,-1.24 c 1.5,1.69 3.23,1.69 3.78,1.69 1,0 1.84,-0.16 3.98,-0.84 2.3,-0.75 3.25,-0.85 3.94,-0.85 0.91,0 2.25,0.19 3.59,1.53 0.55,0.55 1.89,2.05 2.44,2.6 z" /><path
           style="fill:#008000;stroke:#008000;stroke-width:0"
           inkscape:connector-curvature="0"
           id="path36732"
           d="m 477.47,357.47 v -3.89 l 8.81,0.3 v 2.34 c -3.09,0 -3.44,0 -3.44,1.94 v 18.14 l -9.12,-0.41 v -2.34 c 3.09,0 3.44,0 3.44,-1.94 v -9.51 c 0,-4.08 -2.54,-6.72 -6.18,-6.72 -3.82,0 -3.98,1.23 -3.98,3.94 v 16.98 l -9.12,-0.41 v -2.34 c 3.09,0 3.43,0 3.43,-1.94 V 360 c 0,-5.32 4.05,-6.42 8.97,-6.42 1.3,0 4.89,0 7.19,3.89 z" /><path
           style="fill:#008000;stroke:#008000;stroke-width:0"
           inkscape:connector-curvature="0"
           id="path36734"
           d="m 535.47,370.18 0.14,0 0.15,0 0.14,0 0.07,0.01 0.08,0 0.07,0.01 0.07,0.01 0.07,0.01 0.07,0.01 0.07,0.01 0.06,0.02 0.07,0.02 0.06,0.02 0.06,0.02 0.06,0.03 0.06,0.03 0.05,0.04 0.05,0.03 0.05,0.05 0.04,0.04 0.04,0.05 0.02,0.03 0.02,0.03 0.01,0.02 0.02,0.03 0.01,0.03 0.01,0.04 0.02,0.03 0.01,0.04 0.01,0.03 0.01,0.04 0,0.04 0.01,0.04 0,0.04 0.01,0.04 0,0.04 0,0.05 c 0,1 -0.95,1 -1.64,1 h -29.84 c -0.71,0 -1.64,0 -1.64,-1 0,-0.98 0.93,-0.98 1.68,-0.98 z" /><path
           style="fill:#008000;stroke:#008000;stroke-width:0"
           inkscape:connector-curvature="0"
           id="path36736"
           d="m 535.52,360.5 0.07,0 0.06,0 0.14,0.01 0.14,0 0.07,0 0.07,0.01 0.07,0.01 0.06,0 0.07,0.01 0.07,0.02 0.07,0.01 0.06,0.02 0.07,0.02 0.06,0.02 0.06,0.02 0.05,0.03 0.06,0.03 0.05,0.04 0.05,0.04 0.05,0.04 0.04,0.05 0.02,0.02 0.02,0.03 0.02,0.02 0.02,0.03 0.01,0.03 0.02,0.03 0.01,0.03 0.01,0.03 0.02,0.04 0.01,0.03 0.01,0.04 0.01,0.04 0,0.04 0.01,0.04 0,0.04 0.01,0.04 0,0.05 0,0.04 c 0,1 -0.95,1 -1.69,1 h -29.75 c -0.75,0 -1.68,0 -1.68,-1 0,-1 0.93,-1 1.64,-1 z" /><polygon
           style="fill:#008000;stroke:#008000;stroke-width:0"
           id="polygon36738"
           points="586.63,452.46 586.63,455.9 570.03,455.9 570.03,366.27 573.47,366.27 573.47,452.46 " /><polygon
           style="fill:#008000;stroke:#008000;stroke-width:0"
           id="polygon36740"
           points="573.47,280.12 573.47,366.32 570.03,366.32 570.03,276.68 586.63,276.68 586.63,280.12 " /><path
           style="fill:#008000;stroke:#008000;stroke-width:0"
           inkscape:connector-curvature="0"
           id="path36742"
           d="m 626.18,448.15 0,0 0,0.01 0,0.01 0,0.01 -0.01,0.01 0,0.01 0,0.02 0,0.02 0,0.02 -0.01,0.02 0,0.02 -0.01,0.02 -0.01,0.03 -0.01,0.02 -0.01,0.02 -0.01,0.03 -0.01,0.02 -0.02,0.03 -0.02,0.02 -0.02,0.03 -0.02,0.02 -0.01,0.01 -0.02,0.01 -0.01,0.01 -0.01,0.01 -0.02,0.01 -0.01,0.01 -0.02,0.01 -0.01,0.01 -0.02,0.01 -0.02,0.01 -0.02,0.01 -0.02,0 -0.02,0.01 -0.02,0.01 -0.02,0 -0.02,0.01 -0.03,0 -0.02,0.01 -0.03,0 -0.02,0 -0.03,0.01 -0.03,0 -0.03,0 -0.03,0 c -1.15,0 -4.78,-0.41 -6.07,-0.5 -0.41,-0.05 -0.96,-0.09 -0.96,-1 0,-0.59 0.46,-0.59 1.21,-0.59 2.39,0 2.48,-0.35 2.48,-0.85 l -0.16,-1 -7.21,-28.7 c -0.21,-0.69 -0.21,-0.8 -0.21,-1.1 0,-1.14 1,-1.39 1.46,-1.39 0.64,0 1.39,0.46 1.68,1.05 0.25,0.45 2.5,9.66 2.8,10.91 1.69,-0.14 5.78,-0.94 5.78,-4.24 0,-0.34 0,-0.54 -0.15,-1.04 -0.1,-0.6 -0.21,-1.19 -0.21,-1.74 0,-2.95 2,-4.94 4.6,-4.94 1.48,0 2.83,0.8 3.93,2.64 1.24,2.19 1.78,4.94 1.78,5.04 0,0.5 -0.43,0.5 -0.59,0.5 -0.5,0 -0.54,-0.21 -0.7,-0.91 -0.99,-3.63 -2.14,-6.17 -4.33,-6.17 -0.94,0 -1.59,0.54 -1.59,2.34 0,0.85 0.2,1.99 0.4,2.78 0.19,0.86 0.19,1.05 0.19,1.55 0,3.25 -3.14,4.69 -7.38,5.23 1.55,0.91 3.15,2.5 4.3,3.69 2.39,2.64 4.67,4.78 7.13,4.78 0.29,0 0.34,0 0.44,-0.04 0.6,-0.1 0.65,-0.1 1.04,-0.39 0.11,-0.07 0.11,-0.11 0.21,-0.21 -2.4,-0.15 -2.85,-2.09 -2.85,-2.69 0,-0.79 0.55,-1.75 1.89,-1.75 1.3,0 2.75,1.1 2.75,3.04 0,1.5 -1.16,3.14 -3.39,3.14 -1.39,0 -3.69,-0.39 -7.28,-4.38 -1.69,-1.89 -3.62,-3.89 -5.52,-4.64 z" /><path
           style="fill:#008000;stroke:#008000;stroke-width:0"
           inkscape:connector-curvature="0"
           id="path36744"
           d="m 652.53,412.32 -0.01,-0.07 -0.02,-0.07 -0.02,-0.07 -0.02,-0.07 -0.01,-0.08 -0.02,-0.08 -0.02,-0.08 -0.02,-0.09 -0.05,-0.16 -0.04,-0.17 -0.04,-0.17 -0.02,-0.08 -0.02,-0.08 -0.02,-0.08 -0.02,-0.07 -0.02,-0.08 -0.02,-0.07 -0.01,-0.06 -0.02,-0.07 -0.02,-0.06 -0.01,-0.05 -0.02,-0.05 -0.01,-0.05 -0.02,-0.03 -0.01,-0.04 0,-0.01 -0.01,-0.02 0,-0.01 -0.01,-0.01 0,0 -0.01,-0.01 0,0 0,-0.01 c -0.67,-1.07 -2.06,-2.97 -4.22,-2.97 -2.41,0 -2.41,2.27 -2.41,2.9 0,2.06 0.97,4.53 1.96,7.07 0.28,0.71 0.48,1.22 0.48,1.78 0,1.82 -1.53,2.99 -3.31,2.99 -3.49,0 -5.05,-4.77 -5.05,-5.33 0,-0.45 0.49,-0.45 0.59,-0.45 0.49,0 0.52,0.17 0.63,0.56 0.83,2.86 2.37,4.25 3.72,4.25 0.59,0 0.87,-0.39 0.87,-1.22 0,-0.8 -0.28,-1.53 -0.62,-2.33 -1.88,-4.81 -1.88,-5.82 -1.88,-6.76 0,-0.6 0,-2.21 1.28,-3.31 1.02,-0.83 2.38,-1.11 3.6,-1.11 2.19,0 3.37,1.18 4.53,2.29 0.77,-2.23 3.09,-2.29 3.52,-2.29 1.18,0 2.09,0.68 2.75,1.84 0.76,1.36 1.25,3.37 1.25,3.48 0,0.46 -0.49,0.46 -0.58,0.46 -0.5,0 -0.53,-0.14 -0.78,-1.08 -0.41,-1.64 -1.08,-3.74 -2.54,-3.74 -0.9,0 -1.15,0.8 -1.15,1.71 0,0.59 0.28,1.86 0.53,2.76 0.24,0.94 0.58,2.36 0.77,3.13 l 0.79,3.11 c 0.21,0.87 0.6,2.4 0.6,2.58 0,0.68 -0.57,1.11 -1.16,1.11 -1.28,0 -1.53,-1.02 -1.81,-2.13 z" /><path
           style="fill:#008000;stroke:#008000;stroke-width:0"
           inkscape:connector-curvature="0"
           id="path36746"
           d="m 748.92,430.06 0,0.75 -0.01,0.74 -0.02,0.75 -0.03,0.74 -0.05,0.75 -0.06,0.74 -0.08,0.74 -0.09,0.73 -0.12,0.74 -0.14,0.72 -0.16,0.73 -0.19,0.71 -0.21,0.72 -0.25,0.7 -0.28,0.7 -0.15,0.35 -0.16,0.34 c -2.28,4.8 -6.37,5.6 -8.47,5.6 -2.98,0 -6.62,-1.3 -8.67,-5.94 -1.59,-3.44 -1.84,-7.33 -1.84,-11.31 0,-3.74 0.2,-8.22 2.25,-12 2.14,-4.03 5.78,-5.03 8.22,-5.03 v 1.09 c -1.94,0 -4.89,1.25 -5.79,6.03 -0.54,2.99 -0.54,7.56 -0.54,10.52 0,3.19 0,6.47 0.4,9.15 0.94,5.94 4.68,6.38 5.93,6.38 1.64,0 4.93,-0.89 5.87,-5.83 0.5,-2.78 0.5,-6.58 0.5,-9.7 0,-3.75 0,-7.13 -0.55,-10.31 -0.75,-4.74 -3.59,-6.24 -5.82,-6.24 h 0 v -1.09 c 2.68,0 6.47,1.04 8.67,5.78 1.59,3.44 1.84,7.31 1.84,11.25 z" /><path
           style="fill:#008000;stroke:#008000;stroke-width:0"
           inkscape:connector-curvature="0"
           id="path36748"
           d="m 830.55,416.92 0.06,-0.19 0.06,-0.19 0.07,-0.18 0.07,-0.17 0.09,-0.17 0.08,-0.17 0.1,-0.16 0.1,-0.16 0.1,-0.15 0.12,-0.14 0.11,-0.14 0.13,-0.14 0.12,-0.13 0.14,-0.12 0.13,-0.12 0.15,-0.11 0.14,-0.11 0.16,-0.1 0.15,-0.09 0.16,-0.09 0.17,-0.08 0.16,-0.07 0.18,-0.07 0.17,-0.06 0.18,-0.06 0.18,-0.04 0.19,-0.04 0.19,-0.04 0.19,-0.02 0.2,-0.02 0.19,-0.01 0.2,-0.01 c 1.74,0 2.89,1.14 3.69,2.74 0.84,1.8 1.48,4.84 1.48,4.94 0,0.5 -0.43,0.5 -0.59,0.5 -0.5,0 -0.55,-0.21 -0.7,-0.91 -0.69,-2.78 -1.64,-6.17 -3.74,-6.17 -1.04,0 -1.53,0.65 -1.53,2.29 0,1.1 0.6,3.44 0.99,5.18 l 1.4,5.39 c 0.14,0.75 0.64,2.64 0.85,3.39 0.25,1.14 0.75,3.03 0.75,3.33 0,0.9 -0.71,1.34 -1.46,1.34 -0.25,0 -1.54,-0.05 -1.93,-1.73 -0.96,-3.65 -3.15,-12.36 -3.74,-15 -0.06,-0.21 -2.05,-4.19 -5.69,-4.19 -2.59,0 -3.09,2.25 -3.09,4.09 0,2.78 1.41,6.72 2.7,10.16 0.6,1.5 0.85,2.19 0.85,3.14 0,2.23 -1.6,4.08 -4.1,4.08 -4.73,0 -6.58,-7.22 -6.58,-7.68 0,-0.5 0.5,-0.5 0.61,-0.5 0.5,0 0.55,0.11 0.8,0.91 1.24,4.33 3.14,6.17 5.03,6.17 0.44,0 1.25,-0.04 1.25,-1.64 0,-1.2 -0.56,-2.64 -0.86,-3.39 -1.84,-4.94 -2.89,-8.01 -2.89,-10.45 0,-4.74 3.44,-5.99 6.14,-5.99 3.28,0 5.08,2.24 5.92,3.35 z" /><path
           style="fill:#008000;stroke:#008000;stroke-width:0"
           inkscape:connector-curvature="0"
           id="path36750"
           d="m 859.66,417.79 0,0.71 -0.02,0.68 -0.03,0.66 -0.04,0.64 -0.06,0.62 -0.07,0.59 -0.09,0.58 -0.11,0.56 -0.13,0.55 -0.15,0.53 -0.17,0.51 -0.19,0.5 -0.21,0.49 -0.24,0.48 -0.26,0.47 -0.14,0.23 -0.15,0.23 c -1.08,1.61 -3.23,3 -6.03,3 v -0.98 c 1.89,0 3.7,-1.14 4.33,-3.18 0.56,-1.87 0.59,-4.39 0.59,-7.42 0,-2.58 0,-5.15 -0.45,-7.34 -0.7,-3.17 -3.06,-3.94 -4.47,-3.94 h 0 c -1.59,0 -3.72,0.94 -4.42,3.8 -0.49,2.04 -0.49,4.9 -0.49,7.48 0,2.55 0,5.21 0.52,7.11 0.73,2.75 2.97,3.49 4.39,3.49 v 0.98 c -8.08,0 -8.08,-9.52 -8.08,-12.03 0,-2.5 0,-11.81 8.08,-11.81 8.09,0 8.09,9.31 8.09,11.81 z" /><path
           style="fill:#008000;stroke:#008000;stroke-width:0"
           inkscape:connector-curvature="0"
           id="path36752"
           d="m 648.36,370.3 0,0.74 -0.01,0.75 -0.02,0.75 -0.03,0.74 -0.05,0.75 -0.06,0.74 -0.08,0.74 -0.09,0.73 -0.12,0.73 -0.14,0.73 -0.16,0.72 -0.19,0.72 -0.21,0.72 -0.25,0.7 -0.28,0.7 -0.15,0.35 -0.16,0.34 c -2.28,4.8 -6.37,5.6 -8.46,5.6 -2.99,0 -6.63,-1.3 -8.68,-5.94 -1.59,-3.44 -1.84,-7.33 -1.84,-11.31 0,-3.74 0.2,-8.22 2.25,-12 2.14,-4.03 5.78,-5.03 8.22,-5.03 v 1.09 c -1.94,0 -4.89,1.25 -5.78,6.03 -0.55,2.99 -0.55,7.56 -0.55,10.52 0,3.18 0,6.47 0.41,9.15 0.93,5.94 4.67,6.38 5.92,6.38 1.64,0 4.93,-0.89 5.87,-5.83 0.5,-2.78 0.5,-6.58 0.5,-9.7 0,-3.75 0,-7.13 -0.54,-10.32 -0.75,-4.73 -3.6,-6.23 -5.83,-6.23 h 0 v -1.09 c 2.68,0 6.47,1.04 8.67,5.78 1.59,3.43 1.84,7.31 1.84,11.25 z" /><path
           style="fill:#008000;stroke:#008000;stroke-width:0"
           inkscape:connector-curvature="0"
           id="path36754"
           d="m 728.05,388.39 0,0 0,0.01 0,0 0,0.02 0,0.01 0,0.01 0,0.02 0,0.02 -0.01,0.02 0,0.02 0,0.02 -0.01,0.02 -0.01,0.02 -0.01,0.03 -0.01,0.02 -0.01,0.03 -0.02,0.02 -0.01,0.03 -0.02,0.02 -0.02,0.02 -0.02,0.03 -0.01,0.01 -0.02,0.01 -0.01,0.01 -0.01,0.01 -0.02,0.01 -0.01,0.01 -0.02,0.01 -0.02,0.01 -0.01,0.01 -0.02,0.01 -0.02,0 -0.02,0.01 -0.02,0.01 -0.02,0.01 -0.02,0 -0.02,0.01 -0.03,0 -0.02,0.01 -0.03,0 -0.02,0 -0.03,0 -0.03,0.01 -0.03,0 -0.03,0 c -1.15,0 -4.78,-0.41 -6.07,-0.5 -0.41,-0.05 -0.96,-0.1 -0.96,-1 0,-0.6 0.46,-0.6 1.21,-0.6 2.39,0 2.48,-0.34 2.48,-0.84 l -0.16,-1 -7.21,-28.7 c -0.21,-0.69 -0.21,-0.8 -0.21,-1.1 0,-1.14 1,-1.39 1.46,-1.39 0.64,0 1.39,0.46 1.68,1.05 0.25,0.45 2.5,9.66 2.8,10.91 1.69,-0.15 5.78,-0.94 5.78,-4.24 0,-0.34 0,-0.55 -0.16,-1.05 -0.09,-0.59 -0.2,-1.18 -0.2,-1.73 0,-2.95 2,-4.94 4.6,-4.94 1.48,0 2.82,0.8 3.93,2.64 1.24,2.19 1.78,4.94 1.78,5.03 0,0.5 -0.43,0.5 -0.59,0.5 -0.5,0 -0.55,-0.2 -0.7,-0.9 -0.99,-3.63 -2.14,-6.17 -4.33,-6.17 -0.94,0 -1.59,0.54 -1.59,2.34 0,0.84 0.2,1.98 0.4,2.78 0.19,0.86 0.19,1.05 0.19,1.55 0,3.25 -3.14,4.69 -7.38,5.23 1.55,0.91 3.14,2.5 4.3,3.69 2.39,2.64 4.67,4.78 7.13,4.78 0.29,0 0.34,0 0.43,-0.05 0.61,-0.09 0.66,-0.09 1.05,-0.39 0.11,-0.06 0.11,-0.11 0.2,-0.2 -2.39,-0.16 -2.84,-2.09 -2.84,-2.69 0,-0.79 0.55,-1.75 1.89,-1.75 1.3,0 2.75,1.1 2.75,3.03 0,1.5 -1.16,3.15 -3.39,3.15 -1.39,0 -3.69,-0.4 -7.28,-4.38 -1.69,-1.89 -3.63,-3.89 -5.52,-4.64 z" /><path
           style="fill:#008000;stroke:#008000;stroke-width:0"
           inkscape:connector-curvature="0"
           id="path36756"
           d="m 758.29,359.58 0,0.12 -0.01,0.12 0,0.12 -0.01,0.11 -0.01,0.11 -0.01,0.11 -0.02,0.1 -0.01,0.1 -0.02,0.1 -0.02,0.09 -0.02,0.09 -0.02,0.09 -0.03,0.08 -0.02,0.08 -0.03,0.07 -0.03,0.08 -0.03,0.07 -0.03,0.07 -0.03,0.06 -0.03,0.06 -0.04,0.06 -0.03,0.06 -0.04,0.05 -0.04,0.06 -0.03,0.05 -0.04,0.04 -0.08,0.09 -0.08,0.08 -0.08,0.07 -0.07,0.06 -0.08,0.05 -0.08,0.05 -0.08,0.04 -0.07,0.04 -0.08,0.02 -0.07,0.03 -0.06,0.02 -0.06,0.01 -0.06,0.02 -0.05,0 -0.04,0.01 -0.04,0 -0.03,0.01 -0.03,0 -0.01,0 c -0.91,0 -1.88,-0.95 -1.88,-1.86 0,-0.58 0.35,-0.86 0.6,-1.08 0.59,-0.48 1.28,-1.39 1.28,-2.78 0,-1.56 -2.3,-9.06 -6.44,-9.06 -2.83,0 -2.83,2.51 -2.83,3.11 0,1.59 0.63,3.54 1.93,6.78 0.28,0.73 0.48,1.26 0.48,1.86 0,1.81 -1.53,2.98 -3.31,2.98 -3.49,0 -5.05,-4.76 -5.05,-5.33 0,-0.45 0.48,-0.45 0.59,-0.45 0.49,0 0.52,0.17 0.63,0.56 0.83,2.86 2.33,4.25 3.72,4.25 0.59,0 0.87,-0.39 0.87,-1.22 0,-0.79 -0.28,-1.53 -0.62,-2.32 -1.5,-3.88 -1.88,-5.38 -1.88,-6.63 0,-3.45 2.72,-4.56 5.36,-4.56 5.86,0 8.3,10.14 8.3,13 z" /><path
           style="fill:#008000;stroke:#008000;stroke-width:0"
           inkscape:connector-curvature="0"
           id="path36758"
           d="m 838.59,372.89 0,0.13 0,0.12 0,0.12 -0.01,0.11 -0.01,0.12 -0.01,0.11 -0.01,0.11 -0.01,0.1 -0.03,0.21 -0.04,0.19 -0.04,0.18 -0.05,0.18 -0.06,0.16 -0.05,0.16 -0.07,0.15 -0.06,0.13 -0.07,0.13 -0.08,0.12 -0.08,0.12 -0.08,0.1 -0.08,0.1 -0.08,0.09 -0.09,0.08 -0.09,0.07 -0.09,0.07 -0.09,0.06 -0.09,0.05 -0.1,0.05 -0.09,0.04 -0.09,0.03 -0.09,0.03 -0.09,0.03 -0.09,0.01 -0.09,0.02 -0.09,0 -0.08,0.01 c -1.25,0 -2.44,-1.3 -2.44,-2.4 0,-0.64 0.25,-0.93 0.8,-1.48 1.04,-1 1.68,-2.3 1.68,-4.09 0,-2.1 -3.03,-13.5 -8.86,-13.5 -2.54,0 -3.68,1.75 -3.68,4.32 0,2.8 1.34,6.44 2.89,10.57 0.34,0.86 0.59,1.54 0.59,2.5 0,2.23 -1.59,4.08 -4.09,4.08 -4.68,0 -6.58,-7.22 -6.58,-7.68 0,-0.5 0.5,-0.5 0.61,-0.5 0.5,0 0.55,0.11 0.79,0.91 1.44,5.03 3.58,6.17 5.04,6.17 0.39,0 1.25,0 1.25,-1.59 0,-1.25 -0.5,-2.6 -0.86,-3.49 -2.19,-5.78 -2.83,-8.08 -2.83,-10.22 0,-5.37 4.37,-6.17 6.67,-6.17 8.38,0 11.2,16.49 11.2,19.08 z" /><path
           style="fill:#008000;stroke:#008000;stroke-width:0"
           inkscape:connector-curvature="0"
           id="path36760"
           d="m 857.38,358.03 0,0.71 -0.02,0.68 -0.03,0.66 -0.04,0.64 -0.06,0.62 -0.08,0.6 -0.09,0.57 -0.1,0.56 -0.13,0.55 -0.15,0.53 -0.17,0.51 -0.19,0.5 -0.21,0.49 -0.24,0.48 -0.26,0.47 -0.14,0.23 -0.15,0.23 c -1.08,1.61 -3.23,3 -6.03,3 -8.08,0 -8.08,-9.51 -8.08,-12.03 0,-2.5 0,-11.81 8.08,-11.81 v 0.98 c -1.59,0 -3.72,0.94 -4.42,3.8 -0.49,2.05 -0.49,4.91 -0.49,7.48 0,2.55 0,5.21 0.52,7.11 0.73,2.75 2.97,3.49 4.39,3.49 1.89,0 3.7,-1.14 4.33,-3.17 0.56,-1.88 0.59,-4.39 0.59,-7.43 0,-2.57 0,-5.15 -0.45,-7.34 -0.71,-3.17 -3.06,-3.94 -4.47,-3.94 h 0 v -0.98 c 8.09,0 8.09,9.31 8.09,11.81 z" /><path
           style="fill:#008000;stroke:#008000;stroke-width:0"
           inkscape:connector-curvature="0"
           id="path36762"
           d="m 648.36,310.54 0,0.75 -0.01,0.74 -0.02,0.75 -0.03,0.74 -0.05,0.75 -0.06,0.74 -0.08,0.74 -0.09,0.73 -0.12,0.74 -0.14,0.72 -0.16,0.73 -0.19,0.71 -0.21,0.72 -0.25,0.7 -0.28,0.7 -0.15,0.35 -0.16,0.35 c -2.28,4.79 -6.37,5.59 -8.46,5.59 -2.99,0 -6.63,-1.3 -8.68,-5.94 -1.59,-3.44 -1.84,-7.33 -1.84,-11.31 0,-3.74 0.2,-8.22 2.25,-12 2.14,-4.03 5.78,-5.03 8.22,-5.03 v 1.09 c -1.94,0 -4.89,1.25 -5.78,6.03 -0.55,2.99 -0.55,7.57 -0.55,10.52 0,3.19 0,6.47 0.41,9.15 0.93,5.94 4.67,6.38 5.92,6.38 1.64,0 4.93,-0.89 5.87,-5.83 0.5,-2.78 0.5,-6.58 0.5,-9.7 0,-3.75 0,-7.13 -0.54,-10.31 -0.75,-4.74 -3.6,-6.24 -5.83,-6.24 h 0 v -1.09 c 2.68,0 6.47,1.04 8.67,5.78 1.59,3.44 1.84,7.31 1.84,11.25 z" /><path
           style="fill:#008000;stroke:#008000;stroke-width:0"
           inkscape:connector-curvature="0"
           id="path36764"
           d="m 748.92,310.54 -0.01,0.75 -0.01,0.74 -0.02,0.75 -0.03,0.74 -0.04,0.75 -0.06,0.74 -0.08,0.74 -0.1,0.73 -0.11,0.74 -0.14,0.72 -0.16,0.73 -0.19,0.71 -0.22,0.72 -0.24,0.7 -0.28,0.7 -0.15,0.35 -0.16,0.35 c -2.28,4.79 -6.38,5.59 -8.47,5.59 -2.98,0 -6.63,-1.3 -8.67,-5.94 -1.6,-3.44 -1.85,-7.33 -1.85,-11.31 0,-3.74 0.21,-8.22 2.25,-12 2.14,-4.03 5.79,-5.03 8.22,-5.03 v 1.09 c -1.93,0 -4.89,1.25 -5.78,6.03 -0.55,2.99 -0.55,7.57 -0.55,10.52 0,3.19 0,6.47 0.41,9.15 0.94,5.94 4.67,6.38 5.92,6.38 1.64,0 4.94,-0.89 5.88,-5.83 0.5,-2.78 0.5,-6.58 0.5,-9.7 0,-3.75 0,-7.13 -0.55,-10.31 -0.75,-4.74 -3.59,-6.24 -5.83,-6.24 h 0 v -1.09 c 2.69,0 6.47,1.04 8.67,5.78 1.6,3.44 1.85,7.31 1.85,11.25 z" /><path
           style="fill:#008000;stroke:#008000;stroke-width:0"
           inkscape:connector-curvature="0"
           id="path36766"
           d="m 840.72,326.49 0,0.06 -0.01,0.05 0,0.05 0,0.05 0,0.05 0,0.05 0,0.04 0,0.05 0,0.04 0,0.04 0,0.04 0,0.04 0,0.04 -0.01,0.04 0,0.03 0,0.04 -0.01,0.06 -0.01,0.06 -0.01,0.05 -0.02,0.05 -0.01,0.05 -0.02,0.04 -0.02,0.04 -0.03,0.04 -0.03,0.03 -0.03,0.03 -0.03,0.02 -0.04,0.02 -0.05,0.02 -0.02,0.01 -0.03,0.01 -0.02,0 -0.03,0.01 -0.03,0.01 -0.03,0 -0.03,0.01 -0.03,0 -0.03,0.01 -0.04,0 -0.03,0 -0.04,0.01 -0.04,0 -0.04,0 -0.04,0 -0.04,0.01 -0.05,0 -0.05,0 -0.04,0 -0.05,0 -0.05,0 -0.06,0 c -3.09,-3.19 -7.47,-3.19 -9.06,-3.19 v -1.55 c 1,0 3.94,0 6.52,1.3 v -25.81 c 0,-1.8 -0.14,-2.39 -4.63,-2.39 h -1.59 v -1.55 c 1.75,0.16 6.08,0.16 8.06,0.16 2,0 6.33,0 8.08,-0.16 v 1.55 h -1.6 c -4.48,0 -4.63,0.55 -4.63,2.39 z" /><polygon
           style="fill:#008000;stroke:#008000;stroke-width:0"
           id="polygon36768"
           points="889.18,455.9 889.18,452.46 902.34,452.46 902.34,366.27 905.78,366.27 905.78,455.9 " /><polygon
           style="fill:#008000;stroke:#008000;stroke-width:0"
           id="polygon36770"
           points="905.78,276.68 905.78,366.32 902.34,366.32 902.34,280.12 889.18,280.12 889.18,276.68 " /><path
           style="fill:#008000;stroke:#008000;stroke-width:0"
           inkscape:connector-curvature="0"
           id="path36772"
           d="m 955.01,387.21 -1.29,1.25 c -1.49,-1.71 -3.24,-1.71 -3.79,-1.71 -1,0 -1.84,0.16 -3.98,0.86 -2.3,0.74 -3.23,0.85 -3.94,0.85 -0.89,0 -2.25,-0.21 -3.59,-1.55 -0.55,-0.55 -1.89,-2.05 -2.44,-2.59 l 1.3,-1.24 c 1.5,1.69 3.23,1.69 3.78,1.69 1,0 1.84,-0.16 3.98,-0.84 2.3,-0.75 3.25,-0.85 3.94,-0.85 0.91,0 2.25,0.19 3.59,1.53 0.55,0.55 1.9,2.05 2.44,2.6 z" /><path
           style="fill:#008000;stroke:#008000;stroke-width:0"
           inkscape:connector-curvature="0"
           id="path36774"
           d="m 947.72,366.13 5.82,6.48 c 0.66,0.71 0.96,1.05 5.1,1.05 V 376 c -1.75,-0.11 -4.35,-0.15 -4.6,-0.15 -1.25,0 -3.73,0.11 -5.12,0.15 v -2.34 c 0.68,0 1.3,-0.11 1.89,-0.45 -0.21,-0.3 -0.21,-0.39 -0.41,-0.6 l -4.17,-4.68 -4.89,5.73 h 2 V 376 c -1.3,-0.04 -4.44,-0.15 -6.03,-0.15 -1.59,0 -3.84,0.11 -5.49,0.15 v -2.34 h 3.53 l 7.79,-9.17 -6.54,-7.33 c -0.84,-0.94 -2.63,-0.94 -5.03,-0.94 v -2.34 c 1.75,0.09 4.35,0.16 4.58,0.16 1.25,0 4.14,-0.11 5.14,-0.16 v 2.34 c -0.89,0 -1.84,0.25 -1.84,0.55 0,0.05 0,0.09 0.34,0.5 l 4.85,5.42 5.46,-6.47 h -1.93 v -2.34 c 1.3,0.05 4.33,0.16 5.98,0.16 1.6,0 3.83,-0.11 5.47,-0.16 v 2.34 h -3.53 z" /></g>    </g>
  </g>
</svg>
