<?xml version="1.0" encoding="UTF-8" standalone="no"?>
<!-- Created with Inkscape (http://www.inkscape.org/) -->

<svg
   xmlns:dc="http://purl.org/dc/elements/1.1/"
   xmlns:cc="http://creativecommons.org/ns#"
   xmlns:rdf="http://www.w3.org/1999/02/22-rdf-syntax-ns#"
   xmlns:svg="http://www.w3.org/2000/svg"
   xmlns="http://www.w3.org/2000/svg"
   xmlns:sodipodi="http://sodipodi.sourceforge.net/DTD/sodipodi-0.dtd"
   xmlns:inkscape="http://www.inkscape.org/namespaces/inkscape"
   sodipodi:docname="Compass.svg"
   inkscape:version="0.48.4 r9939"
   version="1.1"
   id="svg2"
   height="1052.3622047"
   width="744.09448819">
  <sodipodi:namedview
     id="base"
     pagecolor="#ffffff"
     bordercolor="#666666"
     borderopacity="1.0"
     inkscape:pageopacity="0.0"
     inkscape:pageshadow="2"
     inkscape:zoom="0.35355339"
     inkscape:cx="-13.681685"
     inkscape:cy="476.14048"
     inkscape:document-units="px"
     inkscape:current-layer="g9398"
     showgrid="false"
     inkscape:window-width="1152"
     inkscape:window-height="679"
     inkscape:window-x="43"
     inkscape:window-y="47"
     inkscape:window-maximized="0"
     showguides="true"
     inkscape:guide-bbox="true"
     inkscape:snap-to-guides="true"
     inkscape:snap-grids="false"
     guidetolerance="20"
     gridtolerance="10">
    <sodipodi:guide
       id="guide9096"
       position="-800,0"
       orientation="1,0" />
    <sodipodi:guide
       id="guide9098"
       position="0,0"
       orientation="1,0" />
    <sodipodi:guide
       id="guide9100"
       position="0,1000"
       orientation="0,1" />
    <sodipodi:guide
       id="guide9102"
       position="0,750"
       orientation="0,1" />
    <sodipodi:guide
       id="guide9104"
       position="0,1000"
       orientation="1,0" />
    <sodipodi:guide
       id="guide9106"
       position="0,1000"
       orientation="1,0" />
    <sodipodi:guide
       id="guide9108"
       position="0,1000"
       orientation="1,0" />
    <sodipodi:guide
       id="guide9110"
       position="0,750"
       orientation="1,0" />
    <sodipodi:guide
       id="guide9112"
       position="0,750"
       orientation="1,0" />
    <sodipodi:guide
       id="guide9116"
       position="-550,0"
       orientation="1,0" />
    <sodipodi:guide
       id="guide9118"
       position="-250,0"
       orientation="1,0" />
  </sodipodi:namedview>
  <defs
     id="defs4">
    <marker
       style="overflow:visible;"
       id="Arrow1Mend"
       refX="0.0"
       refY="0.0"
       orient="auto"
       inkscape:stockid="Arrow1Mend">
      <path
         transform="scale(0.4) rotate(180) translate(10,0)"
         style="fill-rule:evenodd;stroke:#000000;stroke-width:1.0pt;"
         d="M 0.0,0.0 L 5.0,-5.0 L -12.5,0.0 L 5.0,5.0 L 0.0,0.0 z "
         id="path3772" />
    </marker>
    <marker
       style="overflow:visible;"
       id="Arrow1Lend"
       refX="0.0"
       refY="0.0"
       orient="auto"
       inkscape:stockid="Arrow1Lend">
      <path
         transform="scale(0.8) rotate(180) translate(12.5,0)"
         style="fill-rule:evenodd;stroke:#000000;stroke-width:1.0pt;"
         d="M 0.0,0.0 L 5.0,-5.0 L -12.5,0.0 L 5.0,5.0 L 0.0,0.0 z "
         id="path3766" />
    </marker>
    <marker
       style="overflow:visible"
       id="Arrow1Lstart"
       refX="0.0"
       refY="0.0"
       orient="auto"
       inkscape:stockid="Arrow1Lstart">
      <path
         transform="scale(0.8) translate(12.5,0)"
         style="fill-rule:evenodd;stroke:#000000;stroke-width:1.0pt"
         d="M 0.0,0.0 L 5.0,-5.0 L -12.5,0.0 L 5.0,5.0 L 0.0,0.0 z "
         id="path3763" />
    </marker>
    <marker
       style="overflow:visible;"
       id="Arrow2Lend"
       refX="0.0"
       refY="0.0"
       orient="auto"
       inkscape:stockid="Arrow2Lend">
      <path
         transform="scale(1.1) rotate(180) translate(1,0)"
         d="M 8.7185878,4.0337352 L -2.2072895,0.016013256 L 8.7185884,-4.0017078 C 6.9730900,-1.6296469 6.9831476,1.6157441 8.7185878,4.0337352 z "
         style="fill-rule:evenodd;stroke-width:0.62500000;stroke-linejoin:round;"
         id="path3784" />
    </marker>
    <marker
       style="overflow:visible"
       id="Arrow2Lstart"
       refX="0.0"
       refY="0.0"
       orient="auto"
       inkscape:stockid="Arrow2Lstart">
      <path
         transform="scale(1.1) translate(1,0)"
         d="M 8.7185878,4.0337352 L -2.2072895,0.016013256 L 8.7185884,-4.0017078 C 6.9730900,-1.6296469 6.9831476,1.6157441 8.7185878,4.0337352 z "
         style="fill-rule:evenodd;stroke-width:0.62500000;stroke-linejoin:round"
         id="path3781" />
    </marker>
    <marker
       style="overflow:visible"
       id="Arrow2Lstart-0"
       refX="0"
       refY="0"
       orient="auto"
       inkscape:stockid="Arrow2Lstart">
      <path
         transform="matrix(1.1,0,0,1.1,1.1,0)"
         d="M 8.7185878,4.0337352 -2.2072895,0.01601326 8.7185884,-4.0017078 c -1.7454984,2.3720609 -1.7354408,5.6174519 -6e-7,8.035443 z"
         style="fill-rule:evenodd;stroke-width:0.625;stroke-linejoin:round"
         id="path3781-9"
         inkscape:connector-curvature="0" />
    </marker>
    <marker
       style="overflow:visible"
       id="Arrow2Lend-6"
       refX="0"
       refY="0"
       orient="auto"
       inkscape:stockid="Arrow2Lend">
      <path
         transform="matrix(-1.1,0,0,-1.1,-1.1,0)"
         d="M 8.7185878,4.0337352 -2.2072895,0.01601326 8.7185884,-4.0017078 c -1.7454984,2.3720609 -1.7354408,5.6174519 -6e-7,8.035443 z"
         style="fill-rule:evenodd;stroke-width:0.625;stroke-linejoin:round"
         id="path3784-2"
         inkscape:connector-curvature="0" />
    </marker>
    <marker
       style="overflow:visible"
       id="Arrow2Lstart-7"
       refX="0"
       refY="0"
       orient="auto"
       inkscape:stockid="Arrow2Lstart">
      <path
         transform="matrix(1.1,0,0,1.1,1.1,0)"
         d="M 8.7185878,4.0337352 -2.2072895,0.01601326 8.7185884,-4.0017078 c -1.7454984,2.3720609 -1.7354408,5.6174519 -6e-7,8.035443 z"
         style="fill-rule:evenodd;stroke-width:0.625;stroke-linejoin:round"
         id="path3781-1"
         inkscape:connector-curvature="0" />
    </marker>
    <marker
       style="overflow:visible"
       id="Arrow2Lend-65"
       refX="0"
       refY="0"
       orient="auto"
       inkscape:stockid="Arrow2Lend">
      <path
         transform="matrix(-1.1,0,0,-1.1,-1.1,0)"
         d="M 8.7185878,4.0337352 -2.2072895,0.01601326 8.7185884,-4.0017078 c -1.7454984,2.3720609 -1.7354408,5.6174519 -6e-7,8.035443 z"
         style="fill-rule:evenodd;stroke-width:0.625;stroke-linejoin:round"
         id="path3784-6"
         inkscape:connector-curvature="0" />
    </marker>
    <marker
       style="overflow:visible"
       id="Arrow1Lstart-4"
       refX="0"
       refY="0"
       orient="auto"
       inkscape:stockid="Arrow1Lstart">
      <path
         transform="matrix(0.8,0,0,0.8,10,0)"
         style="fill-rule:evenodd;stroke:#000000;stroke-width:1pt"
         d="M 0,0 5,-5 -12.5,0 5,5 0,0 z"
         id="path3763-2"
         inkscape:connector-curvature="0" />
    </marker>
    <marker
       style="overflow:visible"
       id="Arrow1Lend-0"
       refX="0"
       refY="0"
       orient="auto"
       inkscape:stockid="Arrow1Lend">
      <path
         transform="matrix(-0.8,0,0,-0.8,-10,0)"
         style="fill-rule:evenodd;stroke:#000000;stroke-width:1pt"
         d="M 0,0 5,-5 -12.5,0 5,5 0,0 z"
         id="path3766-1"
         inkscape:connector-curvature="0" />
    </marker>
  </defs>
  <metadata
     id="metadata7">
    <rdf:RDF>
      <cc:Work
         rdf:about="">
        <dc:format>image/svg+xml</dc:format>
        <dc:type
           rdf:resource="http://purl.org/dc/dcmitype/StillImage" />
        <dc:title />
      </cc:Work>
    </rdf:RDF>
  </metadata>
  <g
     style="display:none"
     inkscape:label="Original"
     id="layer3"
     inkscape:groupmode="layer"
     sodipodi:insensitive="true">
    <path
       sodipodi:nodetypes="ccccc"
       inkscape:connector-curvature="0"
       id="rect8702-7"
       d="m -550,52.362183 300,0 250,249.999997 -800,0 z"
       style="fill:none;stroke:#000000;stroke-width:0.09994961;stroke-linecap:round;stroke-linejoin:miter;stroke-miterlimit:4;stroke-opacity:1;stroke-dasharray:none;display:inline" />
    <flowRoot
       xml:space="preserve"
       id="flowRoot6791"
       style="font-size:40px;font-style:normal;font-weight:normal;line-height:125%;letter-spacing:0px;word-spacing:0px;fill:#000000;fill-opacity:1;stroke:none;font-family:Sans"><flowRegion
         id="flowRegion6793"><rect
           id="rect6795"
           width="344"
           height="224"
           x="292"
           y="1860.3622" /></flowRegion><flowPara
         id="flowPara6797" /></flowRoot>    <g
       id="g8664">
      <path
         style="fill:none;stroke:#000000;stroke-width:5.13218069;stroke-miterlimit:4;stroke-dasharray:none"
         d="m 249.99999,654.92827 -41.05634,71.85248 32.86114,0 0,68.42025 -67.39014,0 0,-33.90539 -71.84856,41.05857 71.84856,41.05855 0,-31.82038 67.39014,0 0,66.35125 -32.86114,0 41.05634,71.85249 41.05633,-71.85249 -32.86108,0 0,-66.35125 67.39011,0 0,31.82038 71.84856,-41.05855 -71.84856,-41.05857 0,33.90539 -67.39011,0 0,-68.42025 32.86108,0 -41.05633,-71.85248 z"
         id="path8781"
         inkscape:connector-curvature="0" />
      <g
         style="font-style:normal;font-variant:normal;font-weight:normal;font-stretch:normal;letter-spacing:normal;word-spacing:normal;text-anchor:start;fill:none;stroke:#000000;stroke-linecap:butt;stroke-linejoin:miter;stroke-miterlimit:10.43299961;stroke-opacity:1;stroke-dasharray:none;stroke-dashoffset:0"
         id="content"
         transform="matrix(2.3620586,0,0,-2.3623894,-866.32548,1612.992)"
         xml:space="preserve"
         stroke-miterlimit="10.433"
         font-style="normal"
         font-variant="normal"
         font-weight="normal"
         font-stretch="normal"
         font-size-adjust="none"
         letter-spacing="normal"
         word-spacing="normal"><path
           style="fill:#000000;stroke-width:0"
           inkscape:connector-curvature="0"
           d="m 461.1,435.84 v -24.31 c 0,-2.64 -0.39,-3.53 -2.94,-3.58 -0.55,0 -1.39,-0.06 -1.39,-0.86 0,-0.89 0.8,-0.89 1.69,-0.89 h 7.72 c 0.9,0 1.65,0 1.65,0.89 0,0.8 -0.79,0.86 -1.5,0.86 -2.73,0.05 -3.14,1.09 -3.14,3.69 v 22.81 L 484.72,406 c 0.44,-0.6 0.69,-0.75 1.03,-0.75 0.86,0 0.86,0.79 0.86,1.65 v 28.14 c 0,2.8 0.44,3.49 2.74,3.55 0.29,0 1.14,0.05 1.14,0.84 0,0.89 -0.74,0.89 -1.64,0.89 h -7.27 c -0.9,0 -1.7,0 -1.7,-0.89 0,-0.84 0.91,-0.84 1.45,-0.84 2.78,-0.06 3.19,-1.05 3.19,-3.69 v -15.59 l -15.05,20.33 -1.39,-1.05 16.78,-22.67 v -7.17 l -21.67,28.64 c -0.5,0.59 -0.5,0.7 -1.05,1.2 h 5.94 l 1.39,1.05 c -0.5,0.68 -0.65,0.68 -1.79,0.68 H 459 c -0.89,0 -1.64,0 -1.64,-0.89 0,-0.75 0.75,-0.84 1.05,-0.84 1.34,-0.16 2.3,-0.95 2.78,-1.55 -0.09,-0.4 -0.09,-0.5 -0.09,-1.2 z"
           id="path6419" /></g>      <g
         word-spacing="normal"
         letter-spacing="normal"
         font-size-adjust="none"
         font-stretch="normal"
         font-weight="normal"
         font-variant="normal"
         font-style="normal"
         stroke-miterlimit="10.433"
         xml:space="preserve"
         transform="matrix(2.3620586,0,0,-2.3623894,-1074.9428,1797.385)"
         id="g6515"
         style="font-style:normal;font-variant:normal;font-weight:normal;font-stretch:normal;letter-spacing:normal;word-spacing:normal;text-anchor:start;fill:none;stroke:#000000;stroke-linecap:butt;stroke-linejoin:miter;stroke-miterlimit:10.43299961;stroke-opacity:1;stroke-dasharray:none;stroke-dashoffset:0"><path
           id="path6517"
           d="m 502.05,436.25 0.06,0.15 0.05,0.15 0.06,0.14 0.05,0.14 0.05,0.13 0.06,0.12 0.05,0.12 0.06,0.11 0.05,0.1 0.06,0.11 0.05,0.09 0.06,0.09 0.06,0.09 0.05,0.07 0.06,0.08 0.06,0.07 0.06,0.07 0.06,0.06 0.06,0.05 0.07,0.06 0.06,0.04 0.07,0.05 0.07,0.04 0.07,0.03 0.07,0.04 0.08,0.03 0.07,0.02 0.08,0.03 0.08,0.02 0.08,0.01 0.09,0.02 0.09,0.01 c 0.64,0.09 0.84,0.48 0.84,0.84 0,0.89 -0.75,0.89 -1.64,0.89 h -7.08 c -0.89,0 -1.64,0 -1.64,-0.89 0,-0.45 0.35,-0.79 0.8,-0.84 1.14,-0.11 2.34,-0.2 2.34,-3.59 l 1.74,-0.71 c 0,1.85 0,3 -0.75,4.3 h 2.5 c -0.5,-0.8 -1.21,-2.84 -1.75,-4.3 l -1.74,0.71 c 0,-4.29 -2.2,-10.72 -4.68,-17.99 -0.41,0.89 -6.38,16.14 -6.54,20.38 l -1.23,1.2 c -0.5,-0.41 -0.5,-1.25 -0.5,-1.5 0,-3.89 6.67,-20.97 7.52,-23.06 -0.8,-2.21 -1.49,-4.1 -1.9,-5.39 l -10.4,27.5 c -0.36,0.86 -0.75,1.7 -1.3,2.45 h 6.58 l 1.23,-1.2 c 0.21,0.25 1.16,1.09 2.39,1.2 0.25,0 1.05,0.09 1.05,0.84 0,0.89 -0.75,0.89 -1.64,0.89 h -12 c -0.91,0 -1.7,0 -1.7,-0.89 0,-0.15 0.11,-0.7 0.79,-0.84 0.91,-0.16 1.8,-0.25 2.85,-2.89 0.64,-1.5 1.3,-3.3 1.89,-4.99 l -6.47,-14.9 -3.55,10.17 c -1.14,3.39 -3.07,9.56 -3.07,11.31 l -1.75,0.05 c 0,-3.64 6.03,-20.28 7.37,-23.97 l -2.09,-4.83 -9.93,27.75 c -0.14,0.5 -0.48,1.44 -0.98,2.3 h 5.92 c -0.14,-0.25 -0.29,-0.45 -0.29,-1.25 l 1.75,-0.05 c 0,0.55 0.98,1.19 1.84,1.3 0.14,0 0.94,0.09 0.94,0.84 0,0.89 -0.8,0.89 -1.69,0.89 h -10.56 c -0.91,0 -1.64,0 -1.64,-0.89 0,-0.7 0.68,-0.79 0.93,-0.84 1.14,-0.16 1.75,-1.7 1.94,-2.25 l 10.67,-29.94 c 0.25,-0.75 0.39,-1.15 1,-1.15 0.55,0 0.69,0.36 0.99,1 l 9.62,22.03 8.27,-21.83 c 0.29,-0.84 0.45,-1.2 1.04,-1.2 0.6,0 0.75,0.4 1,1.15 z"
           inkscape:connector-curvature="0"
           style="fill:#000000;stroke-width:0" /></g>      <g
         style="font-style:normal;font-variant:normal;font-weight:normal;font-stretch:normal;letter-spacing:normal;word-spacing:normal;text-anchor:start;fill:none;stroke:#000000;stroke-linecap:butt;stroke-linejoin:miter;stroke-miterlimit:10.43299961;stroke-opacity:1;stroke-dasharray:none;stroke-dashoffset:0"
         id="g6619"
         transform="matrix(0.47241172,0,0,-0.47247789,222.17945,998.58323)"
         xml:space="preserve"
         stroke-miterlimit="10.433"
         font-style="normal"
         font-variant="normal"
         font-weight="normal"
         font-stretch="normal"
         font-size-adjust="none"
         letter-spacing="normal"
         word-spacing="normal"><path
           style="fill:#000000;stroke-width:0"
           inkscape:connector-curvature="0"
           d="m 455.01,421.61 0.6,0 0.6,0 0.7,0 0.65,0 0.75,0 0.75,0 0.75,-0.05 0.8,0 0.8,-0.05 0.85,-0.05 1.7,-0.1 1.75,-0.15 1.8,-0.25 1.85,-0.25 1.85,-0.35 0.9,-0.2 0.95,-0.25 0.9,-0.2 0.9,-0.3 0.95,-0.3 0.9,-0.3 0.9,-0.3 0.85,-0.4 0.9,-0.4 0.85,-0.4 0.85,-0.45 0.8,-0.45 -1,10.2 v 0.25 c 3.95,1.8 9.5,5.45 13.95,10.7 v -20.85 c -6,6.7 -13.65,9.9 -13.95,9.9 l 1,-10.2 c 11.95,-7.65 12.95,-21.2 12.95,-22.65 0.25,-3.45 0.25,-6.75 4.5,-6.75 4.25,0 4.25,3.5 4.25,8 v 67.5 c 0,3.95 0,7.95 -4.25,7.95 -4.25,0 -4.5,-3.75 -4.5,-5.7 -1.45,-32.1 -26.85,-33.9 -39.8,-34.15 v 52.6 c 0,16.7 4.65,16.7 10.7,16.7 h 11.95 c 33.6,0 50.3,-17.2 51.8,-34.4 0.2,-2 0.55,-5.75 4.5,-5.75 4.25,0 4.25,4 4.25,8.2 v 32.4 c 0,7.75 -0.55,8.2 -8.2,8.2 l -0.55,-8.65 v -11.95 c -4.25,4.7 -9,8.65 -14.25,11.95 h 14.25 l 0.55,8.65 h -127.6 c -4.45,0 -8.45,0 -8.45,-4.45 0,-4.2 4.7,-4.2 6.75,-4.2 14.1,0 15.15,-2.05 15.15,-14.2 V 360.86 l 8.75,-0.5 v 125.8 c 0,2.95 0,9.2 -2.05,13.75 h 26.4 c -2.7,-5.8 -2.7,-14 -2.7,-16.25 v -120.8 c 0,-8.95 1.8,-13.95 2.7,-16.15 h -26.4 c 2.05,4.45 2.05,10.7 2.05,13.65 l -8.75,0.5 c 0,-11.75 -0.7,-14.15 -13.9,-14.15 -3.75,0 -8,0 -8,-4.3 0,-4.45 4,-4.45 8.45,-4.45 h 132.05 l 0.2,8.75 h -17.4 v 0.25 c 7.95,3.95 14.7,9.2 19.7,13.65 -0.25,-1 -2.05,-11.95 -2.3,-13.9 l -0.2,-8.75 c 4.75,0 7.15,0 7.95,3.5 0.25,0.25 7.2,41.8 7.2,43.05 0,2.75 -2.2,4.55 -4.25,4.55 -3.4,0 -4.45,-3.3 -4.45,-3.55 -1.45,-6.45 -3.95,-16.95 -22.15,-27.65 -13,-7.7 -25.65,-11.15 -39.4,-11.15 h -13.65 c -6.05,0 -10.7,0 -10.7,16.65 z"
           id="path6621" /></g>      <g
         word-spacing="normal"
         letter-spacing="normal"
         font-size-adjust="none"
         font-stretch="normal"
         font-weight="normal"
         font-variant="normal"
         font-style="normal"
         stroke-miterlimit="10.433"
         xml:space="preserve"
         transform="matrix(2.3620586,0,0,-2.3623894,-860.68291,1999.6023)"
         id="g6729"
         style="font-style:normal;font-variant:normal;font-weight:normal;font-stretch:normal;letter-spacing:normal;word-spacing:normal;text-anchor:start;fill:none;stroke:#000000;stroke-linecap:butt;stroke-linejoin:miter;stroke-miterlimit:10.43299961;stroke-opacity:1;stroke-dasharray:none;stroke-dashoffset:0"><path
           id="path6731"
           d="m 465.99,421.45 0.74,-0.33 0.76,-0.34 0.78,-0.36 0.78,-0.38 0.78,-0.4 0.38,-0.21 0.38,-0.22 0.37,-0.22 0.36,-0.23 0.36,-0.24 0.34,-0.25 0.33,-0.26 0.32,-0.26 0.31,-0.28 0.29,-0.28 0.27,-0.3 0.26,-0.3 0.24,-0.32 0.22,-0.32 0.2,-0.34 0.17,-0.34 0.15,-0.36 0.13,-0.38 0.1,-0.38 0.07,-0.4 0.05,-0.41 0.01,-0.42 h 1.75 c 0,5.23 -5.18,7.98 -9.06,9.62 -4.69,1.99 -9.12,4.08 -9.12,8.77 0,2.34 0.65,5.19 3.34,6.72 l 0.05,-0.05 c -0.91,-1.44 -0.96,-3.14 -0.96,-3.53 0,-4.53 5.49,-6.83 9.97,-8.63 1.85,-0.75 4.39,-1.73 6.33,-3.73 1.6,-1.73 2.74,-3.64 2.74,-6.33 0,-3.89 -2.54,-5.83 -4.04,-6.62 h 0 c 0.71,1.45 0.75,3.43 0.75,3.78 h -1.75 c 0,-3.53 -1.54,-5.58 -6.46,-5.58 -2.6,0 -4.79,1.41 -6.54,3.19 -2.93,3 -3.03,5.68 -3.03,6.78 0,0.45 -0.4,0.84 -0.86,0.84 -0.89,0 -0.89,-0.79 -0.89,-1.64 v -9.26 c 0,-0.85 0,-1.64 0.89,-1.64 0.36,0 0.5,0.14 0.75,0.43 0.85,0.8 1.75,0.96 2.39,0.96 l 0.05,1.75 c -0.73,0 -1.59,-0.11 -2.33,-0.5 v 3.18 h 0.05 c 0,0 0.75,-1.2 2.28,-2.68 L 461.39,407 c 1.3,0 2.5,-0.46 2.94,-0.64 2.05,-0.75 3.5,-0.75 4.3,-0.75 7.17,0 13.3,3.64 13.3,10.15 0,4.19 -2.55,8.67 -9.68,11.47 -4.42,1.78 -9.36,3.73 -9.36,7.22 0,2.73 1.94,5.08 5.49,5.08 3.58,0 8.42,-3.74 9.36,-7.92 0.15,-0.69 0.25,-1.19 0.95,-1.19 0.85,0 0.85,0.79 0.85,1.64 v 7.58 c 0,0.84 0,1.64 -0.85,1.64 -0.4,0 -0.61,-0.25 -0.8,-0.41 -0.45,-0.44 -1.15,-1 -2.39,-1 l 0.1,-1.73 c 1.34,0.04 2.14,0.45 2.19,0.5 v -3 c -0.35,0.56 -0.8,1.04 -2.19,2.5 l -0.1,1.73 c -1.25,0 -2.39,0.41 -3,0.61 -1.59,0.59 -2.73,0.8 -4.23,0.8 -6.77,0 -11.31,-3.35 -11.31,-9.97 0,-3.24 1.36,-6.63 9.03,-9.86 z"
           inkscape:connector-curvature="0"
           style="fill:#000000;stroke-width:0" /></g>      <rect
         style="fill:none;stroke:#000000;stroke-width:2.22224045;stroke-linecap:round;stroke-linejoin:miter;stroke-miterlimit:4;stroke-opacity:1;stroke-dasharray:none"
         id="rect8556"
         width="497.77792"
         height="497.84766"
         x="1.111125"
         y="553.40344" />
    </g>
  </g>
  <g
     inkscape:groupmode="layer"
     id="g8676"
     inkscape:label="North Original"
     style="display:none"
     sodipodi:insensitive="true">
    <path
       style="fill:none;stroke:#000000;stroke-width:0.09994961;stroke-linecap:round;stroke-linejoin:miter;stroke-miterlimit:4;stroke-opacity:1;stroke-dasharray:none;display:inline"
       d="m -550,52.362183 300,0 250,249.999997 -800,0 z"
       id="path8678"
       inkscape:connector-curvature="0"
       sodipodi:nodetypes="ccccc" />
    <flowRoot
       style="font-size:40px;font-style:normal;font-weight:normal;line-height:125%;letter-spacing:0px;word-spacing:0px;fill:#000000;fill-opacity:1;stroke:none;font-family:Sans"
       id="flowRoot8680"
       xml:space="preserve"><flowRegion
         id="flowRegion8682"><rect
           y="1860.3622"
           x="292"
           height="224"
           width="344"
           id="rect8684" /></flowRegion><flowPara
         id="flowPara8686" /></flowRoot>    <g
       transform="matrix(-1,0,0,-1,500,1604.625)"
       id="g8750">
      <path
         style="font-size:medium;font-style:normal;font-variant:normal;font-weight:normal;font-stretch:normal;text-indent:0;text-align:start;text-decoration:none;line-height:normal;letter-spacing:normal;word-spacing:normal;text-transform:none;direction:ltr;block-progression:tb;writing-mode:lr-tb;text-anchor:start;baseline-shift:baseline;color:#000000;fill:#000000;fill-opacity:1;stroke:none;stroke-width:5.13218069;marker:none;visibility:visible;display:inline;overflow:visible;enable-background:accumulate;font-family:Sans;-inkscape-font-specification:Sans"
         d="m 249.96875,649.71875 -2.21875,3.90625 -41.0625,71.84375 -2.1875,3.84375 4.40625,0 29.25,0 0,62.25 -61.21875,0 0,-30.28125 0,-4.4375 -3.8125,2.1875 -71.875,41.0625 -3.90625,2.21875 3.90625,2.25 71.875,41.0625 3.8125,2.1875 0,-4.4375 0,-30.28125 61.21875,0 0,62.25 -29.25,0 -4.40625,0 2.1875,3.84375 41.0625,71.84375 2.21875,3.90625 2.21875,-3.90625 41.0625,-71.84375 2.21875,-3.84375 -4.4375,0 -31.34375,0 0,-62.25 63.28125,0 0,30.28125 0,4.4375 3.84375,-2.1875 71.875,-41.0625 3.875,-2.25 -3.875,-2.21875 -71.875,-41.0625 -3.84375,-2.1875 0,4.4375 0,30.28125 -63.28125,0 0,-62.25 31.34375,0 4.4375,0 -2.21875,-3.84375 -41.0625,-71.84375 -2.21875,-3.90625 z m 0,10.3125 36.65625,64.15625 -29.5,0 -2.5625,0 0,2.5625 0,67.375 0,2.5625 2.5625,0 68.40625,0 2.59375,0 0,-2.5625 0,-28.4375 64.09375,36.625 -64.09375,36.65625 0,-28.4375 0,-2.5625 -2.59375,0 -68.40625,0 -2.5625,0 0,2.5625 0,67.375 0,2.5625 2.5625,0 29.5,0 -36.65625,64.15625 -36.625,-64.15625 27.40625,0 2.5625,0 0,-2.5625 0,-67.375 0,-2.5625 -2.5625,0 -66.375,0 -2.5625,0 0,2.5625 0,28.4375 -64.09375,-36.65625 64.09375,-36.625 0,28.4375 0,2.5625 2.5625,0 66.375,0 2.5625,0 0,-2.5625 0,-67.375 0,-2.5625 -2.5625,0 -27.40625,0 36.625,-64.15625 z"
         id="path8690"
         inkscape:connector-curvature="0" />
      <g
         word-spacing="normal"
         letter-spacing="normal"
         font-size-adjust="none"
         font-stretch="normal"
         font-weight="normal"
         font-variant="normal"
         font-style="normal"
         stroke-miterlimit="10.433"
         xml:space="preserve"
         transform="matrix(0,2.3620586,2.3623894,0,-560.6646,-313.9983)"
         id="g8692"
         style="font-style:normal;font-variant:normal;font-weight:normal;font-stretch:normal;letter-spacing:normal;word-spacing:normal;text-anchor:start;fill:none;stroke:#000000;stroke-linecap:butt;stroke-linejoin:miter;stroke-miterlimit:10.43299961;stroke-opacity:1;stroke-dasharray:none;stroke-dashoffset:0"><path
           id="path8694"
           d="m 461.1,435.84 v -24.31 c 0,-2.64 -0.39,-3.53 -2.94,-3.58 -0.55,0 -1.39,-0.06 -1.39,-0.86 0,-0.89 0.8,-0.89 1.69,-0.89 h 7.72 c 0.9,0 1.65,0 1.65,0.89 0,0.8 -0.79,0.86 -1.5,0.86 -2.73,0.05 -3.14,1.09 -3.14,3.69 v 22.81 L 484.72,406 c 0.44,-0.6 0.69,-0.75 1.03,-0.75 0.86,0 0.86,0.79 0.86,1.65 v 28.14 c 0,2.8 0.44,3.49 2.74,3.55 0.29,0 1.14,0.05 1.14,0.84 0,0.89 -0.74,0.89 -1.64,0.89 h -7.27 c -0.9,0 -1.7,0 -1.7,-0.89 0,-0.84 0.91,-0.84 1.45,-0.84 2.78,-0.06 3.19,-1.05 3.19,-3.69 v -15.59 l -15.05,20.33 -1.39,-1.05 16.78,-22.67 v -7.17 l -21.67,28.64 c -0.5,0.59 -0.5,0.7 -1.05,1.2 h 5.94 l 1.39,1.05 c -0.5,0.68 -0.65,0.68 -1.79,0.68 H 459 c -0.89,0 -1.64,0 -1.64,-0.89 0,-0.75 0.75,-0.84 1.05,-0.84 1.34,-0.16 2.3,-0.95 2.78,-1.55 -0.09,-0.4 -0.09,-0.5 -0.09,-1.2 z"
           inkscape:connector-curvature="0"
           style="fill:#000000;stroke-width:0" /></g>      <g
         style="font-style:normal;font-variant:normal;font-weight:normal;font-stretch:normal;letter-spacing:normal;word-spacing:normal;text-anchor:start;fill:none;stroke:#000000;stroke-linecap:butt;stroke-linejoin:miter;stroke-miterlimit:10.43299961;stroke-opacity:1;stroke-dasharray:none;stroke-dashoffset:0"
         id="g8696"
         transform="matrix(0,2.3620586,2.3623894,0,-745.0576,-522.61562)"
         xml:space="preserve"
         stroke-miterlimit="10.433"
         font-style="normal"
         font-variant="normal"
         font-weight="normal"
         font-stretch="normal"
         font-size-adjust="none"
         letter-spacing="normal"
         word-spacing="normal"><path
           style="fill:#000000;stroke-width:0"
           inkscape:connector-curvature="0"
           d="m 502.05,436.25 0.06,0.15 0.05,0.15 0.06,0.14 0.05,0.14 0.05,0.13 0.06,0.12 0.05,0.12 0.06,0.11 0.05,0.1 0.06,0.11 0.05,0.09 0.06,0.09 0.06,0.09 0.05,0.07 0.06,0.08 0.06,0.07 0.06,0.07 0.06,0.06 0.06,0.05 0.07,0.06 0.06,0.04 0.07,0.05 0.07,0.04 0.07,0.03 0.07,0.04 0.08,0.03 0.07,0.02 0.08,0.03 0.08,0.02 0.08,0.01 0.09,0.02 0.09,0.01 c 0.64,0.09 0.84,0.48 0.84,0.84 0,0.89 -0.75,0.89 -1.64,0.89 h -7.08 c -0.89,0 -1.64,0 -1.64,-0.89 0,-0.45 0.35,-0.79 0.8,-0.84 1.14,-0.11 2.34,-0.2 2.34,-3.59 l 1.74,-0.71 c 0,1.85 0,3 -0.75,4.3 h 2.5 c -0.5,-0.8 -1.21,-2.84 -1.75,-4.3 l -1.74,0.71 c 0,-4.29 -2.2,-10.72 -4.68,-17.99 -0.41,0.89 -6.38,16.14 -6.54,20.38 l -1.23,1.2 c -0.5,-0.41 -0.5,-1.25 -0.5,-1.5 0,-3.89 6.67,-20.97 7.52,-23.06 -0.8,-2.21 -1.49,-4.1 -1.9,-5.39 l -10.4,27.5 c -0.36,0.86 -0.75,1.7 -1.3,2.45 h 6.58 l 1.23,-1.2 c 0.21,0.25 1.16,1.09 2.39,1.2 0.25,0 1.05,0.09 1.05,0.84 0,0.89 -0.75,0.89 -1.64,0.89 h -12 c -0.91,0 -1.7,0 -1.7,-0.89 0,-0.15 0.11,-0.7 0.79,-0.84 0.91,-0.16 1.8,-0.25 2.85,-2.89 0.64,-1.5 1.3,-3.3 1.89,-4.99 l -6.47,-14.9 -3.55,10.17 c -1.14,3.39 -3.07,9.56 -3.07,11.31 l -1.75,0.05 c 0,-3.64 6.03,-20.28 7.37,-23.97 l -2.09,-4.83 -9.93,27.75 c -0.14,0.5 -0.48,1.44 -0.98,2.3 h 5.92 c -0.14,-0.25 -0.29,-0.45 -0.29,-1.25 l 1.75,-0.05 c 0,0.55 0.98,1.19 1.84,1.3 0.14,0 0.94,0.09 0.94,0.84 0,0.89 -0.8,0.89 -1.69,0.89 h -10.56 c -0.91,0 -1.64,0 -1.64,-0.89 0,-0.7 0.68,-0.79 0.93,-0.84 1.14,-0.16 1.75,-1.7 1.94,-2.25 l 10.67,-29.94 c 0.25,-0.75 0.39,-1.15 1,-1.15 0.55,0 0.69,0.36 0.99,1 l 9.62,22.03 8.27,-21.83 c 0.29,-0.84 0.45,-1.2 1.04,-1.2 0.6,0 0.75,0.4 1,1.15 z"
           id="path8698" /></g>      <g
         word-spacing="normal"
         letter-spacing="normal"
         font-size-adjust="none"
         font-stretch="normal"
         font-weight="normal"
         font-variant="normal"
         font-style="normal"
         stroke-miterlimit="10.433"
         xml:space="preserve"
         transform="matrix(0,0.47241172,0.47247789,0,53.74417,774.50663)"
         id="g8700"
         style="font-style:normal;font-variant:normal;font-weight:normal;font-stretch:normal;letter-spacing:normal;word-spacing:normal;text-anchor:start;fill:none;stroke:#000000;stroke-linecap:butt;stroke-linejoin:miter;stroke-miterlimit:10.43299961;stroke-opacity:1;stroke-dasharray:none;stroke-dashoffset:0"><path
           id="path8702"
           d="m 455.01,421.61 0.6,0 0.6,0 0.7,0 0.65,0 0.75,0 0.75,0 0.75,-0.05 0.8,0 0.8,-0.05 0.85,-0.05 1.7,-0.1 1.75,-0.15 1.8,-0.25 1.85,-0.25 1.85,-0.35 0.9,-0.2 0.95,-0.25 0.9,-0.2 0.9,-0.3 0.95,-0.3 0.9,-0.3 0.9,-0.3 0.85,-0.4 0.9,-0.4 0.85,-0.4 0.85,-0.45 0.8,-0.45 -1,10.2 v 0.25 c 3.95,1.8 9.5,5.45 13.95,10.7 v -20.85 c -6,6.7 -13.65,9.9 -13.95,9.9 l 1,-10.2 c 11.95,-7.65 12.95,-21.2 12.95,-22.65 0.25,-3.45 0.25,-6.75 4.5,-6.75 4.25,0 4.25,3.5 4.25,8 v 67.5 c 0,3.95 0,7.95 -4.25,7.95 -4.25,0 -4.5,-3.75 -4.5,-5.7 -1.45,-32.1 -26.85,-33.9 -39.8,-34.15 v 52.6 c 0,16.7 4.65,16.7 10.7,16.7 h 11.95 c 33.6,0 50.3,-17.2 51.8,-34.4 0.2,-2 0.55,-5.75 4.5,-5.75 4.25,0 4.25,4 4.25,8.2 v 32.4 c 0,7.75 -0.55,8.2 -8.2,8.2 l -0.55,-8.65 v -11.95 c -4.25,4.7 -9,8.65 -14.25,11.95 h 14.25 l 0.55,8.65 h -127.6 c -4.45,0 -8.45,0 -8.45,-4.45 0,-4.2 4.7,-4.2 6.75,-4.2 14.1,0 15.15,-2.05 15.15,-14.2 V 360.86 l 8.75,-0.5 v 125.8 c 0,2.95 0,9.2 -2.05,13.75 h 26.4 c -2.7,-5.8 -2.7,-14 -2.7,-16.25 v -120.8 c 0,-8.95 1.8,-13.95 2.7,-16.15 h -26.4 c 2.05,4.45 2.05,10.7 2.05,13.65 l -8.75,0.5 c 0,-11.75 -0.7,-14.15 -13.9,-14.15 -3.75,0 -8,0 -8,-4.3 0,-4.45 4,-4.45 8.45,-4.45 h 132.05 l 0.2,8.75 h -17.4 v 0.25 c 7.95,3.95 14.7,9.2 19.7,13.65 -0.25,-1 -2.05,-11.95 -2.3,-13.9 l -0.2,-8.75 c 4.75,0 7.15,0 7.95,3.5 0.25,0.25 7.2,41.8 7.2,43.05 0,2.75 -2.2,4.55 -4.25,4.55 -3.4,0 -4.45,-3.3 -4.45,-3.55 -1.45,-6.45 -3.95,-16.95 -22.15,-27.65 -13,-7.7 -25.65,-11.15 -39.4,-11.15 h -13.65 c -6.05,0 -10.7,0 -10.7,16.65 z"
           inkscape:connector-curvature="0"
           style="fill:#000000;stroke-width:0" /></g>      <g
         style="font-style:normal;font-variant:normal;font-weight:normal;font-stretch:normal;letter-spacing:normal;word-spacing:normal;text-anchor:start;fill:none;stroke:#000000;stroke-linecap:butt;stroke-linejoin:miter;stroke-miterlimit:10.43299961;stroke-opacity:1;stroke-dasharray:none;stroke-dashoffset:0"
         id="g8704"
         transform="matrix(0,2.3620586,2.3623894,0,-947.2749,-308.35573)"
         xml:space="preserve"
         stroke-miterlimit="10.433"
         font-style="normal"
         font-variant="normal"
         font-weight="normal"
         font-stretch="normal"
         font-size-adjust="none"
         letter-spacing="normal"
         word-spacing="normal"><path
           style="fill:#000000;stroke-width:0"
           inkscape:connector-curvature="0"
           d="m 465.99,421.45 0.74,-0.33 0.76,-0.34 0.78,-0.36 0.78,-0.38 0.78,-0.4 0.38,-0.21 0.38,-0.22 0.37,-0.22 0.36,-0.23 0.36,-0.24 0.34,-0.25 0.33,-0.26 0.32,-0.26 0.31,-0.28 0.29,-0.28 0.27,-0.3 0.26,-0.3 0.24,-0.32 0.22,-0.32 0.2,-0.34 0.17,-0.34 0.15,-0.36 0.13,-0.38 0.1,-0.38 0.07,-0.4 0.05,-0.41 0.01,-0.42 h 1.75 c 0,5.23 -5.18,7.98 -9.06,9.62 -4.69,1.99 -9.12,4.08 -9.12,8.77 0,2.34 0.65,5.19 3.34,6.72 l 0.05,-0.05 c -0.91,-1.44 -0.96,-3.14 -0.96,-3.53 0,-4.53 5.49,-6.83 9.97,-8.63 1.85,-0.75 4.39,-1.73 6.33,-3.73 1.6,-1.73 2.74,-3.64 2.74,-6.33 0,-3.89 -2.54,-5.83 -4.04,-6.62 h 0 c 0.71,1.45 0.75,3.43 0.75,3.78 h -1.75 c 0,-3.53 -1.54,-5.58 -6.46,-5.58 -2.6,0 -4.79,1.41 -6.54,3.19 -2.93,3 -3.03,5.68 -3.03,6.78 0,0.45 -0.4,0.84 -0.86,0.84 -0.89,0 -0.89,-0.79 -0.89,-1.64 v -9.26 c 0,-0.85 0,-1.64 0.89,-1.64 0.36,0 0.5,0.14 0.75,0.43 0.85,0.8 1.75,0.96 2.39,0.96 l 0.05,1.75 c -0.73,0 -1.59,-0.11 -2.33,-0.5 v 3.18 h 0.05 c 0,0 0.75,-1.2 2.28,-2.68 L 461.39,407 c 1.3,0 2.5,-0.46 2.94,-0.64 2.05,-0.75 3.5,-0.75 4.3,-0.75 7.17,0 13.3,3.64 13.3,10.15 0,4.19 -2.55,8.67 -9.68,11.47 -4.42,1.78 -9.36,3.73 -9.36,7.22 0,2.73 1.94,5.08 5.49,5.08 3.58,0 8.42,-3.74 9.36,-7.92 0.15,-0.69 0.25,-1.19 0.95,-1.19 0.85,0 0.85,0.79 0.85,1.64 v 7.58 c 0,0.84 0,1.64 -0.85,1.64 -0.4,0 -0.61,-0.25 -0.8,-0.41 -0.45,-0.44 -1.15,-1 -2.39,-1 l 0.1,-1.73 c 1.34,0.04 2.14,0.45 2.19,0.5 v -3 c -0.35,0.56 -0.8,1.04 -2.19,2.5 l -0.1,1.73 c -1.25,0 -2.39,0.41 -3,0.61 -1.59,0.59 -2.73,0.8 -4.23,0.8 -6.77,0 -11.31,-3.35 -11.31,-9.97 0,-3.24 1.36,-6.63 9.03,-9.86 z"
           id="path8706" /></g>      <path
         style="font-size:medium;font-style:normal;font-variant:normal;font-weight:normal;font-stretch:normal;text-indent:0;text-align:start;text-decoration:none;line-height:normal;letter-spacing:normal;word-spacing:normal;text-transform:none;direction:ltr;block-progression:tb;writing-mode:lr-tb;text-anchor:start;baseline-shift:baseline;color:#000000;fill:#000000;fill-opacity:1;stroke:none;stroke-width:2.22224045;marker:none;visibility:visible;display:inline;overflow:visible;enable-background:accumulate;font-family:Sans;-inkscape-font-specification:Sans"
         d="m 500.03125,552.3125 -1.09375,0 -497.875,0 -1.09375,0 0,1.125 0,497.7813 0,1.0937 1.09375,0 497.875,0 1.09375,0 0,-1.0937 0,-497.7813 0,-1.125 z m -2.21875,2.25 0,495.5313 -495.625,0 0,-495.5313 495.625,0 z"
         id="rect8708"
         inkscape:connector-curvature="0" />
    </g>
  </g>
  <g
     style="display:none"
     inkscape:label="East Modified"
     id="g9398"
     inkscape:groupmode="layer"
     sodipodi:insensitive="true">
    <path
       sodipodi:nodetypes="ccccc"
       inkscape:connector-curvature="0"
       id="path9400"
       d="m -550,52.362183 300,0 250,249.999997 -800,0 z"
       style="fill:none;stroke:#000000;stroke-width:0.09994961;stroke-linecap:round;stroke-linejoin:miter;stroke-miterlimit:4;stroke-opacity:1;stroke-dasharray:none;display:inline" />
    <flowRoot
       xml:space="preserve"
       id="flowRoot9402"
       style="font-size:40px;font-style:normal;font-weight:normal;line-height:125%;letter-spacing:0px;word-spacing:0px;fill:#000000;fill-opacity:1;stroke:none;font-family:Sans"><flowRegion
         id="flowRegion9404"><rect
           id="rect9406"
           width="344"
           height="224"
           x="292"
           y="1860.3622" /></flowRegion><flowPara
         id="flowPara9408" /></flowRoot>    <g
       id="g9410"
       transform="matrix(0,1,-1,0,1052.3125,552.3125)">
      <path
         inkscape:connector-curvature="0"
         id="path9412"
         d="m -347.99231,1452.2748 c 0,0 -2.93916,-2.6531 -2.93916,-2.6531 0,0 -45.40284,-41.2427 -45.40284,-41.2427 0,0 -2.04368,-1.8469 -2.04368,-1.8469 0,0 0,4.4334 0,4.4334 0,0 0,29.4303 0,29.4303 0,0 -29.04103,1.3756 -29.04103,1.3756 0,0 0,-54.4855 0,-54.4855 0,0 13.23956,-3.8688 13.23956,-3.8688 0,0 2.07368,-0.606 2.07368,-0.606 0,0 -1.02678,-3.311 -1.02678,-3.311 0,0 -17.75221,-57.5153 -17.75221,-57.5153 0,0 -0.88373,-2.8829 -0.88373,-2.8829 0,0 -0.88893,3.9375 -0.88893,3.9375 0,0 -15.03859,67.0877 -15.03859,67.0877 0,0 -0.74296,3.3011 -0.74296,3.3011 0,0 1.51288,-0.4421 1.51288,-0.4421 0,0 10.96297,-3.2035 10.96297,-3.2035 0,0 0,52.3935 0,52.3935 0,0 -21.38048,1.0128 -21.38048,1.0128 0,0 0,-22.5322 0,-22.5322 0,0 0,-3.3942 0,-3.3942 0,0 -1.18098,1.8896 -1.18098,1.8896 0,0 -19.6828,31.6149 -19.6828,31.6149 0,0 -0.95481,1.5242 -0.95481,1.5242 0,0 0.95481,1.5239 0.95481,1.5239 0,0 19.6828,31.6099 19.6828,31.6099 0,0 1.18098,1.9135 1.18098,1.9135 0,0 0,-3.4184 0,-3.4184 0,0 0,-24.145 0,-24.145 0,0 21.38048,0.8284 21.38048,0.8284 0,0 0,54.1587 0,54.1587 0,0 -10.96297,-3.1994 -10.96297,-3.1994 0,0 -1.51288,-0.4415 -1.51288,-0.4415 0,0 0.74296,3.3261 0.74296,3.3261 0,0 15.03859,67.0839 15.03859,67.0839 0,0 0.88893,3.91 0.88893,3.91 0,0 0.88373,-2.8558 0.88373,-2.8558 0,0 17.75221,-57.5198 17.75221,-57.5198 0,0 1.02678,-3.341 1.02678,-3.341 0,0 -2.07368,-0.6052 -2.07368,-0.6052 0,0 -13.23956,-3.8638 -13.23956,-3.8638 0,0 0,-56.3212 0,-56.3212 0,0 29.04103,1.1252 29.04103,1.1252 0,0 0,31.5369 0,31.5369 0,0 0,4.4649 0,4.4649 0,0 2.04368,-1.8789 2.04368,-1.8789 0,0 45.40284,-41.254 45.40284,-41.254 0,0 2.93916,-2.6538 2.93916,-2.6538 0,0 0,0 0,0 m -7.63748,9e-4 c 0,0 -40.01589,37.2878 -40.01589,37.2878 0,0 0,-30.0042 0,-30.0042 0,0 0,-2.6063 0,-2.6063 0,0 -1.37354,-0.025 -1.37354,-0.025 0,0 -31.45227,-0.5739 -31.45227,-0.5739 0,0 -1.04255,-0.019 -1.04255,-0.019 0,0 0,2.2591 0,2.2591 0,0 0,60.3094 0,60.3094 0,0 0,2.2867 0,2.2867 0,0 1.04255,0.3258 1.04255,0.3258 0,0 12.26843,3.8334 12.26843,3.8334 0,0 -15.56544,51.0658 -15.56544,51.0658 0,0 -13.63273,-60.1891 -13.63273,-60.1891 0,0 10.4204,3.256 10.4204,3.256 0,0 0.99137,0.3097 0.99137,0.3097 0,0 0,-2.2403 0,-2.2403 0,0 0,-59.0849 0,-59.0849 0,0 0,-2.2133 0,-2.2133 0,0 -0.99137,-0.018 -0.99137,-0.018 0,0 -23.15171,-0.4225 -23.15171,-0.4225 0,0 -0.78251,-0.014 -0.78251,-0.014 0,0 0,1.9578 0,1.9578 0,0 0,22.5394 0,22.5394 0,0 -17.70314,-28.0049 -17.70314,-28.0049 0,0 17.70314,-27.9853 17.70314,-27.9853 0,0 0,20.9396 0,20.9396 0,0 0,1.9578 0,1.9578 0,0 0.78251,-0.021 0.78251,-0.021 0,0 23.15171,-0.6192 23.15171,-0.6192 0,0 0.99137,-0.026 0.99137,-0.026 0,0 0,-2.2134 0,-2.2134 0,0 0,-57.3304 0,-57.3304 0,0 0,-2.2133 0,-2.2133 0,0 -0.99137,0.31 -0.99137,0.31 0,0 -10.4204,3.2586 -10.4204,3.2586 0,0 13.63273,-60.1925 13.63273,-60.1925 0,0 15.56544,51.0619 15.56544,51.0619 0,0 -12.26843,3.8365 -12.26843,3.8365 0,0 -1.04255,0.326 -1.04255,0.326 0,0 0,2.2592 0,2.2592 0,0 0,58.5185 0,58.5185 0,0 0,2.2592 0,2.2592 0,0 1.04255,-0.028 1.04255,-0.028 0,0 31.45227,-0.8413 31.45227,-0.8413 0,0 1.37354,-0.037 1.37354,-0.037 0,0 0,-2.6063 0,-2.6063 0,0 0,-27.8747 0,-27.8747 0,0 40.01589,37.246 40.01589,37.246 0,0 0,0 0,0"
         style="font-size:medium;font-style:normal;font-variant:normal;font-weight:normal;font-stretch:normal;text-indent:0;text-align:start;text-decoration:none;line-height:normal;letter-spacing:normal;word-spacing:normal;text-transform:none;direction:ltr;block-progression:tb;writing-mode:lr-tb;text-anchor:start;baseline-shift:baseline;color:#000000;fill:#000000;fill-opacity:1;stroke:none;stroke-width:5.13218069;marker:none;visibility:visible;display:inline;overflow:visible;enable-background:accumulate;font-family:Sans;-inkscape-font-specification:Sans" />
      <g
         style="font-style:normal;font-variant:normal;font-weight:normal;font-stretch:normal;letter-spacing:normal;word-spacing:normal;text-anchor:start;fill:none;stroke:#000000;stroke-linecap:butt;stroke-linejoin:miter;stroke-miterlimit:10.43299961;stroke-opacity:1;stroke-dasharray:none;stroke-dashoffset:0"
         id="g9414"
         transform="matrix(0,2.3620586,2.3623894,0,-560.6646,-313.9983)"
         xml:space="preserve"
         stroke-miterlimit="10.433"
         font-style="normal"
         font-variant="normal"
         font-weight="normal"
         font-stretch="normal"
         font-size-adjust="none"
         letter-spacing="normal"
         word-spacing="normal"><path
           style="fill:#000000;stroke-width:0"
           inkscape:connector-curvature="0"
           d="m 832.87778,59.360431 c 0,0 -22.31868,0 -22.31868,0 -2.42375,0 -3.13576,0.171484 -2.48598,1.307816 0.15221,0.248578 0.32997,0.630658 -0.41915,0.630658 -0.8334,0 -1.05023,-0.363952 -1.28959,-0.76572 0,0 -1.99727,-3.352476 -1.99727,-3.352476 -0.22402,-0.376013 -0.40934,-0.68709 0.38364,-0.68709 0.7128,0 0.96692,0.327725 1.14846,0.624213 0.75415,1.157537 1.80805,1.333823 4.17275,1.333823 0,0 20.74567,0 20.74567,0 0,0 -30.89882,-8.459033 -30.89882,-8.459033 -0.59032,-0.157397 -0.76686,-0.246576 -0.83785,-0.367569 -0.17871,-0.304553 0.47163,-0.304553 1.17959,-0.304553 0,0 23.16519,0 23.16519,0 2.305,0 2.73332,-0.154998 2.05996,-0.956324 -0.0902,-0.09999 -0.31276,-0.391729 0.32752,-0.391729 0.72132,0 0.95442,0.253873 1.23979,0.564672 0,0 2.38304,2.595377 2.38304,2.595377 0.30501,0.332194 0.57806,0.629567 -0.17514,0.629567 -0.71087,0 -1.01579,-0.338108 -1.19565,-0.53754 -0.96323,-1.012753 -1.91803,-1.160169 -4.10987,-1.160169 0,0 -12.94346,0 -12.94346,0 0,0 22.127,5.75612 22.127,5.75612 0,0 -0.41491,0.569906 -0.41491,0.569906 0,0 -24.61041,-6.4479 -24.61041,-6.4479 0,0 -5.94458,0 -5.94458,0 0,0 31.32253,8.509175 31.32253,8.509175 0.73003,0.21586 0.8303,0.21586 1.50121,0.454427 0,0 -2.26875,-2.515702 -2.26875,-2.515702 0,0 0.41491,-0.569906 0.41491,-0.569906 0.78905,0.204206 0.84546,0.265642 1.27659,0.735196 0,0 3.42973,3.735336 3.42973,3.735336 0.36708,0.399787 0.67875,0.739225 -0.15239,0.739225 -0.7004,0 -1.09057,-0.339438 -1.21243,-0.474561 -0.68804,-0.599052 -1.79698,-1.023755 -2.53597,-1.234726 -0.33221,0.03949 -0.42402,0.03949 -1.06668,0.03949 0,0 0,0 0,0"
           id="path9416" /></g>      <g
         word-spacing="normal"
         letter-spacing="normal"
         font-size-adjust="none"
         font-stretch="normal"
         font-weight="normal"
         font-variant="normal"
         font-style="normal"
         stroke-miterlimit="10.433"
         xml:space="preserve"
         transform="matrix(0,2.3620586,2.3623894,0,-745.0576,-522.61562)"
         id="g9418"
         style="font-style:normal;font-variant:normal;font-weight:normal;font-stretch:normal;letter-spacing:normal;word-spacing:normal;text-anchor:start;fill:none;stroke:#000000;stroke-linecap:butt;stroke-linejoin:miter;stroke-miterlimit:10.43299961;stroke-opacity:1;stroke-dasharray:none;stroke-dashoffset:0"><path
           id="path9420"
           d="m 853.67447,163.86727 c 0,0 0.16909,-0.0426 0.16909,-0.0426 0,0 0.17,-0.0355 0.17,-0.0355 0,0 0.1572,-0.0426 0.1572,-0.0426 0,0 0.15814,-0.0354 0.15814,-0.0354 0,0 0.14638,-0.0354 0.14638,-0.0354 0,0 0.13358,-0.0425 0.13358,-0.0425 0,0 0.13455,-0.0354 0.13455,-0.0354 0,0 0.12176,-0.0424 0.12176,-0.0424 0,0 0.1111,-0.0353 0.1111,-0.0353 0,0 0.12159,-0.0424 0.12159,-0.0424 0,0 0.0993,-0.0353 0.0993,-0.0353 0,0 0.0982,-0.0423 0.0982,-0.0423 0,0 0.0981,-0.0423 0.0981,-0.0423 0,0 0.0759,-0.0352 0.0759,-0.0352 0,0 0.0864,-0.0422 0.0864,-0.0422 0,0 0.0747,-0.0422 0.0747,-0.0422 0,0 0.0746,-0.0422 0.0746,-0.0422 0,0 0.063,-0.0421 0.063,-0.0421 0,0 0.0513,-0.0421 0.0513,-0.0421 0,0 0.0617,-0.0491 0.0617,-0.0491 0,0 0.0396,-0.0421 0.0396,-0.0421 0,0 0.0501,-0.049 0.0501,-0.049 0,0 0.0384,-0.049 0.0384,-0.049 0,0 0.0268,-0.049 0.0268,-0.049 0,0 0.0384,-0.0489 0.0384,-0.0489 0,0 0.0256,-0.0559 0.0256,-0.0559 0,0 0.0152,-0.0488 0.0152,-0.0488 0,0 0.0256,-0.0558 0.0256,-0.0558 0,0 0.014,-0.0557 0.014,-0.0557 0,0 0.002,-0.0557 0.002,-0.0557 0,0 0.0128,-0.0626 0.0128,-0.0626 0,0 10e-4,-0.0625 10e-4,-0.0625 0.0308,-0.44257 0.45621,-0.58022 0.86984,-0.58022 1.02259,0 1.1161,0.51779 1.22811,1.13798 0,0 0.93326,5.16754 0.93326,5.16754 0.12291,0.68054 0.2275,1.25968 -0.85871,1.25968 -0.54921,0 -1.00879,-0.27091 -1.12663,-0.61756 -0.27559,-0.8699 -0.53079,-1.77295 -4.59158,-1.77295 0,0 -1.00959,-1.28696 -1.00959,-1.28696 2.19357,0 3.55714,0 5.18916,0.55151 0,0 -0.29891,-1.81978 -0.29891,-1.81978 -0.88261,0.35974 -3.21326,0.87416 -4.89025,1.26827 0,0 1.00959,1.28696 1.00959,1.28696 -5.13888,0 -12.79287,1.66548 -21.69243,3.59619 1.0862,0.3248 20.474,5.24441 25.92814,5.38136 0,0 1.71371,1.06211 1.71371,1.06211 -0.46002,0.43652 -1.54939,0.43652 -1.87361,0.43652 -5.04483,0 -26.92598,-5.60326 -29.47956,-6.28462 -2.79172,0.64108 -5.20148,1.19908 -6.85209,1.53289 0,0 35.70893,9.06992 35.70893,9.06992 1.20058,0.33624 2.38443,0.70232 3.47799,1.2218 0,0 -0.98166,-5.97651 -0.98166,-5.97651 0,0 -1.71371,-1.06211 -1.71371,-1.06211 0.29278,-0.1797 1.23712,-0.98667 1.2079,-2.01733 -0.0341,-0.20756 -0.0295,-0.86744 0.9121,-0.86744 1.11735,0 1.22904,0.61844 1.36294,1.35984 0,0 1.96236,10.86572 1.96236,10.86572 0.16186,0.89619 0.304,1.68323 -0.93033,1.68323 -0.20803,0 -0.98905,-0.11009 -1.29425,-0.78704 -0.36656,-0.89619 -0.63014,-1.7621 -4.36601,-2.77049 -2.10451,-0.60775 -4.59577,-1.22911 -6.91262,-1.78001 0,0 -20.23365,6.28515 -20.23365,6.28515 0,0 14.36215,3.69185 14.36215,3.69185 4.94464,1.22502 14.13072,3.34477 16.6898,3.34477 0,0 0.37398,1.9736 0.37398,1.9736 -5.39078,0 -29.77571,-6.59727 -34.90744,-7.9886 0,0 -7.04968,2.18148 -7.04968,2.18148 0,0 41.18556,11.30442 41.18556,11.30442 0.79172,0.1715 2.29946,0.58951 3.72418,1.20815 0,0 -1.15568,-7.03598 -1.15568,-7.03598 -0.34366,0.15939 -0.61215,0.33053 -1.79694,0.33053 0,0 -0.37398,-1.9736 -0.37398,-1.9736 0.80429,0 1.56331,-1.08366 1.56888,-2.02219 -0.0249,-0.1517 -0.0373,-1.01282 1.03791,-1.01282 1.27595,0 1.43147,0.86112 1.60657,1.83067 0,0 2.26132,12.52102 2.26132,12.52102 0.21225,1.17523 0.3847,2.1301 -1.02987,2.1301 -1.11258,0 -1.4022,-0.88981 -1.53459,-1.21458 -0.49091,-1.46513 -3.0142,-2.23859 -3.90466,-2.47802 0,0 -44.80485,-12.41365 -44.80485,-12.41365 -1.03844,-0.26843 -1.5897,-0.41834 -1.49172,-1.06807 0.0876,-0.58107 0.6211,-0.72826 1.5745,-1.04271 0,0 30.59196,-9.42962 30.59196,-9.42962 0,0 -27.98835,-7.20713 -27.98835,-7.20713 -1.02316,-0.23933 -1.45611,-0.37102 -1.38322,-0.85435 0.0736,-0.48793 0.59037,-0.60935 1.55328,-0.81123 0,0 35.99564,-8.06815 35.99564,-8.06815"
           inkscape:connector-curvature="0"
           style="fill:#000000;stroke-width:0" /></g>      <g
         style="font-style:normal;font-variant:normal;font-weight:normal;font-stretch:normal;letter-spacing:normal;word-spacing:normal;text-anchor:start;fill:none;stroke:#000000;stroke-linecap:butt;stroke-linejoin:miter;stroke-miterlimit:10.43299961;stroke-opacity:1;stroke-dasharray:none;stroke-dashoffset:0"
         id="g9422"
         transform="matrix(0,0.47241172,0.47247789,0,53.74417,774.50663)"
         xml:space="preserve"
         stroke-miterlimit="10.433"
         font-style="normal"
         font-variant="normal"
         font-weight="normal"
         font-stretch="normal"
         font-size-adjust="none"
         letter-spacing="normal"
         word-spacing="normal"><path
           style="fill:#000000;stroke-width:0"
           inkscape:connector-curvature="0"
           d="m 1438.8374,-1144.8251 c 0,0 0,-0.1324 0,-0.1324 0,0 0,-0.1323 0,-0.1323 0,0 0,-0.1543 0,-0.1543 0,0 0,-0.1431 0,-0.1431 0,0 0,-0.165 0,-0.165 0,0 0,-0.1648 0,-0.1648 0,0 -0.034,-0.1647 -0.034,-0.1647 0,0 0,-0.1754 0,-0.1754 0,0 -0.034,-0.1753 -0.034,-0.1753 0,0 -0.035,-0.1861 -0.035,-0.1861 0,0 -0.069,-0.3715 -0.069,-0.3715 0,0 -0.1013,-0.3816 -0.1013,-0.3816 0,0 -0.1658,-0.3916 -0.1658,-0.3916 0,0 -0.1656,-0.4016 -0.1656,-0.4016 0,0 -0.2296,-0.4006 -0.2296,-0.4006 0,0 -0.1306,-0.1945 -0.1306,-0.1945 0,0 -0.1628,-0.2051 -0.1628,-0.2051 0,0 -0.1303,-0.1941 -0.1303,-0.1941 0,0 -0.1945,-0.1939 -0.1945,-0.1939 0,0 -0.1944,-0.2044 -0.1944,-0.2044 0,0 -0.194,-0.1934 -0.194,-0.1934 0,0 -0.1938,-0.1932 -0.1938,-0.1932 0,0 -0.2577,-0.1823 -0.2577,-0.1823 0,0 -0.2575,-0.1928 -0.2575,-0.1928 0,0 -0.2571,-0.1819 -0.2571,-0.1819 0,0 -0.2889,-0.1816 -0.2889,-0.1816 0,0 -0.2885,-0.1708 -0.2885,-0.1708 0,0 6.5341,0.2135 6.5341,0.2135 0,0 0.1601,0 0.1601,0 1.1319,-0.8419 3.4265,-2.0178 6.7301,-2.9547 0,0 -13.2392,0 -13.2392,0 4.2735,1.2645 6.3476,2.8906 6.349,2.9547 0,0 -6.5341,-0.2135 -6.5341,-0.2135 -4.8656,-2.5311 -13.4668,-2.7412 -14.3876,-2.7412 -2.1881,-0.053 -4.2832,-0.053 -4.2355,-0.9422 0.047,-0.885 2.2578,-0.885 5.0996,-0.885 0,0 42.6276,0 42.6276,0 2.4945,0 5.0206,0 5.1127,0.885 0.093,0.8897 -2.283,0.9422 -3.5212,0.9422 -20.3727,0.3047 -21.3578,5.7336 -21.4376,8.5695 0,0 34.2515,0 34.2515,0 10.8745,0 10.711,-1.0237 10.4996,-2.3465 0,0 -0.4127,-2.5832 -0.4127,-2.5832 -1.1277,-7.0585 -12.3708,-10.4587 -23.0993,-10.7607 -1.2467,-0.04 -3.583,-0.1106 -3.6494,-0.9027 -0.071,-0.848 2.4017,-0.848 4.9981,-0.848 0,0 20.0299,0 20.0299,0 4.7911,0 5.0886,0.1095 5.3582,1.6401 0,0 -5.3567,0.1106 -5.3567,0.1106 0,0 -7.4271,0 -7.4271,0 3.0463,0.8571 5.6556,1.8204 7.8891,2.8916 0,0 -0.462,-2.8916 -0.462,-2.8916 0,0 5.3567,-0.1106 5.3567,-0.1106 0,0 4.8996,27.8207 4.8996,27.8207 0.1858,1.0554 0.3539,2.0095 -2.6618,2.0095 -2.8463,0 -3.0253,-1.1205 -3.1031,-1.607 -0.5289,-3.311 -1.9372,-3.5551 -10.0525,-3.5551 0,0 -83.3908,0 -83.3908,0 0,0 -0.1238,-2.0211 -0.1238,-2.0211 0,0 83.5448,0 83.5448,0 1.9591,0 6.1098,0 9.2068,0.4714 0,0 -0.9548,-5.9763 -0.9548,-5.9763 -3.7019,0.6019 -9.0716,0.6019 -10.545,0.6019 0,0 -79.1049,0 -79.1049,0 -5.8609,0 -9.0846,-0.4015 -10.4976,-0.6019 0,0 -0.7756,5.9763 -0.7756,5.9763 3.0165,-0.4714 7.1672,-0.4714 9.1263,-0.4714 0,0 0.1238,2.0211 0.1238,2.0211 -7.8482,0 -9.4723,0.1627 -9.8741,3.259 -0.1155,0.8896 -0.247,1.9031 -3.161,1.9031 -3.0157,0 -2.8761,-0.9541 -2.7217,-2.0095 0,0 4.201,-28.7128 4.201,-28.7128 0,0 5.4269,-0.04 5.4269,-0.04 0,0 -0.4562,3.5152 -0.4562,3.5152 0,0 0.1565,0 0.1565,0 2.6703,-1.6154 6.0939,-2.9746 8.9589,-3.9743 -0.624,0.05 -7.4448,0.4091 -8.6592,0.4591 0,0 -5.4269,0.04 -5.4269,0.04 0.1385,-0.9469 0.2082,-1.4233 2.3896,-1.5818 0.1611,-0.05 25.8614,-1.4194 26.6288,-1.4194 1.6884,0 2.772,0.4324 2.7519,0.8363 -0.034,0.6722 -2.0806,0.8804 -2.2348,0.8804 -4.0007,0.2879 -10.531,0.7854 -17.5496,4.4537 -5.1464,2.671 -7.6648,5.3117 -8.0435,8.2299 0,0 -0.3825,2.9475 -0.3825,2.9475 -0.1717,1.3228 -0.3046,2.3465 10.5374,2.3465 0,0 37.9306,0 37.9306,0"
           id="path9424" /></g>      <g
         word-spacing="normal"
         letter-spacing="normal"
         font-size-adjust="none"
         font-stretch="normal"
         font-weight="normal"
         font-variant="normal"
         font-style="normal"
         stroke-miterlimit="10.433"
         xml:space="preserve"
         transform="matrix(0,2.3620586,2.3623894,0,-947.2749,-308.35573)"
         id="g9426"
         style="font-style:normal;font-variant:normal;font-weight:normal;font-stretch:normal;letter-spacing:normal;word-spacing:normal;text-anchor:start;fill:none;stroke:#000000;stroke-linecap:butt;stroke-linejoin:miter;stroke-miterlimit:10.43299961;stroke-opacity:1;stroke-dasharray:none;stroke-dashoffset:0"><path
           id="path9428"
           d="m 669.52571,219.9195 c 0,0 -0.0476,-0.30347 -0.0476,-0.30347 0,0 -0.0495,-0.30964 -0.0495,-0.30964 0,0 -0.0602,-0.31567 -0.0602,-0.31567 0,0 -0.0774,-0.31354 -0.0774,-0.31354 0,0 -0.0943,-0.31144 -0.0943,-0.31144 0,0 -0.0589,-0.15098 -0.0589,-0.15098 0,0 -0.0674,-0.15047 -0.0674,-0.15047 0,0 -0.0705,-0.14605 -0.0705,-0.14605 0,0 -0.0822,-0.14166 -0.0822,-0.14166 0,0 -0.0906,-0.14123 -0.0906,-0.14123 0,0 -0.10556,-0.13298 -0.10556,-0.13298 0,0 -0.11717,-0.1287 -0.11717,-0.1287 0,0 -0.12011,-0.12445 -0.12011,-0.12445 0,0 -0.1403,-0.12025 -0.1403,-0.12025 0,0 -0.14648,-0.1122 -0.14648,-0.1122 0,0 -0.16988,-0.10421 -0.16988,-0.10421 0,0 -0.17277,-0.10013 -0.17277,-0.10013 0,0 -0.19613,-0.0922 -0.19613,-0.0922 0,0 -0.20231,-0.0844 -0.20231,-0.0844 0,0 -0.22567,-0.0766 -0.22567,-0.0766 0,0 -0.2352,-0.065 -0.2352,-0.065 0,0 -0.25861,-0.0573 -0.25861,-0.0573 0,0 -0.28204,-0.0496 -0.28204,-0.0496 0,0 -0.29172,-0.0381 -0.29172,-0.0381 0,0 -0.31862,-0.0266 -0.31862,-0.0266 0,0 -0.33369,-0.019 -0.33369,-0.019 0,0 -0.3556,-0.004 -0.3556,-0.004 0,0 0.58625,-0.66078 0.58625,-0.66078 4.43717,0 5.15926,1.98453 5.35119,3.52946 0.24767,1.93833 0.68434,3.84464 4.99019,3.84464 2.14833,0 4.95389,-0.28447 7.10821,-1.44423 0,0 -0.0314,-0.0213 -0.0314,-0.0213 -1.56044,0.38905 -3.1185,0.41051 -3.47267,0.41051 -4.11379,0 -4.48048,-2.30122 -4.70012,-4.09899 -0.094,-0.72244 -0.17834,-1.69604 -1.30087,-2.42578 -0.97994,-0.59303 -2.23717,-1.0108 -4.48846,-1.0108 -3.2556,0 -5.73629,0.93624 -6.92335,1.49849 0,0 0,0 0,0 1.47682,-0.26701 3.17031,-0.282 3.46725,-0.282 0,0 -0.58625,0.66078 -0.58625,0.66078 -3.01692,0 -5.32313,0.58958 -7.14303,2.5258 -0.99337,1.05684 -0.58287,1.96585 0.34153,2.70496 1.59847,1.26359 4.01599,1.30731 5.02407,1.30731 0.41239,0 0.62297,0.17525 0.45347,0.37758 -0.32997,0.39387 -1.05972,0.39387 -1.84488,0.39387 0,0 -8.5537,0 -8.5537,0 -0.78516,0 -1.51491,0 -1.13826,-0.39387 0.15149,-0.15841 0.33878,-0.21988 0.70931,-0.32945 1.08369,-0.37069 1.59711,-0.76012 1.8565,-1.03514 0,0 1.60729,-0.0214 1.60729,-0.0214 -0.29066,0.31368 -0.736,0.68587 -1.39264,1.00843 0,0 2.91427,0 2.91427,0 0,0 0.0197,-0.0219 0.0197,-0.0219 0,0 -0.80127,-0.32676 -1.54133,-0.98657 0,0 -1.60729,0.0214 -1.60729,0.0214 0.52234,-0.55383 0.58651,-1.05941 0.59972,-1.24345 0.13954,-0.84814 0.7045,-1.43893 1.01317,-1.76171 2.674,-2.79625 7.86037,-5.0569 13.26968,-5.0569 3.48158,0 6.48291,0.92649 6.80571,3.62379 0.24914,1.75589 0.50364,3.79981 3.64839,3.79981 2.45993,0 5.09449,-0.81326 6.01811,-2.26607 0.90311,-1.42057 -1.09309,-3.27357 -4.3912,-3.62479 -0.54332,-0.0558 -0.93894,-0.0929 -0.75181,-0.35219 0.22576,-0.31276 0.88867,-0.31276 1.60193,-0.31276 0,0 6.36056,0 6.36056,0 0.70486,0 1.37616,0 1.1825,0.31276 -0.0916,0.14795 -0.35089,0.22582 -0.52993,0.29639 -0.47687,0.16759 -1.11658,0.42954 -1.41247,0.89733 0,0 -1.45172,-0.0379 -1.45172,-0.0379 0.36154,-0.50489 0.90189,-0.80363 0.95615,-0.82224 0,0 -2.5357,0 -2.5357,0 0.38633,0.1304 0.68116,0.29862 1.57955,0.82224 0,0 1.45172,0.0379 1.45172,0.0379 -0.30142,0.47653 -0.22567,0.91552 -0.2016,1.15217 0.12312,0.62266 0.0262,1.07433 -0.34604,1.67543 -1.74188,2.81308 -6.07027,4.79671 -12.19647,4.79671 -2.99832,0 -5.66766,-0.60277 -6.00467,-3.86793 0,0 0,0 0,0"
           inkscape:connector-curvature="0"
           style="fill:#000000;stroke-width:0" /></g>      <path
         inkscape:connector-curvature="0"
         id="path9430"
         d="m -249.95032,1852.3125 c 0,0 0,-1.7498 0,-1.7498 0,0 0,-796.5004 0,-796.5004 0,0 0,-1.7498 0,-1.7498 0,0 -1.4944,1.4944 -1.4944,1.4944 0,0 -248.30025,248.3003 -248.30025,248.3003 0,0 -0.20535,0.2053 -0.20535,0.2053 0,0 0,0.6562 0,0.6562 0,0 0,298.6876 0,298.6876 0,0 0,0.6562 0,0.6562 0,0 0.20535,0.2053 0.20535,0.2053 0,0 248.30025,248.3003 248.30025,248.3003 0,0 1.4944,1.4944 1.4944,1.4944 0,0 0,0 0,0 m -2.97767,-6.5008 c 0,0 -246.60516,-244.4168 -246.60516,-244.4168 0,0 0,-298.1648 0,-298.1648 0,0 246.60516,-244.4168 246.60516,-244.4168 0,0 0,786.9984 0,786.9984 0,0 0,0 0,0"
         style="font-size:medium;font-style:normal;font-variant:normal;font-weight:normal;font-stretch:normal;text-indent:0;text-align:start;text-decoration:none;line-height:normal;letter-spacing:normal;word-spacing:normal;text-transform:none;direction:ltr;block-progression:tb;writing-mode:lr-tb;text-anchor:start;baseline-shift:baseline;color:#000000;fill:#000000;fill-opacity:1;stroke:none;stroke-width:2.22224045;marker:none;visibility:visible;display:inline;overflow:visible;enable-background:accumulate;font-family:Sans;-inkscape-font-specification:Sans" />
    </g>
  </g>
  <g
     sodipodi:insensitive="true"
     style="display:none"
     inkscape:label="East"
     id="g9126"
     inkscape:groupmode="layer">
    <path
       sodipodi:nodetypes="ccccc"
       inkscape:connector-curvature="0"
       id="path9128"
       d="m -550,52.362183 300,0 250,249.999997 -800,0 z"
       style="fill:none;stroke:#000000;stroke-width:0.09994961;stroke-linecap:round;stroke-linejoin:miter;stroke-miterlimit:4;stroke-opacity:1;stroke-dasharray:none;display:inline" />
    <flowRoot
       xml:space="preserve"
       id="flowRoot9130"
       style="font-size:40px;font-style:normal;font-weight:normal;line-height:125%;letter-spacing:0px;word-spacing:0px;fill:#000000;fill-opacity:1;stroke:none;font-family:Sans"><flowRegion
         id="flowRegion9132"><rect
           id="rect9134"
           width="344"
           height="224"
           x="292"
           y="1860.3622" /></flowRegion><flowPara
         id="flowPara9136" /></flowRoot>    <g
       id="g9170">
      <path
         inkscape:connector-curvature="0"
         id="path9140"
         d="m -399.96223,204.32019 c 0,0 2.65309,-2.93916 2.65309,-2.93916 0,0 41.24264,-45.40284 41.24264,-45.40284 0,0 1.84696,-2.04368 1.84696,-2.04368 0,0 -4.43341,0 -4.43341,0 0,0 -29.43028,0 -29.43028,0 0,0 -1.37565,-29.04103 -1.37565,-29.04103 0,0 54.48554,0 54.48554,0 0,0 3.86878,13.23956 3.86878,13.23956 0,0 0.60595,2.07368 0.60595,2.07368 0,0 3.31099,-1.02678 3.31099,-1.02678 0,0 57.51534,-17.75221 57.51534,-17.75221 0,0 2.88291,-0.88373 2.88291,-0.88373 0,0 -3.93751,-0.88893 -3.93751,-0.88893 0,0 -67.08768,-15.03859 -67.08768,-15.03859 0,0 -3.3011,-0.74296 -3.3011,-0.74296 0,0 0.44209,1.51288 0.44209,1.51288 0,0 3.20352,10.96297 3.20352,10.96297 0,0 -52.39355,0 -52.39355,0 0,0 -1.01278,-21.380476 -1.01278,-21.380476 0,0 22.53217,0 22.53217,0 0,0 3.39427,0 3.39427,0 0,0 -1.88968,-1.180989 -1.88968,-1.180989 0,0 -31.61487,-19.6828 -31.61487,-19.6828 0,0 -1.52415,-0.954806 -1.52415,-0.954806 0,0 -1.52391,0.954806 -1.52391,0.954806 0,0 -31.60994,19.6828 -31.60994,19.6828 0,0 -1.91345,1.180989 -1.91345,1.180989 0,0 3.41834,0 3.41834,0 0,0 24.14504,0 24.14504,0 0,0 -0.82838,21.380476 -0.82838,21.380476 0,0 -54.15874,0 -54.15874,0 0,0 3.19942,-10.96297 3.19942,-10.96297 0,0 0.44152,-1.51288 0.44152,-1.51288 0,0 -3.3261,0.74296 -3.3261,0.74296 0,0 -67.08392,15.03859 -67.08392,15.03859 0,0 -3.91002,0.88893 -3.91002,0.88893 0,0 2.85586,0.88373 2.85586,0.88373 0,0 57.51979,17.75221 57.51979,17.75221 0,0 3.34096,1.02678 3.34096,1.02678 0,0 0.60518,-2.07368 0.60518,-2.07368 0,0 3.86382,-13.23956 3.86382,-13.23956 0,0 56.32118,0 56.32118,0 0,0 -1.12519,29.04103 -1.12519,29.04103 0,0 -31.53694,0 -31.53694,0 0,0 -4.46485,0 -4.46485,0 0,0 1.87891,2.04368 1.87891,2.04368 0,0 41.254,45.40284 41.254,45.40284 0,0 2.65383,2.93916 2.65383,2.93916 0,0 0,0 0,0 m -9.6e-4,-7.63748 c 0,0 -37.28775,-40.01589 -37.28775,-40.01589 0,0 30.00419,0 30.00419,0 0,0 2.6063,0 2.6063,0 0,0 0.0251,-1.37354 0.0251,-1.37354 0,0 0.57393,-31.45227 0.57393,-31.45227 0,0 0.019,-1.04255 0.019,-1.04255 0,0 -2.25919,0 -2.25919,0 0,0 -60.30933,0 -60.30933,0 0,0 -2.28674,0 -2.28674,0 0,0 -0.32576,1.04255 -0.32576,1.04255 0,0 -3.8334,12.26843 -3.8334,12.26843 0,0 -51.06577,-15.56544 -51.06577,-15.56544 0,0 60.18906,-13.63273 60.18906,-13.63273 0,0 -3.25597,10.4204 -3.25597,10.4204 0,0 -0.30976,0.99137 -0.30976,0.99137 0,0 2.24031,0 2.24031,0 0,0 59.0849,0 59.0849,0 0,0 2.21332,0 2.21332,0 0,0 0.0181,-0.99137 0.0181,-0.99137 0,0 0.42246,-23.151714 0.42246,-23.151714 0,0 0.0143,-0.782502 0.0143,-0.782502 0,0 -1.95787,0 -1.95787,0 0,0 -22.53934,0 -22.53934,0 0,0 28.00483,-17.703142 28.00483,-17.703142 0,0 27.98538,17.703142 27.98538,17.703142 0,0 -20.93962,0 -20.93962,0 0,0 -1.95787,0 -1.95787,0 0,0 0.0209,0.782502 0.0209,0.782502 0,0 0.61924,23.151714 0.61924,23.151714 0,0 0.0265,0.99137 0.0265,0.99137 0,0 2.21332,0 2.21332,0 0,0 57.33044,0 57.33044,0 0,0 2.21332,0 2.21332,0 0,0 -0.31001,-0.99137 -0.31001,-0.99137 0,0 -3.25857,-10.4204 -3.25857,-10.4204 0,0 60.19247,13.63273 60.19247,13.63273 0,0 -51.06189,15.56544 -51.06189,15.56544 0,0 -3.83647,-12.26843 -3.83647,-12.26843 0,0 -0.32601,-1.04255 -0.32601,-1.04255 0,0 -2.25919,0 -2.25919,0 0,0 -58.51852,0 -58.51852,0 0,0 -2.25919,0 -2.25919,0 0,0 0.0279,1.04255 0.0279,1.04255 0,0 0.84125,31.45227 0.84125,31.45227 0,0 0.0367,1.37354 0.0367,1.37354 0,0 2.6063,0 2.6063,0 0,0 27.87466,0 27.87466,0 0,0 -37.24597,40.01589 -37.24597,40.01589 0,0 0,0 0,0"
         style="font-size:medium;font-style:normal;font-variant:normal;font-weight:normal;font-stretch:normal;text-indent:0;text-align:start;text-decoration:none;line-height:normal;letter-spacing:normal;word-spacing:normal;text-transform:none;direction:ltr;block-progression:tb;writing-mode:lr-tb;text-anchor:start;baseline-shift:baseline;color:#000000;fill:#000000;fill-opacity:1;stroke:none;stroke-width:5.13218069;marker:none;visibility:visible;display:inline;overflow:visible;enable-background:accumulate;font-family:Sans;-inkscape-font-specification:Sans" />
      <g
         style="font-style:normal;font-variant:normal;font-weight:normal;font-stretch:normal;letter-spacing:normal;word-spacing:normal;text-anchor:start;fill:none;stroke:#000000;stroke-linecap:butt;stroke-linejoin:miter;stroke-miterlimit:10.43299961;stroke-opacity:1;stroke-dasharray:none;stroke-dashoffset:0"
         id="g9142"
         transform="matrix(0,-2.3620586,-2.3623894,0,1246.3518,2109.1725)"
         xml:space="preserve"
         stroke-miterlimit="10.433"
         font-style="normal"
         font-variant="normal"
         font-weight="normal"
         font-stretch="normal"
         font-size-adjust="none"
         letter-spacing="normal"
         word-spacing="normal"><path
           style="fill:#000000;stroke-width:0"
           inkscape:connector-curvature="0"
           d="m 847.1739,772.73305 c 0,0 -9.51262,8.28196 -9.51262,8.28196 -1.15963,1.0096 -1.55686,1.71708 -1.57927,4.1018 0,0.51012 -0.0269,1.31374 -0.3871,1.64207 -0.40383,0.3681 -0.40383,-0.37988 -0.40383,-1.212 0,0 0,-7.21795 0,-7.21795 0,-0.84147 0,-1.54269 0.40383,-1.86861 0.36019,-0.29069 0.3871,0.42032 0.3871,1.07884 0.0224,2.51308 0.48628,2.49857 1.62699,1.52795 0,0 8.97177,-7.63395 8.97177,-7.63395 0,0 -11.48089,-10.37947 -11.48089,-10.37947 -0.27463,-0.23508 -0.34352,-0.42552 -0.34352,-0.74481 0,-0.8076 0.36177,-1.0354 0.75262,-1.2815 0,0 11.28178,-7.10377 11.28178,-7.10377 0.98303,-0.61898 1.22188,-1.12748 1.24259,-3.01186 0,-0.23596 0.0173,-0.9378 0.28887,-1.09888 0.30395,-0.18025 0.30395,0.41772 0.30395,1.14498 0,0 0,5.87461 0,5.87461 0,0.72726 0,1.37371 -0.30395,1.58443 -0.28887,0.20025 -0.28887,-0.54018 -0.28887,-0.97956 -0.0207,-2.24846 -0.36383,-2.35931 -1.29233,-1.75634 0,0 -5.91694,3.84252 -5.91694,3.84252 0,0 7.57005,7.27828 7.57005,7.27828 0,0 -0.36078,1.41657 -0.36078,1.41657 0,0 -8.60349,-8.09371 -8.60349,-8.09371 0,0 -3.09048,1.99706 -3.09048,1.99706 0,0 11.27791,10.42948 11.27791,10.42948 0.20507,0.23334 0.24319,0.20072 0.41606,0.50033 0,0 0,-4.83316 0,-4.83316 0,0 0.36078,-1.41657 0.36078,-1.41657 0.23204,0.22035 0.23204,0.34156 0.23204,1.26275 0,0 0,7.01399 0,7.01399 0,0.71918 0,1.32522 -0.30395,1.6006 -0.25783,0.23357 -0.28887,-0.34855 -0.28887,-0.59265 -0.0552,-1.04151 -0.32905,-1.58373 -0.53816,-1.7939 -0.13998,0.19555 -0.17504,0.22608 -0.42129,0.44047 0,0 0,0 0,0"
           id="path9144" /></g>      <g
         word-spacing="normal"
         letter-spacing="normal"
         font-size-adjust="none"
         font-stretch="normal"
         font-weight="normal"
         font-variant="normal"
         font-style="normal"
         stroke-miterlimit="10.433"
         xml:space="preserve"
         transform="matrix(0,-2.3620586,-2.3623894,0,1438.8953,1940.8533)"
         id="g9146"
         style="font-style:normal;font-variant:normal;font-weight:normal;font-stretch:normal;letter-spacing:normal;word-spacing:normal;text-anchor:start;fill:none;stroke:#000000;stroke-linecap:butt;stroke-linejoin:miter;stroke-miterlimit:10.43299961;stroke-opacity:1;stroke-dasharray:none;stroke-dashoffset:0"><path
           id="path9148"
           d="m 733.31454,753.85613 c 0,0 0.11723,-0.0513 0.11723,-0.0513 0,0 0.11702,-0.0389 0.11702,-0.0389 0,0 0.10903,-0.0526 0.10903,-0.0526 0,0 0.10884,-0.0403 0.10884,-0.0403 0,0 0.10091,-0.0417 0.10091,-0.0417 0,0 0.093,-0.0553 0.093,-0.0553 0,0 0.0929,-0.043 0.0929,-0.043 0,0 0.085,-0.0566 0.085,-0.0566 0,0 0.0772,-0.0459 0.0772,-0.0459 0,0 0.0848,-0.0565 0.0848,-0.0565 0,0 0.0693,-0.0473 0.0693,-0.0473 0,0 0.0692,-0.0594 0.0692,-0.0594 0,0 0.0692,-0.0593 0.0692,-0.0593 0,0 0.0537,-0.0501 0.0537,-0.0501 0,0 0.0614,-0.0607 0.0614,-0.0607 0,0 0.0536,-0.0622 0.0536,-0.0622 0,0 0.0536,-0.0621 0.0536,-0.0621 0,0 0.0459,-0.0636 0.0459,-0.0636 0,0 0.0382,-0.0651 0.0382,-0.0651 0,0 0.0458,-0.0756 0.0458,-0.0756 0,0 0.0305,-0.0665 0.0305,-0.0665 0,0 0.0382,-0.077 0.0382,-0.077 0,0 0.0305,-0.0785 0.0305,-0.0785 0,0 0.0229,-0.08 0.0229,-0.08 0,0 0.0305,-0.0785 0.0305,-0.0785 0,0 0.0229,-0.0921 0.0229,-0.0921 0,0 0.0152,-0.0815 0.0152,-0.0815 0,0 0.0228,-0.092 0.0228,-0.092 0,0 0.0152,-0.0935 0.0152,-0.0935 0,0 0.008,-0.0951 0.008,-0.0951 0,0 0.0152,-0.10559 0.0152,-0.10559 0,0 0.008,-0.10714 0.008,-0.10714 0.0684,-0.75847 0.36406,-0.93593 0.63574,-0.87709 0.66673,0.1444 0.66673,1.04121 0.66673,2.10544 0,0 0,8.46598 0,8.46598 0,1.06423 0,1.96105 -0.66673,1.8819 -0.33979,-0.0403 -0.59772,-0.49366 -0.63574,-1.04192 -0.0837,-1.38867 -0.15231,-2.84947 -2.79021,-3.24086 0,0 -0.5663,-2.24122 -0.5663,-2.24122 1.46543,0.24151 2.36,0.38895 3.35651,1.45923 0,0 0,-3.02016 0,-3.02016 -0.61141,0.49605 -2.19728,1.08842 -3.35651,1.56093 0,0 0.5663,2.24122 0.5663,2.24122 -3.49819,-0.51904 -9.10678,1.55376 -16.04081,4.10616 0.8856,0.65705 14.55489,9.48127 17.91171,9.82332 0,0 0.91931,1.52489 0.91931,1.52489 -0.31262,0.59589 -0.9579,0.57908 -1.1512,0.57404 -3.08433,-0.0803 -18.57623,-9.78459 -20.725,-11.17844 -2.34124,0.92216 -4.40234,1.74247 -5.84149,2.22566 0,0 25.82661,14.79343 25.82661,14.79343 0.67014,0.42625 1.31806,0.88493 1.89108,1.53436 0,0 0,-7.94905 0,-7.94905 0,0 -0.91931,-1.52489 -0.91931,-1.52489 0.19261,-0.24697 0.83559,-1.36685 0.91931,-2.8483 0,-0.30201 0.0684,-1.26334 0.63574,-1.22086 0.66673,0.0499 0.66673,0.94675 0.66673,2.01098 0,0 0,14.34912 0,14.34912 0,1.08814 0,2.03279 -0.66673,2.07947 -0.11306,0.008 -0.52934,-0.0957 -0.63574,-0.90986 -0.12182,-1.09277 -0.19044,-2.16584 -2.23664,-3.36329 -1.19201,-0.75142 -2.65156,-1.53603 -4.05176,-2.25114 0,0 -13.75385,9.28554 -13.75385,9.28554 0,0 9.67318,3.87319 9.67318,3.87319 2.94928,1.12552 8.00631,2.87717 9.37256,2.68395 0,0 0.0386,2.12448 0.0386,2.12448 -2.87295,0.45379 -17.82308,-5.53914 -21.60991,-7.06114 0,0 -5.26256,3.53914 -5.26256,3.53914 0,0 26.05668,9.34625 26.05668,9.34625 0.38975,0.0923 1.11619,0.35752 1.77369,0.82584 0,0 0,-7.15173 0,-7.15173 -0.19044,0.19894 -0.3432,0.40455 -0.9579,0.50164 0,0 -0.0386,-2.12448 -0.0386,-2.12448 0.42349,-0.0599 0.91279,-1.31377 0.99651,-2.36377 0,-0.16912 0.0684,-1.14345 0.63574,-1.20879 0.66673,-0.0768 0.66673,0.87983 0.66673,1.94405 0,0 0,12.62723 0,12.62723 0,1.08814 0,1.96104 -0.66673,2.1253 -0.52934,0.13041 -0.59772,-0.67398 -0.63574,-0.96687 -0.12182,-1.34956 -1.30627,-1.82536 -1.73461,-1.96332 0,0 -28.54695,-9.68292 -28.54695,-9.68292 -0.87742,-0.27165 -1.34938,-0.42781 -1.34938,-1.34698 0,-0.82877 0.42489,-1.08328 1.17467,-1.60886 0,0 22.10201,-14.58365 22.10201,-14.58365 0,0 -21.86915,-12.15907 -21.86915,-12.15907 -0.98264,-0.50393 -1.40753,-0.77564 -1.40753,-1.66467 0,-0.90411 0.47196,-1.08944 1.34938,-1.38732 0,0 28.47658,-10.53719 28.47658,-10.53719"
           inkscape:connector-curvature="0"
           style="fill:#000000;stroke-width:0" /></g>      <g
         style="font-style:normal;font-variant:normal;font-weight:normal;font-stretch:normal;letter-spacing:normal;word-spacing:normal;text-anchor:start;fill:none;stroke:#000000;stroke-linecap:butt;stroke-linejoin:miter;stroke-miterlimit:10.43299961;stroke-opacity:1;stroke-dasharray:none;stroke-dashoffset:0"
         id="g9150"
         transform="matrix(0,-0.47241172,-0.47247789,0,254.9101,1028.9144)"
         xml:space="preserve"
         stroke-miterlimit="10.433"
         font-style="normal"
         font-variant="normal"
         font-weight="normal"
         font-stretch="normal"
         font-size-adjust="none"
         letter-spacing="normal"
         word-spacing="normal"><path
           style="fill:#000000;stroke-width:0"
           inkscape:connector-curvature="0"
           d="m 2043.3977,1402.0174 c 0,0 0,-0.3868 0,-0.3868 0,0 0,-0.3869 0,-0.3869 0,0 0,-0.4513 0,-0.4513 0,0 0,-0.4191 0,-0.4191 0,0 0,-0.4835 0,-0.4835 0,0 0,-0.4836 0,-0.4836 0,0 -0.011,-0.4831 -0.011,-0.4831 0,0 0,-0.5158 0,-0.5158 0,0 -0.011,-0.5155 -0.011,-0.5155 0,0 -0.011,-0.5477 -0.011,-0.5477 0,0 -0.022,-1.0955 -0.022,-1.0955 0,0 -0.033,-1.1276 -0.033,-1.1276 0,0 -0.054,-1.1596 -0.054,-1.1596 0,0 -0.054,-1.1922 -0.054,-1.1922 0,0 -0.076,-1.1922 -0.076,-1.1922 0,0 -0.043,-0.5801 -0.043,-0.5801 0,0 -0.054,-0.6124 -0.054,-0.6124 0,0 -0.043,-0.5804 -0.043,-0.5804 0,0 -0.065,-0.5804 -0.065,-0.5804 0,0 -0.065,-0.6129 -0.065,-0.6129 0,0 -0.065,-0.5808 -0.065,-0.5808 0,0 -0.065,-0.581 -0.065,-0.581 0,0 -0.087,-0.5489 -0.087,-0.5489 0,0 -0.087,-0.5816 -0.087,-0.5816 0,0 -0.087,-0.5494 -0.087,-0.5494 0,0 -0.098,-0.5498 -0.098,-0.5498 0,0 -0.098,-0.5178 -0.098,-0.5178 0,0 2.2101,0.6519 2.2101,0.6519 0,0 0.054,10e-5 0.054,10e-5 0.387,-2.5345 1.1689,-6.0811 2.2873,-8.8988 0,0 -4.4858,-0.1283 -4.4858,-0.1283 1.4544,3.9056 2.1447,8.8342 2.1447,9.027 0,0 -2.2101,-0.6519 -2.2101,-0.6519 -1.6765,-7.7749 -4.6867,-8.511 -5.012,-8.5203 -0.7763,-0.1867 -1.5221,-0.2084 -1.5221,-3.01 0,-2.8017 0.7909,-2.766 1.8026,-2.7204 0,0 14.4985,0.6544 14.4985,0.6544 0.811,0.037 1.6283,0.073 1.6283,2.7312 0,2.6577 -0.7661,2.7921 -1.1659,2.7807 -6.7218,0.7361 -7.1068,17.0069 -7.1603,25.31 0,0 10.9045,-0.508 10.9045,-0.508 3.317,-0.1545 3.317,-3.0106 3.317,-6.7266 0,0 0,-7.3398 0,-7.3398 0,-20.6374 -3.4173,-31.2064 -6.9073,-32.4657 -0.4106,-0.1642 -1.1833,-0.4575 -1.1833,-2.944 0,-2.6753 0.8241,-2.5842 1.685,-2.489 0,0 6.4941,0.7182 6.4941,0.7182 1.5158,0.1676 1.6034,0.5134 1.6034,5.1876 0,0 -1.6919,0.1769 -1.6919,0.1769 0,0 -2.3666,-0.2226 -2.3666,-0.2226 0.9349,2.7098 1.7165,5.7004 2.3666,8.9751 0,0 0,-8.7525 0,-8.7525 0,0 1.6919,-0.1769 1.6919,-0.1769 0,0 0,77.9652 0,77.9652 0,2.719 0,5.163 -0.8682,5.3036 -0.8237,0.1334 -0.8237,-2.7534 -0.8237,-4.0125 0,-8.6604 -0.4035,-9.2566 -2.8161,-8.9658 0,0 -27.0335,3.2588 -27.0335,3.2588 0,0 -0.1173,-5.8555 -0.1173,-5.8555 0,0 27.2408,-2.8335 27.2408,-2.8335 0.5887,-0.061 1.8291,-0.1903 2.7261,0.9755 0,0 0,-16.2151 0,-16.2151 -1.1444,1.7306 -2.7761,1.8336 -3.2267,1.862 0,0 -26.1548,1.6509 -26.1548,1.6509 -2.1046,0.1328 -3.2912,-1.009 -3.8158,-1.5869 0,0 0,17.8708 0,17.8708 1.0596,-1.4979 2.5372,-1.6516 3.2304,-1.7237 0,0 0.1173,5.8555 0.1173,5.8555 -2.7755,0.3346 -3.3477,0.8774 -3.3477,9.8128 0,2.5385 0,5.4154 -1.0299,5.5821 -1.0721,0.1736 -1.0721,-2.5499 -1.0721,-5.5799 0,0 0,-89.9121 0,-89.9121 0,0 2.102,0.082 2.102,0.082 0,0 0,11.7784 0,11.7784 0,0 0.06,0 0.06,0 0.9406,-5.2997 2.1831,-9.7335 3.2295,-12.9837 -0.2346,0.1424 -2.8241,1.0803 -3.2891,1.201 0,0 -2.102,-0.082 -2.102,-0.082 0,-3.2342 0,-4.8684 0.8437,-5.3131 0.06,-0.1627 9.7795,-3.5988 10.0638,-3.5613 0.6237,0.082 1.0308,1.5846 1.0308,2.9342 0,2.2383 -0.747,2.8432 -0.8038,2.8366 -1.4698,0.7908 -3.8893,2.1855 -6.3894,14.144 -1.8211,8.6454 -2.6431,17.1679 -2.6431,26.4756 0,0 0,9.24 0,9.24 0,4.0954 0,7.2431 3.9326,7.0599 0,0 13.1044,-0.6105 13.1044,-0.6105"
           id="path9152" /></g>      <g
         word-spacing="normal"
         letter-spacing="normal"
         font-size-adjust="none"
         font-stretch="normal"
         font-weight="normal"
         font-variant="normal"
         font-style="normal"
         stroke-miterlimit="10.433"
         xml:space="preserve"
         transform="matrix(0,-2.3620586,-2.3623894,0,1252.1536,1714.2362)"
         id="g9154"
         style="font-style:normal;font-variant:normal;font-weight:normal;font-stretch:normal;letter-spacing:normal;word-spacing:normal;text-anchor:start;fill:none;stroke:#000000;stroke-linecap:butt;stroke-linejoin:miter;stroke-miterlimit:10.43299961;stroke-opacity:1;stroke-dasharray:none;stroke-dashoffset:0"><path
           id="path9156"
           d="m 673.59585,628.7914 c 0,0 -0.13429,-0.7557 -0.13429,-0.7557 0,0 -0.13875,-0.77874 -0.13875,-0.77874 0,0 -0.14737,-0.80514 -0.14737,-0.80514 0,0 -0.15606,-0.81414 -0.15606,-0.81414 0,0 -0.16483,-0.82337 -0.16483,-0.82337 0,0 -0.0868,-0.40715 -0.0868,-0.40715 0,0 -0.0911,-0.4112 -0.0911,-0.4112 0,0 -0.0912,-0.40308 -0.0912,-0.40308 0,0 -0.0956,-0.39827 -0.0956,-0.39827 0,0 -0.0999,-0.40246 -0.0999,-0.40246 0,0 -0.10433,-0.38878 -0.10433,-0.38878 0,0 -0.10876,-0.3841 -0.10876,-0.3841 0,0 -0.109,-0.376 -0.109,-0.376 0,0 -0.11767,-0.37479 -0.11767,-0.37479 0,0 -0.11796,-0.35773 -0.11796,-0.35773 0,0 -0.12671,-0.34759 -0.12671,-0.34759 0,0 -0.12705,-0.33949 -0.12705,-0.33949 0,0 -0.13589,-0.32941 -0.13589,-0.32941 0,0 -0.13628,-0.31225 -0.13628,-0.31225 0,0 -0.14523,-0.30216 -0.14523,-0.30216 0,0 -0.14566,-0.27587 -0.14566,-0.27587 0,0 -0.15472,-0.26574 -0.15472,-0.26574 0,0 -0.16385,-0.25564 -0.16385,-0.25564 0,0 -0.16441,-0.22915 -0.16441,-0.22915 0,0 -0.17368,-0.20985 -0.17368,-0.20985 0,0 -0.17866,-0.19598 -0.17866,-0.19598 0,0 -0.18371,-0.1637 -0.18371,-0.1637 0,0 0,-1.6047 0,-1.6047 2.23907,1.92078 3.37547,7.48038 4.0403,11.42794 0.79416,4.69973 1.61376,9.12195 3.40097,10.3482 0.86583,0.59407 1.89803,0.7636 2.44232,-1.07513 0,0 -0.0177,-0.0539 -0.0177,-0.0539 -0.51229,0.38615 -1.12488,-0.007 -1.26663,-0.1073 -1.68037,-1.19151 -2.5582,-6.53486 -3.25722,-10.94874 -0.29444,-1.84469 -0.68203,-4.3801 -1.48324,-6.76511 -0.70435,-2.02735 -1.49444,-3.74106 -2.63,-4.75049 -1.69115,-1.5033 -2.55705,0.0879 -2.91408,1.17848 0,0 0,0 0,0 0.65334,-0.10214 1.53164,0.61424 1.68526,0.74603 0,0 0,1.6047 0,1.6047 -1.57199,-1.32255 -2.5085,-0.66182 -2.5085,3.96625 0,2.44573 0.64603,4.98065 1.44971,7.1936 1.32538,3.63165 2.47946,4.5193 2.94523,4.84063 0.18923,0.13056 0.35263,0.60161 0.35263,1.01369 0,0.79728 -0.33157,0.57401 -0.69092,0.33204 0,0 -4.09817,-2.7596 -4.09817,-2.7596 -0.39387,-0.26522 -0.76274,-0.5136 -0.76274,-1.35756 0,-0.34137 0.0656,-0.42912 0.20111,-0.57265 0.37203,-0.54515 0.44611,-1.34146 0.44611,-1.94443 0,0 0.80307,0.52461 0.80307,0.52461 0,0.68223 -0.0501,1.45104 -0.22813,2.02014 0,0 1.43322,0.98878 1.43322,0.98878 0,0 0,-0.0462 0,-0.0462 0,0 -0.53594,-1.06618 -1.20509,-2.96276 0,0 -0.80307,-0.52461 -0.80307,-0.52461 0,-1.2248 -0.21327,-2.51213 -0.29697,-2.98943 -0.35025,-2.20286 -0.35025,-3.57784 -0.35025,-4.33644 0,-6.79904 1.67737,-11.0931 4.54158,-8.4997 1.75717,1.59104 3.56605,5.45168 4.66171,12.55864 0.6831,4.33461 1.41978,9.09225 2.70875,10.02753 0.98277,0.7131 1.81141,-0.27378 1.81141,-3.17993 0,-2.9307 -1.32628,-8.02951 -2.85747,-10.13662 -0.2579,-0.35052 -0.44571,-0.59839 -0.44571,-1.19327 0,-0.72236 0.29639,-0.46069 0.61311,-0.18107 0,0 2.72848,2.40892 2.72848,2.40892 0.29214,0.25792 0.56855,0.50196 0.56855,1.19292 0,0.32516 -0.0862,0.42097 -0.14144,0.52766 -0.1523,0.23496 -0.34693,0.63925 -0.34693,1.65297 0,0 -0.60682,-0.59492 -0.60682,-0.59492 0.0141,-1.09102 0.15866,-1.62436 0.17626,-1.65021 0,0 -1.06835,-0.92556 -1.06835,-0.92556 0.20141,0.46491 0.37332,0.98594 0.89209,2.57577 0,0 0.60682,0.59492 0.60682,0.59492 0,1.02189 0.14258,2.07107 0.21196,2.62558 0.20402,1.46015 0.27641,2.44487 0.27641,3.66422 0,5.50333 -1.16943,8.41087 -3.57638,6.79919 -1.2271,-0.82166 -2.5475,-2.89001 -3.84178,-10.54566 0,0 0,0 0,0"
           inkscape:connector-curvature="0"
           style="fill:#000000;stroke-width:0" /></g>      <path
         inkscape:connector-curvature="0"
         id="path9158"
         d="m -800,302.36218 c 0,0 1.74986,0 1.74986,0 0,0 796.5003589,0 796.5003589,0 0,0 1.7497811,0 1.7497811,0 0,0 -1.494396,-1.4944 -1.494396,-1.4944 0,0 -248.300254,-248.300248 -248.300254,-248.300248 0,0 -0.20535,-0.205349 -0.20535,-0.205349 0,0 -0.65617,0 -0.65617,0 0,0 -298.68763,0 -298.68763,0 0,0 -0.6562,0 -0.6562,0 0,0 -0.20535,0.205349 -0.20535,0.205349 0,0 -248.30025,248.300248 -248.30025,248.300248 0,0 -1.4944,1.4944 -1.4944,1.4944 0,0 0,0 0,0 m 6.50088,-2.97767 c 0,0 244.41677,-246.605164 244.41677,-246.605164 0,0 298.16473,0 298.16473,0 0,0 244.41682,246.605164 244.41682,246.605164 0,0 -786.99832,0 -786.99832,0 0,0 0,0 0,0"
         style="font-size:medium;font-style:normal;font-variant:normal;font-weight:normal;font-stretch:normal;text-indent:0;text-align:start;text-decoration:none;line-height:normal;letter-spacing:normal;word-spacing:normal;text-transform:none;direction:ltr;block-progression:tb;writing-mode:lr-tb;text-anchor:start;baseline-shift:baseline;color:#000000;fill:#000000;fill-opacity:1;stroke:none;stroke-width:2.22224045;marker:none;visibility:visible;display:inline;overflow:visible;enable-background:accumulate;font-family:Sans;-inkscape-font-specification:Sans" />
    </g>
  </g>
  <g
     style="display:none"
     inkscape:label="North"
     id="g8910"
     inkscape:groupmode="layer"
     sodipodi:insensitive="true">
    <path
       sodipodi:nodetypes="ccccc"
       inkscape:connector-curvature="0"
       id="path8912"
       d="m -550,52.362183 300,0 250,249.999997 -800,0 z"
       style="fill:none;stroke:#000000;stroke-width:0.09994961;stroke-linecap:round;stroke-linejoin:miter;stroke-miterlimit:4;stroke-opacity:1;stroke-dasharray:none;display:inline" />
    <flowRoot
       xml:space="preserve"
       id="flowRoot8914"
       style="font-size:40px;font-style:normal;font-weight:normal;line-height:125%;letter-spacing:0px;word-spacing:0px;fill:#000000;fill-opacity:1;stroke:none;font-family:Sans"><flowRegion
         id="flowRegion8916"><rect
           id="rect8918"
           width="344"
           height="224"
           x="292"
           y="1860.3622" /></flowRegion><flowPara
         id="flowPara8920" /></flowRoot>    <g
       id="g8922"
       transform="matrix(-1,0,0,-1,500,1604.625)">
      <path
         inkscape:connector-curvature="0"
         id="path8924"
         d="m 1033.1803,1484.0686 c 0,0 -2.8837,-0.8837 -2.8837,-0.8837 0,0 -57.50103,-17.7519 -57.50103,-17.7519 0,0 -3.34145,-1.0268 -3.34145,-1.0268 0,0 -0.60127,2.0592 -0.60127,2.0592 0,0 -3.74183,12.8145 -3.74183,12.8145 0,0 -55.52275,0 -55.52275,0 0,0 1.23055,-28.6176 1.23055,-28.6176 0,0 30.47511,0 30.47511,0 0,0 4.46591,0 4.46591,0 0,0 -1.85056,-2.0271 -1.85056,-2.0271 0,0 -41.2552,-45.4239 -41.2552,-45.4239 0,0 -2.65408,-2.9395 -2.65408,-2.9395 0,0 -2.69146,2.9395 -2.69146,2.9395 0,0 -41.24952,45.4239 -41.24952,45.4239 0,0 -1.85031,2.0271 -1.85031,2.0271 0,0 4.46591,0 4.46591,0 0,0 30.47511,0 30.47511,0 0,0 1.23413,28.6176 1.23413,28.6176 0,0 -55.52276,0 -55.52276,0 0,0 -3.74343,-12.8145 -3.74343,-12.8145 0,0 -0.60153,-2.0592 -0.60153,-2.0592 0,0 -3.34131,1.0268 -3.34131,1.0268 0,0 -57.49882,17.7519 -57.49882,17.7519 0,0 -2.88358,0.8837 -2.88358,0.8837 0,0 3.93077,0.8766 3.93077,0.8766 0,0 67.07649,15.0402 67.07649,15.0402 0,0 3.33016,0.7536 3.33016,0.7536 0,0 -0.44195,-1.5129 -0.44195,-1.5129 0,0 -3.3212,-11.3691 -3.3212,-11.3691 0,0 53.38705,0 53.38705,0 0,0 0.93913,21.777 0.93913,21.777 0,0 -23.33217,0 -23.33217,0 0,0 -3.41916,0 -3.41916,0 0,0 1.89013,1.1811 1.89013,1.1811 0,0 31.62252,19.6925 31.62252,19.6925 0,0 1.5458,0.9473 1.5458,0.9473 0,0 1.52433,-0.9473 1.52433,-0.9473 0,0 31.62006,-19.6925 31.62006,-19.6925 0,0 1.88998,-1.1811 1.88998,-1.1811 0,0 -3.41916,0 -3.41916,0 0,0 -23.33217,0 -23.33217,0 0,0 0.93641,-21.777 0.93641,-21.777 0,0 53.38705,0 53.38705,0 0,0 -3.31978,11.3691 -3.31978,11.3691 0,0 -0.44176,1.5129 -0.44176,1.5129 0,0 3.33007,-0.7536 3.33007,-0.7536 0,0 67.07457,-15.0402 67.07457,-15.0402 0,0 3.9307,-0.8766 3.9307,-0.8766 0,0 0,0 0,0 m -9.0005,0 c 0,0 -60.25431,13.6326 -60.25431,13.6326 0,0 3.38447,-10.8302 3.38447,-10.8302 0,0 0.31098,-0.9952 0.31098,-0.9952 0,0 -2.21797,0 -2.21797,0 0,0 -58.3163,0 -58.3163,0 0,0 -2.21796,0 -2.21796,0 0,0 -0.0224,0.9952 -0.0224,0.9952 0,0 -0.52992,23.552 -0.52992,23.552 0,0 -0.0178,0.7921 -0.0178,0.7921 0,0 1.95824,0 1.95824,0 0,0 21.73168,0 21.73168,0 0,0 -27.98849,17.6877 -27.98849,17.6877 0,0 -28.01238,-17.6877 -28.01238,-17.6877 0,0 21.73169,0 21.73169,0 0,0 1.95823,0 1.95823,0 0,0 -0.0179,-0.7921 -0.0179,-0.7921 0,0 -0.53286,-23.552 -0.53286,-23.552 0,0 -0.0225,-0.9952 -0.0225,-0.9952 0,0 -2.21796,0 -2.21796,0 0,0 -58.3163,0 -58.3163,0 0,0 -2.21797,0 -2.21797,0 0,0 0.31111,0.9952 0.31111,0.9952 0,0 3.38582,10.8302 3.38582,10.8302 0,0 -60.256,-13.6326 -60.256,-13.6326 0,0 51.12803,-15.5652 51.12803,-15.5652 0,0 3.70331,11.8459 3.70331,11.8459 0,0 0.32717,1.0465 0.32717,1.0465 0,0 2.26388,0 2.26388,0 0,0 59.52367,0 59.52367,0 0,0 2.26388,0 2.26388,0 0,0 -0.0237,-1.0465 -0.0237,-1.0465 0,0 -0.70242,-31.0459 -0.70242,-31.0459 0,0 -0.0311,-1.3736 -0.0311,-1.3736 0,0 -2.60691,0 -2.60691,0 0,0 -28.93038,0 -28.93038,0 0,0 37.29158,-39.9747 37.29158,-39.9747 0,0 37.25979,39.9747 37.25979,39.9747 0,0 -28.93038,0 -28.93038,0 0,0 -2.60692,0 -2.60692,0 0,0 -0.0309,1.3736 -0.0309,1.3736 0,0 -0.69854,31.0459 -0.69854,31.0459 0,0 -0.0235,1.0465 -0.0235,1.0465 0,0 2.26389,0 2.26389,0 0,0 59.52366,0 59.52366,0 0,0 2.26389,0 2.26389,0 0,0 0.32703,-1.0465 0.32703,-1.0465 0,0 3.70183,-11.8459 3.70183,-11.8459 0,0 51.12994,15.5652 51.12994,15.5652 0,0 0,0 0,0"
         style="font-size:medium;font-style:normal;font-variant:normal;font-weight:normal;font-stretch:normal;text-indent:0;text-align:start;text-decoration:none;line-height:normal;letter-spacing:normal;word-spacing:normal;text-transform:none;direction:ltr;block-progression:tb;writing-mode:lr-tb;text-anchor:start;baseline-shift:baseline;color:#000000;fill:#000000;fill-opacity:1;stroke:none;stroke-width:5.13218069;marker:none;visibility:visible;display:inline;overflow:visible;enable-background:accumulate;font-family:Sans;-inkscape-font-specification:Sans" />
      <g
         style="font-style:normal;font-variant:normal;font-weight:normal;font-stretch:normal;letter-spacing:normal;word-spacing:normal;text-anchor:start;fill:none;stroke:#000000;stroke-linecap:butt;stroke-linejoin:miter;stroke-miterlimit:10.43299961;stroke-opacity:1;stroke-dasharray:none;stroke-dashoffset:0"
         id="g8926"
         transform="matrix(0,2.3620586,2.3623894,0,-560.6646,-313.9983)"
         xml:space="preserve"
         stroke-miterlimit="10.433"
         font-style="normal"
         font-variant="normal"
         font-weight="normal"
         font-stretch="normal"
         font-size-adjust="none"
         letter-spacing="normal"
         word-spacing="normal"><path
           style="fill:#000000;stroke-width:0"
           inkscape:connector-curvature="0"
           d="m 787.53358,625.47796 c 0,0 -5.33217,0.57933 -5.33217,0.57933 -0.63133,0.0686 -0.84669,0.35817 -0.85882,2.10027 0,0.37545 -0.0146,0.95105 -0.2094,0.98019 -0.21798,0.0326 -0.21798,-0.51674 -0.21798,-1.12789 0,0 0,-5.30116 0,-5.30116 0,-0.61801 0,-1.13301 0.21798,-1.14284 0.19483,-0.009 0.2094,0.52985 0.2094,1.01453 0.0121,1.86257 0.26366,2.12005 0.88488,2.06482 0,0 5.02279,-0.44654 5.02279,-0.44654 0,0 -6.38421,-14.22661 -6.38421,-14.22661 -0.1479,-0.31989 -0.18497,-0.49651 -0.18497,-0.73073 0,-0.59245 0.1948,-0.56667 0.40569,-0.53876 0,0 6.28404,0.83165 6.28404,0.83165 0.56621,0.0749 0.70426,-0.17917 0.71624,-1.60107 0,-0.17948 0.01,-0.70389 0.16721,-0.67731 0.17624,0.0298 0.17624,0.48539 0.17624,1.0395 0,0 0,4.47601 0,4.47601 0,0.55411 0,1.04666 -0.17624,1.03454 -0.16721,-0.0115 -0.16721,-0.57472 -0.16721,-0.90894 -0.012,-1.72192 -0.21023,-1.99805 -0.7448,-2.05824 0,0 -3.34308,-0.37643 -3.34308,-0.37643 0,0 4.29676,9.76896 4.29676,9.76896 0,0 -0.20888,0.86648 -0.20888,0.86648 0,0 -4.85997,-10.94843 -4.85997,-10.94843 0,0 -1.69079,-0.19581 -1.69079,-0.19581 0,0 6.31039,14.19216 6.31039,14.19216 0.1184,0.29952 0.14043,0.29745 0.24037,0.62851 0,0 0,-3.67643 0,-3.67643 0,0 0.20888,-0.86648 0.20888,-0.86648 0.13457,0.30386 0.13457,0.39621 0.13457,1.09809 0,0 0,5.34412 0,5.34412 0,0.54796 0,1.00972 -0.17624,1.03509 -0.14926,0.0215 -0.16721,-0.44012 -0.16721,-0.6258 -0.0319,-0.82548 -0.19015,-1.40217 -0.31081,-1.68711 -0.0807,0.0647 -0.10089,0.0669 -0.24266,0.0823 0,0 0,0 0,0"
           id="path8928" /></g>      <g
         word-spacing="normal"
         letter-spacing="normal"
         font-size-adjust="none"
         font-stretch="normal"
         font-weight="normal"
         font-variant="normal"
         font-style="normal"
         stroke-miterlimit="10.433"
         xml:space="preserve"
         transform="matrix(0,2.3620586,2.3623894,0,-745.0576,-522.61562)"
         id="g8930"
         style="font-style:normal;font-variant:normal;font-weight:normal;font-stretch:normal;letter-spacing:normal;word-spacing:normal;text-anchor:start;fill:none;stroke:#000000;stroke-linecap:butt;stroke-linejoin:miter;stroke-miterlimit:10.43299961;stroke-opacity:1;stroke-dasharray:none;stroke-dashoffset:0"><path
           id="path8932"
           d="m 855.15915,744.60713 c 0,0 0.0525,-0.0783 0.0525,-0.0783 0,0 0.0524,-0.07 0.0524,-0.07 0,0 0.0488,-0.0762 0.0488,-0.0762 0,0 0.0488,-0.0679 0.0488,-0.0679 0,0 0.0453,-0.0659 0.0453,-0.0659 0,0 0.0417,-0.0721 0.0417,-0.0721 0,0 0.0417,-0.0639 0.0417,-0.0639 0,0 0.0382,-0.0701 0.0382,-0.0701 0,0 0.0347,-0.0599 0.0347,-0.0599 0,0 0.0381,-0.07 0.0381,-0.07 0,0 0.0312,-0.0579 0.0312,-0.0579 0,0 0.0311,-0.066 0.0311,-0.066 0,0 0.0311,-0.066 0.0311,-0.066 0,0 0.0242,-0.054 0.0242,-0.054 0,0 0.0276,-0.064 0.0276,-0.064 0,0 0.0242,-0.0621 0.0242,-0.0621 0,0 0.0241,-0.062 0.0241,-0.062 0,0 0.0207,-0.0601 0.0207,-0.0601 0,0 0.0172,-0.0582 0.0172,-0.0582 0,0 0.0207,-0.0682 0.0207,-0.0682 0,0 0.0138,-0.0563 0.0138,-0.0563 0,0 0.0172,-0.0663 0.0172,-0.0663 0,0 0.0138,-0.0644 0.0138,-0.0644 0,0 0.0103,-0.0625 0.0103,-0.0625 0,0 0.0137,-0.0643 0.0137,-0.0643 0,0 0.0103,-0.0706 0.0103,-0.0706 0,0 0.007,-0.0606 0.007,-0.0606 0,0 0.0103,-0.0706 0.0103,-0.0706 0,0 0.007,-0.0687 0.007,-0.0687 0,0 0.003,-0.0668 0.003,-0.0668 0,0 0.007,-0.0768 0.007,-0.0768 0,0 0.003,-0.0749 0.003,-0.0749 0.0309,-0.53608 0.16456,-0.7691 0.28758,-0.83416 0.3026,-0.16003 0.3026,0.44478 0.3026,1.16249 0,0 0,5.70942 0,5.70942 0,0.71771 0,1.32252 -0.3026,1.51216 -0.15382,0.0964 -0.27041,-0.11467 -0.28758,-0.46936 -0.0378,-0.90267 -0.0688,-1.85901 -1.25112,-1.15307 0,0 -0.25176,-1.28725 -0.25176,-1.28725 0.65298,-0.37913 1.054,-0.61197 1.50288,-0.26361 0,0 0,-2.02997 0,-2.02997 -0.27568,0.5628 -0.98674,1.55039 -1.50288,2.29358 0,0 0.25176,1.28725 0.25176,1.28725 -1.54368,0.92166 -3.96254,4.26058 -6.86126,8.25531 0.36473,0.12904 6.20221,1.31837 7.69819,0.39942 0,0 0.41419,0.70756 0.41419,0.70756 -0.14107,0.50747 -0.43153,0.71643 -0.51836,0.77889 -1.37387,0.98836 -7.9616,-0.22279 -8.83619,-0.41404 -0.9426,1.33855 -1.76363,2.50982 -2.3321,3.26457 0,0 10.83675,1.30767 10.83675,1.30767 0.30024,0.0646 0.5915,0.1586 0.8499,0.4058 0,0 0,-5.34289 0,-5.34289 0,0 -0.41419,-0.70756 -0.41419,-0.70756 0.0866,-0.23206 0.37639,-1.20694 0.41419,-2.23185 0,-0.20299 0.0309,-0.87331 0.28758,-1.04542 0.3026,-0.20291 0.3026,0.4019 0.3026,1.11961 0,0 0,9.67697 0,9.67697 0,0.73384 0,1.37091 -0.3026,1.61767 -0.0512,0.0418 -0.23952,0.10605 -0.28758,-0.40696 -0.055,-0.69495 -0.086,-1.39359 -1.00432,-1.52972 -0.53058,-0.11453 -1.17588,-0.1639 -1.79048,-0.18605 0,0 -5.81387,10.21703 -5.81387,10.21703 0,0 4.04725,-0.30079 4.04725,-0.30079 1.27318,-0.13116 3.50081,-0.47972 4.11254,-1.02225 0,0 0.0173,1.41273 0.0173,1.41273 -1.28167,1.15788 -7.66029,1.56318 -9.20258,1.65863 0,0 -2.09689,3.67705 -2.09689,3.67705 0,0 10.93362,-1.19439 10.93362,-1.19439 0.1746,-0.0509 0.50095,-0.0835 0.79738,0.0404 0,0 0,-4.80698 0,-4.80698 -0.086,0.19121 -0.15485,0.37537 -0.43153,0.62533 0,0 -0.0173,-1.41273 -0.0173,-1.41273 0.19048,-0.16894 0.41108,-1.16068 0.44888,-1.89217 0,-0.11368 0.0309,-0.78987 0.28758,-1.01076 0.3026,-0.26043 0.3026,0.3847 0.3026,1.10241 0,0 0,8.51574 0,8.51574 0,0.73384 0,1.32252 -0.3026,1.62265 -0.23952,0.23756 -0.27041,-0.28385 -0.28758,-0.46992 -0.055,-0.8722 -0.58795,-0.85272 -0.77989,-0.82288 0,0 -11.90987,1.54673 -11.90987,1.54673 -0.34048,0.0604 -0.52303,0.0865 -0.52303,-0.48494 0,-0.51525 0.16433,-0.78574 0.45512,-1.31208 0,0 9.06398,-15.80726 9.06398,-15.80726 0,0 -8.97345,-0.93656 -8.97345,-0.93656 -0.38132,-0.0134 -0.54565,-0.0526 -0.54565,-0.60535 0,-0.56209 0.18255,-0.82295 0.52303,-1.28037 0,0 11.87838,-16.53986 11.87838,-16.53986"
           inkscape:connector-curvature="0"
           style="fill:#000000;stroke-width:0" /></g>      <g
         style="font-style:normal;font-variant:normal;font-weight:normal;font-stretch:normal;letter-spacing:normal;word-spacing:normal;text-anchor:start;fill:none;stroke:#000000;stroke-linecap:butt;stroke-linejoin:miter;stroke-miterlimit:10.43299961;stroke-opacity:1;stroke-dasharray:none;stroke-dashoffset:0"
         id="g8934"
         transform="matrix(0,0.47241172,0.47247789,0,53.74417,774.50663)"
         xml:space="preserve"
         stroke-miterlimit="10.433"
         font-style="normal"
         font-variant="normal"
         font-weight="normal"
         font-stretch="normal"
         font-size-adjust="none"
         letter-spacing="normal"
         word-spacing="normal"><path
           style="fill:#000000;stroke-width:0"
           inkscape:connector-curvature="0"
           d="m 1504.4853,1447.2597 c 0,0 0,-0.5208 0,-0.5208 0,0 0,-0.5208 0,-0.5208 0,0 0,-0.6075 0,-0.6075 0,0 0,-0.5642 0,-0.5642 0,0 0,-0.651 0,-0.651 0,0 0,-0.651 0,-0.651 0,0 -0.02,-0.6658 -0.02,-0.6658 0,0 0,-0.6944 0,-0.6944 0,0 -0.02,-0.7093 -0.02,-0.7093 0,0 -0.02,-0.7528 -0.02,-0.7528 0,0 -0.039,-1.5058 -0.039,-1.5058 0,0 -0.059,-1.5645 -0.059,-1.5645 0,0 -0.098,-1.6387 -0.098,-1.6387 0,0 -0.098,-1.6828 -0.098,-1.6828 0,0 -0.1376,-1.7142 -0.1376,-1.7142 0,0 -0.079,-0.8434 -0.079,-0.8434 0,0 -0.098,-0.9026 -0.098,-0.9026 0,0 -0.079,-0.844 -0.079,-0.844 0,0 -0.1182,-0.8753 -0.1182,-0.8753 0,0 -0.1182,-0.9193 -0.1182,-0.9193 0,0 -0.1183,-0.8762 -0.1183,-0.8762 0,0 -0.1183,-0.8766 -0.1183,-0.8766 0,0 -0.1579,-0.8649 -0.1579,-0.8649 0,0 -0.158,-0.9091 -0.158,-0.9091 0,0 -0.1581,-0.8661 -0.1581,-0.8661 0,0 -0.178,-0.8824 -0.178,-0.8824 0,0 -0.1781,-0.8396 -0.1781,-0.8396 0,0 4.0041,4.0644 4.0041,4.0644 0,0 0.097,0.078 0.097,0.078 0.6991,-2.8505 2.1102,-6.4884 4.1246,-8.6566 0,0 -8.1073,-6.6778 -8.1073,-6.6778 2.6367,7.3715 3.8854,14.9975 3.8854,15.2568 0,0 -4.0041,-4.0644 -4.0041,-4.0644 -3.0494,-12.9243 -8.5507,-18.3332 -9.1471,-18.8245 -1.4252,-1.3968 -2.7966,-2.527 -2.7966,-6.3282 0,-3.8012 1.4542,-2.5793 3.3108,-1.0194 0,0 26.1936,22.008 26.1936,22.008 1.4427,1.2122 2.8941,2.4317 2.8941,5.9727 0,3.5411 -1.3604,2.6288 -2.0712,2.0434 -12.0372,-8.668 -12.7316,12.6352 -12.8282,23.7148 0,0 19.4629,14.5676 19.4629,14.5676 5.8364,4.3684 5.8364,0.5855 5.8364,-4.3364 0,0 0,-9.7218 0,-9.7218 0,-27.3347 -6.0136,-46.2506 -12.1975,-52.9863 -0.7304,-0.8171 -2.1065,-2.3353 -2.1065,-5.6556 0,-3.5723 1.4675,-2.2432 2.9981,-0.8571 0,0 11.461,10.38 11.461,10.38 2.6539,2.4036 2.807,2.9866 2.807,9.1673 0,0 -2.9621,-2.1893 -2.9621,-2.1893 0,0 -4.1603,-3.6991 -4.1603,-3.6991 1.6458,4.9411 3.0194,10.0259 4.1603,15.2919 0,0 0,-11.5928 0,-11.5928 0,0 2.9621,2.1893 2.9621,2.1893 0,0 0,103.0929 0,103.0929 0,3.5953 0,6.827 -1.5188,5.8655 -1.4433,-0.9139 -1.4433,-4.7375 -1.4433,-6.4052 0,-11.4708 -0.708,-12.8026 -4.9526,-15.6656 0,0 -49.0009,-33.0516 -49.0009,-33.0516 0,0 -0.2184,-8.1613 -0.2184,-8.1613 0,0 49.378,34.1222 49.378,34.1222 1.0374,0.717 3.2193,2.2247 4.7939,4.9806 0,0 0,-21.4773 0,-21.4773 -2.0092,0.7259 -4.8821,-1.3769 -5.677,-1.9588 0,0 -47.4048,-34.6978 -47.4048,-34.6978 -3.9254,-2.8732 -6.1463,-6.1645 -7.1299,-7.7224 0,0 0,24.4807 0,24.4807 1.9855,-0.5289 4.7471,1.3795 6.0398,2.2728 0,0 0.2184,8.1613 0.2184,8.1613 -5.1853,-3.4976 -6.2582,-3.5721 -6.2582,8.6682 0,3.4774 0,7.4184 -1.9339,6.1939 -2.0175,-1.2773 -2.0175,-5.0164 -2.0175,-9.1761 0,0 0,-123.4354 0,-123.4354 0,0 3.9514,3.3653 3.9514,3.3653 0,0 0,16.135 0,16.135 0,0 0.112,0.097 0.112,0.097 1.7624,-5.8174 4.0853,-9.9764 6.037,-12.8102 -0.4372,-0.1658 -5.2769,-2.8692 -6.149,-3.4217 0,0 -3.9514,-3.3653 -3.9514,-3.3653 0,-4.4401 0,-6.6835 1.5882,-5.9804 0.113,-0.1296 18.2085,10.1746 18.7323,10.6603 1.1484,1.0648 1.8971,3.7231 1.8971,5.5533 0,3.0354 -1.3744,2.7211 -1.4788,2.626 -2.7107,-1.1628 -7.1903,-2.9575 -11.8426,9.5467 -3.4041,9.0592 -4.9448,19.4886 -4.9448,32.2389 0,0 0,12.6576 0,12.6576 0,5.6102 0,9.9221 7.3474,15.4214 0,0 24.0596,18.0082 24.0596,18.0082"
           id="path8936" /></g>      <g
         word-spacing="normal"
         letter-spacing="normal"
         font-size-adjust="none"
         font-stretch="normal"
         font-weight="normal"
         font-variant="normal"
         font-style="normal"
         stroke-miterlimit="10.433"
         xml:space="preserve"
         transform="matrix(0,2.3620586,2.3623894,0,-947.2749,-308.35573)"
         id="g8938"
         style="font-style:normal;font-variant:normal;font-weight:normal;font-stretch:normal;letter-spacing:normal;word-spacing:normal;text-anchor:start;fill:none;stroke:#000000;stroke-linecap:butt;stroke-linejoin:miter;stroke-miterlimit:10.43299961;stroke-opacity:1;stroke-dasharray:none;stroke-dashoffset:0"><path
           id="path8940"
           d="m 705.38742,787.76816 c 0,0 -0.32702,-1.00868 -0.32702,-1.00868 0,0 -0.33846,-1.04063 -0.33846,-1.04063 0,0 -0.36009,-1.07284 -0.36009,-1.07284 0,0 -0.38202,-1.0779 -0.38202,-1.0779 0,0 -0.40427,-1.08345 -0.40427,-1.08345 0,0 -0.21314,-0.53 -0.21314,-0.53 0,0 -0.22394,-0.53156 -0.22394,-0.53156 0,0 -0.22463,-0.51917 -0.22463,-0.51917 0,0 -0.23556,-0.50682 -0.23556,-0.50682 0,0 -0.24661,-0.50857 -0.24661,-0.50857 0,0 -0.25775,-0.48229 -0.25775,-0.48229 0,0 -0.26901,-0.47006 -0.26901,-0.47006 0,0 -0.26999,-0.45764 -0.26999,-0.45764 0,0 -0.29185,-0.44568 -0.29185,-0.44568 0,0 -0.29298,-0.41905 -0.29298,-0.41905 0,0 -0.31519,-0.39293 -0.31519,-0.39293 0,0 -0.31652,-0.38034 -0.31652,-0.38034 0,0 -0.33909,-0.35415 -0.33909,-0.35415 0,0 -0.34061,-0.32713 -0.34061,-0.32713 0,0 -0.3636,-0.30079 -0.3636,-0.30079 0,0 -0.36534,-0.2591 -0.36534,-0.2591 0,0 -0.38875,-0.23246 -0.38875,-0.23246 0,0 -0.41251,-0.2057 -0.41251,-0.2057 0,0 -0.41475,-0.16335 -0.41475,-0.16335 0,0 -0.43901,-0.12164 -0.43901,-0.12164 0,0 -0.4526,-0.0937 -0.4526,-0.0937 0,0 -0.46641,-0.0363 -0.46641,-0.0363 0,0 0,-2.55882 0,-2.55882 5.61417,0.35418 8.40585,7.69306 10.02152,13.02186 1.91321,6.2858 3.86885,12.0513 8.06826,11.595 2.00299,-0.21764 4.36463,-1.28679 5.59862,-4.74459 0,0 -0.04,-0.0589 -0.04,-0.0589 -1.16146,1.22628 -2.55939,1.40857 -2.88427,1.43641 -3.89264,0.33361 -5.95689,-6.7489 -7.616,-12.68687 -0.70296,-2.4935 -1.63209,-5.95523 -3.5664,-8.71288 -1.71582,-2.33776 -3.65788,-4.10281 -6.48176,-4.36873 -4.27845,-0.40289 -6.50367,3.18318 -7.42812,5.37291 0,0 0,0 0,0 1.68857,-0.96129 3.93729,-0.87891 4.32812,-0.85425 0,0 0,2.55882 0,2.55882 -4.0344,-0.18782 -6.47535,2.0445 -6.47535,9.5394 0,3.96072 1.68687,7.19612 3.76664,9.67551 3.38519,4.00733 6.28854,3.8484 7.44879,3.72672 0.46953,-0.0493 0.87409,0.47198 0.87409,1.12019 0,1.25414 -0.82177,1.35391 -1.71613,1.4625 0,0 -10.48227,1.27266 -10.48227,1.27266 -1.03565,0.12574 -2.01018,0.24406 -2.01018,-1.12954 0,-0.55561 0.17355,-0.79048 0.53188,-1.21386 0.9804,-1.40357 1.17507,-2.79715 1.17507,-3.77459 0,0 2.09898,-0.2503 2.09898,-0.2503 0,1.10042 -0.13033,2.40956 -0.59413,3.5746 0,0 3.70497,-0.38858 3.70497,-0.38858 0,0 0,-0.0739 0,-0.0739 0,0 -1.37778,-0.97443 -3.11084,-3.11212 0,0 -2.09898,0.2503 -2.09898,0.2503 0,-1.98542 -0.56093,-3.78461 -0.78148,-4.44668 -0.92547,-3.11248 -0.92547,-5.35037 -0.92547,-6.58507 0,-11.06598 4.39566,-20.04025 11.69441,-19.23229 4.35334,0.48191 8.73979,4.41084 11.3511,14.08898 1.61102,5.82318 3.33396,12.1776 6.31306,11.97153 2.24155,-0.15505 4.11188,-2.66515 4.11188,-7.02163 0,-4.39331 -3.00219,-10.5197 -6.52614,-11.95052 -0.59975,-0.23683 -1.03766,-0.39846 -1.03766,-1.3075 0,-1.10384 0.69062,-1.04298 1.42598,-0.97818 0,0 6.22407,0.54847 6.22407,0.54847 0.65486,0.0577 1.27242,0.11213 1.27242,1.14432 0,0.48574 -0.19235,0.72645 -0.31576,0.94857 -0.34059,0.52454 -0.77669,1.35203 -0.77669,2.87062 0,0 -1.36603,-0.192 -1.36603,-0.192 0.0319,-1.65632 0.35808,-2.62294 0.39775,-2.6818 0,0 -2.42343,-0.1735 -2.42343,-0.1735 0.45918,0.47121 0.85024,1.05981 2.02568,2.8553 0,0 1.36603,0.192 1.36603,0.192 0,1.53083 0.31957,2.93569 0.47489,3.68425 0.45603,1.9431 0.61756,3.32851 0.61756,5.15003 0,8.22111 -2.62626,14.06302 -8.14493,14.7539 -2.87379,0.35977 -6.01289,-1.08065 -9.13808,-11.29587 0,0 0,0 0,0"
           inkscape:connector-curvature="0"
           style="fill:#000000;stroke-width:0" /></g>      <path
         inkscape:connector-curvature="0"
         id="path8942"
         d="m 1050,1552.2628 c 0,0 0.2053,-0.2053 0.2053,-0.2053 0,0 248.3418,-248.3418 248.3418,-248.3418 0,0 1.4529,-1.4529 1.4529,-1.4529 0,0 -1.8,0 -1.8,0 0,0 -796.45008,0 -796.45008,0 0,0 -1.74992,0 -1.74992,0 0,0 1.45285,1.4529 1.45285,1.4529 0,0 248.34182,248.3418 248.34182,248.3418 0,0 0.20533,0.2053 0.20533,0.2053 0,0 0.65622,0 0.65622,0 0,0 298.66878,0 298.66878,0 0,0 0.675,0 0.675,0 0,0 0,0 0,0 m -0.9366,-0.4171 c 0,0 -298.1456,0 -298.1456,0 0,0 -244.45769,-246.6466 -244.45769,-246.6466 0,0 787.03009,0 787.03009,0 0,0 -244.4268,246.6466 -244.4268,246.6466 0,0 0,0 0,0"
         style="font-size:medium;font-style:normal;font-variant:normal;font-weight:normal;font-stretch:normal;text-indent:0;text-align:start;text-decoration:none;line-height:normal;letter-spacing:normal;word-spacing:normal;text-transform:none;direction:ltr;block-progression:tb;writing-mode:lr-tb;text-anchor:start;baseline-shift:baseline;color:#000000;fill:#000000;fill-opacity:1;stroke:none;stroke-width:2.22224045;marker:none;visibility:visible;display:inline;overflow:visible;enable-background:accumulate;font-family:Sans;-inkscape-font-specification:Sans" />
    </g>
  </g>
  <flowRoot
     style="fill:black;stroke:none;stroke-opacity:1;stroke-width:1px;stroke-linejoin:miter;stroke-linecap:butt;fill-opacity:1;font-family:Sans;font-style:normal;font-weight:normal;font-size:40px;line-height:125%;letter-spacing:0px;word-spacing:0px"
     id="flowRoot9384"
     xml:space="preserve"><flowRegion
       id="flowRegion9386"><rect
         y="-113.63782"
         x="264"
         height="48"
         width="82"
         id="rect9388" /></flowRegion><flowPara
       id="flowPara9390" /></flowRoot></svg>
