<?xml version="1.0" encoding="UTF-8" standalone="no"?>
<!-- Created with Inkscape (http://www.inkscape.org/) -->

<svg
   xmlns:dc="http://purl.org/dc/elements/1.1/"
   xmlns:cc="http://creativecommons.org/ns#"
   xmlns:rdf="http://www.w3.org/1999/02/22-rdf-syntax-ns#"
   xmlns:svg="http://www.w3.org/2000/svg"
   xmlns="http://www.w3.org/2000/svg"
   xmlns:sodipodi="http://sodipodi.sourceforge.net/DTD/sodipodi-0.dtd"
   xmlns:inkscape="http://www.inkscape.org/namespaces/inkscape"
   width="1000"
   height="1000"
   id="svg2"
   version="1.1"
   inkscape:version="0.48.4 r9939"
   sodipodi:docname="Background.svg"
   enable-background="new">
  <sodipodi:namedview
     id="base"
     pagecolor="#ffffff"
     bordercolor="#666666"
     borderopacity="1.0"
     inkscape:pageopacity="0.0"
     inkscape:pageshadow="2"
     inkscape:zoom="0.49497475"
     inkscape:cx="699.72178"
     inkscape:cy="747.00935"
     inkscape:document-units="px"
     inkscape:current-layer="g32466"
     showgrid="false"
     inkscape:window-width="1280"
     inkscape:window-height="753"
     inkscape:window-x="0"
     inkscape:window-y="25"
     inkscape:window-maximized="1"
     inkscape:snap-object-midpoints="true"
     inkscape:snap-center="true">
    <inkscape:grid
       type="xygrid"
       id="grid2991"
       empspacing="5"
       visible="true"
       enabled="true"
       snapvisiblegridlinesonly="true" />
  </sodipodi:namedview>
  <defs
     id="defs4" />
  <metadata
     id="metadata7">
    <rdf:RDF>
      <cc:Work
         rdf:about="">
        <dc:format>image/svg+xml</dc:format>
        <dc:type
           rdf:resource="http://purl.org/dc/dcmitype/StillImage" />
        <dc:title />
      </cc:Work>
    </rdf:RDF>
  </metadata>
  <g
     inkscape:groupmode="layer"
     id="layer3"
     inkscape:label="Background"
     sodipodi:insensitive="true"
     style="display:none">
    <rect
       style="fill:#000000;stroke:#ffffff;stroke-opacity:1"
       id="rect32464"
       width="1640"
       height="1400"
       x="-280"
       y="-200" />
  </g>
  <g
     inkscape:groupmode="layer"
     id="layer1"
     inkscape:label="Black"
     style="display:none"
     sodipodi:insensitive="true">
    <g
       id="g32448">
      <path
         inkscape:connector-curvature="0"
         id="path3205"
         style="fill:none;stroke:#000000;stroke-width:0.5pt;stroke-linecap:butt;stroke-linejoin:miter;stroke-opacity:1"
         d="M 0,0 0,1000 M 20,0 20,1000 M 40,0 40,1000 M 60,0 60,1000 M 80,0 80,1000 M 100,0 100,1000 M 120,0 120,1000 M 140,0 140,1000 M 160,0 160,1000 M 180,0 180,1000 M 200,0 200,1000 M 220,0 220,1000 M 240,0 240,1000 M 260,0 260,1000 M 280,0 280,1000 M 300,0 300,1000 M 320,0 320,1000 M 340,0 340,1000 M 360,0 360,1000 M 380,0 380,1000 M 400,0 400,1000 M 420,0 420,1000 M 440,0 440,1000 M 460,0 460,1000 M 480,0 480,1000 M 500,0 500,1000 M 520,0 520,1000 M 540,0 540,1000 M 560,0 560,1000 M 580,0 580,1000 M 600,0 600,1000 M 620,0 620,1000 M 640,0 640,1000 M 660,0 660,1000 M 680,0 680,1000 M 700,0 700,1000 M 720,0 720,1000 M 740,0 740,1000 M 760,0 760,1000 M 780,0 780,1000 M 800,0 800,1000 M 820,0 820,1000 M 840,0 840,1000 M 860,0 860,1000 M 880,0 880,1000 M 900,0 900,1000 M 920,0 920,1000 M 940,0 940,1000 M 960,0 960,1000 M 980,0 l 0,1000 m 20,-1000 0,1000 M 0,0 1000,0 M 0,20 1000,20 M 0,40 1000,40 M 0,60 1000,60 M 0,80 1000,80 M 0,100 1000,100 M 0,120 1000,120 M 0,140 1000,140 M 0,160 1000,160 M 0,180 1000,180 M 0,200 1000,200 M 0,220 1000,220 M 0,240 1000,240 M 0,260 1000,260 M 0,280 1000,280 M 0,300 1000,300 M 0,320 1000,320 M 0,340 1000,340 M 0,360 1000,360 M 0,380 1000,380 M 0,400 1000,400 M 0,420 1000,420 M 0,440 1000,440 M 0,460 1000,460 M 0,480 1000,480 M 0,500 1000,500 M 0,520 1000,520 M 0,540 1000,540 M 0,560 1000,560 M 0,580 1000,580 M 0,600 1000,600 M 0,620 1000,620 M 0,640 1000,640 M 0,660 1000,660 M 0,680 1000,680 M 0,700 1000,700 M 0,720 1000,720 M 0,740 1000,740 M 0,760 1000,760 M 0,780 1000,780 M 0,800 1000,800 M 0,820 1000,820 M 0,840 1000,840 M 0,860 1000,860 M 0,880 1000,880 M 0,900 1000,900 M 0,920 1000,920 M 0,940 1000,940 M 0,960 1000,960 M 0,980 l 1000,0 m -1000,20 1000,0" />
      <path
         inkscape:connector-curvature="0"
         id="path3207"
         style="fill:none;stroke:#000000;stroke-width:2pt;stroke-linecap:butt;stroke-linejoin:miter;stroke-opacity:1"
         d="M 0,0 0,1000 M 100,0 100,1000 M 200,0 200,1000 M 300,0 300,1000 M 400,0 400,1000 M 500,0 500,1000 M 600,0 600,1000 M 700,0 700,1000 M 800,0 800,1000 M 900,0 900,1000 M 1000,0 l 0,1000 M 0,0 1000,0 M 0,100 1000,100 M 0,200 1000,200 M 0,300 1000,300 M 0,400 1000,400 M 0,500 1000,500 M 0,600 1000,600 M 0,700 1000,700 M 0,800 1000,800 M 0,900 1000,900 M 0,1000 l 1000,0" />
      <path
         inkscape:connector-curvature="0"
         id="path3209"
         style="fill:none;stroke:#000000;stroke-width:5pt;stroke-linecap:butt;stroke-linejoin:miter;stroke-opacity:1"
         d="M 0,0 0,1000 M 500,0 500,1000 M 1000,0 l 0,1000 M 0,0 1000,0 M 0,500 1000,500 M 0,1000 l 1000,0" />
    </g>
  </g>
  <g
     style="display:inline"
     inkscape:label="Gray Single Lines"
     id="g32466"
     inkscape:groupmode="layer">
    <path
       inkscape:connector-curvature="0"
       id="path32470"
       style="fill:#999999;stroke:#808080;stroke-width:1;stroke-linecap:butt;stroke-linejoin:miter;stroke-miterlimit:4;stroke-opacity:1;stroke-dasharray:none"
       d="M 0,0 0,1000 M 20,0 20,1000 M 40,0 40,1000 M 60,0 60,1000 M 80,0 80,1000 M 100,0 100,1000 M 120,0 120,1000 M 140,0 140,1000 M 160,0 160,1000 M 180,0 180,1000 M 200,0 200,1000 M 220,0 220,1000 M 240,0 240,1000 M 260,0 260,1000 M 280,0 280,1000 M 300,0 300,1000 M 320,0 320,1000 M 340,0 340,1000 M 360,0 360,1000 M 380,0 380,1000 M 400,0 400,1000 M 420,0 420,1000 M 440,0 440,1000 M 460,0 460,1000 M 480,0 480,1000 M 500,0 500,1000 M 520,0 520,1000 M 540,0 540,1000 M 560,0 560,1000 M 580,0 580,1000 M 600,0 600,1000 M 620,0 620,1000 M 640,0 640,1000 M 660,0 660,1000 M 680,0 680,1000 M 700,0 700,1000 M 720,0 720,1000 M 740,0 740,1000 M 760,0 760,1000 M 780,0 780,1000 M 800,0 800,1000 M 820,0 820,1000 M 840,0 840,1000 M 860,0 860,1000 M 880,0 880,1000 M 900,0 900,1000 M 920,0 920,1000 M 940,0 940,1000 M 960,0 960,1000 M 980,0 l 0,1000 m 20,-1000 0,1000 M 0,0 1000,0 M 0,20 1000,20 M 0,40 1000,40 M 0,60 1000,60 M 0,80 1000,80 M 0,100 1000,100 M 0,120 1000,120 M 0,140 1000,140 M 0,160 1000,160 M 0,180 1000,180 M 0,200 1000,200 M 0,220 1000,220 M 0,240 1000,240 M 0,260 1000,260 M 0,280 1000,280 M 0,300 1000,300 M 0,320 1000,320 M 0,340 1000,340 M 0,360 1000,360 M 0,380 1000,380 M 0,400 1000,400 M 0,420 1000,420 M 0,440 1000,440 M 0,460 1000,460 M 0,480 1000,480 M 0,500 1000,500 M 0,520 1000,520 M 0,540 1000,540 M 0,560 1000,560 M 0,580 1000,580 M 0,600 1000,600 M 0,620 1000,620 M 0,640 1000,640 M 0,660 1000,660 M 0,680 1000,680 M 0,700 1000,700 M 0,720 1000,720 M 0,740 1000,740 M 0,760 1000,760 M 0,780 1000,780 M 0,800 1000,800 M 0,820 1000,820 M 0,840 1000,840 M 0,860 1000,860 M 0,880 1000,880 M 0,900 1000,900 M 0,920 1000,920 M 0,940 1000,940 M 0,960 1000,960 M 0,980 l 1000,0 m -1000,20 1000,0" />
  </g>
  <g
     inkscape:groupmode="layer"
     id="g37344"
     inkscape:label="Black Single Lines"
     style="display:none"
     sodipodi:insensitive="true">
    <path
       d="M 0,0 0,1000 M 20,0 20,1000 M 40,0 40,1000 M 60,0 60,1000 M 80,0 80,1000 M 100,0 100,1000 M 120,0 120,1000 M 140,0 140,1000 M 160,0 160,1000 M 180,0 180,1000 M 200,0 200,1000 M 220,0 220,1000 M 240,0 240,1000 M 260,0 260,1000 M 280,0 280,1000 M 300,0 300,1000 M 320,0 320,1000 M 340,0 340,1000 M 360,0 360,1000 M 380,0 380,1000 M 400,0 400,1000 M 420,0 420,1000 M 440,0 440,1000 M 460,0 460,1000 M 480,0 480,1000 M 500,0 500,1000 M 520,0 520,1000 M 540,0 540,1000 M 560,0 560,1000 M 580,0 580,1000 M 600,0 600,1000 M 620,0 620,1000 M 640,0 640,1000 M 660,0 660,1000 M 680,0 680,1000 M 700,0 700,1000 M 720,0 720,1000 M 740,0 740,1000 M 760,0 760,1000 M 780,0 780,1000 M 800,0 800,1000 M 820,0 820,1000 M 840,0 840,1000 M 860,0 860,1000 M 880,0 880,1000 M 900,0 900,1000 M 920,0 920,1000 M 940,0 940,1000 M 960,0 960,1000 M 980,0 l 0,1000 m 20,-1000 0,1000 M 0,0 1000,0 M 0,20 1000,20 M 0,40 1000,40 M 0,60 1000,60 M 0,80 1000,80 M 0,100 1000,100 M 0,120 1000,120 M 0,140 1000,140 M 0,160 1000,160 M 0,180 1000,180 M 0,200 1000,200 M 0,220 1000,220 M 0,240 1000,240 M 0,260 1000,260 M 0,280 1000,280 M 0,300 1000,300 M 0,320 1000,320 M 0,340 1000,340 M 0,360 1000,360 M 0,380 1000,380 M 0,400 1000,400 M 0,420 1000,420 M 0,440 1000,440 M 0,460 1000,460 M 0,480 1000,480 M 0,500 1000,500 M 0,520 1000,520 M 0,540 1000,540 M 0,560 1000,560 M 0,580 1000,580 M 0,600 1000,600 M 0,620 1000,620 M 0,640 1000,640 M 0,660 1000,660 M 0,680 1000,680 M 0,700 1000,700 M 0,720 1000,720 M 0,740 1000,740 M 0,760 1000,760 M 0,780 1000,780 M 0,800 1000,800 M 0,820 1000,820 M 0,840 1000,840 M 0,860 1000,860 M 0,880 1000,880 M 0,900 1000,900 M 0,920 1000,920 M 0,940 1000,940 M 0,960 1000,960 M 0,980 l 1000,0 m -1000,20 1000,0"
       style="fill:#000000;stroke:#000000;stroke-width:1;stroke-linecap:butt;stroke-linejoin:miter;stroke-miterlimit:4;stroke-opacity:1;stroke-dasharray:none"
       id="path37346"
       inkscape:connector-curvature="0" />
  </g>
  <g
     inkscape:groupmode="layer"
     id="layer4"
     inkscape:label="Cameras">
    <path
       style="fill:none;stroke:#000080;stroke-width:2;stroke-linecap:butt;stroke-linejoin:miter;stroke-opacity:1;stroke-miterlimit:4;stroke-dasharray:none"
       d="m -160,780 1280,0"
       id="path37467"
       inkscape:connector-curvature="0" />
    <path
       style="fill:none;stroke:#000080;stroke-width:2;stroke-linecap:butt;stroke-linejoin:miter;stroke-opacity:1;stroke-miterlimit:4;stroke-dasharray:none"
       d="m 140,-120 0,1180"
       id="path37363"
       inkscape:connector-curvature="0" />
    <g
       id="g37471"
       transform="translate(0,40.480076)">
      <rect
         y="740.96021"
         x="60.960182"
         height="78.079643"
         width="158.07964"
         id="rect37429"
         style="fill:#ffffff;fill-opacity:1;stroke:#000080;stroke-width:2;stroke-miterlimit:4;stroke-opacity:1;stroke-dasharray:none" />
      <path
         inkscape:connector-curvature="0"
         id="path37437"
         d="m 140,740 -80,-80 160,0 z"
         style="fill:#ffffff;fill-opacity:1;stroke:#000080;stroke-width:2;stroke-linecap:butt;stroke-linejoin:miter;stroke-miterlimit:4;stroke-opacity:1;stroke-dasharray:none" />
    </g>
    <path
       style="fill:none;stroke:#800000;stroke-width:2;stroke-linecap:butt;stroke-linejoin:miter;stroke-opacity:1;stroke-miterlimit:4;stroke-dasharray:none"
       d="m 740,-120 0,1180"
       id="path37481"
       inkscape:connector-curvature="0" />
    <path
       style="fill:none;stroke:#800000;stroke-width:2;stroke-linecap:butt;stroke-linejoin:miter;stroke-opacity:1;stroke-miterlimit:4;stroke-dasharray:none"
       d="m 1120,180 -1280,0"
       id="path37483"
       inkscape:connector-curvature="0" />
    <g
       id="g37477">
      <rect
         transform="matrix(0,-1,1,0,0,0)"
         y="741.46021"
         x="-259.03983"
         height="78.079643"
         width="158.07964"
         id="rect37429-8"
         style="fill:#ffffff;fill-opacity:1;stroke:#800000;stroke-width:2;stroke-miterlimit:4;stroke-opacity:1;stroke-dasharray:none" />
      <path
         inkscape:connector-curvature="0"
         id="path37437-7"
         d="m 740.49999,180 -80,80 0,-160 z"
         style="fill:#ffffff;fill-opacity:1;stroke:#800000;stroke-width:2;stroke-linecap:butt;stroke-linejoin:miter;stroke-miterlimit:4;stroke-opacity:1;stroke-dasharray:none" />
    </g>
  </g>
  <g
     style="display:none"
     inkscape:label="White"
     id="g32453"
     inkscape:groupmode="layer"
     sodipodi:insensitive="true">
    <g
       id="g32455"
       style="stroke:#ffffff">
      <path
         d="M 0,0 0,1000 M 20,0 20,1000 M 40,0 40,1000 M 60,0 60,1000 M 80,0 80,1000 M 100,0 100,1000 M 120,0 120,1000 M 140,0 140,1000 M 160,0 160,1000 M 180,0 180,1000 M 200,0 200,1000 M 220,0 220,1000 M 240,0 240,1000 M 260,0 260,1000 M 280,0 280,1000 M 300,0 300,1000 M 320,0 320,1000 M 340,0 340,1000 M 360,0 360,1000 M 380,0 380,1000 M 400,0 400,1000 M 420,0 420,1000 M 440,0 440,1000 M 460,0 460,1000 M 480,0 480,1000 M 500,0 500,1000 M 520,0 520,1000 M 540,0 540,1000 M 560,0 560,1000 M 580,0 580,1000 M 600,0 600,1000 M 620,0 620,1000 M 640,0 640,1000 M 660,0 660,1000 M 680,0 680,1000 M 700,0 700,1000 M 720,0 720,1000 M 740,0 740,1000 M 760,0 760,1000 M 780,0 780,1000 M 800,0 800,1000 M 820,0 820,1000 M 840,0 840,1000 M 860,0 860,1000 M 880,0 880,1000 M 900,0 900,1000 M 920,0 920,1000 M 940,0 940,1000 M 960,0 960,1000 M 980,0 l 0,1000 m 20,-1000 0,1000 M 0,0 1000,0 M 0,20 1000,20 M 0,40 1000,40 M 0,60 1000,60 M 0,80 1000,80 M 0,100 1000,100 M 0,120 1000,120 M 0,140 1000,140 M 0,160 1000,160 M 0,180 1000,180 M 0,200 1000,200 M 0,220 1000,220 M 0,240 1000,240 M 0,260 1000,260 M 0,280 1000,280 M 0,300 1000,300 M 0,320 1000,320 M 0,340 1000,340 M 0,360 1000,360 M 0,380 1000,380 M 0,400 1000,400 M 0,420 1000,420 M 0,440 1000,440 M 0,460 1000,460 M 0,480 1000,480 M 0,500 1000,500 M 0,520 1000,520 M 0,540 1000,540 M 0,560 1000,560 M 0,580 1000,580 M 0,600 1000,600 M 0,620 1000,620 M 0,640 1000,640 M 0,660 1000,660 M 0,680 1000,680 M 0,700 1000,700 M 0,720 1000,720 M 0,740 1000,740 M 0,760 1000,760 M 0,780 1000,780 M 0,800 1000,800 M 0,820 1000,820 M 0,840 1000,840 M 0,860 1000,860 M 0,880 1000,880 M 0,900 1000,900 M 0,920 1000,920 M 0,940 1000,940 M 0,960 1000,960 M 0,980 l 1000,0 m -1000,20 1000,0"
         style="fill:none;stroke:#ffffff;stroke-width:0.5pt;stroke-linecap:butt;stroke-linejoin:miter;stroke-opacity:1"
         id="path32457"
         inkscape:connector-curvature="0" />
      <path
         d="M 0,0 0,1000 M 100,0 100,1000 M 200,0 200,1000 M 300,0 300,1000 M 400,0 400,1000 M 500,0 500,1000 M 600,0 600,1000 M 700,0 700,1000 M 800,0 800,1000 M 900,0 900,1000 M 1000,0 l 0,1000 M 0,0 1000,0 M 0,100 1000,100 M 0,200 1000,200 M 0,300 1000,300 M 0,400 1000,400 M 0,500 1000,500 M 0,600 1000,600 M 0,700 1000,700 M 0,800 1000,800 M 0,900 1000,900 M 0,1000 l 1000,0"
         style="fill:none;stroke:#ffffff;stroke-width:2pt;stroke-linecap:butt;stroke-linejoin:miter;stroke-opacity:1"
         id="path32459"
         inkscape:connector-curvature="0" />
      <path
         d="M 0,0 0,1000 M 500,0 500,1000 M 1000,0 l 0,1000 M 0,0 1000,0 M 0,500 1000,500 M 0,1000 l 1000,0"
         style="fill:none;stroke:#ffffff;stroke-width:5pt;stroke-linecap:butt;stroke-linejoin:miter;stroke-opacity:1"
         id="path32461"
         inkscape:connector-curvature="0" />
    </g>
  </g>
  <g
     inkscape:groupmode="layer"
     id="layer2"
     inkscape:label="Equations">
    <g
       transform="translate(7.9728492,40.946846)"
       id="g36726"
       style="fill:#008000;stroke:#008000">
      <g
         style="font-style:normal;font-variant:normal;font-weight:normal;font-stretch:normal;letter-spacing:normal;word-spacing:normal;text-anchor:start;fill:#008000;stroke:#008000;stroke-linecap:butt;stroke-linejoin:miter;stroke-miterlimit:10.43299961;stroke-opacity:1;stroke-dasharray:none;stroke-dashoffset:0"
         word-spacing="normal"
         letter-spacing="normal"
         font-size-adjust="none"
         font-stretch="normal"
         font-weight="normal"
         font-variant="normal"
         font-style="normal"
         stroke-miterlimit="10.433"
         xml:space="preserve"
         transform="matrix(1.0629921,0,0,-1.0629921,-186.02362,789.27165)"
         id="g36728"><path
           style="fill:#008000;stroke:#008000;stroke-width:0"
           inkscape:connector-curvature="0"
           id="path36730"
           d="m 481.01,387.21 -1.3,1.25 c -1.48,-1.71 -3.23,-1.71 -3.78,-1.71 -1,0 -1.84,0.16 -3.98,0.86 -2.3,0.74 -3.24,0.85 -3.94,0.85 -0.89,0 -2.25,-0.21 -3.59,-1.55 -0.55,-0.55 -1.89,-2.05 -2.44,-2.59 l 1.3,-1.24 c 1.5,1.69 3.23,1.69 3.78,1.69 1,0 1.84,-0.16 3.98,-0.84 2.3,-0.75 3.25,-0.85 3.94,-0.85 0.91,0 2.25,0.19 3.59,1.53 0.55,0.55 1.89,2.05 2.44,2.6 z" /><path
           style="fill:#008000;stroke:#008000;stroke-width:0"
           inkscape:connector-curvature="0"
           id="path36732"
           d="m 477.47,357.47 v -3.89 l 8.81,0.3 v 2.34 c -3.09,0 -3.44,0 -3.44,1.94 v 18.14 l -9.12,-0.41 v -2.34 c 3.09,0 3.44,0 3.44,-1.94 v -9.51 c 0,-4.08 -2.54,-6.72 -6.18,-6.72 -3.82,0 -3.98,1.23 -3.98,3.94 v 16.98 l -9.12,-0.41 v -2.34 c 3.09,0 3.43,0 3.43,-1.94 V 360 c 0,-5.32 4.05,-6.42 8.97,-6.42 1.3,0 4.89,0 7.19,3.89 z" /><path
           style="fill:#008000;stroke:#008000;stroke-width:0"
           inkscape:connector-curvature="0"
           id="path36734"
           d="m 535.47,370.18 0.14,0 0.15,0 0.14,0 0.07,0.01 0.08,0 0.07,0.01 0.07,0.01 0.07,0.01 0.07,0.01 0.07,0.01 0.06,0.02 0.07,0.02 0.06,0.02 0.06,0.02 0.06,0.03 0.06,0.03 0.05,0.04 0.05,0.03 0.05,0.05 0.04,0.04 0.04,0.05 0.02,0.03 0.02,0.03 0.01,0.02 0.02,0.03 0.01,0.03 0.01,0.04 0.02,0.03 0.01,0.04 0.01,0.03 0.01,0.04 0,0.04 0.01,0.04 0,0.04 0.01,0.04 0,0.04 0,0.05 c 0,1 -0.95,1 -1.64,1 h -29.84 c -0.71,0 -1.64,0 -1.64,-1 0,-0.98 0.93,-0.98 1.68,-0.98 z" /><path
           style="fill:#008000;stroke:#008000;stroke-width:0"
           inkscape:connector-curvature="0"
           id="path36736"
           d="m 535.52,360.5 0.07,0 0.06,0 0.14,0.01 0.14,0 0.07,0 0.07,0.01 0.07,0.01 0.06,0 0.07,0.01 0.07,0.02 0.07,0.01 0.06,0.02 0.07,0.02 0.06,0.02 0.06,0.02 0.05,0.03 0.06,0.03 0.05,0.04 0.05,0.04 0.05,0.04 0.04,0.05 0.02,0.02 0.02,0.03 0.02,0.02 0.02,0.03 0.01,0.03 0.02,0.03 0.01,0.03 0.01,0.03 0.02,0.04 0.01,0.03 0.01,0.04 0.01,0.04 0,0.04 0.01,0.04 0,0.04 0.01,0.04 0,0.05 0,0.04 c 0,1 -0.95,1 -1.69,1 h -29.75 c -0.75,0 -1.68,0 -1.68,-1 0,-1 0.93,-1 1.64,-1 z" /><polygon
           style="fill:#008000;stroke:#008000;stroke-width:0"
           id="polygon36738"
           points="573.47,366.27 573.47,452.46 586.63,452.46 586.63,455.9 570.03,455.9 570.03,366.27 " /><polygon
           style="fill:#008000;stroke:#008000;stroke-width:0"
           id="polygon36740"
           points="586.63,276.68 586.63,280.12 573.47,280.12 573.47,366.32 570.03,366.32 570.03,276.68 " /><path
           style="fill:#008000;stroke:#008000;stroke-width:0"
           inkscape:connector-curvature="0"
           id="path36742"
           d="m 626.18,448.15 0,0 0,0.01 0,0.01 0,0.01 -0.01,0.01 0,0.01 0,0.02 0,0.02 0,0.02 -0.01,0.02 0,0.02 -0.01,0.02 -0.01,0.03 -0.01,0.02 -0.01,0.02 -0.01,0.03 -0.01,0.02 -0.02,0.03 -0.02,0.02 -0.02,0.03 -0.02,0.02 -0.01,0.01 -0.02,0.01 -0.01,0.01 -0.01,0.01 -0.02,0.01 -0.01,0.01 -0.02,0.01 -0.01,0.01 -0.02,0.01 -0.02,0.01 -0.02,0.01 -0.02,0 -0.02,0.01 -0.02,0.01 -0.02,0 -0.02,0.01 -0.03,0 -0.02,0.01 -0.03,0 -0.02,0 -0.03,0.01 -0.03,0 -0.03,0 -0.03,0 c -1.15,0 -4.78,-0.41 -6.07,-0.5 -0.41,-0.05 -0.96,-0.09 -0.96,-1 0,-0.59 0.46,-0.59 1.21,-0.59 2.39,0 2.48,-0.35 2.48,-0.85 l -0.16,-1 -7.21,-28.7 c -0.21,-0.69 -0.21,-0.8 -0.21,-1.1 0,-1.14 1,-1.39 1.46,-1.39 0.64,0 1.39,0.46 1.68,1.05 0.25,0.45 2.5,9.66 2.8,10.91 1.69,-0.14 5.78,-0.94 5.78,-4.24 0,-0.34 0,-0.54 -0.15,-1.04 -0.1,-0.6 -0.21,-1.19 -0.21,-1.74 0,-2.95 2,-4.94 4.6,-4.94 1.48,0 2.83,0.8 3.93,2.64 1.24,2.19 1.78,4.94 1.78,5.04 0,0.5 -0.43,0.5 -0.59,0.5 -0.5,0 -0.54,-0.21 -0.7,-0.91 -0.99,-3.63 -2.14,-6.17 -4.33,-6.17 -0.94,0 -1.59,0.54 -1.59,2.34 0,0.85 0.2,1.99 0.4,2.78 0.19,0.86 0.19,1.05 0.19,1.55 0,3.25 -3.14,4.69 -7.38,5.23 1.55,0.91 3.15,2.5 4.3,3.69 2.39,2.64 4.67,4.78 7.13,4.78 0.29,0 0.34,0 0.44,-0.04 0.6,-0.1 0.65,-0.1 1.04,-0.39 0.11,-0.07 0.11,-0.11 0.21,-0.21 -2.4,-0.15 -2.85,-2.09 -2.85,-2.69 0,-0.79 0.55,-1.75 1.89,-1.75 1.3,0 2.75,1.1 2.75,3.04 0,1.5 -1.16,3.14 -3.39,3.14 -1.39,0 -3.69,-0.39 -7.28,-4.38 -1.69,-1.89 -3.62,-3.89 -5.52,-4.64 z" /><path
           style="fill:#008000;stroke:#008000;stroke-width:0"
           inkscape:connector-curvature="0"
           id="path36744"
           d="m 652.53,412.32 -0.01,-0.07 -0.02,-0.07 -0.02,-0.07 -0.02,-0.07 -0.01,-0.08 -0.02,-0.08 -0.02,-0.08 -0.02,-0.09 -0.05,-0.16 -0.04,-0.17 -0.04,-0.17 -0.02,-0.08 -0.02,-0.08 -0.02,-0.08 -0.02,-0.07 -0.02,-0.08 -0.02,-0.07 -0.01,-0.06 -0.02,-0.07 -0.02,-0.06 -0.01,-0.05 -0.02,-0.05 -0.01,-0.05 -0.02,-0.03 -0.01,-0.04 0,-0.01 -0.01,-0.02 0,-0.01 -0.01,-0.01 0,0 -0.01,-0.01 0,0 0,-0.01 c -0.67,-1.07 -2.06,-2.97 -4.22,-2.97 -2.41,0 -2.41,2.27 -2.41,2.9 0,2.06 0.97,4.53 1.96,7.07 0.28,0.71 0.48,1.22 0.48,1.78 0,1.82 -1.53,2.99 -3.31,2.99 -3.49,0 -5.05,-4.77 -5.05,-5.33 0,-0.45 0.49,-0.45 0.59,-0.45 0.49,0 0.52,0.17 0.63,0.56 0.83,2.86 2.37,4.25 3.72,4.25 0.59,0 0.87,-0.39 0.87,-1.22 0,-0.8 -0.28,-1.53 -0.62,-2.33 -1.88,-4.81 -1.88,-5.82 -1.88,-6.76 0,-0.6 0,-2.21 1.28,-3.31 1.02,-0.83 2.38,-1.11 3.6,-1.11 2.19,0 3.37,1.18 4.53,2.29 0.77,-2.23 3.09,-2.29 3.52,-2.29 1.18,0 2.09,0.68 2.75,1.84 0.76,1.36 1.25,3.37 1.25,3.48 0,0.46 -0.49,0.46 -0.58,0.46 -0.5,0 -0.53,-0.14 -0.78,-1.08 -0.41,-1.64 -1.08,-3.74 -2.54,-3.74 -0.9,0 -1.15,0.8 -1.15,1.71 0,0.59 0.28,1.86 0.53,2.76 0.24,0.94 0.58,2.36 0.77,3.13 l 0.79,3.11 c 0.21,0.87 0.6,2.4 0.6,2.58 0,0.68 -0.57,1.11 -1.16,1.11 -1.28,0 -1.53,-1.02 -1.81,-2.13 z" /><path
           style="fill:#008000;stroke:#008000;stroke-width:0"
           inkscape:connector-curvature="0"
           id="path36746"
           d="m 748.92,430.06 0,0.75 -0.01,0.74 -0.02,0.75 -0.03,0.74 -0.05,0.75 -0.06,0.74 -0.08,0.74 -0.09,0.73 -0.12,0.74 -0.14,0.72 -0.16,0.73 -0.19,0.71 -0.21,0.72 -0.25,0.7 -0.28,0.7 -0.15,0.35 -0.16,0.34 c -2.28,4.8 -6.37,5.6 -8.47,5.6 -2.98,0 -6.62,-1.3 -8.67,-5.94 -1.59,-3.44 -1.84,-7.33 -1.84,-11.31 0,-3.74 0.2,-8.22 2.25,-12 2.14,-4.03 5.78,-5.03 8.22,-5.03 v 1.09 c -1.94,0 -4.89,1.25 -5.79,6.03 -0.54,2.99 -0.54,7.56 -0.54,10.52 0,3.19 0,6.47 0.4,9.15 0.94,5.94 4.68,6.38 5.93,6.38 1.64,0 4.93,-0.89 5.87,-5.83 0.5,-2.78 0.5,-6.58 0.5,-9.7 0,-3.75 0,-7.13 -0.55,-10.31 -0.75,-4.74 -3.59,-6.24 -5.82,-6.24 h 0 v -1.09 c 2.68,0 6.47,1.04 8.67,5.78 1.59,3.44 1.84,7.31 1.84,11.25 z" /><path
           style="fill:#008000;stroke:#008000;stroke-width:0"
           inkscape:connector-curvature="0"
           id="path36748"
           d="m 830.55,416.92 0.06,-0.19 0.06,-0.19 0.07,-0.18 0.07,-0.17 0.09,-0.17 0.08,-0.17 0.1,-0.16 0.1,-0.16 0.1,-0.15 0.12,-0.14 0.11,-0.14 0.13,-0.14 0.12,-0.13 0.14,-0.12 0.13,-0.12 0.15,-0.11 0.14,-0.11 0.16,-0.1 0.15,-0.09 0.16,-0.09 0.17,-0.08 0.16,-0.07 0.18,-0.07 0.17,-0.06 0.18,-0.06 0.18,-0.04 0.19,-0.04 0.19,-0.04 0.19,-0.02 0.2,-0.02 0.19,-0.01 0.2,-0.01 c 1.74,0 2.89,1.14 3.69,2.74 0.84,1.8 1.48,4.84 1.48,4.94 0,0.5 -0.43,0.5 -0.59,0.5 -0.5,0 -0.55,-0.21 -0.7,-0.91 -0.69,-2.78 -1.64,-6.17 -3.74,-6.17 -1.04,0 -1.53,0.65 -1.53,2.29 0,1.1 0.6,3.44 0.99,5.18 l 1.4,5.39 c 0.14,0.75 0.64,2.64 0.85,3.39 0.25,1.14 0.75,3.03 0.75,3.33 0,0.9 -0.71,1.34 -1.46,1.34 -0.25,0 -1.54,-0.05 -1.93,-1.73 -0.96,-3.65 -3.15,-12.36 -3.74,-15 -0.06,-0.21 -2.05,-4.19 -5.69,-4.19 -2.59,0 -3.09,2.25 -3.09,4.09 0,2.78 1.41,6.72 2.7,10.16 0.6,1.5 0.85,2.19 0.85,3.14 0,2.23 -1.6,4.08 -4.1,4.08 -4.73,0 -6.58,-7.22 -6.58,-7.68 0,-0.5 0.5,-0.5 0.61,-0.5 0.5,0 0.55,0.11 0.8,0.91 1.24,4.33 3.14,6.17 5.03,6.17 0.44,0 1.25,-0.04 1.25,-1.64 0,-1.2 -0.56,-2.64 -0.86,-3.39 -1.84,-4.94 -2.89,-8.01 -2.89,-10.45 0,-4.74 3.44,-5.99 6.14,-5.99 3.28,0 5.08,2.24 5.92,3.35 z" /><path
           style="fill:#008000;stroke:#008000;stroke-width:0"
           inkscape:connector-curvature="0"
           id="path36750"
           d="m 859.66,417.79 0,0.71 -0.02,0.68 -0.03,0.66 -0.04,0.64 -0.06,0.62 -0.07,0.59 -0.09,0.58 -0.11,0.56 -0.13,0.55 -0.15,0.53 -0.17,0.51 -0.19,0.5 -0.21,0.49 -0.24,0.48 -0.26,0.47 -0.14,0.23 -0.15,0.23 c -1.08,1.61 -3.23,3 -6.03,3 v -0.98 c 1.89,0 3.7,-1.14 4.33,-3.18 0.56,-1.87 0.59,-4.39 0.59,-7.42 0,-2.58 0,-5.15 -0.45,-7.34 -0.7,-3.17 -3.06,-3.94 -4.47,-3.94 h 0 c -1.59,0 -3.72,0.94 -4.42,3.8 -0.49,2.04 -0.49,4.9 -0.49,7.48 0,2.55 0,5.21 0.52,7.11 0.73,2.75 2.97,3.49 4.39,3.49 v 0.98 c -8.08,0 -8.08,-9.52 -8.08,-12.03 0,-2.5 0,-11.81 8.08,-11.81 8.09,0 8.09,9.31 8.09,11.81 z" /><path
           style="fill:#008000;stroke:#008000;stroke-width:0"
           inkscape:connector-curvature="0"
           id="path36752"
           d="m 648.36,370.3 0,0.74 -0.01,0.75 -0.02,0.75 -0.03,0.74 -0.05,0.75 -0.06,0.74 -0.08,0.74 -0.09,0.73 -0.12,0.73 -0.14,0.73 -0.16,0.72 -0.19,0.72 -0.21,0.72 -0.25,0.7 -0.28,0.7 -0.15,0.35 -0.16,0.34 c -2.28,4.8 -6.37,5.6 -8.46,5.6 -2.99,0 -6.63,-1.3 -8.68,-5.94 -1.59,-3.44 -1.84,-7.33 -1.84,-11.31 0,-3.74 0.2,-8.22 2.25,-12 2.14,-4.03 5.78,-5.03 8.22,-5.03 v 1.09 c -1.94,0 -4.89,1.25 -5.78,6.03 -0.55,2.99 -0.55,7.56 -0.55,10.52 0,3.18 0,6.47 0.41,9.15 0.93,5.94 4.67,6.38 5.92,6.38 1.64,0 4.93,-0.89 5.87,-5.83 0.5,-2.78 0.5,-6.58 0.5,-9.7 0,-3.75 0,-7.13 -0.54,-10.32 -0.75,-4.73 -3.6,-6.23 -5.83,-6.23 h 0 v -1.09 c 2.68,0 6.47,1.04 8.67,5.78 1.59,3.43 1.84,7.31 1.84,11.25 z" /><path
           style="fill:#008000;stroke:#008000;stroke-width:0"
           inkscape:connector-curvature="0"
           id="path36754"
           d="m 728.05,388.39 0,0 0,0.01 0,0 0,0.02 0,0.01 0,0.01 0,0.02 0,0.02 -0.01,0.02 0,0.02 0,0.02 -0.01,0.02 -0.01,0.02 -0.01,0.03 -0.01,0.02 -0.01,0.03 -0.02,0.02 -0.01,0.03 -0.02,0.02 -0.02,0.02 -0.02,0.03 -0.01,0.01 -0.02,0.01 -0.01,0.01 -0.01,0.01 -0.02,0.01 -0.01,0.01 -0.02,0.01 -0.02,0.01 -0.01,0.01 -0.02,0.01 -0.02,0 -0.02,0.01 -0.02,0.01 -0.02,0.01 -0.02,0 -0.02,0.01 -0.03,0 -0.02,0.01 -0.03,0 -0.02,0 -0.03,0 -0.03,0.01 -0.03,0 -0.03,0 c -1.15,0 -4.78,-0.41 -6.07,-0.5 -0.41,-0.05 -0.96,-0.1 -0.96,-1 0,-0.6 0.46,-0.6 1.21,-0.6 2.39,0 2.48,-0.34 2.48,-0.84 l -0.16,-1 -7.21,-28.7 c -0.21,-0.69 -0.21,-0.8 -0.21,-1.1 0,-1.14 1,-1.39 1.46,-1.39 0.64,0 1.39,0.46 1.68,1.05 0.25,0.45 2.5,9.66 2.8,10.91 1.69,-0.15 5.78,-0.94 5.78,-4.24 0,-0.34 0,-0.55 -0.16,-1.05 -0.09,-0.59 -0.2,-1.18 -0.2,-1.73 0,-2.95 2,-4.94 4.6,-4.94 1.48,0 2.82,0.8 3.93,2.64 1.24,2.19 1.78,4.94 1.78,5.03 0,0.5 -0.43,0.5 -0.59,0.5 -0.5,0 -0.55,-0.2 -0.7,-0.9 -0.99,-3.63 -2.14,-6.17 -4.33,-6.17 -0.94,0 -1.59,0.54 -1.59,2.34 0,0.84 0.2,1.98 0.4,2.78 0.19,0.86 0.19,1.05 0.19,1.55 0,3.25 -3.14,4.69 -7.38,5.23 1.55,0.91 3.14,2.5 4.3,3.69 2.39,2.64 4.67,4.78 7.13,4.78 0.29,0 0.34,0 0.43,-0.05 0.61,-0.09 0.66,-0.09 1.05,-0.39 0.11,-0.06 0.11,-0.11 0.2,-0.2 -2.39,-0.16 -2.84,-2.09 -2.84,-2.69 0,-0.79 0.55,-1.75 1.89,-1.75 1.3,0 2.75,1.1 2.75,3.03 0,1.5 -1.16,3.15 -3.39,3.15 -1.39,0 -3.69,-0.4 -7.28,-4.38 -1.69,-1.89 -3.63,-3.89 -5.52,-4.64 z" /><path
           style="fill:#008000;stroke:#008000;stroke-width:0"
           inkscape:connector-curvature="0"
           id="path36756"
           d="m 758.29,359.58 0,0.12 -0.01,0.12 0,0.12 -0.01,0.11 -0.01,0.11 -0.01,0.11 -0.02,0.1 -0.01,0.1 -0.02,0.1 -0.02,0.09 -0.02,0.09 -0.02,0.09 -0.03,0.08 -0.02,0.08 -0.03,0.07 -0.03,0.08 -0.03,0.07 -0.03,0.07 -0.03,0.06 -0.03,0.06 -0.04,0.06 -0.03,0.06 -0.04,0.05 -0.04,0.06 -0.03,0.05 -0.04,0.04 -0.08,0.09 -0.08,0.08 -0.08,0.07 -0.07,0.06 -0.08,0.05 -0.08,0.05 -0.08,0.04 -0.07,0.04 -0.08,0.02 -0.07,0.03 -0.06,0.02 -0.06,0.01 -0.06,0.02 -0.05,0 -0.04,0.01 -0.04,0 -0.03,0.01 -0.03,0 -0.01,0 c -0.91,0 -1.88,-0.95 -1.88,-1.86 0,-0.58 0.35,-0.86 0.6,-1.08 0.59,-0.48 1.28,-1.39 1.28,-2.78 0,-1.56 -2.3,-9.06 -6.44,-9.06 -2.83,0 -2.83,2.51 -2.83,3.11 0,1.59 0.63,3.54 1.93,6.78 0.28,0.73 0.48,1.26 0.48,1.86 0,1.81 -1.53,2.98 -3.31,2.98 -3.49,0 -5.05,-4.76 -5.05,-5.33 0,-0.45 0.48,-0.45 0.59,-0.45 0.49,0 0.52,0.17 0.63,0.56 0.83,2.86 2.33,4.25 3.72,4.25 0.59,0 0.87,-0.39 0.87,-1.22 0,-0.79 -0.28,-1.53 -0.62,-2.32 -1.5,-3.88 -1.88,-5.38 -1.88,-6.63 0,-3.45 2.72,-4.56 5.36,-4.56 5.86,0 8.3,10.14 8.3,13 z" /><path
           style="fill:#008000;stroke:#008000;stroke-width:0"
           inkscape:connector-curvature="0"
           id="path36758"
           d="m 838.59,372.89 0,0.13 0,0.12 0,0.12 -0.01,0.11 -0.01,0.12 -0.01,0.11 -0.01,0.11 -0.01,0.1 -0.03,0.21 -0.04,0.19 -0.04,0.18 -0.05,0.18 -0.06,0.16 -0.05,0.16 -0.07,0.15 -0.06,0.13 -0.07,0.13 -0.08,0.12 -0.08,0.12 -0.08,0.1 -0.08,0.1 -0.08,0.09 -0.09,0.08 -0.09,0.07 -0.09,0.07 -0.09,0.06 -0.09,0.05 -0.1,0.05 -0.09,0.04 -0.09,0.03 -0.09,0.03 -0.09,0.03 -0.09,0.01 -0.09,0.02 -0.09,0 -0.08,0.01 c -1.25,0 -2.44,-1.3 -2.44,-2.4 0,-0.64 0.25,-0.93 0.8,-1.48 1.04,-1 1.68,-2.3 1.68,-4.09 0,-2.1 -3.03,-13.5 -8.86,-13.5 -2.54,0 -3.68,1.75 -3.68,4.32 0,2.8 1.34,6.44 2.89,10.57 0.34,0.86 0.59,1.54 0.59,2.5 0,2.23 -1.59,4.08 -4.09,4.08 -4.68,0 -6.58,-7.22 -6.58,-7.68 0,-0.5 0.5,-0.5 0.61,-0.5 0.5,0 0.55,0.11 0.79,0.91 1.44,5.03 3.58,6.17 5.04,6.17 0.39,0 1.25,0 1.25,-1.59 0,-1.25 -0.5,-2.6 -0.86,-3.49 -2.19,-5.78 -2.83,-8.08 -2.83,-10.22 0,-5.37 4.37,-6.17 6.67,-6.17 8.38,0 11.2,16.49 11.2,19.08 z" /><path
           style="fill:#008000;stroke:#008000;stroke-width:0"
           inkscape:connector-curvature="0"
           id="path36760"
           d="m 857.38,358.03 0,0.71 -0.02,0.68 -0.03,0.66 -0.04,0.64 -0.06,0.62 -0.08,0.6 -0.09,0.57 -0.1,0.56 -0.13,0.55 -0.15,0.53 -0.17,0.51 -0.19,0.5 -0.21,0.49 -0.24,0.48 -0.26,0.47 -0.14,0.23 -0.15,0.23 c -1.08,1.61 -3.23,3 -6.03,3 -8.08,0 -8.08,-9.51 -8.08,-12.03 0,-2.5 0,-11.81 8.08,-11.81 v 0.98 c -1.59,0 -3.72,0.94 -4.42,3.8 -0.49,2.05 -0.49,4.91 -0.49,7.48 0,2.55 0,5.21 0.52,7.11 0.73,2.75 2.97,3.49 4.39,3.49 1.89,0 3.7,-1.14 4.33,-3.17 0.56,-1.88 0.59,-4.39 0.59,-7.43 0,-2.57 0,-5.15 -0.45,-7.34 -0.71,-3.17 -3.06,-3.94 -4.47,-3.94 h 0 v -0.98 c 8.09,0 8.09,9.31 8.09,11.81 z" /><path
           style="fill:#008000;stroke:#008000;stroke-width:0"
           inkscape:connector-curvature="0"
           id="path36762"
           d="m 648.36,310.54 0,0.75 -0.01,0.74 -0.02,0.75 -0.03,0.74 -0.05,0.75 -0.06,0.74 -0.08,0.74 -0.09,0.73 -0.12,0.74 -0.14,0.72 -0.16,0.73 -0.19,0.71 -0.21,0.72 -0.25,0.7 -0.28,0.7 -0.15,0.35 -0.16,0.35 c -2.28,4.79 -6.37,5.59 -8.46,5.59 -2.99,0 -6.63,-1.3 -8.68,-5.94 -1.59,-3.44 -1.84,-7.33 -1.84,-11.31 0,-3.74 0.2,-8.22 2.25,-12 2.14,-4.03 5.78,-5.03 8.22,-5.03 v 1.09 c -1.94,0 -4.89,1.25 -5.78,6.03 -0.55,2.99 -0.55,7.57 -0.55,10.52 0,3.19 0,6.47 0.41,9.15 0.93,5.94 4.67,6.38 5.92,6.38 1.64,0 4.93,-0.89 5.87,-5.83 0.5,-2.78 0.5,-6.58 0.5,-9.7 0,-3.75 0,-7.13 -0.54,-10.31 -0.75,-4.74 -3.6,-6.24 -5.83,-6.24 h 0 v -1.09 c 2.68,0 6.47,1.04 8.67,5.78 1.59,3.44 1.84,7.31 1.84,11.25 z" /><path
           style="fill:#008000;stroke:#008000;stroke-width:0"
           inkscape:connector-curvature="0"
           id="path36764"
           d="m 748.92,310.54 -0.01,0.75 -0.01,0.74 -0.02,0.75 -0.03,0.74 -0.04,0.75 -0.06,0.74 -0.08,0.74 -0.1,0.73 -0.11,0.74 -0.14,0.72 -0.16,0.73 -0.19,0.71 -0.22,0.72 -0.24,0.7 -0.28,0.7 -0.15,0.35 -0.16,0.35 c -2.28,4.79 -6.38,5.59 -8.47,5.59 -2.98,0 -6.63,-1.3 -8.67,-5.94 -1.6,-3.44 -1.85,-7.33 -1.85,-11.31 0,-3.74 0.21,-8.22 2.25,-12 2.14,-4.03 5.79,-5.03 8.22,-5.03 v 1.09 c -1.93,0 -4.89,1.25 -5.78,6.03 -0.55,2.99 -0.55,7.57 -0.55,10.52 0,3.19 0,6.47 0.41,9.15 0.94,5.94 4.67,6.38 5.92,6.38 1.64,0 4.94,-0.89 5.88,-5.83 0.5,-2.78 0.5,-6.58 0.5,-9.7 0,-3.75 0,-7.13 -0.55,-10.31 -0.75,-4.74 -3.59,-6.24 -5.83,-6.24 h 0 v -1.09 c 2.69,0 6.47,1.04 8.67,5.78 1.6,3.44 1.85,7.31 1.85,11.25 z" /><path
           style="fill:#008000;stroke:#008000;stroke-width:0"
           inkscape:connector-curvature="0"
           id="path36766"
           d="m 840.72,326.49 0,0.06 -0.01,0.05 0,0.05 0,0.05 0,0.05 0,0.05 0,0.04 0,0.05 0,0.04 0,0.04 0,0.04 0,0.04 0,0.04 -0.01,0.04 0,0.03 0,0.04 -0.01,0.06 -0.01,0.06 -0.01,0.05 -0.02,0.05 -0.01,0.05 -0.02,0.04 -0.02,0.04 -0.03,0.04 -0.03,0.03 -0.03,0.03 -0.03,0.02 -0.04,0.02 -0.05,0.02 -0.02,0.01 -0.03,0.01 -0.02,0 -0.03,0.01 -0.03,0.01 -0.03,0 -0.03,0.01 -0.03,0 -0.03,0.01 -0.04,0 -0.03,0 -0.04,0.01 -0.04,0 -0.04,0 -0.04,0 -0.04,0.01 -0.05,0 -0.05,0 -0.04,0 -0.05,0 -0.05,0 -0.06,0 c -3.09,-3.19 -7.47,-3.19 -9.06,-3.19 v -1.55 c 1,0 3.94,0 6.52,1.3 v -25.81 c 0,-1.8 -0.14,-2.39 -4.63,-2.39 h -1.59 v -1.55 c 1.75,0.16 6.08,0.16 8.06,0.16 2,0 6.33,0 8.08,-0.16 v 1.55 h -1.6 c -4.48,0 -4.63,0.55 -4.63,2.39 z" /><polygon
           style="fill:#008000;stroke:#008000;stroke-width:0"
           id="polygon36768"
           points="905.78,366.27 905.78,455.9 889.18,455.9 889.18,452.46 902.34,452.46 902.34,366.27 " /><polygon
           style="fill:#008000;stroke:#008000;stroke-width:0"
           id="polygon36770"
           points="889.18,280.12 889.18,276.68 905.78,276.68 905.78,366.32 902.34,366.32 902.34,280.12 " /><path
           style="fill:#008000;stroke:#008000;stroke-width:0"
           inkscape:connector-curvature="0"
           id="path36772"
           d="m 955.01,387.21 -1.29,1.25 c -1.49,-1.71 -3.24,-1.71 -3.79,-1.71 -1,0 -1.84,0.16 -3.98,0.86 -2.3,0.74 -3.23,0.85 -3.94,0.85 -0.89,0 -2.25,-0.21 -3.59,-1.55 -0.55,-0.55 -1.89,-2.05 -2.44,-2.59 l 1.3,-1.24 c 1.5,1.69 3.23,1.69 3.78,1.69 1,0 1.84,-0.16 3.98,-0.84 2.3,-0.75 3.25,-0.85 3.94,-0.85 0.91,0 2.25,0.19 3.59,1.53 0.55,0.55 1.9,2.05 2.44,2.6 z" /><path
           style="fill:#008000;stroke:#008000;stroke-width:0"
           inkscape:connector-curvature="0"
           id="path36774"
           d="m 947.72,366.13 5.82,6.48 c 0.66,0.71 0.96,1.05 5.1,1.05 V 376 c -1.75,-0.11 -4.35,-0.15 -4.6,-0.15 -1.25,0 -3.73,0.11 -5.12,0.15 v -2.34 c 0.68,0 1.3,-0.11 1.89,-0.45 -0.21,-0.3 -0.21,-0.39 -0.41,-0.6 l -4.17,-4.68 -4.89,5.73 h 2 V 376 c -1.3,-0.04 -4.44,-0.15 -6.03,-0.15 -1.59,0 -3.84,0.11 -5.49,0.15 v -2.34 h 3.53 l 7.79,-9.17 -6.54,-7.33 c -0.84,-0.94 -2.63,-0.94 -5.03,-0.94 v -2.34 c 1.75,0.09 4.35,0.16 4.58,0.16 1.25,0 4.14,-0.11 5.14,-0.16 v 2.34 c -0.89,0 -1.84,0.25 -1.84,0.55 0,0.05 0,0.09 0.34,0.5 l 4.85,5.42 5.46,-6.47 h -1.93 v -2.34 c 1.3,0.05 4.33,0.16 5.98,0.16 1.6,0 3.83,-0.11 5.47,-0.16 v 2.34 h -3.53 z" /></g>    </g>
  </g>
</svg>
