<?xml version="1.0" encoding="UTF-8" standalone="no"?>
<!-- Created with Inkscape (http://www.inkscape.org/) -->

<svg
   xmlns:dc="http://purl.org/dc/elements/1.1/"
   xmlns:cc="http://creativecommons.org/ns#"
   xmlns:rdf="http://www.w3.org/1999/02/22-rdf-syntax-ns#"
   xmlns:svg="http://www.w3.org/2000/svg"
   xmlns="http://www.w3.org/2000/svg"
   xmlns:sodipodi="http://sodipodi.sourceforge.net/DTD/sodipodi-0.dtd"
   xmlns:inkscape="http://www.inkscape.org/namespaces/inkscape"
   width="1000"
   height="1000"
   id="svg2"
   version="1.1"
   inkscape:version="0.48.4 r9939"
   sodipodi:docname="Reference Frame Repeat.svg"
   enable-background="new">
  <defs
     id="defs4" />
  <sodipodi:namedview
     id="base"
     pagecolor="#ffffff"
     bordercolor="#666666"
     borderopacity="1.0"
     inkscape:pageopacity="0.0"
     inkscape:pageshadow="2"
     inkscape:zoom="0.49497475"
     inkscape:cx="244.22594"
     inkscape:cy="650.94323"
     inkscape:document-units="px"
     inkscape:current-layer="layer1"
     showgrid="true"
     inkscape:window-width="1280"
     inkscape:window-height="753"
     inkscape:window-x="0"
     inkscape:window-y="25"
     inkscape:window-maximized="1">
    <inkscape:grid
       type="xygrid"
       id="grid2991"
       empspacing="5"
       visible="true"
       enabled="true"
       snapvisiblegridlinesonly="true" />
  </sodipodi:namedview>
  <metadata
     id="metadata7">
    <rdf:RDF>
      <cc:Work
         rdf:about="">
        <dc:format>image/svg+xml</dc:format>
        <dc:type
           rdf:resource="http://purl.org/dc/dcmitype/StillImage" />
        <dc:title></dc:title>
      </cc:Work>
    </rdf:RDF>
  </metadata>
  <g
     inkscape:groupmode="layer"
     id="layer1"
     inkscape:label="Black"
     style="display:inline">
    <path
       d="M 0,0 0,1000 M 20,0 20,1000 M 40,0 40,1000 M 60,0 60,1000 M 80,0 80,1000 M 100,0 100,1000 M 120,0 120,1000 M 140,0 140,1000 M 160,0 160,1000 M 180,0 180,1000 M 200,0 200,1000 M 220,0 220,1000 M 240,0 240,1000 M 260,0 260,1000 M 280,0 280,1000 M 300,0 300,1000 M 320,0 320,1000 M 340,0 340,1000 M 360,0 360,1000 M 380,0 380,1000 M 400,0 400,1000 M 420,0 420,1000 M 440,0 440,1000 M 460,0 460,1000 M 480,0 480,1000 M 500,0 500,1000 M 520,0 520,1000 M 540,0 540,1000 M 560,0 560,1000 M 580,0 580,1000 M 600,0 600,1000 M 620,0 620,1000 M 640,0 640,1000 M 660,0 660,1000 M 680,0 680,1000 M 700,0 700,1000 M 720,0 720,1000 M 740,0 740,1000 M 760,0 760,1000 M 780,0 780,1000 M 800,0 800,1000 M 820,0 820,1000 M 840,0 840,1000 M 860,0 860,1000 M 880,0 880,1000 M 900,0 900,1000 M 920,0 920,1000 M 940,0 940,1000 M 960,0 960,1000 M 980,0 l 0,1000 m 20,-1000 0,1000 M 0,0 1000,0 M 0,20 1000,20 M 0,40 1000,40 M 0,60 1000,60 M 0,80 1000,80 M 0,100 1000,100 M 0,120 1000,120 M 0,140 1000,140 M 0,160 1000,160 M 0,180 1000,180 M 0,200 1000,200 M 0,220 1000,220 M 0,240 1000,240 M 0,260 1000,260 M 0,280 1000,280 M 0,300 1000,300 M 0,320 1000,320 M 0,340 1000,340 M 0,360 1000,360 M 0,380 1000,380 M 0,400 1000,400 M 0,420 1000,420 M 0,440 1000,440 M 0,460 1000,460 M 0,480 1000,480 M 0,500 1000,500 M 0,520 1000,520 M 0,540 1000,540 M 0,560 1000,560 M 0,580 1000,580 M 0,600 1000,600 M 0,620 1000,620 M 0,640 1000,640 M 0,660 1000,660 M 0,680 1000,680 M 0,700 1000,700 M 0,720 1000,720 M 0,740 1000,740 M 0,760 1000,760 M 0,780 1000,780 M 0,800 1000,800 M 0,820 1000,820 M 0,840 1000,840 M 0,860 1000,860 M 0,880 1000,880 M 0,900 1000,900 M 0,920 1000,920 M 0,940 1000,940 M 0,960 1000,960 M 0,980 l 1000,0 m -1000,20 1000,0"
       style="fill:none;stroke:#000000;stroke-width:0.50000000000000000pt;stroke-linecap:butt;stroke-linejoin:miter;stroke-opacity:1"
       id="path3205"
       inkscape:connector-curvature="0" />
    <path
       d="M 0,0 0,1000 M 100,0 100,1000 M 200,0 200,1000 M 300,0 300,1000 M 400,0 400,1000 M 500,0 500,1000 M 600,0 600,1000 M 700,0 700,1000 M 800,0 800,1000 M 900,0 900,1000 M 1000,0 l 0,1000 M 0,0 1000,0 M 0,100 1000,100 M 0,200 1000,200 M 0,300 1000,300 M 0,400 1000,400 M 0,500 1000,500 M 0,600 1000,600 M 0,700 1000,700 M 0,800 1000,800 M 0,900 1000,900 M 0,1000 l 1000,0"
       style="fill:none;stroke:#000000;stroke-width:2pt;stroke-linecap:butt;stroke-linejoin:miter;stroke-opacity:1"
       id="path3207"
       inkscape:connector-curvature="0" />
    <path
       d="M 0,0 0,1000 M 500,0 500,1000 M 1000,0 l 0,1000 M 0,0 1000,0 M 0,500 1000,500 M 0,1000 l 1000,0"
       style="fill:none;stroke:#000000;stroke-width:5pt;stroke-linecap:butt;stroke-linejoin:miter;stroke-opacity:1"
       id="path3209"
       inkscape:connector-curvature="0" />
  </g>
</svg>
