<?xml version="1.0" encoding="UTF-8" standalone="no"?>
<!-- Created with Inkscape (http://www.inkscape.org/) -->

<svg
   xmlns:dc="http://purl.org/dc/elements/1.1/"
   xmlns:cc="http://creativecommons.org/ns#"
   xmlns:rdf="http://www.w3.org/1999/02/22-rdf-syntax-ns#"
   xmlns:svg="http://www.w3.org/2000/svg"
   xmlns="http://www.w3.org/2000/svg"
   xmlns:sodipodi="http://sodipodi.sourceforge.net/DTD/sodipodi-0.dtd"
   xmlns:inkscape="http://www.inkscape.org/namespaces/inkscape"
   width="1000"
   height="1000"
   id="svg2"
   version="1.1"
   inkscape:version="0.48.3.1 r9886"
   sodipodi:docname="Reference Frame.svg"
   enable-background="new">
  <defs
     id="defs4">
    <filter
       inkscape:collect="always"
       id="filter4708">
      <feBlend
         inkscape:collect="always"
         mode="multiply"
         in2="BackgroundImage"
         id="feBlend4710" />
    </filter>
  </defs>
  <sodipodi:namedview
     id="base"
     pagecolor="#ffffff"
     bordercolor="#666666"
     borderopacity="1.0"
     inkscape:pageopacity="0.0"
     inkscape:pageshadow="2"
     inkscape:zoom="1.4"
     inkscape:cx="243.30049"
     inkscape:cy="362.87559"
     inkscape:document-units="px"
     inkscape:current-layer="g10650"
     showgrid="true"
     inkscape:window-width="1280"
     inkscape:window-height="753"
     inkscape:window-x="0"
     inkscape:window-y="25"
     inkscape:window-maximized="1">
    <inkscape:grid
       type="xygrid"
       id="grid2991"
       empspacing="5"
       visible="true"
       enabled="true"
       snapvisiblegridlinesonly="true" />
  </sodipodi:namedview>
  <metadata
     id="metadata7">
    <rdf:RDF>
      <cc:Work
         rdf:about="">
        <dc:format>image/svg+xml</dc:format>
        <dc:type
           rdf:resource="http://purl.org/dc/dcmitype/StillImage" />
        <dc:title />
      </cc:Work>
    </rdf:RDF>
  </metadata>
  <g
     inkscape:groupmode="layer"
     id="g10650"
     inkscape:label="Red Transformed"
     style="display:inline">
    <g
       id="g10674"
       transform="matrix(0.6028936,-0.79782159,0.79782159,0.6028936,-20.179041,357.464)">
      <path
         inkscape:connector-curvature="0"
         id="path10652"
         style="fill:none;stroke:#ff0000;stroke-width:0.5pt;stroke-linecap:butt;stroke-linejoin:miter;stroke-opacity:1"
         d="M 0,0 0,1000 M 20,0 20,1000 M 40,0 40,1000 M 60,0 60,1000 M 80,0 80,1000 M 100,0 100,1000 M 120,0 120,1000 M 140,0 140,1000 M 160,0 160,1000 M 180,0 180,1000 M 200,0 200,1000 M 220,0 220,1000 M 240,0 240,1000 M 260,0 260,1000 M 280,0 280,1000 M 300,0 300,1000 M 320,0 320,1000 M 340,0 340,1000 M 360,0 360,1000 M 380,0 380,1000 M 400,0 400,1000 M 420,0 420,1000 M 440,0 440,1000 M 460,0 460,1000 M 480,0 480,1000 M 500,0 500,1000 M 520,0 520,1000 M 540,0 540,1000 M 560,0 560,1000 M 580,0 580,1000 M 600,0 600,1000 M 620,0 620,1000 M 640,0 640,1000 M 660,0 660,1000 M 680,0 680,1000 M 700,0 700,1000 M 720,0 720,1000 M 740,0 740,1000 M 760,0 760,1000 M 780,0 780,1000 M 800,0 800,1000 M 820,0 820,1000 M 840,0 840,1000 M 860,0 860,1000 M 880,0 880,1000 M 900,0 900,1000 M 920,0 920,1000 M 940,0 940,1000 M 960,0 960,1000 M 980,0 l 0,1000 m 20,-1000 0,1000 M 0,0 1000,0 M 0,20 1000,20 M 0,40 1000,40 M 0,60 1000,60 M 0,80 1000,80 M 0,100 1000,100 M 0,120 1000,120 M 0,140 1000,140 M 0,160 1000,160 M 0,180 1000,180 M 0,200 1000,200 M 0,220 1000,220 M 0,240 1000,240 M 0,260 1000,260 M 0,280 1000,280 M 0,300 1000,300 M 0,320 1000,320 M 0,340 1000,340 M 0,360 1000,360 M 0,380 1000,380 M 0,400 1000,400 M 0,420 1000,420 M 0,440 1000,440 M 0,460 1000,460 M 0,480 1000,480 M 0,500 1000,500 M 0,520 1000,520 M 0,540 1000,540 M 0,560 1000,560 M 0,580 1000,580 M 0,600 1000,600 M 0,620 1000,620 M 0,640 1000,640 M 0,660 1000,660 M 0,680 1000,680 M 0,700 1000,700 M 0,720 1000,720 M 0,740 1000,740 M 0,760 1000,760 M 0,780 1000,780 M 0,800 1000,800 M 0,820 1000,820 M 0,840 1000,840 M 0,860 1000,860 M 0,880 1000,880 M 0,900 1000,900 M 0,920 1000,920 M 0,940 1000,940 M 0,960 1000,960 M 0,980 l 1000,0 m -1000,20 1000,0" />
      <path
         inkscape:connector-curvature="0"
         id="path10654"
         style="fill:none;stroke:#ff0000;stroke-width:2pt;stroke-linecap:butt;stroke-linejoin:miter;stroke-opacity:1"
         d="M 0,0 0,1000 M 100,0 100,1000 M 200,0 200,1000 M 300,0 300,1000 M 400,0 400,1000 M 500,0 500,1000 M 600,0 600,1000 M 700,0 700,1000 M 800,0 800,1000 M 900,0 900,1000 M 1000,0 l 0,1000 M 0,0 1000,0 M 0,100 1000,100 M 0,200 1000,200 M 0,300 1000,300 M 0,400 1000,400 M 0,500 1000,500 M 0,600 1000,600 M 0,700 1000,700 M 0,800 1000,800 M 0,900 1000,900 M 0,1000 l 1000,0" />
      <path
         inkscape:connector-curvature="0"
         id="path10656"
         style="fill:none;stroke:#ff0000;stroke-width:5pt;stroke-linecap:butt;stroke-linejoin:miter;stroke-opacity:1"
         d="M 0,0 0,1000 M 500,0 500,1000 M 1000,0 l 0,1000 M 0,0 1000,0 M 0,500 1000,500 M 0,1000 l 1000,0" />
      <g
         id="g10658"
         transform="translate(235.28988,129.89888)"
         style="fill:#ff0000">
        <g
           word-spacing="normal"
           letter-spacing="normal"
           font-size-adjust="none"
           font-stretch="normal"
           font-weight="normal"
           font-variant="normal"
           font-style="normal"
           stroke-miterlimit="10.433"
           xml:space="preserve"
           transform="matrix(1.0629921,0,0,-1.0629921,-186.02362,789.27165)"
           id="g10660"
           style="font-style:normal;font-variant:normal;font-weight:normal;font-stretch:normal;letter-spacing:normal;word-spacing:normal;text-anchor:start;fill:#ff0000;stroke:#000000;stroke-linecap:butt;stroke-linejoin:miter;stroke-miterlimit:10.43299961;stroke-opacity:1;stroke-dasharray:none;stroke-dashoffset:0"><path
             id="path10662"
             d="m 472.16,421.25 0.03,0.13 0.04,0.15 0.04,0.16 0.04,0.18 0.06,0.19 0.06,0.21 0.06,0.22 0.07,0.22 0.08,0.23 0.09,0.24 0.1,0.25 0.1,0.24 0.11,0.25 0.12,0.25 0.13,0.25 0.14,0.25 0.15,0.24 0.15,0.24 0.17,0.23 0.18,0.22 0.18,0.22 0.2,0.2 0.21,0.19 0.22,0.18 0.23,0.16 0.25,0.14 0.12,0.07 0.13,0.06 0.14,0.05 0.13,0.05 0.14,0.05 0.14,0.04 0.15,0.03 0.15,0.03 0.15,0.02 0.16,0.02 0.16,0.01 0.16,0 c 0.25,0 1.44,0 2.48,-0.64 -1.39,-0.25 -2.39,-1.5 -2.39,-2.69 0,-0.79 0.55,-1.75 1.89,-1.75 1.1,0 2.69,0.89 2.69,2.89 0,2.6 -2.94,3.28 -4.63,3.28 -2.89,0 -4.64,-2.64 -5.23,-3.78 -1.25,3.28 -3.94,3.78 -5.37,3.78 -5.19,0 -8.04,-6.42 -8.04,-7.67 0,-0.5 0.5,-0.5 0.61,-0.5 0.39,0 0.55,0.11 0.64,0.55 1.69,5.28 4.99,6.53 6.68,6.53 0.95,0 2.68,-0.44 2.68,-3.33 0,-1.54 -0.84,-4.89 -2.68,-11.86 -0.8,-3.09 -2.54,-5.18 -4.74,-5.18 -0.3,0 -1.44,0 -2.48,0.65 1.25,0.24 2.34,1.28 2.34,2.69 0,1.34 -1.09,1.73 -1.84,1.73 -1.5,0 -2.75,-1.29 -2.75,-2.89 0,-2.28 2.5,-3.28 4.68,-3.28 3.3,0 5.08,3.49 5.24,3.78 0.59,-1.84 2.39,-3.78 5.37,-3.78 5.14,0 7.99,6.42 7.99,7.67 0,0.5 -0.45,0.5 -0.61,0.5 -0.44,0 -0.55,-0.2 -0.64,-0.54 -1.64,-5.33 -5.03,-6.53 -6.63,-6.53 -1.95,0 -2.75,1.59 -2.75,3.29 0,1.1 0.3,2.19 0.86,4.38 z"
             inkscape:connector-curvature="0"
             style="fill:#ff0000;stroke-width:0" /><path
             id="path10664"
             d="m 504.66,410.61 0.39,0.09 0.38,0.11 0.38,0.11 0.38,0.12 0.37,0.13 0.36,0.14 0.36,0.15 0.35,0.15 0.35,0.17 0.33,0.16 0.33,0.18 0.32,0.18 0.31,0.19 0.3,0.2 0.29,0.21 0.27,0.21 0.26,0.21 0.26,0.22 0.23,0.23 0.23,0.24 0.21,0.24 0.19,0.24 0.18,0.25 0.16,0.26 0.15,0.26 0.12,0.26 0.11,0.27 0.1,0.27 0.07,0.28 0.05,0.28 0.03,0.29 0.01,0.29 c 0,2.98 -3.54,5.36 -8.59,5.36 h -10.7 c -0.66,0 -1.11,0 -1.11,-0.77 0,-0.48 0.4,-0.48 1.11,-0.48 0.03,0 0.7,0 1.32,-0.08 0.74,-0.06 0.8,-0.14 0.8,-0.48 0,-0.07 0,-0.24 -0.14,-0.77 l -4.64,-18.5 c -0.27,-1.19 -0.34,-1.47 -3.06,-1.47 -0.6,0 -1.05,0 -1.05,-0.73 0,-0.35 0.25,-0.52 0.56,-0.52 0.66,0 1.47,0.11 2.16,0.11 0.67,0 1.67,0.03 2.3,0.03 0.7,0 1.5,-0.03 2.23,-0.03 0.73,0 1.61,-0.11 2.34,-0.11 0.18,0 0.72,0 0.72,0.74 0,0.51 -0.34,0.51 -1.14,0.51 -0.56,0 -0.7,0 -1.33,0.08 -0.76,0.09 -0.76,0.17 -0.76,0.52 0,0.03 0,0.25 0.14,0.76 l 2.19,8.81 h 4.75 l 0.03,0.99 h -4.5 l 2.23,8.95 c 0.25,0.97 0.31,1.08 1.08,1.19 h 2.23 c 3.24,0 7.25,0 7.25,-3.6 0,-1.42 -0.67,-3.62 -2.29,-4.87 -1.44,-1.11 -3.6,-1.67 -6,-1.67 l -0.03,-0.99 c 3,0 4.28,-1.48 4.28,-3.12 0,-0.45 -0.32,-1.64 -0.49,-2.44 -0.42,-1.61 -0.56,-2.12 -0.56,-2.72 0,-2.75 2.55,-3.84 5.13,-3.84 3.2,0 4.59,3.42 4.59,4.05 0,0.1 -0.06,0.48 -0.59,0.48 -0.46,0 -0.52,-0.23 -0.63,-0.59 -0.48,-1.54 -1.77,-2.96 -3.23,-2.96 -0.91,0 -1.57,0.38 -1.57,2.27 0,0.87 0.21,2.69 0.35,3.62 0.14,0.94 0.14,1.28 0.14,1.64 0,0.41 0,1.54 -0.99,2.58 -0.65,0.72 -1.59,1.17 -2.36,1.46 z"
             inkscape:connector-curvature="0"
             style="fill:#ff0000;stroke-width:0" /></g>      </g>
      <g
         transform="translate(135.88286,70.389221)"
         id="g10666"
         style="fill:#ff0000">
        <g
           style="font-style:normal;font-variant:normal;font-weight:normal;font-stretch:normal;letter-spacing:normal;word-spacing:normal;text-anchor:start;fill:#ff0000;stroke:#000000;stroke-linecap:butt;stroke-linejoin:miter;stroke-miterlimit:10.43299961;stroke-opacity:1;stroke-dasharray:none;stroke-dashoffset:0"
           id="g10668"
           transform="matrix(1.0629921,0,0,-1.0629921,-186.02362,789.27165)"
           xml:space="preserve"
           stroke-miterlimit="10.433"
           font-style="normal"
           font-variant="normal"
           font-weight="normal"
           font-stretch="normal"
           font-size-adjust="none"
           letter-spacing="normal"
           word-spacing="normal"><path
             style="fill:#ff0000;stroke-width:0"
             inkscape:connector-curvature="0"
             d="m 479.74,425.18 0.01,0.04 0.01,0.03 0.01,0.06 0.02,0.05 0.01,0.06 0.01,0.05 0.02,0.04 0.01,0.05 0.01,0.04 0.01,0.04 0,0.04 0.01,0.04 0.01,0.04 0.01,0.03 0,0.03 0.01,0.03 0,0.03 0.01,0.03 0,0.03 0.01,0.05 0,0.06 0,0.05 0,0.05 0.01,0.05 0,0.03 0,0.03 0,0.03 0,0.03 c 0,0.91 -0.69,1.35 -1.44,1.35 -0.5,0 -1.3,-0.3 -1.75,-1.05 -0.1,-0.25 -0.5,-1.78 -0.69,-2.69 -0.36,-1.29 -0.7,-2.64 -1,-3.98 l -2.25,-8.97 c -0.19,-0.75 -2.33,-4.23 -5.62,-4.23 -2.54,0 -3.1,2.18 -3.1,4.03 0,2.29 0.86,5.39 2.55,9.76 0.8,2.05 1,2.6 1,3.6 0,2.23 -1.59,4.07 -4.09,4.07 -4.74,0 -6.58,-7.21 -6.58,-7.67 0,-0.5 0.5,-0.5 0.61,-0.5 0.5,0 0.54,0.11 0.79,0.91 1.35,4.69 3.33,6.17 5.03,6.17 0.4,0 1.25,0 1.25,-1.59 0,-1.25 -0.5,-2.53 -0.85,-3.49 -1.99,-5.28 -2.9,-8.12 -2.9,-10.47 0,-4.42 3.15,-5.92 6.08,-5.92 1.96,0 3.64,0.85 5.03,2.24 -0.64,-2.58 -1.23,-5.03 -3.23,-7.68 -1.3,-1.68 -3.19,-3.14 -5.48,-3.14 -0.69,0 -2.94,0.16 -3.79,2.1 0.8,0 1.46,0 2.14,0.61 0.5,0.43 1,1.09 1,2.03 0,1.55 -1.34,1.75 -1.84,1.75 -1.14,0 -2.8,-0.8 -2.8,-3.24 0,-2.5 2.21,-4.34 5.29,-4.34 5.14,0 10.26,4.55 11.67,10.17 z"
             id="path10670" /><path
             style="fill:#ff0000;stroke-width:0"
             inkscape:connector-curvature="0"
             d="m 500.7,410.61 0.39,0.09 0.38,0.11 0.38,0.11 0.38,0.12 0.37,0.13 0.36,0.14 0.36,0.15 0.35,0.15 0.35,0.17 0.33,0.16 0.33,0.18 0.32,0.18 0.31,0.19 0.3,0.2 0.28,0.21 0.28,0.21 0.26,0.21 0.25,0.22 0.24,0.23 0.23,0.24 0.21,0.24 0.19,0.24 0.18,0.25 0.16,0.26 0.15,0.26 0.12,0.26 0.11,0.27 0.09,0.27 0.08,0.28 0.05,0.28 0.03,0.29 0.01,0.29 c 0,2.98 -3.55,5.36 -8.59,5.36 h -10.71 c -0.65,0 -1.11,0 -1.11,-0.77 0,-0.48 0.41,-0.48 1.11,-0.48 0.04,0 0.71,0 1.33,-0.08 0.74,-0.06 0.8,-0.14 0.8,-0.48 0,-0.07 0,-0.24 -0.14,-0.77 l -4.64,-18.5 c -0.27,-1.19 -0.35,-1.47 -3.06,-1.47 -0.6,0 -1.05,0 -1.05,-0.73 0,-0.35 0.25,-0.52 0.56,-0.52 0.66,0 1.47,0.11 2.16,0.11 0.67,0 1.67,0.03 2.29,0.03 0.71,0 1.5,-0.03 2.24,-0.03 0.73,0 1.61,-0.11 2.34,-0.11 0.17,0 0.72,0 0.72,0.74 0,0.51 -0.34,0.51 -1.14,0.51 -0.56,0 -0.7,0 -1.33,0.08 -0.76,0.09 -0.76,0.17 -0.76,0.52 0,0.03 0,0.25 0.14,0.76 l 2.19,8.81 h 4.74 l 0.04,0.99 h -4.5 l 2.23,8.95 c 0.25,0.97 0.31,1.08 1.08,1.19 h 2.23 c 3.24,0 7.25,0 7.25,-3.6 0,-1.42 -0.67,-3.62 -2.29,-4.87 -1.44,-1.11 -3.6,-1.67 -6,-1.67 l -0.04,-0.99 c 3,0 4.29,-1.48 4.29,-3.12 0,-0.45 -0.32,-1.64 -0.49,-2.44 -0.42,-1.61 -0.56,-2.12 -0.56,-2.72 0,-2.75 2.55,-3.84 5.12,-3.84 3.21,0 4.6,3.42 4.6,4.05 0,0.1 -0.06,0.48 -0.6,0.48 -0.45,0 -0.51,-0.23 -0.62,-0.59 -0.48,-1.54 -1.77,-2.96 -3.24,-2.96 -0.9,0 -1.56,0.38 -1.56,2.27 0,0.87 0.21,2.69 0.35,3.62 0.14,0.94 0.14,1.28 0.14,1.64 0,0.41 0,1.54 -0.99,2.58 -0.65,0.72 -1.59,1.17 -2.36,1.46 z"
             id="path10672" /></g>      </g>
    </g>
  </g>
  <g
     inkscape:groupmode="layer"
     id="layer1"
     inkscape:label="Blue"
     style="display:inline"
     sodipodi:insensitive="true">
    <path
       d="M 0,0 0,1000 M 20,0 20,1000 M 40,0 40,1000 M 60,0 60,1000 M 80,0 80,1000 M 100,0 100,1000 M 120,0 120,1000 M 140,0 140,1000 M 160,0 160,1000 M 180,0 180,1000 M 200,0 200,1000 M 220,0 220,1000 M 240,0 240,1000 M 260,0 260,1000 M 280,0 280,1000 M 300,0 300,1000 M 320,0 320,1000 M 340,0 340,1000 M 360,0 360,1000 M 380,0 380,1000 M 400,0 400,1000 M 420,0 420,1000 M 440,0 440,1000 M 460,0 460,1000 M 480,0 480,1000 M 500,0 500,1000 M 520,0 520,1000 M 540,0 540,1000 M 560,0 560,1000 M 580,0 580,1000 M 600,0 600,1000 M 620,0 620,1000 M 640,0 640,1000 M 660,0 660,1000 M 680,0 680,1000 M 700,0 700,1000 M 720,0 720,1000 M 740,0 740,1000 M 760,0 760,1000 M 780,0 780,1000 M 800,0 800,1000 M 820,0 820,1000 M 840,0 840,1000 M 860,0 860,1000 M 880,0 880,1000 M 900,0 900,1000 M 920,0 920,1000 M 940,0 940,1000 M 960,0 960,1000 M 980,0 l 0,1000 m 20,-1000 0,1000 M 0,0 1000,0 M 0,20 1000,20 M 0,40 1000,40 M 0,60 1000,60 M 0,80 1000,80 M 0,100 1000,100 M 0,120 1000,120 M 0,140 1000,140 M 0,160 1000,160 M 0,180 1000,180 M 0,200 1000,200 M 0,220 1000,220 M 0,240 1000,240 M 0,260 1000,260 M 0,280 1000,280 M 0,300 1000,300 M 0,320 1000,320 M 0,340 1000,340 M 0,360 1000,360 M 0,380 1000,380 M 0,400 1000,400 M 0,420 1000,420 M 0,440 1000,440 M 0,460 1000,460 M 0,480 1000,480 M 0,500 1000,500 M 0,520 1000,520 M 0,540 1000,540 M 0,560 1000,560 M 0,580 1000,580 M 0,600 1000,600 M 0,620 1000,620 M 0,640 1000,640 M 0,660 1000,660 M 0,680 1000,680 M 0,700 1000,700 M 0,720 1000,720 M 0,740 1000,740 M 0,760 1000,760 M 0,780 1000,780 M 0,800 1000,800 M 0,820 1000,820 M 0,840 1000,840 M 0,860 1000,860 M 0,880 1000,880 M 0,900 1000,900 M 0,920 1000,920 M 0,940 1000,940 M 0,960 1000,960 M 0,980 l 1000,0 m -1000,20 1000,0"
       style="fill:none;stroke:#0000ff;stroke-width:0.5pt;stroke-linecap:butt;stroke-linejoin:miter;stroke-opacity:1"
       id="path3205"
       inkscape:connector-curvature="0" />
    <path
       d="M 0,0 0,1000 M 100,0 100,1000 M 200,0 200,1000 M 300,0 300,1000 M 400,0 400,1000 M 500,0 500,1000 M 600,0 600,1000 M 700,0 700,1000 M 800,0 800,1000 M 900,0 900,1000 M 1000,0 l 0,1000 M 0,0 1000,0 M 0,100 1000,100 M 0,200 1000,200 M 0,300 1000,300 M 0,400 1000,400 M 0,500 1000,500 M 0,600 1000,600 M 0,700 1000,700 M 0,800 1000,800 M 0,900 1000,900 M 0,1000 l 1000,0"
       style="fill:none;stroke:#0000ff;stroke-width:2pt;stroke-linecap:butt;stroke-linejoin:miter;stroke-opacity:1"
       id="path3207"
       inkscape:connector-curvature="0" />
    <path
       d="M 0,0 0,1000 M 500,0 500,1000 M 1000,0 l 0,1000 M 0,0 1000,0 M 0,500 1000,500 M 0,1000 l 1000,0"
       style="fill:none;stroke:#0000ff;stroke-width:5pt;stroke-linecap:butt;stroke-linejoin:miter;stroke-opacity:1"
       id="path3209"
       inkscape:connector-curvature="0" />
    <g
       id="g6060"
       transform="translate(235.15503,130.03108)"
       style="fill:#0000ff;display:inline">
      <g
         word-spacing="normal"
         letter-spacing="normal"
         font-size-adjust="none"
         font-stretch="normal"
         font-weight="normal"
         font-variant="normal"
         font-style="normal"
         stroke-miterlimit="10.433"
         xml:space="preserve"
         transform="matrix(1.0629921,0,0,-1.0629921,-186.02362,789.27165)"
         id="g6062"
         style="font-style:normal;font-variant:normal;font-weight:normal;font-stretch:normal;letter-spacing:normal;word-spacing:normal;text-anchor:start;fill:#0000ff;stroke:#000000;stroke-linecap:butt;stroke-linejoin:miter;stroke-miterlimit:10.43299961;stroke-opacity:1;stroke-dasharray:none;stroke-dashoffset:0"><path
           id="path6064"
           d="m 472.16,421.25 0.03,0.13 0.04,0.15 0.04,0.16 0.04,0.18 0.06,0.19 0.06,0.21 0.06,0.22 0.07,0.22 0.08,0.23 0.09,0.24 0.1,0.25 0.1,0.24 0.11,0.25 0.12,0.25 0.13,0.25 0.14,0.25 0.15,0.24 0.15,0.24 0.17,0.23 0.18,0.22 0.18,0.22 0.2,0.2 0.21,0.19 0.22,0.18 0.23,0.16 0.25,0.14 0.12,0.07 0.13,0.06 0.14,0.05 0.13,0.05 0.14,0.05 0.14,0.04 0.15,0.03 0.15,0.03 0.15,0.02 0.16,0.02 0.16,0.01 0.16,0 c 0.25,0 1.44,0 2.48,-0.64 -1.39,-0.25 -2.39,-1.5 -2.39,-2.69 0,-0.79 0.55,-1.75 1.89,-1.75 1.1,0 2.69,0.89 2.69,2.89 0,2.6 -2.94,3.28 -4.63,3.28 -2.89,0 -4.64,-2.64 -5.23,-3.78 -1.25,3.28 -3.94,3.78 -5.37,3.78 -5.19,0 -8.04,-6.42 -8.04,-7.67 0,-0.5 0.5,-0.5 0.61,-0.5 0.39,0 0.55,0.11 0.64,0.55 1.69,5.28 4.99,6.53 6.68,6.53 0.95,0 2.68,-0.44 2.68,-3.33 0,-1.54 -0.84,-4.89 -2.68,-11.86 -0.8,-3.09 -2.54,-5.18 -4.74,-5.18 -0.3,0 -1.44,0 -2.48,0.65 1.25,0.24 2.34,1.28 2.34,2.69 0,1.34 -1.09,1.73 -1.84,1.73 -1.5,0 -2.75,-1.29 -2.75,-2.89 0,-2.28 2.5,-3.28 4.68,-3.28 3.3,0 5.08,3.49 5.24,3.78 0.59,-1.84 2.39,-3.78 5.37,-3.78 5.14,0 7.99,6.42 7.99,7.67 0,0.5 -0.45,0.5 -0.61,0.5 -0.44,0 -0.55,-0.2 -0.64,-0.54 -1.64,-5.33 -5.03,-6.53 -6.63,-6.53 -1.95,0 -2.75,1.59 -2.75,3.29 0,1.1 0.3,2.19 0.86,4.38 z"
           inkscape:connector-curvature="0"
           style="fill:#0000ff;stroke-width:0" /><path
           id="path6066"
           d="m 498.32,419.7 0.03,0.12 0.03,0.11 0.03,0.1 0.02,0.1 0.03,0.1 0.04,0.09 0.03,0.08 0.04,0.08 0.04,0.08 0.04,0.07 0.05,0.07 0.06,0.06 0.06,0.06 0.07,0.06 0.08,0.05 0.08,0.05 0.09,0.04 0.1,0.04 0.11,0.04 0.12,0.03 0.07,0.02 0.06,0.01 0.07,0.02 0.08,0.01 0.07,0.01 0.08,0.01 0.09,0.02 0.08,0.01 0.09,0 0.09,0.01 0.1,0.01 0.1,0.01 0.1,0.01 0.11,0 0.11,0.01 0.11,0 0.12,0.01 0.12,0 0.13,0 0.13,0 0.13,0.01 0.14,0 0.15,0 0.15,0 c 1.07,0 1.42,0 1.42,0.76 0,0.04 -0.03,0.49 -0.6,0.49 -0.79,0 -1.73,-0.06 -2.57,-0.11 -0.88,-0.03 -1.91,-0.03 -2.79,-0.03 -0.73,0 -1.67,0.03 -2.4,0.03 -0.74,0 -1.56,0.11 -2.27,0.11 -0.2,0 -0.73,0 -0.73,-0.77 0,-0.48 0.42,-0.48 1.12,-0.48 0.03,0 0.69,0 1.32,-0.08 0.73,-0.06 0.81,-0.14 0.81,-0.48 0,-0.07 0,-0.24 -0.14,-0.77 l -4.64,-18.5 c -0.32,-1.19 -0.39,-1.47 -3.07,-1.47 -0.59,0 -1.04,0 -1.04,-0.73 0,-0.52 0.42,-0.52 1.04,-0.52 h 17.52 c 0.87,0 0.91,0.03 1.19,0.7 0.36,0.94 2.97,7.69 2.97,7.97 0,0.11 -0.08,0.5 -0.6,0.5 -0.42,0 -0.48,-0.18 -0.7,-0.73 -1.31,-3.31 -2.86,-7.19 -9.24,-7.19 h -3.93 c -1.08,0 -1.11,0.05 -1.11,0.36 0,0.03 0,0.2 0.14,0.72 z"
           inkscape:connector-curvature="0"
           style="fill:#0000ff;stroke-width:0" /></g>    </g>
    <g
       transform="translate(135.95396,70.321814)"
       id="g7016"
       style="fill:#0000ff;display:inline">
      <g
         style="font-style:normal;font-variant:normal;font-weight:normal;font-stretch:normal;letter-spacing:normal;word-spacing:normal;text-anchor:start;fill:#0000ff;stroke:#000000;stroke-linecap:butt;stroke-linejoin:miter;stroke-miterlimit:10.43299961;stroke-opacity:1;stroke-dasharray:none;stroke-dashoffset:0"
         id="g7018"
         transform="matrix(1.0629921,0,0,-1.0629921,-186.02362,789.27165)"
         xml:space="preserve"
         stroke-miterlimit="10.433"
         font-style="normal"
         font-variant="normal"
         font-weight="normal"
         font-stretch="normal"
         font-size-adjust="none"
         letter-spacing="normal"
         word-spacing="normal"><path
           style="fill:#0000ff;stroke-width:0"
           inkscape:connector-curvature="0"
           d="m 479.74,425.18 0.01,0.04 0.01,0.03 0.01,0.06 0.02,0.05 0.01,0.06 0.01,0.05 0.02,0.04 0.01,0.05 0.01,0.04 0.01,0.04 0,0.04 0.01,0.04 0.01,0.04 0.01,0.03 0,0.03 0.01,0.03 0,0.03 0.01,0.03 0,0.03 0.01,0.05 0,0.06 0,0.05 0,0.05 0.01,0.05 0,0.03 0,0.03 0,0.03 0,0.03 c 0,0.91 -0.69,1.35 -1.44,1.35 -0.5,0 -1.3,-0.3 -1.75,-1.05 -0.1,-0.25 -0.5,-1.78 -0.69,-2.69 -0.36,-1.29 -0.7,-2.64 -1,-3.98 l -2.25,-8.97 c -0.19,-0.75 -2.33,-4.23 -5.62,-4.23 -2.54,0 -3.1,2.18 -3.1,4.03 0,2.29 0.86,5.39 2.55,9.76 0.8,2.05 1,2.6 1,3.6 0,2.23 -1.59,4.07 -4.09,4.07 -4.74,0 -6.58,-7.21 -6.58,-7.67 0,-0.5 0.5,-0.5 0.61,-0.5 0.5,0 0.54,0.11 0.79,0.91 1.35,4.69 3.33,6.17 5.03,6.17 0.4,0 1.25,0 1.25,-1.59 0,-1.25 -0.5,-2.53 -0.85,-3.49 -1.99,-5.28 -2.9,-8.12 -2.9,-10.47 0,-4.42 3.15,-5.92 6.08,-5.92 1.96,0 3.64,0.85 5.03,2.24 -0.64,-2.58 -1.23,-5.03 -3.23,-7.68 -1.3,-1.68 -3.19,-3.14 -5.48,-3.14 -0.69,0 -2.94,0.16 -3.79,2.1 0.8,0 1.46,0 2.14,0.61 0.5,0.43 1,1.09 1,2.03 0,1.55 -1.34,1.75 -1.84,1.75 -1.14,0 -2.8,-0.8 -2.8,-3.24 0,-2.5 2.21,-4.34 5.29,-4.34 5.14,0 10.26,4.55 11.67,10.17 z"
           id="path7020" /><path
           style="fill:#0000ff;stroke-width:0"
           inkscape:connector-curvature="0"
           d="m 494.36,419.7 0.03,0.12 0.03,0.11 0.02,0.1 0.03,0.1 0.03,0.1 0.04,0.09 0.03,0.08 0.04,0.08 0.04,0.08 0.04,0.07 0.05,0.07 0.06,0.06 0.06,0.06 0.07,0.06 0.07,0.05 0.09,0.05 0.09,0.04 0.1,0.04 0.11,0.04 0.12,0.03 0.07,0.02 0.06,0.01 0.07,0.02 0.08,0.01 0.07,0.01 0.08,0.01 0.08,0.02 0.09,0.01 0.09,0 0.09,0.01 0.1,0.01 0.1,0.01 0.1,0.01 0.11,0 0.11,0.01 0.11,0 0.12,0.01 0.12,0 0.13,0 0.13,0 0.13,0.01 0.14,0 0.15,0 0.14,0 c 1.08,0 1.43,0 1.43,0.76 0,0.04 -0.03,0.49 -0.6,0.49 -0.79,0 -1.73,-0.06 -2.58,-0.11 -0.87,-0.03 -1.9,-0.03 -2.78,-0.03 -0.73,0 -1.67,0.03 -2.4,0.03 -0.74,0 -1.57,0.11 -2.27,0.11 -0.2,0 -0.73,0 -0.73,-0.77 0,-0.48 0.42,-0.48 1.12,-0.48 0.03,0 0.69,0 1.31,-0.08 0.74,-0.06 0.82,-0.14 0.82,-0.48 0,-0.07 0,-0.24 -0.14,-0.77 l -4.64,-18.5 c -0.32,-1.19 -0.4,-1.47 -3.07,-1.47 -0.59,0 -1.04,0 -1.04,-0.73 0,-0.52 0.42,-0.52 1.04,-0.52 h 17.52 c 0.87,0 0.91,0.03 1.19,0.7 0.36,0.94 2.96,7.69 2.96,7.97 0,0.11 -0.07,0.5 -0.59,0.5 -0.42,0 -0.48,-0.18 -0.7,-0.73 -1.31,-3.31 -2.86,-7.19 -9.24,-7.19 h -3.93 c -1.08,0 -1.11,0.05 -1.11,0.36 0,0.03 0,0.2 0.14,0.72 z"
           id="path7022" /></g>    </g>
  </g>
  <g
     style="display:none"
     inkscape:label="Red"
     id="g4623"
     inkscape:groupmode="layer"
     sodipodi:insensitive="true">
    <path
       inkscape:connector-curvature="0"
       id="path4625"
       style="fill:none;stroke:#ff0000;stroke-width:0.5pt;stroke-linecap:butt;stroke-linejoin:miter;stroke-opacity:1"
       d="M 0,0 0,1000 M 20,0 20,1000 M 40,0 40,1000 M 60,0 60,1000 M 80,0 80,1000 M 100,0 100,1000 M 120,0 120,1000 M 140,0 140,1000 M 160,0 160,1000 M 180,0 180,1000 M 200,0 200,1000 M 220,0 220,1000 M 240,0 240,1000 M 260,0 260,1000 M 280,0 280,1000 M 300,0 300,1000 M 320,0 320,1000 M 340,0 340,1000 M 360,0 360,1000 M 380,0 380,1000 M 400,0 400,1000 M 420,0 420,1000 M 440,0 440,1000 M 460,0 460,1000 M 480,0 480,1000 M 500,0 500,1000 M 520,0 520,1000 M 540,0 540,1000 M 560,0 560,1000 M 580,0 580,1000 M 600,0 600,1000 M 620,0 620,1000 M 640,0 640,1000 M 660,0 660,1000 M 680,0 680,1000 M 700,0 700,1000 M 720,0 720,1000 M 740,0 740,1000 M 760,0 760,1000 M 780,0 780,1000 M 800,0 800,1000 M 820,0 820,1000 M 840,0 840,1000 M 860,0 860,1000 M 880,0 880,1000 M 900,0 900,1000 M 920,0 920,1000 M 940,0 940,1000 M 960,0 960,1000 M 980,0 l 0,1000 m 20,-1000 0,1000 M 0,0 1000,0 M 0,20 1000,20 M 0,40 1000,40 M 0,60 1000,60 M 0,80 1000,80 M 0,100 1000,100 M 0,120 1000,120 M 0,140 1000,140 M 0,160 1000,160 M 0,180 1000,180 M 0,200 1000,200 M 0,220 1000,220 M 0,240 1000,240 M 0,260 1000,260 M 0,280 1000,280 M 0,300 1000,300 M 0,320 1000,320 M 0,340 1000,340 M 0,360 1000,360 M 0,380 1000,380 M 0,400 1000,400 M 0,420 1000,420 M 0,440 1000,440 M 0,460 1000,460 M 0,480 1000,480 M 0,500 1000,500 M 0,520 1000,520 M 0,540 1000,540 M 0,560 1000,560 M 0,580 1000,580 M 0,600 1000,600 M 0,620 1000,620 M 0,640 1000,640 M 0,660 1000,660 M 0,680 1000,680 M 0,700 1000,700 M 0,720 1000,720 M 0,740 1000,740 M 0,760 1000,760 M 0,780 1000,780 M 0,800 1000,800 M 0,820 1000,820 M 0,840 1000,840 M 0,860 1000,860 M 0,880 1000,880 M 0,900 1000,900 M 0,920 1000,920 M 0,940 1000,940 M 0,960 1000,960 M 0,980 l 1000,0 m -1000,20 1000,0" />
    <path
       inkscape:connector-curvature="0"
       id="path4627"
       style="fill:none;stroke:#ff0000;stroke-width:2pt;stroke-linecap:butt;stroke-linejoin:miter;stroke-opacity:1"
       d="M 0,0 0,1000 M 100,0 100,1000 M 200,0 200,1000 M 300,0 300,1000 M 400,0 400,1000 M 500,0 500,1000 M 600,0 600,1000 M 700,0 700,1000 M 800,0 800,1000 M 900,0 900,1000 M 1000,0 l 0,1000 M 0,0 1000,0 M 0,100 1000,100 M 0,200 1000,200 M 0,300 1000,300 M 0,400 1000,400 M 0,500 1000,500 M 0,600 1000,600 M 0,700 1000,700 M 0,800 1000,800 M 0,900 1000,900 M 0,1000 l 1000,0" />
    <path
       inkscape:connector-curvature="0"
       id="path4629"
       style="fill:none;stroke:#ff0000;stroke-width:5pt;stroke-linecap:butt;stroke-linejoin:miter;stroke-opacity:1"
       d="M 0,0 0,1000 M 500,0 500,1000 M 1000,0 l 0,1000 M 0,0 1000,0 M 0,500 1000,500 M 0,1000 l 1000,0" />
    <g
       id="g9928"
       transform="translate(235.28988,129.89888)"
       style="fill:#ff0000">
      <g
         word-spacing="normal"
         letter-spacing="normal"
         font-size-adjust="none"
         font-stretch="normal"
         font-weight="normal"
         font-variant="normal"
         font-style="normal"
         stroke-miterlimit="10.433"
         xml:space="preserve"
         transform="matrix(1.0629921,0,0,-1.0629921,-186.02362,789.27165)"
         id="g9930"
         style="font-style:normal;font-variant:normal;font-weight:normal;font-stretch:normal;letter-spacing:normal;word-spacing:normal;text-anchor:start;fill:#ff0000;stroke:#000000;stroke-linecap:butt;stroke-linejoin:miter;stroke-miterlimit:10.43299961;stroke-opacity:1;stroke-dasharray:none;stroke-dashoffset:0"><path
           id="path9932"
           d="m 472.16,421.25 0.03,0.13 0.04,0.15 0.04,0.16 0.04,0.18 0.06,0.19 0.06,0.21 0.06,0.22 0.07,0.22 0.08,0.23 0.09,0.24 0.1,0.25 0.1,0.24 0.11,0.25 0.12,0.25 0.13,0.25 0.14,0.25 0.15,0.24 0.15,0.24 0.17,0.23 0.18,0.22 0.18,0.22 0.2,0.2 0.21,0.19 0.22,0.18 0.23,0.16 0.25,0.14 0.12,0.07 0.13,0.06 0.14,0.05 0.13,0.05 0.14,0.05 0.14,0.04 0.15,0.03 0.15,0.03 0.15,0.02 0.16,0.02 0.16,0.01 0.16,0 c 0.25,0 1.44,0 2.48,-0.64 -1.39,-0.25 -2.39,-1.5 -2.39,-2.69 0,-0.79 0.55,-1.75 1.89,-1.75 1.1,0 2.69,0.89 2.69,2.89 0,2.6 -2.94,3.28 -4.63,3.28 -2.89,0 -4.64,-2.64 -5.23,-3.78 -1.25,3.28 -3.94,3.78 -5.37,3.78 -5.19,0 -8.04,-6.42 -8.04,-7.67 0,-0.5 0.5,-0.5 0.61,-0.5 0.39,0 0.55,0.11 0.64,0.55 1.69,5.28 4.99,6.53 6.68,6.53 0.95,0 2.68,-0.44 2.68,-3.33 0,-1.54 -0.84,-4.89 -2.68,-11.86 -0.8,-3.09 -2.54,-5.18 -4.74,-5.18 -0.3,0 -1.44,0 -2.48,0.65 1.25,0.24 2.34,1.28 2.34,2.69 0,1.34 -1.09,1.73 -1.84,1.73 -1.5,0 -2.75,-1.29 -2.75,-2.89 0,-2.28 2.5,-3.28 4.68,-3.28 3.3,0 5.08,3.49 5.24,3.78 0.59,-1.84 2.39,-3.78 5.37,-3.78 5.14,0 7.99,6.42 7.99,7.67 0,0.5 -0.45,0.5 -0.61,0.5 -0.44,0 -0.55,-0.2 -0.64,-0.54 -1.64,-5.33 -5.03,-6.53 -6.63,-6.53 -1.95,0 -2.75,1.59 -2.75,3.29 0,1.1 0.3,2.19 0.86,4.38 z"
           inkscape:connector-curvature="0"
           style="fill:#ff0000;stroke-width:0" /><path
           id="path9934"
           d="m 504.66,410.61 0.39,0.09 0.38,0.11 0.38,0.11 0.38,0.12 0.37,0.13 0.36,0.14 0.36,0.15 0.35,0.15 0.35,0.17 0.33,0.16 0.33,0.18 0.32,0.18 0.31,0.19 0.3,0.2 0.29,0.21 0.27,0.21 0.26,0.21 0.26,0.22 0.23,0.23 0.23,0.24 0.21,0.24 0.19,0.24 0.18,0.25 0.16,0.26 0.15,0.26 0.12,0.26 0.11,0.27 0.1,0.27 0.07,0.28 0.05,0.28 0.03,0.29 0.01,0.29 c 0,2.98 -3.54,5.36 -8.59,5.36 h -10.7 c -0.66,0 -1.11,0 -1.11,-0.77 0,-0.48 0.4,-0.48 1.11,-0.48 0.03,0 0.7,0 1.32,-0.08 0.74,-0.06 0.8,-0.14 0.8,-0.48 0,-0.07 0,-0.24 -0.14,-0.77 l -4.64,-18.5 c -0.27,-1.19 -0.34,-1.47 -3.06,-1.47 -0.6,0 -1.05,0 -1.05,-0.73 0,-0.35 0.25,-0.52 0.56,-0.52 0.66,0 1.47,0.11 2.16,0.11 0.67,0 1.67,0.03 2.3,0.03 0.7,0 1.5,-0.03 2.23,-0.03 0.73,0 1.61,-0.11 2.34,-0.11 0.18,0 0.72,0 0.72,0.74 0,0.51 -0.34,0.51 -1.14,0.51 -0.56,0 -0.7,0 -1.33,0.08 -0.76,0.09 -0.76,0.17 -0.76,0.52 0,0.03 0,0.25 0.14,0.76 l 2.19,8.81 h 4.75 l 0.03,0.99 h -4.5 l 2.23,8.95 c 0.25,0.97 0.31,1.08 1.08,1.19 h 2.23 c 3.24,0 7.25,0 7.25,-3.6 0,-1.42 -0.67,-3.62 -2.29,-4.87 -1.44,-1.11 -3.6,-1.67 -6,-1.67 l -0.03,-0.99 c 3,0 4.28,-1.48 4.28,-3.12 0,-0.45 -0.32,-1.64 -0.49,-2.44 -0.42,-1.61 -0.56,-2.12 -0.56,-2.72 0,-2.75 2.55,-3.84 5.13,-3.84 3.2,0 4.59,3.42 4.59,4.05 0,0.1 -0.06,0.48 -0.59,0.48 -0.46,0 -0.52,-0.23 -0.63,-0.59 -0.48,-1.54 -1.77,-2.96 -3.23,-2.96 -0.91,0 -1.57,0.38 -1.57,2.27 0,0.87 0.21,2.69 0.35,3.62 0.14,0.94 0.14,1.28 0.14,1.64 0,0.41 0,1.54 -0.99,2.58 -0.65,0.72 -1.59,1.17 -2.36,1.46 z"
           inkscape:connector-curvature="0"
           style="fill:#ff0000;stroke-width:0" /></g>    </g>
    <g
       transform="translate(135.88286,70.389221)"
       id="g8952"
       style="fill:#ff0000">
      <g
         style="font-style:normal;font-variant:normal;font-weight:normal;font-stretch:normal;letter-spacing:normal;word-spacing:normal;text-anchor:start;fill:#ff0000;stroke:#000000;stroke-linecap:butt;stroke-linejoin:miter;stroke-miterlimit:10.43299961;stroke-opacity:1;stroke-dasharray:none;stroke-dashoffset:0"
         id="g8954"
         transform="matrix(1.0629921,0,0,-1.0629921,-186.02362,789.27165)"
         xml:space="preserve"
         stroke-miterlimit="10.433"
         font-style="normal"
         font-variant="normal"
         font-weight="normal"
         font-stretch="normal"
         font-size-adjust="none"
         letter-spacing="normal"
         word-spacing="normal"><path
           style="fill:#ff0000;stroke-width:0"
           inkscape:connector-curvature="0"
           d="m 479.74,425.18 0.01,0.04 0.01,0.03 0.01,0.06 0.02,0.05 0.01,0.06 0.01,0.05 0.02,0.04 0.01,0.05 0.01,0.04 0.01,0.04 0,0.04 0.01,0.04 0.01,0.04 0.01,0.03 0,0.03 0.01,0.03 0,0.03 0.01,0.03 0,0.03 0.01,0.05 0,0.06 0,0.05 0,0.05 0.01,0.05 0,0.03 0,0.03 0,0.03 0,0.03 c 0,0.91 -0.69,1.35 -1.44,1.35 -0.5,0 -1.3,-0.3 -1.75,-1.05 -0.1,-0.25 -0.5,-1.78 -0.69,-2.69 -0.36,-1.29 -0.7,-2.64 -1,-3.98 l -2.25,-8.97 c -0.19,-0.75 -2.33,-4.23 -5.62,-4.23 -2.54,0 -3.1,2.18 -3.1,4.03 0,2.29 0.86,5.39 2.55,9.76 0.8,2.05 1,2.6 1,3.6 0,2.23 -1.59,4.07 -4.09,4.07 -4.74,0 -6.58,-7.21 -6.58,-7.67 0,-0.5 0.5,-0.5 0.61,-0.5 0.5,0 0.54,0.11 0.79,0.91 1.35,4.69 3.33,6.17 5.03,6.17 0.4,0 1.25,0 1.25,-1.59 0,-1.25 -0.5,-2.53 -0.85,-3.49 -1.99,-5.28 -2.9,-8.12 -2.9,-10.47 0,-4.42 3.15,-5.92 6.08,-5.92 1.96,0 3.64,0.85 5.03,2.24 -0.64,-2.58 -1.23,-5.03 -3.23,-7.68 -1.3,-1.68 -3.19,-3.14 -5.48,-3.14 -0.69,0 -2.94,0.16 -3.79,2.1 0.8,0 1.46,0 2.14,0.61 0.5,0.43 1,1.09 1,2.03 0,1.55 -1.34,1.75 -1.84,1.75 -1.14,0 -2.8,-0.8 -2.8,-3.24 0,-2.5 2.21,-4.34 5.29,-4.34 5.14,0 10.26,4.55 11.67,10.17 z"
           id="path8956" /><path
           style="fill:#ff0000;stroke-width:0"
           inkscape:connector-curvature="0"
           d="m 500.7,410.61 0.39,0.09 0.38,0.11 0.38,0.11 0.38,0.12 0.37,0.13 0.36,0.14 0.36,0.15 0.35,0.15 0.35,0.17 0.33,0.16 0.33,0.18 0.32,0.18 0.31,0.19 0.3,0.2 0.28,0.21 0.28,0.21 0.26,0.21 0.25,0.22 0.24,0.23 0.23,0.24 0.21,0.24 0.19,0.24 0.18,0.25 0.16,0.26 0.15,0.26 0.12,0.26 0.11,0.27 0.09,0.27 0.08,0.28 0.05,0.28 0.03,0.29 0.01,0.29 c 0,2.98 -3.55,5.36 -8.59,5.36 h -10.71 c -0.65,0 -1.11,0 -1.11,-0.77 0,-0.48 0.41,-0.48 1.11,-0.48 0.04,0 0.71,0 1.33,-0.08 0.74,-0.06 0.8,-0.14 0.8,-0.48 0,-0.07 0,-0.24 -0.14,-0.77 l -4.64,-18.5 c -0.27,-1.19 -0.35,-1.47 -3.06,-1.47 -0.6,0 -1.05,0 -1.05,-0.73 0,-0.35 0.25,-0.52 0.56,-0.52 0.66,0 1.47,0.11 2.16,0.11 0.67,0 1.67,0.03 2.29,0.03 0.71,0 1.5,-0.03 2.24,-0.03 0.73,0 1.61,-0.11 2.34,-0.11 0.17,0 0.72,0 0.72,0.74 0,0.51 -0.34,0.51 -1.14,0.51 -0.56,0 -0.7,0 -1.33,0.08 -0.76,0.09 -0.76,0.17 -0.76,0.52 0,0.03 0,0.25 0.14,0.76 l 2.19,8.81 h 4.74 l 0.04,0.99 h -4.5 l 2.23,8.95 c 0.25,0.97 0.31,1.08 1.08,1.19 h 2.23 c 3.24,0 7.25,0 7.25,-3.6 0,-1.42 -0.67,-3.62 -2.29,-4.87 -1.44,-1.11 -3.6,-1.67 -6,-1.67 l -0.04,-0.99 c 3,0 4.29,-1.48 4.29,-3.12 0,-0.45 -0.32,-1.64 -0.49,-2.44 -0.42,-1.61 -0.56,-2.12 -0.56,-2.72 0,-2.75 2.55,-3.84 5.12,-3.84 3.21,0 4.6,3.42 4.6,4.05 0,0.1 -0.06,0.48 -0.6,0.48 -0.45,0 -0.51,-0.23 -0.62,-0.59 -0.48,-1.54 -1.77,-2.96 -3.24,-2.96 -0.9,0 -1.56,0.38 -1.56,2.27 0,0.87 0.21,2.69 0.35,3.62 0.14,0.94 0.14,1.28 0.14,1.64 0,0.41 0,1.54 -0.99,2.58 -0.65,0.72 -1.59,1.17 -2.36,1.46 z"
           id="path8958" /></g>    </g>
  </g>
</svg>
