<?xml version="1.0" encoding="UTF-8" standalone="no"?>
<!-- Created with Inkscape (http://www.inkscape.org/) -->

<svg
   xmlns:dc="http://purl.org/dc/elements/1.1/"
   xmlns:cc="http://creativecommons.org/ns#"
   xmlns:rdf="http://www.w3.org/1999/02/22-rdf-syntax-ns#"
   xmlns:svg="http://www.w3.org/2000/svg"
   xmlns="http://www.w3.org/2000/svg"
   xmlns:sodipodi="http://sodipodi.sourceforge.net/DTD/sodipodi-0.dtd"
   xmlns:inkscape="http://www.inkscape.org/namespaces/inkscape"
   width="1000"
   height="1000"
   id="svg2"
   version="1.1"
   inkscape:version="0.48.4 r9939"
   sodipodi:docname="Reference Frame.svg"
   enable-background="new">
  <sodipodi:namedview
     id="base"
     pagecolor="#ffffff"
     bordercolor="#666666"
     borderopacity="1.0"
     inkscape:pageopacity="0.0"
     inkscape:pageshadow="2"
     inkscape:zoom="0.35"
     inkscape:cx="594.13543"
     inkscape:cy="678.64417"
     inkscape:document-units="px"
     inkscape:current-layer="g4111"
     showgrid="true"
     inkscape:window-width="1280"
     inkscape:window-height="753"
     inkscape:window-x="0"
     inkscape:window-y="25"
     inkscape:window-maximized="1">
    <inkscape:grid
       type="xygrid"
       id="grid2991"
       empspacing="5"
       visible="true"
       enabled="true"
       snapvisiblegridlinesonly="true" />
  </sodipodi:namedview>
  <defs
     id="defs4" />
  <metadata
     id="metadata7">
    <rdf:RDF>
      <cc:Work
         rdf:about="">
        <dc:format>image/svg+xml</dc:format>
        <dc:type
           rdf:resource="http://purl.org/dc/dcmitype/StillImage" />
        <dc:title />
      </cc:Work>
    </rdf:RDF>
  </metadata>
  <g
     style="display:none"
     inkscape:label="Blue Originall"
     id="g3949"
     inkscape:groupmode="layer"
     sodipodi:insensitive="true">
    <g
       id="g4085">
      <path
         d="M 0,0 0,1000 M 20,0 20,1000 M 40,0 40,1000 M 60,0 60,1000 M 80,0 80,1000 M 100,0 100,1000 M 120,0 120,1000 M 140,0 140,1000 M 160,0 160,1000 M 180,0 180,1000 M 200,0 200,1000 M 220,0 220,1000 M 240,0 240,1000 M 260,0 260,1000 M 280,0 280,1000 M 300,0 300,1000 M 320,0 320,1000 M 340,0 340,1000 M 360,0 360,1000 M 380,0 380,1000 M 400,0 400,1000 M 420,0 420,1000 M 440,0 440,1000 M 460,0 460,1000 M 480,0 480,1000 M 500,0 500,1000 M 520,0 520,1000 M 540,0 540,1000 M 560,0 560,1000 M 580,0 580,1000 M 600,0 600,1000 M 620,0 620,1000 M 640,0 640,1000 M 660,0 660,1000 M 680,0 680,1000 M 700,0 700,1000 M 720,0 720,1000 M 740,0 740,1000 M 760,0 760,1000 M 780,0 780,1000 M 800,0 800,1000 M 820,0 820,1000 M 840,0 840,1000 M 860,0 860,1000 M 880,0 880,1000 M 900,0 900,1000 M 920,0 920,1000 M 940,0 940,1000 M 960,0 960,1000 M 980,0 l 0,1000 m 20,-1000 0,1000 M 0,0 1000,0 M 0,20 1000,20 M 0,40 1000,40 M 0,60 1000,60 M 0,80 1000,80 M 0,100 1000,100 M 0,120 1000,120 M 0,140 1000,140 M 0,160 1000,160 M 0,180 1000,180 M 0,200 1000,200 M 0,220 1000,220 M 0,240 1000,240 M 0,260 1000,260 M 0,280 1000,280 M 0,300 1000,300 M 0,320 1000,320 M 0,340 1000,340 M 0,360 1000,360 M 0,380 1000,380 M 0,400 1000,400 M 0,420 1000,420 M 0,440 1000,440 M 0,460 1000,460 M 0,480 1000,480 M 0,500 1000,500 M 0,520 1000,520 M 0,540 1000,540 M 0,560 1000,560 M 0,580 1000,580 M 0,600 1000,600 M 0,620 1000,620 M 0,640 1000,640 M 0,660 1000,660 M 0,680 1000,680 M 0,700 1000,700 M 0,720 1000,720 M 0,740 1000,740 M 0,760 1000,760 M 0,780 1000,780 M 0,800 1000,800 M 0,820 1000,820 M 0,840 1000,840 M 0,860 1000,860 M 0,880 1000,880 M 0,900 1000,900 M 0,920 1000,920 M 0,940 1000,940 M 0,960 1000,960 M 0,980 l 1000,0 m -1000,20 1000,0"
         style="fill:#0000ff;stroke:#0000ff;stroke-width:0.5pt;stroke-linecap:butt;stroke-linejoin:miter;stroke-opacity:1"
         id="path3951"
         inkscape:connector-curvature="0" />
      <path
         d="M 0,0 0,1000 M 100,0 100,1000 M 200,0 200,1000 M 300,0 300,1000 M 400,0 400,1000 M 500,0 500,1000 M 600,0 600,1000 M 700,0 700,1000 M 800,0 800,1000 M 900,0 900,1000 M 1000,0 l 0,1000 M 0,0 1000,0 M 0,100 1000,100 M 0,200 1000,200 M 0,300 1000,300 M 0,400 1000,400 M 0,500 1000,500 M 0,600 1000,600 M 0,700 1000,700 M 0,800 1000,800 M 0,900 1000,900 M 0,1000 l 1000,0"
         style="fill:#0000ff;stroke:#0000ff;stroke-width:2pt;stroke-linecap:butt;stroke-linejoin:miter;stroke-opacity:1"
         id="path3953"
         inkscape:connector-curvature="0" />
      <path
         d="M 0,0 0,1000 M 500,0 500,1000 M 1000,0 l 0,1000 M 0,0 1000,0 M 0,500 1000,500 M 0,1000 l 1000,0"
         style="fill:#0000ff;stroke:#0000ff;stroke-width:5pt;stroke-linecap:butt;stroke-linejoin:miter;stroke-opacity:1"
         id="path3955"
         inkscape:connector-curvature="0" />
      <g
         style="fill:#0000ff;stroke:#0000ff"
         transform="matrix(2,0,0,2,-370.92856,-374.14287)"
         id="g3994">
        <g
           style="font-style:normal;font-variant:normal;font-weight:normal;font-stretch:normal;letter-spacing:normal;word-spacing:normal;text-anchor:start;fill:#0000ff;stroke:#0000ff;stroke-linecap:butt;stroke-linejoin:miter;stroke-miterlimit:10.43299961;stroke-opacity:1;stroke-dasharray:none;stroke-dashoffset:0"
           word-spacing="normal"
           letter-spacing="normal"
           font-size-adjust="none"
           font-stretch="normal"
           font-weight="normal"
           font-variant="normal"
           font-style="normal"
           stroke-miterlimit="10.433"
           xml:space="preserve"
           transform="matrix(1.4285714,0,0,-1.4285714,-250,750)"
           id="g3996"><path
             style="fill:#0000ff;stroke:#0000ff;stroke-width:0"
             inkscape:connector-curvature="0"
             id="path3998"
             d="m 469.88,445.14 0.03,0.11 0.03,0.11 0.02,0.11 0.03,0.1 0.03,0.09 0.03,0.1 0.04,0.08 0.04,0.08 0.04,0.08 0.04,0.07 0.05,0.07 0.06,0.06 0.06,0.06 0.07,0.06 0.07,0.05 0.09,0.05 0.09,0.04 0.1,0.04 0.11,0.04 0.12,0.03 0.07,0.02 0.06,0.01 0.07,0.01 0.08,0.02 0.07,0.01 0.08,0.01 0.08,0.01 0.09,0.01 0.09,0.01 0.09,0.01 0.1,0.01 0.1,0.01 0.1,0 0.11,0.01 0.11,0 0.11,0.01 0.12,0 0.12,0.01 0.13,0 0.13,0 0.13,0 0.14,0 0.15,0.01 0.14,0 c 1.08,0 1.43,0 1.43,0.76 0,0.03 -0.04,0.49 -0.6,0.49 -0.79,0 -1.73,-0.07 -2.58,-0.11 -0.87,-0.03 -1.9,-0.03 -2.78,-0.03 -0.73,0 -1.67,0.03 -2.4,0.03 -0.74,0 -1.57,0.11 -2.27,0.11 -0.2,0 -0.73,0 -0.73,-0.77 0,-0.48 0.42,-0.48 1.12,-0.48 0.03,0 0.69,0 1.31,-0.08 0.74,-0.06 0.82,-0.14 0.82,-0.49 0,-0.06 0,-0.23 -0.14,-0.76 l -4.64,-18.5 c -0.32,-1.19 -0.4,-1.47 -3.07,-1.47 -0.59,0 -1.04,0 -1.04,-0.74 0,-0.51 0.42,-0.51 1.04,-0.51 h 17.52 c 0.87,0 0.9,0.03 1.19,0.7 0.36,0.94 2.96,7.69 2.96,7.97 0,0.11 -0.07,0.5 -0.59,0.5 -0.42,0 -0.48,-0.19 -0.7,-0.73 -1.31,-3.32 -2.86,-7.19 -9.24,-7.19 h -3.93 c -1.08,0 -1.11,0.05 -1.11,0.36 0,0.03 0,0.2 0.14,0.72 z" /><path
             style="fill:#0000ff;stroke:#0000ff;stroke-width:0"
             inkscape:connector-curvature="0"
             id="path4000"
             d="m 515.15,434.54 0.69,0.71 c 1.5,1.5 3.14,3.18 6.53,3.43 0.54,0.05 1,0.05 1,0.96 0,0.39 -0.25,0.59 -0.66,0.59 -1.3,0 -2.73,-0.16 -4.08,-0.16 -1.64,0 -3.39,0.16 -4.98,0.16 -0.3,0 -0.95,0 -0.95,-0.95 0,-0.55 0.5,-0.6 0.75,-0.6 0.34,0 1.79,-0.09 1.79,-1.14 0,-0.86 -1.14,-2.14 -1.34,-2.39 l -11.56,-13.31 -5.49,14.8 c -0.3,0.7 -0.3,0.79 -0.3,0.84 0,1.2 2.44,1.2 2.94,1.2 0.71,0 1.21,0 1.21,1 0,0.55 -0.6,0.55 -0.75,0.55 -1.4,0 -4.88,-0.16 -6.29,-0.16 -1.23,0 -4.32,0.16 -5.57,0.16 -0.3,0 -0.94,0 -0.94,-1 0,-0.55 0.48,-0.55 1.14,-0.55 2.98,0 3.19,-0.45 3.64,-1.68 l 6.12,-16.41 c 0.05,-0.14 0.21,-0.69 0.21,-0.84 0,-0.14 -2,-8.18 -2.25,-9.07 -0.64,-2.73 -0.69,-2.89 -4.69,-2.93 -0.94,0 -1.34,0 -1.34,-1 0,-0.55 0.61,-0.55 0.7,-0.55 1.39,0 4.87,0.16 6.28,0.16 1.39,0 4.99,-0.16 6.38,-0.16 0.34,0 0.93,0 0.93,1 0,0.55 -0.43,0.55 -1.39,0.55 -0.09,0 -1.04,0 -1.89,0.09 -1.04,0.11 -1.34,0.2 -1.34,0.8 0,0.36 0.45,2.09 0.7,3.14 l 1.74,7.03 c 0.25,0.94 0.29,1.09 0.7,1.55 z" /></g>      </g>
      <g
         style="fill:#0000ff;stroke:#0000ff"
         transform="matrix(2,0,0,2,238.14997,237.46922)"
         id="g4050">
        <g
           style="font-style:normal;font-variant:normal;font-weight:normal;font-stretch:normal;letter-spacing:normal;word-spacing:normal;text-anchor:start;fill:#0000ff;stroke:#0000ff;stroke-linecap:butt;stroke-linejoin:miter;stroke-miterlimit:10.43299961;stroke-opacity:1;stroke-dasharray:none;stroke-dashoffset:0"
           id="g4052"
           transform="matrix(1.4285714,0,0,-1.4285714,-250,750)"
           xml:space="preserve"
           stroke-miterlimit="10.433"
           font-style="normal"
           font-variant="normal"
           font-weight="normal"
           font-stretch="normal"
           font-size-adjust="none"
           letter-spacing="normal"
           word-spacing="normal"><path
             style="fill:#0000ff;stroke:#0000ff;stroke-width:0"
             inkscape:connector-curvature="0"
             d="m 469.88,445.14 0.03,0.11 0.03,0.11 0.02,0.11 0.03,0.1 0.03,0.09 0.03,0.1 0.04,0.08 0.04,0.08 0.04,0.08 0.04,0.07 0.05,0.07 0.06,0.06 0.06,0.06 0.07,0.06 0.07,0.05 0.09,0.05 0.09,0.04 0.1,0.04 0.11,0.04 0.12,0.03 0.07,0.02 0.06,0.01 0.07,0.01 0.08,0.02 0.07,0.01 0.08,0.01 0.08,0.01 0.09,0.01 0.09,0.01 0.09,0.01 0.1,0.01 0.1,0.01 0.1,0 0.11,0.01 0.11,0 0.11,0.01 0.12,0 0.12,0.01 0.13,0 0.13,0 0.13,0 0.14,0 0.15,0.01 0.14,0 c 1.08,0 1.43,0 1.43,0.76 0,0.03 -0.04,0.49 -0.6,0.49 -0.79,0 -1.73,-0.07 -2.58,-0.11 -0.87,-0.03 -1.9,-0.03 -2.78,-0.03 -0.73,0 -1.67,0.03 -2.4,0.03 -0.74,0 -1.57,0.11 -2.27,0.11 -0.2,0 -0.73,0 -0.73,-0.77 0,-0.48 0.42,-0.48 1.12,-0.48 0.03,0 0.69,0 1.31,-0.08 0.74,-0.06 0.82,-0.14 0.82,-0.49 0,-0.06 0,-0.23 -0.14,-0.76 l -4.64,-18.5 c -0.32,-1.19 -0.4,-1.47 -3.07,-1.47 -0.59,0 -1.04,0 -1.04,-0.74 0,-0.51 0.42,-0.51 1.04,-0.51 h 17.52 c 0.87,0 0.9,0.03 1.19,0.7 0.36,0.94 2.96,7.69 2.96,7.97 0,0.11 -0.07,0.5 -0.59,0.5 -0.42,0 -0.48,-0.19 -0.7,-0.73 -1.31,-3.32 -2.86,-7.19 -9.24,-7.19 h -3.93 c -1.08,0 -1.11,0.05 -1.11,0.36 0,0.03 0,0.2 0.14,0.72 z"
             id="path4054" /><path
             style="fill:#0000ff;stroke:#0000ff;stroke-width:0"
             inkscape:connector-curvature="0"
             d="m 509.55,426.68 -4.17,9.91 c -0.15,0.41 -0.25,0.59 -0.25,0.64 0,0.31 0.85,1.25 2.94,1.45 0.5,0.05 1,0.1 1,0.96 0,0.59 -0.61,0.59 -0.75,0.59 -2.05,0 -4.19,-0.16 -6.28,-0.16 -1.25,0 -4.33,0.16 -5.58,0.16 -0.3,0 -0.91,0 -0.91,-1 0,-0.55 0.5,-0.55 1.16,-0.55 2.99,0 3.28,-0.5 3.74,-1.59 l 5.87,-13.91 -10.52,-11.31 -0.64,-0.55 c -2.43,-2.64 -4.78,-3.43 -7.32,-3.57 -0.64,-0.05 -1.1,-0.05 -1.1,-1 0,-0.05 0,-0.55 0.66,-0.55 1.48,0 3.12,0.16 4.67,0.16 1.84,0 3.8,-0.16 5.58,-0.16 0.31,0 0.9,0 0.9,1 0,0.5 -0.5,0.55 -0.59,0.55 -0.45,0.04 -2,0.14 -2,1.54 0,0.8 0.75,1.6 1.34,2.24 l 5.08,5.39 4.49,4.87 5.03,-11.9 c 0.2,-0.55 0.25,-0.6 0.25,-0.71 0,-0.39 -0.94,-1.23 -2.89,-1.43 -0.55,-0.05 -0.99,-0.11 -0.99,-0.96 0,-0.59 0.55,-0.59 0.74,-0.59 1.4,0 4.89,0.16 6.28,0.16 1.25,0 4.28,-0.16 5.53,-0.16 0.34,0 0.95,0 0.95,0.95 0,0.6 -0.5,0.6 -0.9,0.6 -3.33,0.04 -3.44,0.2 -4.28,2.18 -1.94,4.64 -5.29,12.41 -6.43,15.39 3.39,3.5 8.61,9.43 10.21,10.82 1.45,1.2 3.34,2.39 6.33,2.54 0.65,0.05 1.09,0.05 1.09,1 0,0.05 0,0.55 -0.64,0.55 -1.5,0 -3.14,-0.16 -4.69,-0.16 -1.84,0 -3.73,0.16 -5.53,0.16 -0.3,0 -0.94,0 -0.94,-1 0,-0.34 0.25,-0.5 0.6,-0.55 0.45,-0.04 2,-0.15 2,-1.54 0,-0.71 -0.55,-1.35 -0.96,-1.8 z"
             id="path4056" /></g>      </g>
    </g>
  </g>
  <g
     inkscape:groupmode="layer"
     id="g4111"
     inkscape:label="Blue"
     style="display:inline">
    <g
       id="g4148">
      <path
         inkscape:connector-curvature="0"
         id="path4115"
         style="fill:#0000ff;stroke:#0000ff;stroke-width:0.5pt;stroke-linecap:butt;stroke-linejoin:miter;stroke-opacity:1"
         d="M 0,0 0,1000 M 20,0 20,1000 M 40,0 40,1000 M 60,0 60,1000 M 80,0 80,1000 M 100,0 100,1000 M 120,0 120,1000 M 140,0 140,1000 M 160,0 160,1000 M 180,0 180,1000 M 200,0 200,1000 M 220,0 220,1000 M 240,0 240,1000 M 260,0 260,1000 M 280,0 280,1000 M 300,0 300,1000 M 320,0 320,1000 M 340,0 340,1000 M 360,0 360,1000 M 380,0 380,1000 M 400,0 400,1000 M 420,0 420,1000 M 440,0 440,1000 M 460,0 460,1000 M 480,0 480,1000 M 500,0 500,1000 M 520,0 520,1000 M 540,0 540,1000 M 560,0 560,1000 M 580,0 580,1000 M 600,0 600,1000 M 620,0 620,1000 M 640,0 640,1000 M 660,0 660,1000 M 680,0 680,1000 M 700,0 700,1000 M 720,0 720,1000 M 740,0 740,1000 M 760,0 760,1000 M 780,0 780,1000 M 800,0 800,1000 M 820,0 820,1000 M 840,0 840,1000 M 860,0 860,1000 M 880,0 880,1000 M 900,0 900,1000 M 920,0 920,1000 M 940,0 940,1000 M 960,0 960,1000 M 980,0 l 0,1000 m 20,-1000 0,1000 M 0,0 1000,0 M 0,20 1000,20 M 0,40 1000,40 M 0,60 1000,60 M 0,80 1000,80 M 0,100 1000,100 M 0,120 1000,120 M 0,140 1000,140 M 0,160 1000,160 M 0,180 1000,180 M 0,200 1000,200 M 0,220 1000,220 M 0,240 1000,240 M 0,260 1000,260 M 0,280 1000,280 M 0,300 1000,300 M 0,320 1000,320 M 0,340 1000,340 M 0,360 1000,360 M 0,380 1000,380 M 0,400 1000,400 M 0,420 1000,420 M 0,440 1000,440 M 0,460 1000,460 M 0,480 1000,480 M 0,500 1000,500 M 0,520 1000,520 M 0,540 1000,540 M 0,560 1000,560 M 0,580 1000,580 M 0,600 1000,600 M 0,620 1000,620 M 0,640 1000,640 M 0,660 1000,660 M 0,680 1000,680 M 0,700 1000,700 M 0,720 1000,720 M 0,740 1000,740 M 0,760 1000,760 M 0,780 1000,780 M 0,800 1000,800 M 0,820 1000,820 M 0,840 1000,840 M 0,860 1000,860 M 0,880 1000,880 M 0,900 1000,900 M 0,920 1000,920 M 0,940 1000,940 M 0,960 1000,960 M 0,980 l 1000,0 m -1000,20 1000,0" />
      <path
         inkscape:connector-curvature="0"
         id="path4117"
         style="fill:#0000ff;stroke:#0000ff;stroke-width:2pt;stroke-linecap:butt;stroke-linejoin:miter;stroke-opacity:1"
         d="M 0,0 0,1000 M 100,0 100,1000 M 200,0 200,1000 M 300,0 300,1000 M 400,0 400,1000 M 500,0 500,1000 M 600,0 600,1000 M 700,0 700,1000 M 800,0 800,1000 M 900,0 900,1000 M 1000,0 l 0,1000 M 0,0 1000,0 M 0,100 1000,100 M 0,200 1000,200 M 0,300 1000,300 M 0,400 1000,400 M 0,500 1000,500 M 0,600 1000,600 M 0,700 1000,700 M 0,800 1000,800 M 0,900 1000,900 M 0,1000 l 1000,0" />
      <path
         inkscape:connector-curvature="0"
         id="path4119"
         style="fill:#0000ff;stroke:#0000ff;stroke-width:5pt;stroke-linecap:butt;stroke-linejoin:miter;stroke-opacity:1"
         d="M 0,0 0,1000 M 500,0 500,1000 M 1000,0 l 0,1000 M 0,0 1000,0 M 0,500 1000,500 M 0,1000 l 1000,0" />
      <g
         id="g4121"
         transform="matrix(2,0,0,2,-370.92856,825.85713)"
         style="fill:#0000ff;stroke:#0000ff">
        <g
           id="g4123"
           transform="matrix(1.4285714,0,0,-1.4285714,-250,750)"
           xml:space="preserve"
           stroke-miterlimit="10.433"
           font-style="normal"
           font-variant="normal"
           font-weight="normal"
           font-stretch="normal"
           font-size-adjust="none"
           letter-spacing="normal"
           word-spacing="normal"
           style="font-style:normal;font-variant:normal;font-weight:normal;font-stretch:normal;letter-spacing:normal;word-spacing:normal;text-anchor:start;fill:#0000ff;stroke:#0000ff;stroke-linecap:butt;stroke-linejoin:miter;stroke-miterlimit:10.43299961;stroke-opacity:1;stroke-dasharray:none;stroke-dashoffset:0"><path
             d="m 469.88,445.14 0.03,0.11 0.03,0.11 0.02,0.11 0.03,0.1 0.03,0.09 0.03,0.1 0.04,0.08 0.04,0.08 0.04,0.08 0.04,0.07 0.05,0.07 0.06,0.06 0.06,0.06 0.07,0.06 0.07,0.05 0.09,0.05 0.09,0.04 0.1,0.04 0.11,0.04 0.12,0.03 0.07,0.02 0.06,0.01 0.07,0.01 0.08,0.02 0.07,0.01 0.08,0.01 0.08,0.01 0.09,0.01 0.09,0.01 0.09,0.01 0.1,0.01 0.1,0.01 0.1,0 0.11,0.01 0.11,0 0.11,0.01 0.12,0 0.12,0.01 0.13,0 0.13,0 0.13,0 0.14,0 0.15,0.01 0.14,0 c 1.08,0 1.43,0 1.43,0.76 0,0.03 -0.04,0.49 -0.6,0.49 -0.79,0 -1.73,-0.07 -2.58,-0.11 -0.87,-0.03 -1.9,-0.03 -2.78,-0.03 -0.73,0 -1.67,0.03 -2.4,0.03 -0.74,0 -1.57,0.11 -2.27,0.11 -0.2,0 -0.73,0 -0.73,-0.77 0,-0.48 0.42,-0.48 1.12,-0.48 0.03,0 0.69,0 1.31,-0.08 0.74,-0.06 0.82,-0.14 0.82,-0.49 0,-0.06 0,-0.23 -0.14,-0.76 l -4.64,-18.5 c -0.32,-1.19 -0.4,-1.47 -3.07,-1.47 -0.59,0 -1.04,0 -1.04,-0.74 0,-0.51 0.42,-0.51 1.04,-0.51 h 17.52 c 0.87,0 0.9,0.03 1.19,0.7 0.36,0.94 2.96,7.69 2.96,7.97 0,0.11 -0.07,0.5 -0.59,0.5 -0.42,0 -0.48,-0.19 -0.7,-0.73 -1.31,-3.32 -2.86,-7.19 -9.24,-7.19 h -3.93 c -1.08,0 -1.11,0.05 -1.11,0.36 0,0.03 0,0.2 0.14,0.72 z"
             id="path4125"
             inkscape:connector-curvature="0"
             style="fill:#0000ff;stroke:#0000ff;stroke-width:0" /><path
             d="m 515.15,434.54 0.69,0.71 c 1.5,1.5 3.14,3.18 6.53,3.43 0.54,0.05 1,0.05 1,0.96 0,0.39 -0.25,0.59 -0.66,0.59 -1.3,0 -2.73,-0.16 -4.08,-0.16 -1.64,0 -3.39,0.16 -4.98,0.16 -0.3,0 -0.95,0 -0.95,-0.95 0,-0.55 0.5,-0.6 0.75,-0.6 0.34,0 1.79,-0.09 1.79,-1.14 0,-0.86 -1.14,-2.14 -1.34,-2.39 l -11.56,-13.31 -5.49,14.8 c -0.3,0.7 -0.3,0.79 -0.3,0.84 0,1.2 2.44,1.2 2.94,1.2 0.71,0 1.21,0 1.21,1 0,0.55 -0.6,0.55 -0.75,0.55 -1.4,0 -4.88,-0.16 -6.29,-0.16 -1.23,0 -4.32,0.16 -5.57,0.16 -0.3,0 -0.94,0 -0.94,-1 0,-0.55 0.48,-0.55 1.14,-0.55 2.98,0 3.19,-0.45 3.64,-1.68 l 6.12,-16.41 c 0.05,-0.14 0.21,-0.69 0.21,-0.84 0,-0.14 -2,-8.18 -2.25,-9.07 -0.64,-2.73 -0.69,-2.89 -4.69,-2.93 -0.94,0 -1.34,0 -1.34,-1 0,-0.55 0.61,-0.55 0.7,-0.55 1.39,0 4.87,0.16 6.28,0.16 1.39,0 4.99,-0.16 6.38,-0.16 0.34,0 0.93,0 0.93,1 0,0.55 -0.43,0.55 -1.39,0.55 -0.09,0 -1.04,0 -1.89,0.09 -1.04,0.11 -1.34,0.2 -1.34,0.8 0,0.36 0.45,2.09 0.7,3.14 l 1.74,7.03 c 0.25,0.94 0.29,1.09 0.7,1.55 z"
             id="path4127"
             inkscape:connector-curvature="0"
             style="fill:#0000ff;stroke:#0000ff;stroke-width:0" /></g>      </g>
      <g
         id="g4129"
         transform="matrix(2,0,0,2,-1061.85,237.46922)"
         style="fill:#0000ff;stroke:#0000ff">
        <g
           word-spacing="normal"
           letter-spacing="normal"
           font-size-adjust="none"
           font-stretch="normal"
           font-weight="normal"
           font-variant="normal"
           font-style="normal"
           stroke-miterlimit="10.433"
           xml:space="preserve"
           transform="matrix(1.4285714,0,0,-1.4285714,-250,750)"
           id="g4131"
           style="font-style:normal;font-variant:normal;font-weight:normal;font-stretch:normal;letter-spacing:normal;word-spacing:normal;text-anchor:start;fill:#0000ff;stroke:#0000ff;stroke-linecap:butt;stroke-linejoin:miter;stroke-miterlimit:10.43299961;stroke-opacity:1;stroke-dasharray:none;stroke-dashoffset:0"><path
             id="path4133"
             d="m 469.88,445.14 0.03,0.11 0.03,0.11 0.02,0.11 0.03,0.1 0.03,0.09 0.03,0.1 0.04,0.08 0.04,0.08 0.04,0.08 0.04,0.07 0.05,0.07 0.06,0.06 0.06,0.06 0.07,0.06 0.07,0.05 0.09,0.05 0.09,0.04 0.1,0.04 0.11,0.04 0.12,0.03 0.07,0.02 0.06,0.01 0.07,0.01 0.08,0.02 0.07,0.01 0.08,0.01 0.08,0.01 0.09,0.01 0.09,0.01 0.09,0.01 0.1,0.01 0.1,0.01 0.1,0 0.11,0.01 0.11,0 0.11,0.01 0.12,0 0.12,0.01 0.13,0 0.13,0 0.13,0 0.14,0 0.15,0.01 0.14,0 c 1.08,0 1.43,0 1.43,0.76 0,0.03 -0.04,0.49 -0.6,0.49 -0.79,0 -1.73,-0.07 -2.58,-0.11 -0.87,-0.03 -1.9,-0.03 -2.78,-0.03 -0.73,0 -1.67,0.03 -2.4,0.03 -0.74,0 -1.57,0.11 -2.27,0.11 -0.2,0 -0.73,0 -0.73,-0.77 0,-0.48 0.42,-0.48 1.12,-0.48 0.03,0 0.69,0 1.31,-0.08 0.74,-0.06 0.82,-0.14 0.82,-0.49 0,-0.06 0,-0.23 -0.14,-0.76 l -4.64,-18.5 c -0.32,-1.19 -0.4,-1.47 -3.07,-1.47 -0.59,0 -1.04,0 -1.04,-0.74 0,-0.51 0.42,-0.51 1.04,-0.51 h 17.52 c 0.87,0 0.9,0.03 1.19,0.7 0.36,0.94 2.96,7.69 2.96,7.97 0,0.11 -0.07,0.5 -0.59,0.5 -0.42,0 -0.48,-0.19 -0.7,-0.73 -1.31,-3.32 -2.86,-7.19 -9.24,-7.19 h -3.93 c -1.08,0 -1.11,0.05 -1.11,0.36 0,0.03 0,0.2 0.14,0.72 z"
             inkscape:connector-curvature="0"
             style="fill:#0000ff;stroke:#0000ff;stroke-width:0" /><path
             id="path4135"
             d="m 509.55,426.68 -4.17,9.91 c -0.15,0.41 -0.25,0.59 -0.25,0.64 0,0.31 0.85,1.25 2.94,1.45 0.5,0.05 1,0.1 1,0.96 0,0.59 -0.61,0.59 -0.75,0.59 -2.05,0 -4.19,-0.16 -6.28,-0.16 -1.25,0 -4.33,0.16 -5.58,0.16 -0.3,0 -0.91,0 -0.91,-1 0,-0.55 0.5,-0.55 1.16,-0.55 2.99,0 3.28,-0.5 3.74,-1.59 l 5.87,-13.91 -10.52,-11.31 -0.64,-0.55 c -2.43,-2.64 -4.78,-3.43 -7.32,-3.57 -0.64,-0.05 -1.1,-0.05 -1.1,-1 0,-0.05 0,-0.55 0.66,-0.55 1.48,0 3.12,0.16 4.67,0.16 1.84,0 3.8,-0.16 5.58,-0.16 0.31,0 0.9,0 0.9,1 0,0.5 -0.5,0.55 -0.59,0.55 -0.45,0.04 -2,0.14 -2,1.54 0,0.8 0.75,1.6 1.34,2.24 l 5.08,5.39 4.49,4.87 5.03,-11.9 c 0.2,-0.55 0.25,-0.6 0.25,-0.71 0,-0.39 -0.94,-1.23 -2.89,-1.43 -0.55,-0.05 -0.99,-0.11 -0.99,-0.96 0,-0.59 0.55,-0.59 0.74,-0.59 1.4,0 4.89,0.16 6.28,0.16 1.25,0 4.28,-0.16 5.53,-0.16 0.34,0 0.95,0 0.95,0.95 0,0.6 -0.5,0.6 -0.9,0.6 -3.33,0.04 -3.44,0.2 -4.28,2.18 -1.94,4.64 -5.29,12.41 -6.43,15.39 3.39,3.5 8.61,9.43 10.21,10.82 1.45,1.2 3.34,2.39 6.33,2.54 0.65,0.05 1.09,0.05 1.09,1 0,0.05 0,0.55 -0.64,0.55 -1.5,0 -3.14,-0.16 -4.69,-0.16 -1.84,0 -3.73,0.16 -5.53,0.16 -0.3,0 -0.94,0 -0.94,-1 0,-0.34 0.25,-0.5 0.6,-0.55 0.45,-0.04 2,-0.15 2,-1.54 0,-0.71 -0.55,-1.35 -0.96,-1.8 z"
             inkscape:connector-curvature="0"
             style="fill:#0000ff;stroke:#0000ff;stroke-width:0" /></g>      </g>
    </g>
  </g>
  <g
     inkscape:groupmode="layer"
     id="g3701"
     inkscape:label="Red"
     style="display:inline"
     sodipodi:insensitive="true">
    <g
       id="g4098"
       transform="matrix(0.80289627,-0.59611877,0.59611877,0.80289627,200.49248,96.611255)">
      <path
         inkscape:connector-curvature="0"
         id="path3705"
         style="fill:none;stroke:#ff0000;stroke-width:0.5pt;stroke-linecap:butt;stroke-linejoin:miter;stroke-opacity:1"
         d="M 0,0 0,1000 M 20,0 20,1000 M 40,0 40,1000 M 60,0 60,1000 M 80,0 80,1000 M 100,0 100,1000 M 120,0 120,1000 M 140,0 140,1000 M 160,0 160,1000 M 180,0 180,1000 M 200,0 200,1000 M 220,0 220,1000 M 240,0 240,1000 M 260,0 260,1000 M 280,0 280,1000 M 300,0 300,1000 M 320,0 320,1000 M 340,0 340,1000 M 360,0 360,1000 M 380,0 380,1000 M 400,0 400,1000 M 420,0 420,1000 M 440,0 440,1000 M 460,0 460,1000 M 480,0 480,1000 M 500,0 500,1000 M 520,0 520,1000 M 540,0 540,1000 M 560,0 560,1000 M 580,0 580,1000 M 600,0 600,1000 M 620,0 620,1000 M 640,0 640,1000 M 660,0 660,1000 M 680,0 680,1000 M 700,0 700,1000 M 720,0 720,1000 M 740,0 740,1000 M 760,0 760,1000 M 780,0 780,1000 M 800,0 800,1000 M 820,0 820,1000 M 840,0 840,1000 M 860,0 860,1000 M 880,0 880,1000 M 900,0 900,1000 M 920,0 920,1000 M 940,0 940,1000 M 960,0 960,1000 M 980,0 l 0,1000 m 20,-1000 0,1000 M 0,0 1000,0 M 0,20 1000,20 M 0,40 1000,40 M 0,60 1000,60 M 0,80 1000,80 M 0,100 1000,100 M 0,120 1000,120 M 0,140 1000,140 M 0,160 1000,160 M 0,180 1000,180 M 0,200 1000,200 M 0,220 1000,220 M 0,240 1000,240 M 0,260 1000,260 M 0,280 1000,280 M 0,300 1000,300 M 0,320 1000,320 M 0,340 1000,340 M 0,360 1000,360 M 0,380 1000,380 M 0,400 1000,400 M 0,420 1000,420 M 0,440 1000,440 M 0,460 1000,460 M 0,480 1000,480 M 0,500 1000,500 M 0,520 1000,520 M 0,540 1000,540 M 0,560 1000,560 M 0,580 1000,580 M 0,600 1000,600 M 0,620 1000,620 M 0,640 1000,640 M 0,660 1000,660 M 0,680 1000,680 M 0,700 1000,700 M 0,720 1000,720 M 0,740 1000,740 M 0,760 1000,760 M 0,780 1000,780 M 0,800 1000,800 M 0,820 1000,820 M 0,840 1000,840 M 0,860 1000,860 M 0,880 1000,880 M 0,900 1000,900 M 0,920 1000,920 M 0,940 1000,940 M 0,960 1000,960 M 0,980 l 1000,0 m -1000,20 1000,0" />
      <path
         inkscape:connector-curvature="0"
         id="path3707"
         style="fill:none;stroke:#ff0000;stroke-width:2pt;stroke-linecap:butt;stroke-linejoin:miter;stroke-opacity:1"
         d="M 0,0 0,1000 M 100,0 100,1000 M 200,0 200,1000 M 300,0 300,1000 M 400,0 400,1000 M 500,0 500,1000 M 600,0 600,1000 M 700,0 700,1000 M 800,0 800,1000 M 900,0 900,1000 M 1000,0 l 0,1000 M 0,0 1000,0 M 0,100 1000,100 M 0,200 1000,200 M 0,300 1000,300 M 0,400 1000,400 M 0,500 1000,500 M 0,600 1000,600 M 0,700 1000,700 M 0,800 1000,800 M 0,900 1000,900 M 0,1000 l 1000,0" />
      <path
         inkscape:connector-curvature="0"
         id="path3709"
         style="fill:none;stroke:#ff0000;stroke-width:5pt;stroke-linecap:butt;stroke-linejoin:miter;stroke-opacity:1"
         d="M 0,0 0,1000 M 500,0 500,1000 M 1000,0 l 0,1000 M 0,0 1000,0 M 0,500 1000,500 M 0,1000 l 1000,0" />
      <g
         id="g3882"
         transform="matrix(2,0,0,2,229.52858,237.2857)"
         style="fill:#ff0000;stroke:#800000">
        <g
           word-spacing="normal"
           letter-spacing="normal"
           font-size-adjust="none"
           font-stretch="normal"
           font-weight="normal"
           font-variant="normal"
           font-style="normal"
           stroke-miterlimit="10.433"
           xml:space="preserve"
           transform="matrix(1.4285714,0,0,-1.4285714,-250,750)"
           id="content"
           style="font-style:normal;font-variant:normal;font-weight:normal;font-stretch:normal;letter-spacing:normal;word-spacing:normal;text-anchor:start;fill:#ff0000;stroke:#800000;stroke-linecap:butt;stroke-linejoin:miter;stroke-miterlimit:10.43299961;stroke-opacity:1;stroke-dasharray:none;stroke-dashoffset:0"><path
             id="path3885"
             d="m 476.22,436.04 0.39,0.1 0.38,0.11 0.38,0.11 0.38,0.12 0.37,0.13 0.36,0.14 0.36,0.15 0.35,0.15 0.35,0.16 0.33,0.17 0.33,0.18 0.32,0.18 0.31,0.19 0.3,0.2 0.28,0.2 0.28,0.21 0.26,0.22 0.25,0.22 0.24,0.23 0.23,0.23 0.21,0.24 0.19,0.25 0.18,0.25 0.16,0.25 0.15,0.26 0.12,0.27 0.11,0.27 0.09,0.27 0.08,0.28 0.05,0.28 0.03,0.29 0.01,0.29 c 0,2.98 -3.55,5.36 -8.59,5.36 h -10.71 c -0.65,0 -1.11,0 -1.11,-0.77 0,-0.48 0.41,-0.48 1.11,-0.48 0.04,0 0.71,0 1.33,-0.08 0.74,-0.06 0.8,-0.14 0.8,-0.49 0,-0.06 0,-0.23 -0.14,-0.76 l -4.64,-18.5 c -0.27,-1.19 -0.35,-1.47 -3.06,-1.47 -0.6,0 -1.05,0 -1.05,-0.74 0,-0.34 0.25,-0.51 0.56,-0.51 0.66,0 1.47,0.11 2.16,0.11 0.67,0 1.67,0.03 2.29,0.03 0.71,0 1.5,-0.03 2.24,-0.03 0.73,0 1.61,-0.11 2.34,-0.11 0.17,0 0.72,0 0.72,0.73 0,0.52 -0.34,0.52 -1.14,0.52 -0.56,0 -0.7,0 -1.33,0.08 -0.76,0.09 -0.76,0.17 -0.76,0.51 0,0.03 0,0.25 0.14,0.77 l 2.18,8.81 h 4.75 l 0.04,0.99 h -4.5 l 2.23,8.95 c 0.25,0.97 0.31,1.08 1.08,1.19 h 2.23 c 3.24,0 7.25,0 7.25,-3.6 0,-1.42 -0.67,-3.62 -2.29,-4.87 -1.44,-1.11 -3.6,-1.67 -6,-1.67 l -0.04,-0.99 c 3,0 4.29,-1.48 4.29,-3.12 0,-0.46 -0.32,-1.64 -0.49,-2.44 -0.42,-1.61 -0.56,-2.13 -0.56,-2.72 0,-2.75 2.55,-3.84 5.12,-3.84 3.21,0 4.6,3.42 4.6,4.04 0,0.11 -0.06,0.49 -0.6,0.49 -0.45,0 -0.51,-0.24 -0.62,-0.6 -0.49,-1.53 -1.77,-2.95 -3.24,-2.95 -0.9,0 -1.56,0.38 -1.56,2.27 0,0.87 0.21,2.68 0.35,3.62 0.14,0.94 0.14,1.28 0.14,1.64 0,0.41 0,1.53 -0.99,2.58 -0.65,0.72 -1.59,1.17 -2.36,1.45 z"
             inkscape:connector-curvature="0"
             style="fill:#ff0000;stroke:#800000;stroke-width:0" /><path
             id="path3887"
             d="m 512.44,426.68 -4.17,9.91 c -0.16,0.41 -0.25,0.59 -0.25,0.64 0,0.31 0.84,1.25 2.93,1.45 0.5,0.05 1,0.1 1,0.96 0,0.59 -0.61,0.59 -0.75,0.59 -2.04,0 -4.18,-0.16 -6.28,-0.16 -1.25,0 -4.33,0.16 -5.58,0.16 -0.29,0 -0.9,0 -0.9,-1 0,-0.55 0.5,-0.55 1.15,-0.55 2.99,0 3.29,-0.5 3.74,-1.59 l 5.87,-13.91 -10.51,-11.31 -0.64,-0.55 c -2.44,-2.64 -4.78,-3.43 -7.33,-3.57 -0.64,-0.05 -1.1,-0.05 -1.1,-1 0,-0.05 0,-0.55 0.66,-0.55 1.49,0 3.13,0.16 4.67,0.16 1.85,0 3.8,-0.16 5.58,-0.16 0.31,0 0.91,0 0.91,1 0,0.5 -0.5,0.55 -0.6,0.55 -0.45,0.04 -2,0.14 -2,1.54 0,0.8 0.75,1.6 1.35,2.24 l 5.08,5.39 4.48,4.87 5.03,-11.9 c 0.2,-0.55 0.25,-0.6 0.25,-0.71 0,-0.39 -0.94,-1.23 -2.89,-1.43 -0.55,-0.05 -0.98,-0.11 -0.98,-0.96 0,-0.59 0.54,-0.59 0.73,-0.59 1.41,0 4.89,0.16 6.28,0.16 1.25,0 4.28,-0.16 5.53,-0.16 0.35,0 0.96,0 0.96,0.95 0,0.6 -0.5,0.6 -0.91,0.6 -3.33,0.04 -3.44,0.2 -4.28,2.18 -1.94,4.64 -5.28,12.41 -6.42,15.39 3.39,3.5 8.61,9.43 10.2,10.82 1.45,1.2 3.34,2.39 6.33,2.54 0.65,0.05 1.09,0.05 1.09,1 0,0.05 0,0.55 -0.64,0.55 -1.5,0 -3.14,-0.16 -4.69,-0.16 -1.84,0 -3.73,0.16 -5.53,0.16 -0.29,0 -0.93,0 -0.93,-1 0,-0.34 0.24,-0.5 0.59,-0.55 0.45,-0.04 2,-0.15 2,-1.54 0,-0.71 -0.55,-1.35 -0.95,-1.8 z"
             inkscape:connector-curvature="0"
             style="fill:#ff0000;stroke:#800000;stroke-width:0" /></g>      </g>
      <g
         style="fill:#ff0000;stroke:#ff0000"
         transform="matrix(2,0,0,2,-378.74285,-374.14287)"
         id="g3926">
        <g
           style="font-style:normal;font-variant:normal;font-weight:normal;font-stretch:normal;letter-spacing:normal;word-spacing:normal;text-anchor:start;fill:#ff0000;stroke:#ff0000;stroke-linecap:butt;stroke-linejoin:miter;stroke-miterlimit:10.43299961;stroke-opacity:1;stroke-dasharray:none;stroke-dashoffset:0"
           id="g3928"
           transform="matrix(1.4285714,0,0,-1.4285714,-250,750)"
           xml:space="preserve"
           stroke-miterlimit="10.433"
           font-style="normal"
           font-variant="normal"
           font-weight="normal"
           font-stretch="normal"
           font-size-adjust="none"
           letter-spacing="normal"
           word-spacing="normal"><path
             style="fill:#ff0000;stroke:#ff0000;stroke-width:0"
             inkscape:connector-curvature="0"
             d="m 476.22,436.04 0.39,0.1 0.38,0.11 0.38,0.11 0.38,0.12 0.37,0.13 0.36,0.14 0.36,0.15 0.35,0.15 0.35,0.16 0.33,0.17 0.33,0.18 0.32,0.18 0.31,0.19 0.3,0.2 0.28,0.2 0.28,0.21 0.26,0.22 0.25,0.22 0.24,0.23 0.23,0.23 0.21,0.24 0.19,0.25 0.18,0.25 0.16,0.25 0.15,0.26 0.12,0.27 0.11,0.27 0.09,0.27 0.08,0.28 0.05,0.28 0.03,0.29 0.01,0.29 c 0,2.98 -3.55,5.36 -8.59,5.36 h -10.71 c -0.65,0 -1.11,0 -1.11,-0.77 0,-0.48 0.41,-0.48 1.11,-0.48 0.04,0 0.71,0 1.33,-0.08 0.74,-0.06 0.8,-0.14 0.8,-0.49 0,-0.06 0,-0.23 -0.14,-0.76 l -4.64,-18.5 c -0.27,-1.19 -0.35,-1.47 -3.06,-1.47 -0.6,0 -1.05,0 -1.05,-0.74 0,-0.34 0.25,-0.51 0.56,-0.51 0.66,0 1.47,0.11 2.16,0.11 0.67,0 1.67,0.03 2.29,0.03 0.71,0 1.5,-0.03 2.24,-0.03 0.73,0 1.61,-0.11 2.34,-0.11 0.17,0 0.72,0 0.72,0.73 0,0.52 -0.34,0.52 -1.14,0.52 -0.56,0 -0.7,0 -1.33,0.08 -0.76,0.09 -0.76,0.17 -0.76,0.51 0,0.03 0,0.25 0.14,0.77 l 2.18,8.81 h 4.75 l 0.04,0.99 h -4.5 l 2.23,8.95 c 0.25,0.97 0.31,1.08 1.08,1.19 h 2.23 c 3.24,0 7.25,0 7.25,-3.6 0,-1.42 -0.67,-3.62 -2.29,-4.87 -1.44,-1.11 -3.6,-1.67 -6,-1.67 l -0.04,-0.99 c 3,0 4.29,-1.48 4.29,-3.12 0,-0.46 -0.32,-1.64 -0.49,-2.44 -0.42,-1.61 -0.56,-2.13 -0.56,-2.72 0,-2.75 2.55,-3.84 5.12,-3.84 3.21,0 4.6,3.42 4.6,4.04 0,0.11 -0.06,0.49 -0.6,0.49 -0.45,0 -0.51,-0.24 -0.62,-0.6 -0.49,-1.53 -1.77,-2.95 -3.24,-2.95 -0.9,0 -1.56,0.38 -1.56,2.27 0,0.87 0.21,2.68 0.35,3.62 0.14,0.94 0.14,1.28 0.14,1.64 0,0.41 0,1.53 -0.99,2.58 -0.65,0.72 -1.59,1.17 -2.36,1.45 z"
             id="path3930" /><path
             style="fill:#ff0000;stroke:#ff0000;stroke-width:0"
             inkscape:connector-curvature="0"
             d="m 518.03,434.54 0.69,0.71 c 1.5,1.5 3.14,3.18 6.53,3.43 0.55,0.05 1,0.05 1,0.96 0,0.39 -0.25,0.59 -0.66,0.59 -1.29,0 -2.73,-0.16 -4.07,-0.16 -1.64,0 -3.4,0.16 -4.99,0.16 -0.3,0 -0.95,0 -0.95,-0.95 0,-0.55 0.5,-0.6 0.75,-0.6 0.34,0 1.79,-0.09 1.79,-1.14 0,-0.86 -1.14,-2.14 -1.34,-2.39 l -11.56,-13.31 -5.49,14.8 c -0.29,0.7 -0.29,0.79 -0.29,0.84 0,1.2 2.44,1.2 2.94,1.2 0.7,0 1.2,0 1.2,1 0,0.55 -0.6,0.55 -0.75,0.55 -1.39,0 -4.88,-0.16 -6.28,-0.16 -1.24,0 -4.33,0.16 -5.58,0.16 -0.3,0 -0.94,0 -0.94,-1 0,-0.55 0.49,-0.55 1.14,-0.55 2.99,0 3.19,-0.45 3.64,-1.68 l 6.13,-16.41 c 0.04,-0.14 0.2,-0.69 0.2,-0.84 0,-0.14 -2,-8.18 -2.25,-9.07 -0.64,-2.73 -0.69,-2.89 -4.69,-2.93 -0.93,0 -1.34,0 -1.34,-1 0,-0.55 0.61,-0.55 0.7,-0.55 1.39,0 4.88,0.16 6.28,0.16 1.39,0 4.99,-0.16 6.38,-0.16 0.34,0 0.94,0 0.94,1 0,0.55 -0.44,0.55 -1.39,0.55 -0.1,0 -1.05,0 -1.89,0.09 -1.05,0.11 -1.35,0.2 -1.35,0.8 0,0.36 0.45,2.09 0.7,3.14 l 1.74,7.03 c 0.25,0.94 0.3,1.09 0.7,1.55 z"
             id="path3932" /></g>      </g>
    </g>
  </g>
</svg>
